M48
; DRILL file {KiCad 9.0.7} date 2026-03-29T12:04:56+0500
; FORMAT={-:-/ absolute / metric / decimal}
; #@! TF.CreationDate,2026-03-29T12:04:56+05:00
; #@! TF.GenerationSoftware,Kicad,Pcbnew,9.0.7
; #@! TF.FileFunction,Plated,1,2,PTH
FMAT,2
METRIC
; #@! TA.AperFunction,Plated,PTH,ViaDrill
T1C0.300
; #@! TA.AperFunction,Plated,PTH,ComponentDrill
T2C0.600
; #@! TA.AperFunction,Plated,PTH,ComponentDrill
T3C0.800
; #@! TA.AperFunction,Plated,PTH,ComponentDrill
T4C1.000
%
G90
G05
T1
X89.154Y-49.53
X89.281Y-68.267
X89.349Y-62.542
X90.424Y-51.562
X90.424Y-58.42
X90.424Y-60.96
X90.424Y-71.882
X90.678Y-66.548
X91.948Y-76.962
X91.948Y-103.124
X92.202Y-86.36
X92.202Y-89.408
X92.202Y-94.742
X92.329Y-71.12
X93.345Y-90.765
X93.636Y-71.085
X94.234Y-92.71
X94.488Y-95.758
X94.936Y-71.085
X95.25Y-76.835
X95.25Y-79.248
X95.25Y-82.042
X95.758Y-97.028
X95.758Y-99.314
X96.012Y-45.466
X96.012Y-46.482
X97.282Y-66.548
X97.282Y-69.85
X97.79Y-76.844
X97.79Y-86.614
X97.79Y-89.154
X97.79Y-91.948
X97.79Y-94.742
X98.044Y-73.406
X98.044Y-99.314
X98.044Y-102.616
X98.578Y-83.031
X98.679Y-76.844
X98.806Y-61.468
X98.806Y-63.5
X99.568Y-76.844
X100.33Y-89.154
X100.33Y-94.742
X100.457Y-76.844
X100.457Y-80.391
X100.457Y-83.058
X100.584Y-86.741
X100.838Y-71.882
X100.838Y-101.346
X101.346Y-76.844
X102.235Y-76.844
X102.362Y-98.171
X102.489Y-62.542
X102.489Y-68.267
X102.87Y-77.47
X102.87Y-83.058
X102.87Y-89.154
X102.87Y-91.948
X102.87Y-94.742
X103.124Y-63.5
X103.632Y-101.346
X103.759Y-76.844
X103.886Y-58.928
X103.886Y-66.548
X104.521Y-89.256
X104.648Y-76.844
X105.029Y-87.376
X105.41Y-52.07
X105.41Y-90.17
X105.41Y-94.742
X105.664Y-77.47
X105.664Y-98.298
X105.791Y-83.058
X106.68Y-76.844
X106.934Y-100.33
X107.263Y-56.388
X107.95Y-57.023
X108.585Y-57.658
X108.712Y-86.106
X109.22Y-58.293
X109.22Y-100.33
X109.347Y-91.643
X109.601Y-79.883
X109.855Y-58.928
X109.982Y-90.932
X110.236Y-66.548
X110.49Y-51.562
X110.49Y-59.563
X110.49Y-80.391
X110.617Y-87.376
X110.617Y-93.965
X110.617Y-96.52
X110.998Y-69.85
X110.998Y-98.298
X111.252Y-86.741
X111.252Y-90.17
X111.379Y-80.899
X111.76Y-60.452
X111.76Y-94.742
X112.014Y-83.058
X112.268Y-81.407
X112.522Y-90.932
X112.522Y-93.218
X113.157Y-81.915
X113.284Y-95.377
X113.538Y-63.5
X114.554Y-69.85
X114.808Y-60.452
X114.935Y-91.44
X114.935Y-93.98
X115.697Y-96.647
X116.205Y-62.542
X116.205Y-68.267
X116.332Y-87.122
X116.332Y-98.298
X116.332Y-100.33
X116.84Y-63.5
X116.84Y-66.548
X116.84Y-75.692
X117.221Y-96.012
X117.46Y-82.057
X117.602Y-60.452
X118.11Y-51.562
X118.364Y-77.47
X118.618Y-96.774
X118.872Y-75.438
X118.872Y-87.122
X118.872Y-89.535
X119.634Y-74.93
X119.634Y-102.616
X120.396Y-74.422
X121.158Y-73.914
X121.158Y-93.472
X121.158Y-101.473
X121.61Y-60.198
X121.92Y-73.406
X122.174Y-100.33
X122.301Y-60.833
X122.428Y-69.85
X122.682Y-96.012
X123.19Y-73.914
X123.444Y-66.548
X123.444Y-95.377
X123.698Y-96.774
X124.333Y-88.392
X124.46Y-86.36
X124.714Y-102.616
X125.476Y-69.85
X125.476Y-73.914
X125.603Y-86.36
X125.603Y-93.472
X125.73Y-51.562
X125.857Y-61.595
X125.857Y-63.5
X125.984Y-77.47
X126.492Y-96.774
X126.492Y-100.33
X127.0Y-73.406
X127.762Y-100.838
X128.143Y-74.295
X128.27Y-61.595
X128.27Y-63.5
X128.27Y-66.548
X129.667Y-83.058
X129.794Y-62.542
X129.794Y-68.267
X130.048Y-89.154
X130.048Y-91.948
X130.048Y-95.25
X130.048Y-100.33
X130.048Y-102.616
X130.048Y-104.648
X130.302Y-83.82
X130.937Y-60.198
X130.937Y-84.582
X131.318Y-70.104
X131.318Y-74.295
X131.445Y-98.552
X131.572Y-60.833
X131.572Y-64.135
X131.572Y-66.548
X131.572Y-85.344
X132.08Y-77.47
X132.207Y-86.106
X132.334Y-60.198
X132.842Y-73.406
X132.842Y-86.868
X133.477Y-87.63
X133.604Y-95.25
X134.112Y-79.756
X134.112Y-101.448
X134.62Y-89.154
X134.62Y-91.948
X134.874Y-60.96
X135.128Y-77.47
X135.382Y-94.869
X135.636Y-64.135
X135.636Y-66.548
X135.89Y-52.07
X136.144Y-98.552
X136.398Y-77.47
X136.652Y-94.361
X136.779Y-100.076
X136.906Y-81.026
X137.033Y-74.295
X137.287Y-93.726
X137.668Y-57.023
X137.795Y-70.104
X137.795Y-100.076
X137.922Y-93.091
X137.922Y-98.552
X138.43Y-51.562
X138.43Y-57.658
X138.557Y-92.456
X138.684Y-77.47
X138.811Y-100.076
X138.938Y-60.96
X138.938Y-64.135
X138.938Y-66.548
X139.192Y-58.293
X139.192Y-91.821
X139.7Y-102.362
X139.954Y-58.928
X139.954Y-98.552
X140.081Y-74.295
X140.335Y-87.376
X140.335Y-88.265
X140.335Y-89.154
X140.462Y-70.104
X140.462Y-93.218
X140.716Y-59.563
X140.97Y-71.12
X141.097Y-82.042
X141.097Y-84.836
X141.351Y-77.47
X141.478Y-100.33
X141.986Y-74.295
X141.986Y-89.408
X142.113Y-95.25
X142.24Y-51.562
X142.875Y-92.075
X142.875Y-98.552
X143.51Y-62.542
X143.51Y-68.267
X143.51Y-92.71
X143.51Y-102.362
X143.764Y-66.548
X144.018Y-63.627
X144.145Y-93.345
X144.526Y-101.448
X144.78Y-51.562
X144.78Y-58.928
X144.78Y-93.98
X144.907Y-77.47
X145.415Y-71.374
X145.415Y-74.295
X145.415Y-82.55
X145.923Y-72.39
X146.05Y-66.548
X146.05Y-81.788
X146.177Y-98.552
X146.685Y-88.9
X146.685Y-89.916
X146.685Y-95.25
X146.939Y-59.69
X147.066Y-64.16
X147.32Y-51.562
X147.32Y-91.186
X147.574Y-58.928
X147.615Y-66.374
X148.082Y-99.568
X148.209Y-70.104
X148.209Y-74.295
X148.265Y-65.588
X148.272Y-59.627
X148.915Y-71.374
X148.971Y-58.928
X149.479Y-64.16
X149.565Y-59.604
X149.565Y-70.104
X149.86Y-51.562
X149.86Y-101.346
X150.241Y-58.928
X150.241Y-71.374
X150.368Y-85.09
X150.368Y-88.798
X150.865Y-70.104
X150.876Y-59.563
X151.511Y-58.928
X151.511Y-71.374
X152.146Y-70.104
X152.146Y-72.136
X152.146Y-95.504
X152.4Y-51.562
X152.4Y-83.058
X152.4Y-85.344
X152.4Y-90.932
X152.654Y-60.96
X153.289Y-63.373
X153.416Y-67.31
X153.543Y-78.105
X153.543Y-88.646
X153.924Y-97.282
X154.686Y-74.168
X154.686Y-86.36
X154.686Y-90.932
X154.94Y-51.562
X155.956Y-58.928
X156.464Y-63.373
X157.226Y-62.542
X157.226Y-68.267
X157.48Y-51.562
X158.242Y-95.758
X158.496Y-71.882
X158.496Y-75.438
X158.496Y-86.36
X158.496Y-89.535
X158.496Y-93.218
X159.004Y-95.758
X159.766Y-76.835
X159.766Y-77.597
X159.766Y-78.359
X159.766Y-85.598
X159.766Y-86.36
X159.766Y-87.122
X159.766Y-95.758
X160.528Y-95.758
X161.036Y-72.644
X161.036Y-76.835
X161.036Y-87.122
X161.925Y-66.675
X162.56Y-99.822
X163.068Y-74.422
X163.246Y-66.675
X163.576Y-70.104
X164.084Y-90.17
X165.1Y-51.562
X165.354Y-72.136
X166.37Y-56.388
X167.132Y-62.738
X167.132Y-68.326
T3
X117.602Y-86.36
X117.602Y-91.24
T4
X91.44Y-49.022
X91.44Y-54.102
X93.98Y-49.022
X93.98Y-54.102
X96.52Y-49.022
X96.52Y-54.102
X97.155Y-104.267
X99.06Y-49.022
X99.06Y-54.102
X99.695Y-104.267
X101.6Y-49.022
X101.6Y-54.102
X103.632Y-104.267
X104.14Y-49.022
X104.14Y-54.102
X106.172Y-104.267
X106.68Y-49.022
X106.68Y-54.102
X108.712Y-104.267
X109.22Y-49.022
X109.22Y-54.102
X111.252Y-104.267
X111.76Y-49.022
X111.76Y-54.102
X113.792Y-104.267
X114.3Y-49.022
X114.3Y-54.102
X116.332Y-104.267
X116.84Y-49.022
X116.84Y-54.102
X119.38Y-49.022
X119.38Y-54.102
X121.92Y-49.022
X121.92Y-54.102
X124.46Y-49.022
X124.46Y-54.102
X127.0Y-49.022
X127.0Y-54.102
X129.54Y-49.022
X129.54Y-54.102
X131.953Y-104.267
X132.08Y-49.022
X132.08Y-54.102
X134.493Y-104.267
X134.62Y-49.022
X134.62Y-54.102
X137.033Y-104.267
X137.16Y-49.022
X137.16Y-54.102
X139.573Y-104.267
X139.7Y-49.022
X139.7Y-54.102
X142.113Y-104.267
X142.24Y-49.022
X142.24Y-54.102
X144.653Y-104.267
X144.78Y-49.022
X144.78Y-54.102
X147.32Y-49.022
X147.32Y-54.102
X149.86Y-49.022
X149.86Y-54.102
X152.4Y-49.022
X152.4Y-54.102
X154.94Y-49.022
X154.94Y-54.102
X157.48Y-49.022
X157.48Y-54.102
X160.02Y-49.022
X160.02Y-54.102
X162.56Y-49.022
X162.56Y-54.102
X165.1Y-49.022
X165.1Y-54.102
T2
X163.385Y-77.694G85X162.285Y-77.694
G05
X163.385Y-86.334G85X162.285Y-86.334
G05
X167.405Y-77.694G85X166.605Y-77.694
G05
X167.405Y-86.334G85X166.605Y-86.334
G05
M30
