%TF.GenerationSoftware,KiCad,Pcbnew,9.0.7*%
%TF.CreationDate,2026-03-29T12:04:56+05:00*%
%TF.ProjectId,STM32-Dumper,53544d33-322d-4447-956d-7065722e6b69,rev?*%
%TF.SameCoordinates,Original*%
%TF.FileFunction,Drillmap*%
%TF.FilePolarity,Positive*%
%FSLAX45Y45*%
G04 Gerber Fmt 4.5, Leading zero omitted, Abs format (unit mm)*
G04 Created by KiCad (PCBNEW 9.0.7) date 2026-03-29 12:04:56*
%MOMM*%
%LPD*%
G01*
G04 APERTURE LIST*
%ADD10C,0.100000*%
%ADD11C,0.200000*%
G04 APERTURE END LIST*
D10*
X9256681Y-4095996D02*
X9345809Y-4182231D01*
X16371919Y-10864604D02*
X16282791Y-10778369D01*
X9256681Y-10864604D02*
X9345809Y-10778369D01*
X16751300Y-4318000D02*
G75*
G02*
X16446500Y-4318000I-152400J0D01*
G01*
X16446500Y-4318000D02*
G75*
G02*
X16751300Y-4318000I152400J0D01*
G01*
X8712200Y-10642600D02*
X8712200Y-4318000D01*
X9458960Y-4229100D02*
X16169640Y-4229100D01*
X16598900Y-10960100D02*
G75*
G02*
X16371919Y-10864604I0J317500D01*
G01*
X9029700Y-10960100D02*
G75*
G02*
X8712200Y-10642600I0J317500D01*
G01*
X9182100Y-10642600D02*
G75*
G02*
X8877300Y-10642600I-152400J0D01*
G01*
X8877300Y-10642600D02*
G75*
G02*
X9182100Y-10642600I152400J0D01*
G01*
X9256681Y-10864604D02*
G75*
G02*
X9029700Y-10960100I-226981J222004D01*
G01*
X16371919Y-4095996D02*
G75*
G02*
X16598900Y-4000500I226981J-222004D01*
G01*
X16916400Y-4318000D02*
X16916400Y-10642600D01*
X8712200Y-4318000D02*
G75*
G02*
X9029700Y-4000500I317500J0D01*
G01*
X16169640Y-10731500D02*
X9458960Y-10731500D01*
X16169640Y-10731500D02*
G75*
G02*
X16282791Y-10778369I0J-160020D01*
G01*
X16751300Y-10642600D02*
G75*
G02*
X16446500Y-10642600I-152400J0D01*
G01*
X16446500Y-10642600D02*
G75*
G02*
X16751300Y-10642600I152400J0D01*
G01*
X9345809Y-10778369D02*
G75*
G02*
X9458960Y-10731500I113151J-113151D01*
G01*
X9029700Y-4000500D02*
G75*
G02*
X9256681Y-4095996I0J-317500D01*
G01*
X16916400Y-10642600D02*
G75*
G02*
X16598900Y-10960100I-317500J0D01*
G01*
X16282791Y-4182231D02*
G75*
G02*
X16169640Y-4229100I-113151J113151D01*
G01*
X16598900Y-4000500D02*
G75*
G02*
X16916400Y-4318000I0J-317500D01*
G01*
X9182100Y-4318000D02*
G75*
G02*
X8877300Y-4318000I-152400J0D01*
G01*
X8877300Y-4318000D02*
G75*
G02*
X9182100Y-4318000I152400J0D01*
G01*
X9458960Y-4229100D02*
G75*
G02*
X9345809Y-4182231I0J160020D01*
G01*
X16371919Y-4095996D02*
X16282791Y-4182231D01*
D11*
D10*
X16301500Y-7882400D02*
X16361500Y-7942400D01*
X16361500Y-7882400D02*
X16301500Y-7942400D01*
X16301500Y-8460400D02*
X16361500Y-8520400D01*
X16361500Y-8460400D02*
X16301500Y-8520400D01*
D11*
X8967977Y-11276584D02*
X8967977Y-11076584D01*
X8967977Y-11076584D02*
X9015596Y-11076584D01*
X9015596Y-11076584D02*
X9044167Y-11086108D01*
X9044167Y-11086108D02*
X9063215Y-11105155D01*
X9063215Y-11105155D02*
X9072739Y-11124203D01*
X9072739Y-11124203D02*
X9082263Y-11162298D01*
X9082263Y-11162298D02*
X9082263Y-11190869D01*
X9082263Y-11190869D02*
X9072739Y-11228965D01*
X9072739Y-11228965D02*
X9063215Y-11248012D01*
X9063215Y-11248012D02*
X9044167Y-11267060D01*
X9044167Y-11267060D02*
X9015596Y-11276584D01*
X9015596Y-11276584D02*
X8967977Y-11276584D01*
X9167977Y-11276584D02*
X9167977Y-11143250D01*
X9167977Y-11181346D02*
X9177501Y-11162298D01*
X9177501Y-11162298D02*
X9187024Y-11152774D01*
X9187024Y-11152774D02*
X9206072Y-11143250D01*
X9206072Y-11143250D02*
X9225120Y-11143250D01*
X9291786Y-11276584D02*
X9291786Y-11143250D01*
X9291786Y-11076584D02*
X9282263Y-11086108D01*
X9282263Y-11086108D02*
X9291786Y-11095631D01*
X9291786Y-11095631D02*
X9301310Y-11086108D01*
X9301310Y-11086108D02*
X9291786Y-11076584D01*
X9291786Y-11076584D02*
X9291786Y-11095631D01*
X9415596Y-11276584D02*
X9396548Y-11267060D01*
X9396548Y-11267060D02*
X9387024Y-11248012D01*
X9387024Y-11248012D02*
X9387024Y-11076584D01*
X9520358Y-11276584D02*
X9501310Y-11267060D01*
X9501310Y-11267060D02*
X9491786Y-11248012D01*
X9491786Y-11248012D02*
X9491786Y-11076584D01*
X9748929Y-11276584D02*
X9748929Y-11076584D01*
X9748929Y-11076584D02*
X9815596Y-11219441D01*
X9815596Y-11219441D02*
X9882263Y-11076584D01*
X9882263Y-11076584D02*
X9882263Y-11276584D01*
X10063215Y-11276584D02*
X10063215Y-11171822D01*
X10063215Y-11171822D02*
X10053691Y-11152774D01*
X10053691Y-11152774D02*
X10034644Y-11143250D01*
X10034644Y-11143250D02*
X9996548Y-11143250D01*
X9996548Y-11143250D02*
X9977501Y-11152774D01*
X10063215Y-11267060D02*
X10044167Y-11276584D01*
X10044167Y-11276584D02*
X9996548Y-11276584D01*
X9996548Y-11276584D02*
X9977501Y-11267060D01*
X9977501Y-11267060D02*
X9967977Y-11248012D01*
X9967977Y-11248012D02*
X9967977Y-11228965D01*
X9967977Y-11228965D02*
X9977501Y-11209917D01*
X9977501Y-11209917D02*
X9996548Y-11200393D01*
X9996548Y-11200393D02*
X10044167Y-11200393D01*
X10044167Y-11200393D02*
X10063215Y-11190869D01*
X10158453Y-11143250D02*
X10158453Y-11343250D01*
X10158453Y-11152774D02*
X10177501Y-11143250D01*
X10177501Y-11143250D02*
X10215596Y-11143250D01*
X10215596Y-11143250D02*
X10234644Y-11152774D01*
X10234644Y-11152774D02*
X10244167Y-11162298D01*
X10244167Y-11162298D02*
X10253691Y-11181346D01*
X10253691Y-11181346D02*
X10253691Y-11238488D01*
X10253691Y-11238488D02*
X10244167Y-11257536D01*
X10244167Y-11257536D02*
X10234644Y-11267060D01*
X10234644Y-11267060D02*
X10215596Y-11276584D01*
X10215596Y-11276584D02*
X10177501Y-11276584D01*
X10177501Y-11276584D02*
X10158453Y-11267060D01*
X10339405Y-11257536D02*
X10348929Y-11267060D01*
X10348929Y-11267060D02*
X10339405Y-11276584D01*
X10339405Y-11276584D02*
X10329882Y-11267060D01*
X10329882Y-11267060D02*
X10339405Y-11257536D01*
X10339405Y-11257536D02*
X10339405Y-11276584D01*
X10339405Y-11152774D02*
X10348929Y-11162298D01*
X10348929Y-11162298D02*
X10339405Y-11171822D01*
X10339405Y-11171822D02*
X10329882Y-11162298D01*
X10329882Y-11162298D02*
X10339405Y-11152774D01*
X10339405Y-11152774D02*
X10339405Y-11171822D01*
D10*
X8647200Y-11575100D02*
X8707200Y-11635100D01*
X8707200Y-11575100D02*
X8647200Y-11635100D01*
D11*
X9006072Y-11496584D02*
X9025120Y-11496584D01*
X9025120Y-11496584D02*
X9044167Y-11506108D01*
X9044167Y-11506108D02*
X9053691Y-11515631D01*
X9053691Y-11515631D02*
X9063215Y-11534679D01*
X9063215Y-11534679D02*
X9072739Y-11572774D01*
X9072739Y-11572774D02*
X9072739Y-11620393D01*
X9072739Y-11620393D02*
X9063215Y-11658488D01*
X9063215Y-11658488D02*
X9053691Y-11677536D01*
X9053691Y-11677536D02*
X9044167Y-11687060D01*
X9044167Y-11687060D02*
X9025120Y-11696584D01*
X9025120Y-11696584D02*
X9006072Y-11696584D01*
X9006072Y-11696584D02*
X8987024Y-11687060D01*
X8987024Y-11687060D02*
X8977501Y-11677536D01*
X8977501Y-11677536D02*
X8967977Y-11658488D01*
X8967977Y-11658488D02*
X8958453Y-11620393D01*
X8958453Y-11620393D02*
X8958453Y-11572774D01*
X8958453Y-11572774D02*
X8967977Y-11534679D01*
X8967977Y-11534679D02*
X8977501Y-11515631D01*
X8977501Y-11515631D02*
X8987024Y-11506108D01*
X8987024Y-11506108D02*
X9006072Y-11496584D01*
X9158453Y-11677536D02*
X9167977Y-11687060D01*
X9167977Y-11687060D02*
X9158453Y-11696584D01*
X9158453Y-11696584D02*
X9148929Y-11687060D01*
X9148929Y-11687060D02*
X9158453Y-11677536D01*
X9158453Y-11677536D02*
X9158453Y-11696584D01*
X9339405Y-11496584D02*
X9301310Y-11496584D01*
X9301310Y-11496584D02*
X9282263Y-11506108D01*
X9282263Y-11506108D02*
X9272739Y-11515631D01*
X9272739Y-11515631D02*
X9253691Y-11544203D01*
X9253691Y-11544203D02*
X9244167Y-11582298D01*
X9244167Y-11582298D02*
X9244167Y-11658488D01*
X9244167Y-11658488D02*
X9253691Y-11677536D01*
X9253691Y-11677536D02*
X9263215Y-11687060D01*
X9263215Y-11687060D02*
X9282263Y-11696584D01*
X9282263Y-11696584D02*
X9320358Y-11696584D01*
X9320358Y-11696584D02*
X9339405Y-11687060D01*
X9339405Y-11687060D02*
X9348929Y-11677536D01*
X9348929Y-11677536D02*
X9358453Y-11658488D01*
X9358453Y-11658488D02*
X9358453Y-11610869D01*
X9358453Y-11610869D02*
X9348929Y-11591822D01*
X9348929Y-11591822D02*
X9339405Y-11582298D01*
X9339405Y-11582298D02*
X9320358Y-11572774D01*
X9320358Y-11572774D02*
X9282263Y-11572774D01*
X9282263Y-11572774D02*
X9263215Y-11582298D01*
X9263215Y-11582298D02*
X9253691Y-11591822D01*
X9253691Y-11591822D02*
X9244167Y-11610869D01*
X9482263Y-11496584D02*
X9501310Y-11496584D01*
X9501310Y-11496584D02*
X9520358Y-11506108D01*
X9520358Y-11506108D02*
X9529882Y-11515631D01*
X9529882Y-11515631D02*
X9539405Y-11534679D01*
X9539405Y-11534679D02*
X9548929Y-11572774D01*
X9548929Y-11572774D02*
X9548929Y-11620393D01*
X9548929Y-11620393D02*
X9539405Y-11658488D01*
X9539405Y-11658488D02*
X9529882Y-11677536D01*
X9529882Y-11677536D02*
X9520358Y-11687060D01*
X9520358Y-11687060D02*
X9501310Y-11696584D01*
X9501310Y-11696584D02*
X9482263Y-11696584D01*
X9482263Y-11696584D02*
X9463215Y-11687060D01*
X9463215Y-11687060D02*
X9453691Y-11677536D01*
X9453691Y-11677536D02*
X9444167Y-11658488D01*
X9444167Y-11658488D02*
X9434644Y-11620393D01*
X9434644Y-11620393D02*
X9434644Y-11572774D01*
X9434644Y-11572774D02*
X9444167Y-11534679D01*
X9444167Y-11534679D02*
X9453691Y-11515631D01*
X9453691Y-11515631D02*
X9463215Y-11506108D01*
X9463215Y-11506108D02*
X9482263Y-11496584D01*
X9672739Y-11496584D02*
X9691786Y-11496584D01*
X9691786Y-11496584D02*
X9710834Y-11506108D01*
X9710834Y-11506108D02*
X9720358Y-11515631D01*
X9720358Y-11515631D02*
X9729882Y-11534679D01*
X9729882Y-11534679D02*
X9739405Y-11572774D01*
X9739405Y-11572774D02*
X9739405Y-11620393D01*
X9739405Y-11620393D02*
X9729882Y-11658488D01*
X9729882Y-11658488D02*
X9720358Y-11677536D01*
X9720358Y-11677536D02*
X9710834Y-11687060D01*
X9710834Y-11687060D02*
X9691786Y-11696584D01*
X9691786Y-11696584D02*
X9672739Y-11696584D01*
X9672739Y-11696584D02*
X9653691Y-11687060D01*
X9653691Y-11687060D02*
X9644167Y-11677536D01*
X9644167Y-11677536D02*
X9634644Y-11658488D01*
X9634644Y-11658488D02*
X9625120Y-11620393D01*
X9625120Y-11620393D02*
X9625120Y-11572774D01*
X9625120Y-11572774D02*
X9634644Y-11534679D01*
X9634644Y-11534679D02*
X9644167Y-11515631D01*
X9644167Y-11515631D02*
X9653691Y-11506108D01*
X9653691Y-11506108D02*
X9672739Y-11496584D01*
X9825120Y-11696584D02*
X9825120Y-11563250D01*
X9825120Y-11582298D02*
X9834644Y-11572774D01*
X9834644Y-11572774D02*
X9853691Y-11563250D01*
X9853691Y-11563250D02*
X9882263Y-11563250D01*
X9882263Y-11563250D02*
X9901310Y-11572774D01*
X9901310Y-11572774D02*
X9910834Y-11591822D01*
X9910834Y-11591822D02*
X9910834Y-11696584D01*
X9910834Y-11591822D02*
X9920358Y-11572774D01*
X9920358Y-11572774D02*
X9939405Y-11563250D01*
X9939405Y-11563250D02*
X9967977Y-11563250D01*
X9967977Y-11563250D02*
X9987025Y-11572774D01*
X9987025Y-11572774D02*
X9996548Y-11591822D01*
X9996548Y-11591822D02*
X9996548Y-11696584D01*
X10091786Y-11696584D02*
X10091786Y-11563250D01*
X10091786Y-11582298D02*
X10101310Y-11572774D01*
X10101310Y-11572774D02*
X10120358Y-11563250D01*
X10120358Y-11563250D02*
X10148929Y-11563250D01*
X10148929Y-11563250D02*
X10167977Y-11572774D01*
X10167977Y-11572774D02*
X10177501Y-11591822D01*
X10177501Y-11591822D02*
X10177501Y-11696584D01*
X10177501Y-11591822D02*
X10187025Y-11572774D01*
X10187025Y-11572774D02*
X10206072Y-11563250D01*
X10206072Y-11563250D02*
X10234644Y-11563250D01*
X10234644Y-11563250D02*
X10253691Y-11572774D01*
X10253691Y-11572774D02*
X10263215Y-11591822D01*
X10263215Y-11591822D02*
X10263215Y-11696584D01*
X10653691Y-11487060D02*
X10482263Y-11744203D01*
X10910834Y-11496584D02*
X10929882Y-11496584D01*
X10929882Y-11496584D02*
X10948929Y-11506108D01*
X10948929Y-11506108D02*
X10958453Y-11515631D01*
X10958453Y-11515631D02*
X10967977Y-11534679D01*
X10967977Y-11534679D02*
X10977501Y-11572774D01*
X10977501Y-11572774D02*
X10977501Y-11620393D01*
X10977501Y-11620393D02*
X10967977Y-11658488D01*
X10967977Y-11658488D02*
X10958453Y-11677536D01*
X10958453Y-11677536D02*
X10948929Y-11687060D01*
X10948929Y-11687060D02*
X10929882Y-11696584D01*
X10929882Y-11696584D02*
X10910834Y-11696584D01*
X10910834Y-11696584D02*
X10891787Y-11687060D01*
X10891787Y-11687060D02*
X10882263Y-11677536D01*
X10882263Y-11677536D02*
X10872739Y-11658488D01*
X10872739Y-11658488D02*
X10863215Y-11620393D01*
X10863215Y-11620393D02*
X10863215Y-11572774D01*
X10863215Y-11572774D02*
X10872739Y-11534679D01*
X10872739Y-11534679D02*
X10882263Y-11515631D01*
X10882263Y-11515631D02*
X10891787Y-11506108D01*
X10891787Y-11506108D02*
X10910834Y-11496584D01*
X11063215Y-11677536D02*
X11072739Y-11687060D01*
X11072739Y-11687060D02*
X11063215Y-11696584D01*
X11063215Y-11696584D02*
X11053691Y-11687060D01*
X11053691Y-11687060D02*
X11063215Y-11677536D01*
X11063215Y-11677536D02*
X11063215Y-11696584D01*
X11196548Y-11496584D02*
X11215596Y-11496584D01*
X11215596Y-11496584D02*
X11234644Y-11506108D01*
X11234644Y-11506108D02*
X11244167Y-11515631D01*
X11244167Y-11515631D02*
X11253691Y-11534679D01*
X11253691Y-11534679D02*
X11263215Y-11572774D01*
X11263215Y-11572774D02*
X11263215Y-11620393D01*
X11263215Y-11620393D02*
X11253691Y-11658488D01*
X11253691Y-11658488D02*
X11244167Y-11677536D01*
X11244167Y-11677536D02*
X11234644Y-11687060D01*
X11234644Y-11687060D02*
X11215596Y-11696584D01*
X11215596Y-11696584D02*
X11196548Y-11696584D01*
X11196548Y-11696584D02*
X11177501Y-11687060D01*
X11177501Y-11687060D02*
X11167977Y-11677536D01*
X11167977Y-11677536D02*
X11158453Y-11658488D01*
X11158453Y-11658488D02*
X11148929Y-11620393D01*
X11148929Y-11620393D02*
X11148929Y-11572774D01*
X11148929Y-11572774D02*
X11158453Y-11534679D01*
X11158453Y-11534679D02*
X11167977Y-11515631D01*
X11167977Y-11515631D02*
X11177501Y-11506108D01*
X11177501Y-11506108D02*
X11196548Y-11496584D01*
X11339406Y-11515631D02*
X11348929Y-11506108D01*
X11348929Y-11506108D02*
X11367977Y-11496584D01*
X11367977Y-11496584D02*
X11415596Y-11496584D01*
X11415596Y-11496584D02*
X11434644Y-11506108D01*
X11434644Y-11506108D02*
X11444167Y-11515631D01*
X11444167Y-11515631D02*
X11453691Y-11534679D01*
X11453691Y-11534679D02*
X11453691Y-11553727D01*
X11453691Y-11553727D02*
X11444167Y-11582298D01*
X11444167Y-11582298D02*
X11329882Y-11696584D01*
X11329882Y-11696584D02*
X11453691Y-11696584D01*
X11520358Y-11496584D02*
X11644167Y-11496584D01*
X11644167Y-11496584D02*
X11577501Y-11572774D01*
X11577501Y-11572774D02*
X11606072Y-11572774D01*
X11606072Y-11572774D02*
X11625120Y-11582298D01*
X11625120Y-11582298D02*
X11634644Y-11591822D01*
X11634644Y-11591822D02*
X11644167Y-11610869D01*
X11644167Y-11610869D02*
X11644167Y-11658488D01*
X11644167Y-11658488D02*
X11634644Y-11677536D01*
X11634644Y-11677536D02*
X11625120Y-11687060D01*
X11625120Y-11687060D02*
X11606072Y-11696584D01*
X11606072Y-11696584D02*
X11548929Y-11696584D01*
X11548929Y-11696584D02*
X11529882Y-11687060D01*
X11529882Y-11687060D02*
X11520358Y-11677536D01*
X11815596Y-11496584D02*
X11777501Y-11496584D01*
X11777501Y-11496584D02*
X11758453Y-11506108D01*
X11758453Y-11506108D02*
X11748929Y-11515631D01*
X11748929Y-11515631D02*
X11729882Y-11544203D01*
X11729882Y-11544203D02*
X11720358Y-11582298D01*
X11720358Y-11582298D02*
X11720358Y-11658488D01*
X11720358Y-11658488D02*
X11729882Y-11677536D01*
X11729882Y-11677536D02*
X11739406Y-11687060D01*
X11739406Y-11687060D02*
X11758453Y-11696584D01*
X11758453Y-11696584D02*
X11796548Y-11696584D01*
X11796548Y-11696584D02*
X11815596Y-11687060D01*
X11815596Y-11687060D02*
X11825120Y-11677536D01*
X11825120Y-11677536D02*
X11834644Y-11658488D01*
X11834644Y-11658488D02*
X11834644Y-11610869D01*
X11834644Y-11610869D02*
X11825120Y-11591822D01*
X11825120Y-11591822D02*
X11815596Y-11582298D01*
X11815596Y-11582298D02*
X11796548Y-11572774D01*
X11796548Y-11572774D02*
X11758453Y-11572774D01*
X11758453Y-11572774D02*
X11739406Y-11582298D01*
X11739406Y-11582298D02*
X11729882Y-11591822D01*
X11729882Y-11591822D02*
X11720358Y-11610869D01*
X11910834Y-11496584D02*
X11910834Y-11534679D01*
X11987025Y-11496584D02*
X11987025Y-11534679D01*
X12282263Y-11772774D02*
X12272739Y-11763250D01*
X12272739Y-11763250D02*
X12253691Y-11734679D01*
X12253691Y-11734679D02*
X12244168Y-11715631D01*
X12244168Y-11715631D02*
X12234644Y-11687060D01*
X12234644Y-11687060D02*
X12225120Y-11639441D01*
X12225120Y-11639441D02*
X12225120Y-11601346D01*
X12225120Y-11601346D02*
X12234644Y-11553727D01*
X12234644Y-11553727D02*
X12244168Y-11525155D01*
X12244168Y-11525155D02*
X12253691Y-11506108D01*
X12253691Y-11506108D02*
X12272739Y-11477536D01*
X12272739Y-11477536D02*
X12282263Y-11468012D01*
X12348929Y-11515631D02*
X12358453Y-11506108D01*
X12358453Y-11506108D02*
X12377501Y-11496584D01*
X12377501Y-11496584D02*
X12425120Y-11496584D01*
X12425120Y-11496584D02*
X12444168Y-11506108D01*
X12444168Y-11506108D02*
X12453691Y-11515631D01*
X12453691Y-11515631D02*
X12463215Y-11534679D01*
X12463215Y-11534679D02*
X12463215Y-11553727D01*
X12463215Y-11553727D02*
X12453691Y-11582298D01*
X12453691Y-11582298D02*
X12339406Y-11696584D01*
X12339406Y-11696584D02*
X12463215Y-11696584D01*
X12701310Y-11696584D02*
X12701310Y-11496584D01*
X12787025Y-11696584D02*
X12787025Y-11591822D01*
X12787025Y-11591822D02*
X12777501Y-11572774D01*
X12777501Y-11572774D02*
X12758453Y-11563250D01*
X12758453Y-11563250D02*
X12729882Y-11563250D01*
X12729882Y-11563250D02*
X12710834Y-11572774D01*
X12710834Y-11572774D02*
X12701310Y-11582298D01*
X12910834Y-11696584D02*
X12891787Y-11687060D01*
X12891787Y-11687060D02*
X12882263Y-11677536D01*
X12882263Y-11677536D02*
X12872739Y-11658488D01*
X12872739Y-11658488D02*
X12872739Y-11601346D01*
X12872739Y-11601346D02*
X12882263Y-11582298D01*
X12882263Y-11582298D02*
X12891787Y-11572774D01*
X12891787Y-11572774D02*
X12910834Y-11563250D01*
X12910834Y-11563250D02*
X12939406Y-11563250D01*
X12939406Y-11563250D02*
X12958453Y-11572774D01*
X12958453Y-11572774D02*
X12967977Y-11582298D01*
X12967977Y-11582298D02*
X12977501Y-11601346D01*
X12977501Y-11601346D02*
X12977501Y-11658488D01*
X12977501Y-11658488D02*
X12967977Y-11677536D01*
X12967977Y-11677536D02*
X12958453Y-11687060D01*
X12958453Y-11687060D02*
X12939406Y-11696584D01*
X12939406Y-11696584D02*
X12910834Y-11696584D01*
X13091787Y-11696584D02*
X13072739Y-11687060D01*
X13072739Y-11687060D02*
X13063215Y-11668012D01*
X13063215Y-11668012D02*
X13063215Y-11496584D01*
X13244168Y-11687060D02*
X13225120Y-11696584D01*
X13225120Y-11696584D02*
X13187025Y-11696584D01*
X13187025Y-11696584D02*
X13167977Y-11687060D01*
X13167977Y-11687060D02*
X13158453Y-11668012D01*
X13158453Y-11668012D02*
X13158453Y-11591822D01*
X13158453Y-11591822D02*
X13167977Y-11572774D01*
X13167977Y-11572774D02*
X13187025Y-11563250D01*
X13187025Y-11563250D02*
X13225120Y-11563250D01*
X13225120Y-11563250D02*
X13244168Y-11572774D01*
X13244168Y-11572774D02*
X13253691Y-11591822D01*
X13253691Y-11591822D02*
X13253691Y-11610869D01*
X13253691Y-11610869D02*
X13158453Y-11629917D01*
X13329882Y-11687060D02*
X13348930Y-11696584D01*
X13348930Y-11696584D02*
X13387025Y-11696584D01*
X13387025Y-11696584D02*
X13406072Y-11687060D01*
X13406072Y-11687060D02*
X13415596Y-11668012D01*
X13415596Y-11668012D02*
X13415596Y-11658488D01*
X13415596Y-11658488D02*
X13406072Y-11639441D01*
X13406072Y-11639441D02*
X13387025Y-11629917D01*
X13387025Y-11629917D02*
X13358453Y-11629917D01*
X13358453Y-11629917D02*
X13339406Y-11620393D01*
X13339406Y-11620393D02*
X13329882Y-11601346D01*
X13329882Y-11601346D02*
X13329882Y-11591822D01*
X13329882Y-11591822D02*
X13339406Y-11572774D01*
X13339406Y-11572774D02*
X13358453Y-11563250D01*
X13358453Y-11563250D02*
X13387025Y-11563250D01*
X13387025Y-11563250D02*
X13406072Y-11572774D01*
X13482263Y-11772774D02*
X13491787Y-11763250D01*
X13491787Y-11763250D02*
X13510834Y-11734679D01*
X13510834Y-11734679D02*
X13520358Y-11715631D01*
X13520358Y-11715631D02*
X13529882Y-11687060D01*
X13529882Y-11687060D02*
X13539406Y-11639441D01*
X13539406Y-11639441D02*
X13539406Y-11601346D01*
X13539406Y-11601346D02*
X13529882Y-11553727D01*
X13529882Y-11553727D02*
X13520358Y-11525155D01*
X13520358Y-11525155D02*
X13510834Y-11506108D01*
X13510834Y-11506108D02*
X13491787Y-11477536D01*
X13491787Y-11477536D02*
X13482263Y-11468012D01*
X13844168Y-11772774D02*
X13834644Y-11763250D01*
X13834644Y-11763250D02*
X13815596Y-11734679D01*
X13815596Y-11734679D02*
X13806072Y-11715631D01*
X13806072Y-11715631D02*
X13796549Y-11687060D01*
X13796549Y-11687060D02*
X13787025Y-11639441D01*
X13787025Y-11639441D02*
X13787025Y-11601346D01*
X13787025Y-11601346D02*
X13796549Y-11553727D01*
X13796549Y-11553727D02*
X13806072Y-11525155D01*
X13806072Y-11525155D02*
X13815596Y-11506108D01*
X13815596Y-11506108D02*
X13834644Y-11477536D01*
X13834644Y-11477536D02*
X13844168Y-11468012D01*
X13920358Y-11563250D02*
X13920358Y-11696584D01*
X13920358Y-11582298D02*
X13929882Y-11572774D01*
X13929882Y-11572774D02*
X13948930Y-11563250D01*
X13948930Y-11563250D02*
X13977501Y-11563250D01*
X13977501Y-11563250D02*
X13996549Y-11572774D01*
X13996549Y-11572774D02*
X14006072Y-11591822D01*
X14006072Y-11591822D02*
X14006072Y-11696584D01*
X14129882Y-11696584D02*
X14110834Y-11687060D01*
X14110834Y-11687060D02*
X14101311Y-11677536D01*
X14101311Y-11677536D02*
X14091787Y-11658488D01*
X14091787Y-11658488D02*
X14091787Y-11601346D01*
X14091787Y-11601346D02*
X14101311Y-11582298D01*
X14101311Y-11582298D02*
X14110834Y-11572774D01*
X14110834Y-11572774D02*
X14129882Y-11563250D01*
X14129882Y-11563250D02*
X14158453Y-11563250D01*
X14158453Y-11563250D02*
X14177501Y-11572774D01*
X14177501Y-11572774D02*
X14187025Y-11582298D01*
X14187025Y-11582298D02*
X14196549Y-11601346D01*
X14196549Y-11601346D02*
X14196549Y-11658488D01*
X14196549Y-11658488D02*
X14187025Y-11677536D01*
X14187025Y-11677536D02*
X14177501Y-11687060D01*
X14177501Y-11687060D02*
X14158453Y-11696584D01*
X14158453Y-11696584D02*
X14129882Y-11696584D01*
X14253692Y-11563250D02*
X14329882Y-11563250D01*
X14282263Y-11496584D02*
X14282263Y-11668012D01*
X14282263Y-11668012D02*
X14291787Y-11687060D01*
X14291787Y-11687060D02*
X14310834Y-11696584D01*
X14310834Y-11696584D02*
X14329882Y-11696584D01*
X14548930Y-11563250D02*
X14548930Y-11763250D01*
X14548930Y-11572774D02*
X14567977Y-11563250D01*
X14567977Y-11563250D02*
X14606073Y-11563250D01*
X14606073Y-11563250D02*
X14625120Y-11572774D01*
X14625120Y-11572774D02*
X14634644Y-11582298D01*
X14634644Y-11582298D02*
X14644168Y-11601346D01*
X14644168Y-11601346D02*
X14644168Y-11658488D01*
X14644168Y-11658488D02*
X14634644Y-11677536D01*
X14634644Y-11677536D02*
X14625120Y-11687060D01*
X14625120Y-11687060D02*
X14606073Y-11696584D01*
X14606073Y-11696584D02*
X14567977Y-11696584D01*
X14567977Y-11696584D02*
X14548930Y-11687060D01*
X14758453Y-11696584D02*
X14739406Y-11687060D01*
X14739406Y-11687060D02*
X14729882Y-11668012D01*
X14729882Y-11668012D02*
X14729882Y-11496584D01*
X14920358Y-11696584D02*
X14920358Y-11591822D01*
X14920358Y-11591822D02*
X14910834Y-11572774D01*
X14910834Y-11572774D02*
X14891787Y-11563250D01*
X14891787Y-11563250D02*
X14853692Y-11563250D01*
X14853692Y-11563250D02*
X14834644Y-11572774D01*
X14920358Y-11687060D02*
X14901311Y-11696584D01*
X14901311Y-11696584D02*
X14853692Y-11696584D01*
X14853692Y-11696584D02*
X14834644Y-11687060D01*
X14834644Y-11687060D02*
X14825120Y-11668012D01*
X14825120Y-11668012D02*
X14825120Y-11648965D01*
X14825120Y-11648965D02*
X14834644Y-11629917D01*
X14834644Y-11629917D02*
X14853692Y-11620393D01*
X14853692Y-11620393D02*
X14901311Y-11620393D01*
X14901311Y-11620393D02*
X14920358Y-11610869D01*
X14987025Y-11563250D02*
X15063215Y-11563250D01*
X15015596Y-11496584D02*
X15015596Y-11668012D01*
X15015596Y-11668012D02*
X15025120Y-11687060D01*
X15025120Y-11687060D02*
X15044168Y-11696584D01*
X15044168Y-11696584D02*
X15063215Y-11696584D01*
X15206073Y-11687060D02*
X15187025Y-11696584D01*
X15187025Y-11696584D02*
X15148930Y-11696584D01*
X15148930Y-11696584D02*
X15129882Y-11687060D01*
X15129882Y-11687060D02*
X15120358Y-11668012D01*
X15120358Y-11668012D02*
X15120358Y-11591822D01*
X15120358Y-11591822D02*
X15129882Y-11572774D01*
X15129882Y-11572774D02*
X15148930Y-11563250D01*
X15148930Y-11563250D02*
X15187025Y-11563250D01*
X15187025Y-11563250D02*
X15206073Y-11572774D01*
X15206073Y-11572774D02*
X15215596Y-11591822D01*
X15215596Y-11591822D02*
X15215596Y-11610869D01*
X15215596Y-11610869D02*
X15120358Y-11629917D01*
X15387025Y-11696584D02*
X15387025Y-11496584D01*
X15387025Y-11687060D02*
X15367977Y-11696584D01*
X15367977Y-11696584D02*
X15329882Y-11696584D01*
X15329882Y-11696584D02*
X15310834Y-11687060D01*
X15310834Y-11687060D02*
X15301311Y-11677536D01*
X15301311Y-11677536D02*
X15291787Y-11658488D01*
X15291787Y-11658488D02*
X15291787Y-11601346D01*
X15291787Y-11601346D02*
X15301311Y-11582298D01*
X15301311Y-11582298D02*
X15310834Y-11572774D01*
X15310834Y-11572774D02*
X15329882Y-11563250D01*
X15329882Y-11563250D02*
X15367977Y-11563250D01*
X15367977Y-11563250D02*
X15387025Y-11572774D01*
X15463215Y-11772774D02*
X15472739Y-11763250D01*
X15472739Y-11763250D02*
X15491787Y-11734679D01*
X15491787Y-11734679D02*
X15501311Y-11715631D01*
X15501311Y-11715631D02*
X15510834Y-11687060D01*
X15510834Y-11687060D02*
X15520358Y-11639441D01*
X15520358Y-11639441D02*
X15520358Y-11601346D01*
X15520358Y-11601346D02*
X15510834Y-11553727D01*
X15510834Y-11553727D02*
X15501311Y-11525155D01*
X15501311Y-11525155D02*
X15491787Y-11506108D01*
X15491787Y-11506108D02*
X15472739Y-11477536D01*
X15472739Y-11477536D02*
X15463215Y-11468012D01*
M02*
