G04 #@! TF.GenerationSoftware,KiCad,Pcbnew,9.0.7*
G04 #@! TF.CreationDate,2026-03-29T12:04:23+05:00*
G04 #@! TF.ProjectId,STM32-Dumper,53544d33-322d-4447-956d-7065722e6b69,rev?*
G04 #@! TF.SameCoordinates,Original*
G04 #@! TF.FileFunction,Legend,Top*
G04 #@! TF.FilePolarity,Positive*
%FSLAX46Y46*%
G04 Gerber Fmt 4.6, Leading zero omitted, Abs format (unit mm)*
G04 Created by KiCad (PCBNEW 9.0.7) date 2026-03-29 12:04:23*
%MOMM*%
%LPD*%
G01*
G04 APERTURE LIST*
G04 Aperture macros list*
%AMRoundRect*
0 Rectangle with rounded corners*
0 $1 Rounding radius*
0 $2 $3 $4 $5 $6 $7 $8 $9 X,Y pos of 4 corners*
0 Add a 4 corners polygon primitive as box body*
4,1,4,$2,$3,$4,$5,$6,$7,$8,$9,$2,$3,0*
0 Add four circle primitives for the rounded corners*
1,1,$1+$1,$2,$3*
1,1,$1+$1,$4,$5*
1,1,$1+$1,$6,$7*
1,1,$1+$1,$8,$9*
0 Add four rect primitives between the rounded corners*
20,1,$1+$1,$2,$3,$4,$5,0*
20,1,$1+$1,$4,$5,$6,$7,0*
20,1,$1+$1,$6,$7,$8,$9,0*
20,1,$1+$1,$8,$9,$2,$3,0*%
G04 Aperture macros list end*
%ADD10C,0.150000*%
%ADD11C,0.200000*%
%ADD12C,0.300000*%
%ADD13C,0.250000*%
%ADD14C,0.120000*%
%ADD15RoundRect,0.237500X0.300000X0.237500X-0.300000X0.237500X-0.300000X-0.237500X0.300000X-0.237500X0*%
%ADD16RoundRect,0.250000X0.450000X-0.262500X0.450000X0.262500X-0.450000X0.262500X-0.450000X-0.262500X0*%
%ADD17RoundRect,0.250000X0.475000X-0.250000X0.475000X0.250000X-0.475000X0.250000X-0.475000X-0.250000X0*%
%ADD18RoundRect,0.237500X-0.237500X0.300000X-0.237500X-0.300000X0.237500X-0.300000X0.237500X0.300000X0*%
%ADD19RoundRect,0.237500X-0.300000X-0.237500X0.300000X-0.237500X0.300000X0.237500X-0.300000X0.237500X0*%
%ADD20RoundRect,0.237500X0.237500X-0.300000X0.237500X0.300000X-0.237500X0.300000X-0.237500X-0.300000X0*%
%ADD21RoundRect,0.250000X-0.250000X-0.475000X0.250000X-0.475000X0.250000X0.475000X-0.250000X0.475000X0*%
%ADD22RoundRect,0.137500X-0.137500X0.600000X-0.137500X-0.600000X0.137500X-0.600000X0.137500X0.600000X0*%
%ADD23RoundRect,0.137500X-0.600000X0.137500X-0.600000X-0.137500X0.600000X-0.137500X0.600000X0.137500X0*%
%ADD24RoundRect,0.375000X0.625000X0.375000X-0.625000X0.375000X-0.625000X-0.375000X0.625000X-0.375000X0*%
%ADD25RoundRect,0.500000X0.500000X1.400000X-0.500000X1.400000X-0.500000X-1.400000X0.500000X-1.400000X0*%
%ADD26RoundRect,0.100000X0.100000X-0.637500X0.100000X0.637500X-0.100000X0.637500X-0.100000X-0.637500X0*%
%ADD27RoundRect,0.243750X0.456250X-0.243750X0.456250X0.243750X-0.456250X0.243750X-0.456250X-0.243750X0*%
%ADD28RoundRect,0.250000X0.262500X0.450000X-0.262500X0.450000X-0.262500X-0.450000X0.262500X-0.450000X0*%
%ADD29RoundRect,0.160000X-0.160000X0.197500X-0.160000X-0.197500X0.160000X-0.197500X0.160000X0.197500X0*%
%ADD30RoundRect,0.250000X-0.450000X0.262500X-0.450000X-0.262500X0.450000X-0.262500X0.450000X0.262500X0*%
%ADD31RoundRect,0.243750X-0.456250X0.243750X-0.456250X-0.243750X0.456250X-0.243750X0.456250X0.243750X0*%
%ADD32R,1.700000X1.700000*%
%ADD33C,1.700000*%
%ADD34C,0.600000*%
%ADD35R,1.160000X0.600000*%
%ADD36R,1.160000X0.300000*%
%ADD37O,2.000000X0.900000*%
%ADD38O,1.700000X0.900000*%
%ADD39RoundRect,0.090000X-0.660000X-0.360000X0.660000X-0.360000X0.660000X0.360000X-0.660000X0.360000X0*%
%ADD40RoundRect,0.250000X-0.475000X0.250000X-0.475000X-0.250000X0.475000X-0.250000X0.475000X0.250000X0*%
%ADD41O,1.700000X1.700000*%
%ADD42RoundRect,0.075000X-0.662500X-0.075000X0.662500X-0.075000X0.662500X0.075000X-0.662500X0.075000X0*%
%ADD43RoundRect,0.075000X-0.075000X-0.662500X0.075000X-0.662500X0.075000X0.662500X-0.075000X0.662500X0*%
%ADD44RoundRect,0.250000X0.450000X0.350000X-0.450000X0.350000X-0.450000X-0.350000X0.450000X-0.350000X0*%
%ADD45C,1.500000*%
G04 APERTURE END LIST*
D10*
X130810000Y-52832000D02*
X130810000Y-56134000D01*
X130810000Y-56134000D02*
G75*
G02*
X130048000Y-56896000I-762000J0D01*
G01*
X126492000Y-56896000D02*
G75*
G02*
X125730000Y-56134000I0J762000D01*
G01*
X125730000Y-56134000D02*
X125730000Y-52832000D01*
X130048000Y-56896000D02*
X126492000Y-56896000D01*
D11*
X97561980Y-101668945D02*
X97609600Y-101722517D01*
X97609600Y-101722517D02*
X97657219Y-101871326D01*
X97657219Y-101871326D02*
X97657219Y-101966564D01*
X97657219Y-101966564D02*
X97609600Y-102103469D01*
X97609600Y-102103469D02*
X97514361Y-102186802D01*
X97514361Y-102186802D02*
X97419123Y-102222517D01*
X97419123Y-102222517D02*
X97228647Y-102246326D01*
X97228647Y-102246326D02*
X97085790Y-102228469D01*
X97085790Y-102228469D02*
X96895314Y-102157041D01*
X96895314Y-102157041D02*
X96800076Y-102097517D01*
X96800076Y-102097517D02*
X96704838Y-101990374D01*
X96704838Y-101990374D02*
X96657219Y-101841564D01*
X96657219Y-101841564D02*
X96657219Y-101746326D01*
X96657219Y-101746326D02*
X96704838Y-101609422D01*
X96704838Y-101609422D02*
X96752457Y-101567755D01*
X97133409Y-100853469D02*
X97181028Y-100716564D01*
X97181028Y-100716564D02*
X97228647Y-100674898D01*
X97228647Y-100674898D02*
X97323885Y-100639183D01*
X97323885Y-100639183D02*
X97466742Y-100657041D01*
X97466742Y-100657041D02*
X97561980Y-100716564D01*
X97561980Y-100716564D02*
X97609600Y-100770136D01*
X97609600Y-100770136D02*
X97657219Y-100871326D01*
X97657219Y-100871326D02*
X97657219Y-101252279D01*
X97657219Y-101252279D02*
X96657219Y-101127279D01*
X96657219Y-101127279D02*
X96657219Y-100793945D01*
X96657219Y-100793945D02*
X96704838Y-100704660D01*
X96704838Y-100704660D02*
X96752457Y-100662993D01*
X96752457Y-100662993D02*
X96847695Y-100627279D01*
X96847695Y-100627279D02*
X96942933Y-100639183D01*
X96942933Y-100639183D02*
X97038171Y-100698707D01*
X97038171Y-100698707D02*
X97085790Y-100752279D01*
X97085790Y-100752279D02*
X97133409Y-100853469D01*
X97133409Y-100853469D02*
X97133409Y-101186802D01*
X96657219Y-99174897D02*
X96657219Y-98984421D01*
X96657219Y-98984421D02*
X96704838Y-98895136D01*
X96704838Y-98895136D02*
X96800076Y-98811802D01*
X96800076Y-98811802D02*
X96990552Y-98787993D01*
X96990552Y-98787993D02*
X97323885Y-98829659D01*
X97323885Y-98829659D02*
X97514361Y-98901088D01*
X97514361Y-98901088D02*
X97609600Y-99008231D01*
X97609600Y-99008231D02*
X97657219Y-99109421D01*
X97657219Y-99109421D02*
X97657219Y-99299897D01*
X97657219Y-99299897D02*
X97609600Y-99389183D01*
X97609600Y-99389183D02*
X97514361Y-99472517D01*
X97514361Y-99472517D02*
X97323885Y-99496326D01*
X97323885Y-99496326D02*
X96990552Y-99454659D01*
X96990552Y-99454659D02*
X96800076Y-99383231D01*
X96800076Y-99383231D02*
X96704838Y-99276088D01*
X96704838Y-99276088D02*
X96657219Y-99174897D01*
X97133409Y-98377278D02*
X97133409Y-98043945D01*
X97657219Y-97966564D02*
X97657219Y-98442755D01*
X97657219Y-98442755D02*
X96657219Y-98317755D01*
X96657219Y-98317755D02*
X96657219Y-97841564D01*
X96379600Y-99622517D02*
X96379600Y-97870136D01*
D12*
X95694891Y-75404495D02*
X95161558Y-75404495D01*
X95056796Y-76242590D02*
X95256796Y-74642590D01*
X95256796Y-74642590D02*
X96018701Y-74642590D01*
X96409177Y-75785447D02*
X97171082Y-75785447D01*
X96199654Y-76242590D02*
X96932987Y-74642590D01*
X96932987Y-74642590D02*
X97266320Y-76242590D01*
X97799654Y-76242590D02*
X97999654Y-74642590D01*
X97999654Y-74642590D02*
X98390130Y-75785447D01*
X98390130Y-75785447D02*
X99066321Y-74642590D01*
X99066321Y-74642590D02*
X98866321Y-76242590D01*
X99628225Y-76242590D02*
X99828225Y-74642590D01*
X101323463Y-76090209D02*
X101237749Y-76166400D01*
X101237749Y-76166400D02*
X100999654Y-76242590D01*
X100999654Y-76242590D02*
X100847273Y-76242590D01*
X100847273Y-76242590D02*
X100628225Y-76166400D01*
X100628225Y-76166400D02*
X100494892Y-76014019D01*
X100494892Y-76014019D02*
X100437749Y-75861638D01*
X100437749Y-75861638D02*
X100399654Y-75556876D01*
X100399654Y-75556876D02*
X100428225Y-75328304D01*
X100428225Y-75328304D02*
X100542511Y-75023542D01*
X100542511Y-75023542D02*
X100637749Y-74871161D01*
X100637749Y-74871161D02*
X100809178Y-74718780D01*
X100809178Y-74718780D02*
X101047273Y-74642590D01*
X101047273Y-74642590D02*
X101199654Y-74642590D01*
X101199654Y-74642590D02*
X101418702Y-74718780D01*
X101418702Y-74718780D02*
X101485368Y-74794971D01*
X102494892Y-74642590D02*
X102799654Y-74642590D01*
X102799654Y-74642590D02*
X102942511Y-74718780D01*
X102942511Y-74718780D02*
X103075844Y-74871161D01*
X103075844Y-74871161D02*
X103113940Y-75175923D01*
X103113940Y-75175923D02*
X103047273Y-75709257D01*
X103047273Y-75709257D02*
X102932987Y-76014019D01*
X102932987Y-76014019D02*
X102761559Y-76166400D01*
X102761559Y-76166400D02*
X102599654Y-76242590D01*
X102599654Y-76242590D02*
X102294892Y-76242590D01*
X102294892Y-76242590D02*
X102152035Y-76166400D01*
X102152035Y-76166400D02*
X102018702Y-76014019D01*
X102018702Y-76014019D02*
X101980606Y-75709257D01*
X101980606Y-75709257D02*
X102047273Y-75175923D01*
X102047273Y-75175923D02*
X102161559Y-74871161D01*
X102161559Y-74871161D02*
X102332987Y-74718780D01*
X102332987Y-74718780D02*
X102494892Y-74642590D01*
X103666320Y-76242590D02*
X103866320Y-74642590D01*
X103866320Y-74642590D02*
X104256796Y-75785447D01*
X104256796Y-75785447D02*
X104932987Y-74642590D01*
X104932987Y-74642590D02*
X104732987Y-76242590D01*
X106713939Y-76242590D02*
X106913939Y-74642590D01*
X106913939Y-74642590D02*
X107294891Y-74642590D01*
X107294891Y-74642590D02*
X107513939Y-74718780D01*
X107513939Y-74718780D02*
X107647272Y-74871161D01*
X107647272Y-74871161D02*
X107704415Y-75023542D01*
X107704415Y-75023542D02*
X107742511Y-75328304D01*
X107742511Y-75328304D02*
X107713939Y-75556876D01*
X107713939Y-75556876D02*
X107599653Y-75861638D01*
X107599653Y-75861638D02*
X107504415Y-76014019D01*
X107504415Y-76014019D02*
X107332987Y-76166400D01*
X107332987Y-76166400D02*
X107094891Y-76242590D01*
X107094891Y-76242590D02*
X106713939Y-76242590D01*
X108513939Y-74642590D02*
X108352034Y-75937828D01*
X108352034Y-75937828D02*
X108409177Y-76090209D01*
X108409177Y-76090209D02*
X108475844Y-76166400D01*
X108475844Y-76166400D02*
X108618701Y-76242590D01*
X108618701Y-76242590D02*
X108923463Y-76242590D01*
X108923463Y-76242590D02*
X109085368Y-76166400D01*
X109085368Y-76166400D02*
X109171082Y-76090209D01*
X109171082Y-76090209D02*
X109266320Y-75937828D01*
X109266320Y-75937828D02*
X109428225Y-74642590D01*
X109990129Y-76242590D02*
X110190129Y-74642590D01*
X110190129Y-74642590D02*
X110580605Y-75785447D01*
X110580605Y-75785447D02*
X111256796Y-74642590D01*
X111256796Y-74642590D02*
X111056796Y-76242590D01*
X111818700Y-76242590D02*
X112018700Y-74642590D01*
X112018700Y-74642590D02*
X112628224Y-74642590D01*
X112628224Y-74642590D02*
X112771081Y-74718780D01*
X112771081Y-74718780D02*
X112837748Y-74794971D01*
X112837748Y-74794971D02*
X112894891Y-74947352D01*
X112894891Y-74947352D02*
X112866319Y-75175923D01*
X112866319Y-75175923D02*
X112771081Y-75328304D01*
X112771081Y-75328304D02*
X112685367Y-75404495D01*
X112685367Y-75404495D02*
X112523462Y-75480685D01*
X112523462Y-75480685D02*
X111913938Y-75480685D01*
X113523462Y-75404495D02*
X114056795Y-75404495D01*
X114180605Y-76242590D02*
X113418700Y-76242590D01*
X113418700Y-76242590D02*
X113618700Y-74642590D01*
X113618700Y-74642590D02*
X114380605Y-74642590D01*
X115780605Y-76242590D02*
X115342510Y-75480685D01*
X114866319Y-76242590D02*
X115066319Y-74642590D01*
X115066319Y-74642590D02*
X115675843Y-74642590D01*
X115675843Y-74642590D02*
X115818700Y-74718780D01*
X115818700Y-74718780D02*
X115885367Y-74794971D01*
X115885367Y-74794971D02*
X115942510Y-74947352D01*
X115942510Y-74947352D02*
X115913938Y-75175923D01*
X115913938Y-75175923D02*
X115818700Y-75328304D01*
X115818700Y-75328304D02*
X115732986Y-75404495D01*
X115732986Y-75404495D02*
X115571081Y-75480685D01*
X115571081Y-75480685D02*
X114961557Y-75480685D01*
X117818700Y-74566400D02*
X116190129Y-76623542D01*
X118190128Y-74642590D02*
X118371081Y-76242590D01*
X118371081Y-76242590D02*
X118818700Y-75099733D01*
X118818700Y-75099733D02*
X118980604Y-76242590D01*
X118980604Y-76242590D02*
X119561557Y-74642590D01*
X120885366Y-76242590D02*
X120447271Y-75480685D01*
X119971080Y-76242590D02*
X120171080Y-74642590D01*
X120171080Y-74642590D02*
X120780604Y-74642590D01*
X120780604Y-74642590D02*
X120923461Y-74718780D01*
X120923461Y-74718780D02*
X120990128Y-74794971D01*
X120990128Y-74794971D02*
X121047271Y-74947352D01*
X121047271Y-74947352D02*
X121018699Y-75175923D01*
X121018699Y-75175923D02*
X120923461Y-75328304D01*
X120923461Y-75328304D02*
X120837747Y-75404495D01*
X120837747Y-75404495D02*
X120675842Y-75480685D01*
X120675842Y-75480685D02*
X120066318Y-75480685D01*
X121571080Y-76242590D02*
X121771080Y-74642590D01*
X122304414Y-74642590D02*
X123218699Y-74642590D01*
X122561557Y-76242590D02*
X122761557Y-74642590D01*
X123656795Y-75404495D02*
X124190128Y-75404495D01*
X124313938Y-76242590D02*
X123552033Y-76242590D01*
X123552033Y-76242590D02*
X123752033Y-74642590D01*
X123752033Y-74642590D02*
X124513938Y-74642590D01*
X125913938Y-76242590D02*
X125475843Y-75480685D01*
X124999652Y-76242590D02*
X125199652Y-74642590D01*
X125199652Y-74642590D02*
X125809176Y-74642590D01*
X125809176Y-74642590D02*
X125952033Y-74718780D01*
X125952033Y-74718780D02*
X126018700Y-74794971D01*
X126018700Y-74794971D02*
X126075843Y-74947352D01*
X126075843Y-74947352D02*
X126047271Y-75175923D01*
X126047271Y-75175923D02*
X125952033Y-75328304D01*
X125952033Y-75328304D02*
X125866319Y-75404495D01*
X125866319Y-75404495D02*
X125704414Y-75480685D01*
X125704414Y-75480685D02*
X125094890Y-75480685D01*
D13*
X122078806Y-58391333D02*
X121612139Y-58391333D01*
X121520473Y-59124666D02*
X121695473Y-57724666D01*
X121695473Y-57724666D02*
X122362139Y-57724666D01*
X123520473Y-59124666D02*
X123137139Y-58458000D01*
X122720473Y-59124666D02*
X122895473Y-57724666D01*
X122895473Y-57724666D02*
X123428806Y-57724666D01*
X123428806Y-57724666D02*
X123553806Y-57791333D01*
X123553806Y-57791333D02*
X123612139Y-57858000D01*
X123612139Y-57858000D02*
X123662139Y-57991333D01*
X123662139Y-57991333D02*
X123637139Y-58191333D01*
X123637139Y-58191333D02*
X123553806Y-58324666D01*
X123553806Y-58324666D02*
X123478806Y-58391333D01*
X123478806Y-58391333D02*
X123337139Y-58458000D01*
X123337139Y-58458000D02*
X122803806Y-58458000D01*
X124562139Y-57724666D02*
X124828806Y-57724666D01*
X124828806Y-57724666D02*
X124953806Y-57791333D01*
X124953806Y-57791333D02*
X125070473Y-57924666D01*
X125070473Y-57924666D02*
X125103806Y-58191333D01*
X125103806Y-58191333D02*
X125045473Y-58658000D01*
X125045473Y-58658000D02*
X124945473Y-58924666D01*
X124945473Y-58924666D02*
X124795473Y-59058000D01*
X124795473Y-59058000D02*
X124653806Y-59124666D01*
X124653806Y-59124666D02*
X124387139Y-59124666D01*
X124387139Y-59124666D02*
X124262139Y-59058000D01*
X124262139Y-59058000D02*
X124145473Y-58924666D01*
X124145473Y-58924666D02*
X124112139Y-58658000D01*
X124112139Y-58658000D02*
X124170473Y-58191333D01*
X124170473Y-58191333D02*
X124270473Y-57924666D01*
X124270473Y-57924666D02*
X124420473Y-57791333D01*
X124420473Y-57791333D02*
X124562139Y-57724666D01*
X125587140Y-59124666D02*
X125762140Y-57724666D01*
X125762140Y-57724666D02*
X126387140Y-59124666D01*
X126387140Y-59124666D02*
X126562140Y-57724666D01*
X127028807Y-57724666D02*
X127828807Y-57724666D01*
X127253807Y-59124666D02*
X127428807Y-57724666D01*
D11*
X100131980Y-101668945D02*
X100179600Y-101722517D01*
X100179600Y-101722517D02*
X100227219Y-101871326D01*
X100227219Y-101871326D02*
X100227219Y-101966564D01*
X100227219Y-101966564D02*
X100179600Y-102103469D01*
X100179600Y-102103469D02*
X100084361Y-102186802D01*
X100084361Y-102186802D02*
X99989123Y-102222517D01*
X99989123Y-102222517D02*
X99798647Y-102246326D01*
X99798647Y-102246326D02*
X99655790Y-102228469D01*
X99655790Y-102228469D02*
X99465314Y-102157041D01*
X99465314Y-102157041D02*
X99370076Y-102097517D01*
X99370076Y-102097517D02*
X99274838Y-101990374D01*
X99274838Y-101990374D02*
X99227219Y-101841564D01*
X99227219Y-101841564D02*
X99227219Y-101746326D01*
X99227219Y-101746326D02*
X99274838Y-101609422D01*
X99274838Y-101609422D02*
X99322457Y-101567755D01*
X99703409Y-100853469D02*
X99751028Y-100716564D01*
X99751028Y-100716564D02*
X99798647Y-100674898D01*
X99798647Y-100674898D02*
X99893885Y-100639183D01*
X99893885Y-100639183D02*
X100036742Y-100657041D01*
X100036742Y-100657041D02*
X100131980Y-100716564D01*
X100131980Y-100716564D02*
X100179600Y-100770136D01*
X100179600Y-100770136D02*
X100227219Y-100871326D01*
X100227219Y-100871326D02*
X100227219Y-101252279D01*
X100227219Y-101252279D02*
X99227219Y-101127279D01*
X99227219Y-101127279D02*
X99227219Y-100793945D01*
X99227219Y-100793945D02*
X99274838Y-100704660D01*
X99274838Y-100704660D02*
X99322457Y-100662993D01*
X99322457Y-100662993D02*
X99417695Y-100627279D01*
X99417695Y-100627279D02*
X99512933Y-100639183D01*
X99512933Y-100639183D02*
X99608171Y-100698707D01*
X99608171Y-100698707D02*
X99655790Y-100752279D01*
X99655790Y-100752279D02*
X99703409Y-100853469D01*
X99703409Y-100853469D02*
X99703409Y-101186802D01*
X99227219Y-99460612D02*
X100227219Y-99347517D01*
X100227219Y-99347517D02*
X99512933Y-99067755D01*
X99512933Y-99067755D02*
X100227219Y-98966564D01*
X100227219Y-98966564D02*
X99227219Y-98603469D01*
X99703409Y-98282040D02*
X99703409Y-97948707D01*
X100227219Y-97871326D02*
X100227219Y-98347517D01*
X100227219Y-98347517D02*
X99227219Y-98222517D01*
X99227219Y-98222517D02*
X99227219Y-97746326D01*
X98949600Y-99622517D02*
X98949600Y-97774898D01*
D13*
X130735139Y-59058000D02*
X130926806Y-59124666D01*
X130926806Y-59124666D02*
X131260139Y-59124666D01*
X131260139Y-59124666D02*
X131401806Y-59058000D01*
X131401806Y-59058000D02*
X131476806Y-58991333D01*
X131476806Y-58991333D02*
X131560139Y-58858000D01*
X131560139Y-58858000D02*
X131576806Y-58724666D01*
X131576806Y-58724666D02*
X131526806Y-58591333D01*
X131526806Y-58591333D02*
X131468473Y-58524666D01*
X131468473Y-58524666D02*
X131343473Y-58458000D01*
X131343473Y-58458000D02*
X131085139Y-58391333D01*
X131085139Y-58391333D02*
X130960139Y-58324666D01*
X130960139Y-58324666D02*
X130901806Y-58258000D01*
X130901806Y-58258000D02*
X130851806Y-58124666D01*
X130851806Y-58124666D02*
X130868473Y-57991333D01*
X130868473Y-57991333D02*
X130951806Y-57858000D01*
X130951806Y-57858000D02*
X131026806Y-57791333D01*
X131026806Y-57791333D02*
X131168473Y-57724666D01*
X131168473Y-57724666D02*
X131501806Y-57724666D01*
X131501806Y-57724666D02*
X131693473Y-57791333D01*
X132126806Y-59124666D02*
X132301806Y-57724666D01*
X132793473Y-59124666D02*
X132968473Y-57724666D01*
X132968473Y-57724666D02*
X133301806Y-57724666D01*
X133301806Y-57724666D02*
X133493473Y-57791333D01*
X133493473Y-57791333D02*
X133610139Y-57924666D01*
X133610139Y-57924666D02*
X133660139Y-58058000D01*
X133660139Y-58058000D02*
X133693473Y-58324666D01*
X133693473Y-58324666D02*
X133668473Y-58524666D01*
X133668473Y-58524666D02*
X133568473Y-58791333D01*
X133568473Y-58791333D02*
X133485139Y-58924666D01*
X133485139Y-58924666D02*
X133335139Y-59058000D01*
X133335139Y-59058000D02*
X133126806Y-59124666D01*
X133126806Y-59124666D02*
X132793473Y-59124666D01*
X134285139Y-58391333D02*
X134751806Y-58391333D01*
X134860139Y-59124666D02*
X134193473Y-59124666D01*
X134193473Y-59124666D02*
X134368473Y-57724666D01*
X134368473Y-57724666D02*
X135035139Y-57724666D01*
D11*
X89353266Y-102794422D02*
X87953266Y-102619422D01*
X87953266Y-102619422D02*
X87953266Y-102086088D01*
X87953266Y-102086088D02*
X88019933Y-101961088D01*
X88019933Y-101961088D02*
X88086600Y-101902755D01*
X88086600Y-101902755D02*
X88219933Y-101852755D01*
X88219933Y-101852755D02*
X88419933Y-101877755D01*
X88419933Y-101877755D02*
X88553266Y-101961088D01*
X88553266Y-101961088D02*
X88619933Y-102036088D01*
X88619933Y-102036088D02*
X88686600Y-102177755D01*
X88686600Y-102177755D02*
X88686600Y-102711088D01*
X89353266Y-100594422D02*
X88686600Y-100977755D01*
X89353266Y-101394422D02*
X87953266Y-101219422D01*
X87953266Y-101219422D02*
X87953266Y-100686088D01*
X87953266Y-100686088D02*
X88019933Y-100561088D01*
X88019933Y-100561088D02*
X88086600Y-100502755D01*
X88086600Y-100502755D02*
X88219933Y-100452755D01*
X88219933Y-100452755D02*
X88419933Y-100477755D01*
X88419933Y-100477755D02*
X88553266Y-100561088D01*
X88553266Y-100561088D02*
X88619933Y-100636088D01*
X88619933Y-100636088D02*
X88686600Y-100777755D01*
X88686600Y-100777755D02*
X88686600Y-101311088D01*
X88019933Y-99094422D02*
X87953266Y-99219422D01*
X87953266Y-99219422D02*
X87953266Y-99419422D01*
X87953266Y-99419422D02*
X88019933Y-99627755D01*
X88019933Y-99627755D02*
X88153266Y-99777755D01*
X88153266Y-99777755D02*
X88286600Y-99861088D01*
X88286600Y-99861088D02*
X88553266Y-99961088D01*
X88553266Y-99961088D02*
X88753266Y-99986088D01*
X88753266Y-99986088D02*
X89019933Y-99952755D01*
X89019933Y-99952755D02*
X89153266Y-99902755D01*
X89153266Y-99902755D02*
X89286600Y-99786088D01*
X89286600Y-99786088D02*
X89353266Y-99594422D01*
X89353266Y-99594422D02*
X89353266Y-99461088D01*
X89353266Y-99461088D02*
X89286600Y-99252755D01*
X89286600Y-99252755D02*
X89219933Y-99177755D01*
X89219933Y-99177755D02*
X88753266Y-99119422D01*
X88753266Y-99119422D02*
X88753266Y-99386088D01*
X89353266Y-96727755D02*
X88686600Y-97111088D01*
X89353266Y-97527755D02*
X87953266Y-97352755D01*
X87953266Y-97352755D02*
X87953266Y-96819421D01*
X87953266Y-96819421D02*
X88019933Y-96694421D01*
X88019933Y-96694421D02*
X88086600Y-96636088D01*
X88086600Y-96636088D02*
X88219933Y-96586088D01*
X88219933Y-96586088D02*
X88419933Y-96611088D01*
X88419933Y-96611088D02*
X88553266Y-96694421D01*
X88553266Y-96694421D02*
X88619933Y-96769421D01*
X88619933Y-96769421D02*
X88686600Y-96911088D01*
X88686600Y-96911088D02*
X88686600Y-97444421D01*
X89353266Y-96127755D02*
X87953266Y-95952755D01*
X87953266Y-95952755D02*
X87953266Y-95619421D01*
X87953266Y-95619421D02*
X88019933Y-95427755D01*
X88019933Y-95427755D02*
X88153266Y-95311088D01*
X88153266Y-95311088D02*
X88286600Y-95261088D01*
X88286600Y-95261088D02*
X88553266Y-95227755D01*
X88553266Y-95227755D02*
X88753266Y-95252755D01*
X88753266Y-95252755D02*
X89019933Y-95352755D01*
X89019933Y-95352755D02*
X89153266Y-95436088D01*
X89153266Y-95436088D02*
X89286600Y-95586088D01*
X89286600Y-95586088D02*
X89353266Y-95794421D01*
X89353266Y-95794421D02*
X89353266Y-96127755D01*
X88819933Y-94661088D02*
X88819933Y-93594421D01*
X87953266Y-92952755D02*
X89353266Y-92794422D01*
X89353266Y-92794422D02*
X88353266Y-92402755D01*
X88353266Y-92402755D02*
X89353266Y-92261088D01*
X89353266Y-92261088D02*
X87953266Y-91752755D01*
X89353266Y-90594422D02*
X88686600Y-90977755D01*
X89353266Y-91394422D02*
X87953266Y-91219422D01*
X87953266Y-91219422D02*
X87953266Y-90686088D01*
X87953266Y-90686088D02*
X88019933Y-90561088D01*
X88019933Y-90561088D02*
X88086600Y-90502755D01*
X88086600Y-90502755D02*
X88219933Y-90452755D01*
X88219933Y-90452755D02*
X88419933Y-90477755D01*
X88419933Y-90477755D02*
X88553266Y-90561088D01*
X88553266Y-90561088D02*
X88619933Y-90636088D01*
X88619933Y-90636088D02*
X88686600Y-90777755D01*
X88686600Y-90777755D02*
X88686600Y-91311088D01*
X89092933Y-85594755D02*
X89159600Y-85669755D01*
X89159600Y-85669755D02*
X89226266Y-85878088D01*
X89226266Y-85878088D02*
X89226266Y-86011422D01*
X89226266Y-86011422D02*
X89159600Y-86203088D01*
X89159600Y-86203088D02*
X89026266Y-86319755D01*
X89026266Y-86319755D02*
X88892933Y-86369755D01*
X88892933Y-86369755D02*
X88626266Y-86403088D01*
X88626266Y-86403088D02*
X88426266Y-86378088D01*
X88426266Y-86378088D02*
X88159600Y-86278088D01*
X88159600Y-86278088D02*
X88026266Y-86194755D01*
X88026266Y-86194755D02*
X87892933Y-86044755D01*
X87892933Y-86044755D02*
X87826266Y-85836422D01*
X87826266Y-85836422D02*
X87826266Y-85703088D01*
X87826266Y-85703088D02*
X87892933Y-85511422D01*
X87892933Y-85511422D02*
X87959600Y-85453088D01*
X89226266Y-85011422D02*
X87826266Y-84836422D01*
X88492933Y-84919755D02*
X88492933Y-84119755D01*
X89226266Y-84211422D02*
X87826266Y-84036422D01*
X89226266Y-82744755D02*
X88559600Y-83128088D01*
X89226266Y-83544755D02*
X87826266Y-83369755D01*
X87826266Y-83369755D02*
X87826266Y-82836421D01*
X87826266Y-82836421D02*
X87892933Y-82711421D01*
X87892933Y-82711421D02*
X87959600Y-82653088D01*
X87959600Y-82653088D02*
X88092933Y-82603088D01*
X88092933Y-82603088D02*
X88292933Y-82628088D01*
X88292933Y-82628088D02*
X88426266Y-82711421D01*
X88426266Y-82711421D02*
X88492933Y-82786421D01*
X88492933Y-82786421D02*
X88559600Y-82928088D01*
X88559600Y-82928088D02*
X88559600Y-83461421D01*
X89226266Y-80278088D02*
X88559600Y-80661421D01*
X89226266Y-81078088D02*
X87826266Y-80903088D01*
X87826266Y-80903088D02*
X87826266Y-80369754D01*
X87826266Y-80369754D02*
X87892933Y-80244754D01*
X87892933Y-80244754D02*
X87959600Y-80186421D01*
X87959600Y-80186421D02*
X88092933Y-80136421D01*
X88092933Y-80136421D02*
X88292933Y-80161421D01*
X88292933Y-80161421D02*
X88426266Y-80244754D01*
X88426266Y-80244754D02*
X88492933Y-80319754D01*
X88492933Y-80319754D02*
X88559600Y-80461421D01*
X88559600Y-80461421D02*
X88559600Y-80994754D01*
X89226266Y-79678088D02*
X87826266Y-79503088D01*
X87826266Y-79503088D02*
X87826266Y-79169754D01*
X87826266Y-79169754D02*
X87892933Y-78978088D01*
X87892933Y-78978088D02*
X88026266Y-78861421D01*
X88026266Y-78861421D02*
X88159600Y-78811421D01*
X88159600Y-78811421D02*
X88426266Y-78778088D01*
X88426266Y-78778088D02*
X88626266Y-78803088D01*
X88626266Y-78803088D02*
X88892933Y-78903088D01*
X88892933Y-78903088D02*
X89026266Y-78986421D01*
X89026266Y-78986421D02*
X89159600Y-79136421D01*
X89159600Y-79136421D02*
X89226266Y-79344754D01*
X89226266Y-79344754D02*
X89226266Y-79678088D01*
X88692933Y-78211421D02*
X88692933Y-77144754D01*
X87826266Y-76503088D02*
X89226266Y-76344755D01*
X89226266Y-76344755D02*
X88226266Y-75953088D01*
X88226266Y-75953088D02*
X89226266Y-75811421D01*
X89226266Y-75811421D02*
X87826266Y-75303088D01*
X89226266Y-74144755D02*
X88559600Y-74528088D01*
X89226266Y-74944755D02*
X87826266Y-74769755D01*
X87826266Y-74769755D02*
X87826266Y-74236421D01*
X87826266Y-74236421D02*
X87892933Y-74111421D01*
X87892933Y-74111421D02*
X87959600Y-74053088D01*
X87959600Y-74053088D02*
X88092933Y-74003088D01*
X88092933Y-74003088D02*
X88292933Y-74028088D01*
X88292933Y-74028088D02*
X88426266Y-74111421D01*
X88426266Y-74111421D02*
X88492933Y-74186421D01*
X88492933Y-74186421D02*
X88559600Y-74328088D01*
X88559600Y-74328088D02*
X88559600Y-74861421D01*
X98809244Y-44642933D02*
X98734244Y-44709600D01*
X98734244Y-44709600D02*
X98525911Y-44776266D01*
X98525911Y-44776266D02*
X98392578Y-44776266D01*
X98392578Y-44776266D02*
X98200911Y-44709600D01*
X98200911Y-44709600D02*
X98084244Y-44576266D01*
X98084244Y-44576266D02*
X98034244Y-44442933D01*
X98034244Y-44442933D02*
X98000911Y-44176266D01*
X98000911Y-44176266D02*
X98025911Y-43976266D01*
X98025911Y-43976266D02*
X98125911Y-43709600D01*
X98125911Y-43709600D02*
X98209244Y-43576266D01*
X98209244Y-43576266D02*
X98359244Y-43442933D01*
X98359244Y-43442933D02*
X98567578Y-43376266D01*
X98567578Y-43376266D02*
X98700911Y-43376266D01*
X98700911Y-43376266D02*
X98892578Y-43442933D01*
X98892578Y-43442933D02*
X98950911Y-43509600D01*
X100059244Y-44776266D02*
X99392578Y-44776266D01*
X99392578Y-44776266D02*
X99567578Y-43376266D01*
X100700911Y-43376266D02*
X100559244Y-44509600D01*
X100559244Y-44509600D02*
X100609244Y-44642933D01*
X100609244Y-44642933D02*
X100667577Y-44709600D01*
X100667577Y-44709600D02*
X100792577Y-44776266D01*
X100792577Y-44776266D02*
X101059244Y-44776266D01*
X101059244Y-44776266D02*
X101200911Y-44709600D01*
X101200911Y-44709600D02*
X101275911Y-44642933D01*
X101275911Y-44642933D02*
X101359244Y-44509600D01*
X101359244Y-44509600D02*
X101500911Y-43376266D01*
X101934244Y-44709600D02*
X102125911Y-44776266D01*
X102125911Y-44776266D02*
X102459244Y-44776266D01*
X102459244Y-44776266D02*
X102600911Y-44709600D01*
X102600911Y-44709600D02*
X102675911Y-44642933D01*
X102675911Y-44642933D02*
X102759244Y-44509600D01*
X102759244Y-44509600D02*
X102775911Y-44376266D01*
X102775911Y-44376266D02*
X102725911Y-44242933D01*
X102725911Y-44242933D02*
X102667578Y-44176266D01*
X102667578Y-44176266D02*
X102542578Y-44109600D01*
X102542578Y-44109600D02*
X102284244Y-44042933D01*
X102284244Y-44042933D02*
X102159244Y-43976266D01*
X102159244Y-43976266D02*
X102100911Y-43909600D01*
X102100911Y-43909600D02*
X102050911Y-43776266D01*
X102050911Y-43776266D02*
X102067578Y-43642933D01*
X102067578Y-43642933D02*
X102150911Y-43509600D01*
X102150911Y-43509600D02*
X102225911Y-43442933D01*
X102225911Y-43442933D02*
X102367578Y-43376266D01*
X102367578Y-43376266D02*
X102700911Y-43376266D01*
X102700911Y-43376266D02*
X102892578Y-43442933D01*
X103300911Y-43376266D02*
X104100911Y-43376266D01*
X103525911Y-44776266D02*
X103700911Y-43376266D01*
X104484244Y-44042933D02*
X104950911Y-44042933D01*
X105059244Y-44776266D02*
X104392578Y-44776266D01*
X104392578Y-44776266D02*
X104567578Y-43376266D01*
X104567578Y-43376266D02*
X105234244Y-43376266D01*
X106459245Y-44776266D02*
X106075911Y-44109600D01*
X105659245Y-44776266D02*
X105834245Y-43376266D01*
X105834245Y-43376266D02*
X106367578Y-43376266D01*
X106367578Y-43376266D02*
X106492578Y-43442933D01*
X106492578Y-43442933D02*
X106550911Y-43509600D01*
X106550911Y-43509600D02*
X106600911Y-43642933D01*
X106600911Y-43642933D02*
X106575911Y-43842933D01*
X106575911Y-43842933D02*
X106492578Y-43976266D01*
X106492578Y-43976266D02*
X106417578Y-44042933D01*
X106417578Y-44042933D02*
X106275911Y-44109600D01*
X106275911Y-44109600D02*
X105742578Y-44109600D01*
X107075911Y-44642933D02*
X107134245Y-44709600D01*
X107134245Y-44709600D02*
X107059245Y-44776266D01*
X107059245Y-44776266D02*
X107000911Y-44709600D01*
X107000911Y-44709600D02*
X107075911Y-44642933D01*
X107075911Y-44642933D02*
X107059245Y-44776266D01*
X107767578Y-43376266D02*
X107925912Y-44776266D01*
X107925912Y-44776266D02*
X108317578Y-43776266D01*
X108317578Y-43776266D02*
X108459245Y-44776266D01*
X108459245Y-44776266D02*
X108967578Y-43376266D01*
X109300912Y-43376266D02*
X110100912Y-43376266D01*
X109525912Y-44776266D02*
X109700912Y-43376266D01*
X110950912Y-44042933D02*
X110484245Y-44042933D01*
X110392579Y-44776266D02*
X110567579Y-43376266D01*
X110567579Y-43376266D02*
X111234245Y-43376266D01*
D10*
X143597333Y-102119580D02*
X143549714Y-102167200D01*
X143549714Y-102167200D02*
X143406857Y-102214819D01*
X143406857Y-102214819D02*
X143311619Y-102214819D01*
X143311619Y-102214819D02*
X143168762Y-102167200D01*
X143168762Y-102167200D02*
X143073524Y-102071961D01*
X143073524Y-102071961D02*
X143025905Y-101976723D01*
X143025905Y-101976723D02*
X142978286Y-101786247D01*
X142978286Y-101786247D02*
X142978286Y-101643390D01*
X142978286Y-101643390D02*
X143025905Y-101452914D01*
X143025905Y-101452914D02*
X143073524Y-101357676D01*
X143073524Y-101357676D02*
X143168762Y-101262438D01*
X143168762Y-101262438D02*
X143311619Y-101214819D01*
X143311619Y-101214819D02*
X143406857Y-101214819D01*
X143406857Y-101214819D02*
X143549714Y-101262438D01*
X143549714Y-101262438D02*
X143597333Y-101310057D01*
X144168762Y-101643390D02*
X144073524Y-101595771D01*
X144073524Y-101595771D02*
X144025905Y-101548152D01*
X144025905Y-101548152D02*
X143978286Y-101452914D01*
X143978286Y-101452914D02*
X143978286Y-101405295D01*
X143978286Y-101405295D02*
X144025905Y-101310057D01*
X144025905Y-101310057D02*
X144073524Y-101262438D01*
X144073524Y-101262438D02*
X144168762Y-101214819D01*
X144168762Y-101214819D02*
X144359238Y-101214819D01*
X144359238Y-101214819D02*
X144454476Y-101262438D01*
X144454476Y-101262438D02*
X144502095Y-101310057D01*
X144502095Y-101310057D02*
X144549714Y-101405295D01*
X144549714Y-101405295D02*
X144549714Y-101452914D01*
X144549714Y-101452914D02*
X144502095Y-101548152D01*
X144502095Y-101548152D02*
X144454476Y-101595771D01*
X144454476Y-101595771D02*
X144359238Y-101643390D01*
X144359238Y-101643390D02*
X144168762Y-101643390D01*
X144168762Y-101643390D02*
X144073524Y-101691009D01*
X144073524Y-101691009D02*
X144025905Y-101738628D01*
X144025905Y-101738628D02*
X143978286Y-101833866D01*
X143978286Y-101833866D02*
X143978286Y-102024342D01*
X143978286Y-102024342D02*
X144025905Y-102119580D01*
X144025905Y-102119580D02*
X144073524Y-102167200D01*
X144073524Y-102167200D02*
X144168762Y-102214819D01*
X144168762Y-102214819D02*
X144359238Y-102214819D01*
X144359238Y-102214819D02*
X144454476Y-102167200D01*
X144454476Y-102167200D02*
X144502095Y-102119580D01*
X144502095Y-102119580D02*
X144549714Y-102024342D01*
X144549714Y-102024342D02*
X144549714Y-101833866D01*
X144549714Y-101833866D02*
X144502095Y-101738628D01*
X144502095Y-101738628D02*
X144454476Y-101691009D01*
X144454476Y-101691009D02*
X144359238Y-101643390D01*
X91132819Y-85891666D02*
X90656628Y-86224999D01*
X91132819Y-86463094D02*
X90132819Y-86463094D01*
X90132819Y-86463094D02*
X90132819Y-86082142D01*
X90132819Y-86082142D02*
X90180438Y-85986904D01*
X90180438Y-85986904D02*
X90228057Y-85939285D01*
X90228057Y-85939285D02*
X90323295Y-85891666D01*
X90323295Y-85891666D02*
X90466152Y-85891666D01*
X90466152Y-85891666D02*
X90561390Y-85939285D01*
X90561390Y-85939285D02*
X90609009Y-85986904D01*
X90609009Y-85986904D02*
X90656628Y-86082142D01*
X90656628Y-86082142D02*
X90656628Y-86463094D01*
X90132819Y-85558332D02*
X90132819Y-84891666D01*
X90132819Y-84891666D02*
X91132819Y-85320237D01*
X116945580Y-89193666D02*
X116993200Y-89241285D01*
X116993200Y-89241285D02*
X117040819Y-89384142D01*
X117040819Y-89384142D02*
X117040819Y-89479380D01*
X117040819Y-89479380D02*
X116993200Y-89622237D01*
X116993200Y-89622237D02*
X116897961Y-89717475D01*
X116897961Y-89717475D02*
X116802723Y-89765094D01*
X116802723Y-89765094D02*
X116612247Y-89812713D01*
X116612247Y-89812713D02*
X116469390Y-89812713D01*
X116469390Y-89812713D02*
X116278914Y-89765094D01*
X116278914Y-89765094D02*
X116183676Y-89717475D01*
X116183676Y-89717475D02*
X116088438Y-89622237D01*
X116088438Y-89622237D02*
X116040819Y-89479380D01*
X116040819Y-89479380D02*
X116040819Y-89384142D01*
X116040819Y-89384142D02*
X116088438Y-89241285D01*
X116088438Y-89241285D02*
X116136057Y-89193666D01*
X116136057Y-88812713D02*
X116088438Y-88765094D01*
X116088438Y-88765094D02*
X116040819Y-88669856D01*
X116040819Y-88669856D02*
X116040819Y-88431761D01*
X116040819Y-88431761D02*
X116088438Y-88336523D01*
X116088438Y-88336523D02*
X116136057Y-88288904D01*
X116136057Y-88288904D02*
X116231295Y-88241285D01*
X116231295Y-88241285D02*
X116326533Y-88241285D01*
X116326533Y-88241285D02*
X116469390Y-88288904D01*
X116469390Y-88288904D02*
X117040819Y-88860332D01*
X117040819Y-88860332D02*
X117040819Y-88241285D01*
X91291580Y-92209857D02*
X91339200Y-92257476D01*
X91339200Y-92257476D02*
X91386819Y-92400333D01*
X91386819Y-92400333D02*
X91386819Y-92495571D01*
X91386819Y-92495571D02*
X91339200Y-92638428D01*
X91339200Y-92638428D02*
X91243961Y-92733666D01*
X91243961Y-92733666D02*
X91148723Y-92781285D01*
X91148723Y-92781285D02*
X90958247Y-92828904D01*
X90958247Y-92828904D02*
X90815390Y-92828904D01*
X90815390Y-92828904D02*
X90624914Y-92781285D01*
X90624914Y-92781285D02*
X90529676Y-92733666D01*
X90529676Y-92733666D02*
X90434438Y-92638428D01*
X90434438Y-92638428D02*
X90386819Y-92495571D01*
X90386819Y-92495571D02*
X90386819Y-92400333D01*
X90386819Y-92400333D02*
X90434438Y-92257476D01*
X90434438Y-92257476D02*
X90482057Y-92209857D01*
X91386819Y-91257476D02*
X91386819Y-91828904D01*
X91386819Y-91543190D02*
X90386819Y-91543190D01*
X90386819Y-91543190D02*
X90529676Y-91638428D01*
X90529676Y-91638428D02*
X90624914Y-91733666D01*
X90624914Y-91733666D02*
X90672533Y-91828904D01*
X91386819Y-90305095D02*
X91386819Y-90876523D01*
X91386819Y-90590809D02*
X90386819Y-90590809D01*
X90386819Y-90590809D02*
X90529676Y-90686047D01*
X90529676Y-90686047D02*
X90624914Y-90781285D01*
X90624914Y-90781285D02*
X90672533Y-90876523D01*
X142472580Y-71635857D02*
X142520200Y-71683476D01*
X142520200Y-71683476D02*
X142567819Y-71826333D01*
X142567819Y-71826333D02*
X142567819Y-71921571D01*
X142567819Y-71921571D02*
X142520200Y-72064428D01*
X142520200Y-72064428D02*
X142424961Y-72159666D01*
X142424961Y-72159666D02*
X142329723Y-72207285D01*
X142329723Y-72207285D02*
X142139247Y-72254904D01*
X142139247Y-72254904D02*
X141996390Y-72254904D01*
X141996390Y-72254904D02*
X141805914Y-72207285D01*
X141805914Y-72207285D02*
X141710676Y-72159666D01*
X141710676Y-72159666D02*
X141615438Y-72064428D01*
X141615438Y-72064428D02*
X141567819Y-71921571D01*
X141567819Y-71921571D02*
X141567819Y-71826333D01*
X141567819Y-71826333D02*
X141615438Y-71683476D01*
X141615438Y-71683476D02*
X141663057Y-71635857D01*
X141663057Y-71254904D02*
X141615438Y-71207285D01*
X141615438Y-71207285D02*
X141567819Y-71112047D01*
X141567819Y-71112047D02*
X141567819Y-70873952D01*
X141567819Y-70873952D02*
X141615438Y-70778714D01*
X141615438Y-70778714D02*
X141663057Y-70731095D01*
X141663057Y-70731095D02*
X141758295Y-70683476D01*
X141758295Y-70683476D02*
X141853533Y-70683476D01*
X141853533Y-70683476D02*
X141996390Y-70731095D01*
X141996390Y-70731095D02*
X142567819Y-71302523D01*
X142567819Y-71302523D02*
X142567819Y-70683476D01*
X141567819Y-70350142D02*
X141567819Y-69731095D01*
X141567819Y-69731095D02*
X141948771Y-70064428D01*
X141948771Y-70064428D02*
X141948771Y-69921571D01*
X141948771Y-69921571D02*
X141996390Y-69826333D01*
X141996390Y-69826333D02*
X142044009Y-69778714D01*
X142044009Y-69778714D02*
X142139247Y-69731095D01*
X142139247Y-69731095D02*
X142377342Y-69731095D01*
X142377342Y-69731095D02*
X142472580Y-69778714D01*
X142472580Y-69778714D02*
X142520200Y-69826333D01*
X142520200Y-69826333D02*
X142567819Y-69921571D01*
X142567819Y-69921571D02*
X142567819Y-70207285D01*
X142567819Y-70207285D02*
X142520200Y-70302523D01*
X142520200Y-70302523D02*
X142472580Y-70350142D01*
X110609142Y-87829580D02*
X110561523Y-87877200D01*
X110561523Y-87877200D02*
X110418666Y-87924819D01*
X110418666Y-87924819D02*
X110323428Y-87924819D01*
X110323428Y-87924819D02*
X110180571Y-87877200D01*
X110180571Y-87877200D02*
X110085333Y-87781961D01*
X110085333Y-87781961D02*
X110037714Y-87686723D01*
X110037714Y-87686723D02*
X109990095Y-87496247D01*
X109990095Y-87496247D02*
X109990095Y-87353390D01*
X109990095Y-87353390D02*
X110037714Y-87162914D01*
X110037714Y-87162914D02*
X110085333Y-87067676D01*
X110085333Y-87067676D02*
X110180571Y-86972438D01*
X110180571Y-86972438D02*
X110323428Y-86924819D01*
X110323428Y-86924819D02*
X110418666Y-86924819D01*
X110418666Y-86924819D02*
X110561523Y-86972438D01*
X110561523Y-86972438D02*
X110609142Y-87020057D01*
X111561523Y-87924819D02*
X110990095Y-87924819D01*
X111275809Y-87924819D02*
X111275809Y-86924819D01*
X111275809Y-86924819D02*
X111180571Y-87067676D01*
X111180571Y-87067676D02*
X111085333Y-87162914D01*
X111085333Y-87162914D02*
X110990095Y-87210533D01*
X112418666Y-87258152D02*
X112418666Y-87924819D01*
X112180571Y-86877200D02*
X111942476Y-87591485D01*
X111942476Y-87591485D02*
X112561523Y-87591485D01*
X90656580Y-60459857D02*
X90704200Y-60507476D01*
X90704200Y-60507476D02*
X90751819Y-60650333D01*
X90751819Y-60650333D02*
X90751819Y-60745571D01*
X90751819Y-60745571D02*
X90704200Y-60888428D01*
X90704200Y-60888428D02*
X90608961Y-60983666D01*
X90608961Y-60983666D02*
X90513723Y-61031285D01*
X90513723Y-61031285D02*
X90323247Y-61078904D01*
X90323247Y-61078904D02*
X90180390Y-61078904D01*
X90180390Y-61078904D02*
X89989914Y-61031285D01*
X89989914Y-61031285D02*
X89894676Y-60983666D01*
X89894676Y-60983666D02*
X89799438Y-60888428D01*
X89799438Y-60888428D02*
X89751819Y-60745571D01*
X89751819Y-60745571D02*
X89751819Y-60650333D01*
X89751819Y-60650333D02*
X89799438Y-60507476D01*
X89799438Y-60507476D02*
X89847057Y-60459857D01*
X90751819Y-59507476D02*
X90751819Y-60078904D01*
X90751819Y-59793190D02*
X89751819Y-59793190D01*
X89751819Y-59793190D02*
X89894676Y-59888428D01*
X89894676Y-59888428D02*
X89989914Y-59983666D01*
X89989914Y-59983666D02*
X90037533Y-60078904D01*
X89751819Y-58650333D02*
X89751819Y-58840809D01*
X89751819Y-58840809D02*
X89799438Y-58936047D01*
X89799438Y-58936047D02*
X89847057Y-58983666D01*
X89847057Y-58983666D02*
X89989914Y-59078904D01*
X89989914Y-59078904D02*
X90180390Y-59126523D01*
X90180390Y-59126523D02*
X90561342Y-59126523D01*
X90561342Y-59126523D02*
X90656580Y-59078904D01*
X90656580Y-59078904D02*
X90704200Y-59031285D01*
X90704200Y-59031285D02*
X90751819Y-58936047D01*
X90751819Y-58936047D02*
X90751819Y-58745571D01*
X90751819Y-58745571D02*
X90704200Y-58650333D01*
X90704200Y-58650333D02*
X90656580Y-58602714D01*
X90656580Y-58602714D02*
X90561342Y-58555095D01*
X90561342Y-58555095D02*
X90323247Y-58555095D01*
X90323247Y-58555095D02*
X90228009Y-58602714D01*
X90228009Y-58602714D02*
X90180390Y-58650333D01*
X90180390Y-58650333D02*
X90132771Y-58745571D01*
X90132771Y-58745571D02*
X90132771Y-58936047D01*
X90132771Y-58936047D02*
X90180390Y-59031285D01*
X90180390Y-59031285D02*
X90228009Y-59078904D01*
X90228009Y-59078904D02*
X90323247Y-59126523D01*
X156155580Y-60459857D02*
X156203200Y-60507476D01*
X156203200Y-60507476D02*
X156250819Y-60650333D01*
X156250819Y-60650333D02*
X156250819Y-60745571D01*
X156250819Y-60745571D02*
X156203200Y-60888428D01*
X156203200Y-60888428D02*
X156107961Y-60983666D01*
X156107961Y-60983666D02*
X156012723Y-61031285D01*
X156012723Y-61031285D02*
X155822247Y-61078904D01*
X155822247Y-61078904D02*
X155679390Y-61078904D01*
X155679390Y-61078904D02*
X155488914Y-61031285D01*
X155488914Y-61031285D02*
X155393676Y-60983666D01*
X155393676Y-60983666D02*
X155298438Y-60888428D01*
X155298438Y-60888428D02*
X155250819Y-60745571D01*
X155250819Y-60745571D02*
X155250819Y-60650333D01*
X155250819Y-60650333D02*
X155298438Y-60507476D01*
X155298438Y-60507476D02*
X155346057Y-60459857D01*
X155346057Y-60078904D02*
X155298438Y-60031285D01*
X155298438Y-60031285D02*
X155250819Y-59936047D01*
X155250819Y-59936047D02*
X155250819Y-59697952D01*
X155250819Y-59697952D02*
X155298438Y-59602714D01*
X155298438Y-59602714D02*
X155346057Y-59555095D01*
X155346057Y-59555095D02*
X155441295Y-59507476D01*
X155441295Y-59507476D02*
X155536533Y-59507476D01*
X155536533Y-59507476D02*
X155679390Y-59555095D01*
X155679390Y-59555095D02*
X156250819Y-60126523D01*
X156250819Y-60126523D02*
X156250819Y-59507476D01*
X155250819Y-58650333D02*
X155250819Y-58840809D01*
X155250819Y-58840809D02*
X155298438Y-58936047D01*
X155298438Y-58936047D02*
X155346057Y-58983666D01*
X155346057Y-58983666D02*
X155488914Y-59078904D01*
X155488914Y-59078904D02*
X155679390Y-59126523D01*
X155679390Y-59126523D02*
X156060342Y-59126523D01*
X156060342Y-59126523D02*
X156155580Y-59078904D01*
X156155580Y-59078904D02*
X156203200Y-59031285D01*
X156203200Y-59031285D02*
X156250819Y-58936047D01*
X156250819Y-58936047D02*
X156250819Y-58745571D01*
X156250819Y-58745571D02*
X156203200Y-58650333D01*
X156203200Y-58650333D02*
X156155580Y-58602714D01*
X156155580Y-58602714D02*
X156060342Y-58555095D01*
X156060342Y-58555095D02*
X155822247Y-58555095D01*
X155822247Y-58555095D02*
X155727009Y-58602714D01*
X155727009Y-58602714D02*
X155679390Y-58650333D01*
X155679390Y-58650333D02*
X155631771Y-58745571D01*
X155631771Y-58745571D02*
X155631771Y-58936047D01*
X155631771Y-58936047D02*
X155679390Y-59031285D01*
X155679390Y-59031285D02*
X155727009Y-59078904D01*
X155727009Y-59078904D02*
X155822247Y-59126523D01*
X161504333Y-88722581D02*
X161456714Y-88770201D01*
X161456714Y-88770201D02*
X161313857Y-88817820D01*
X161313857Y-88817820D02*
X161218619Y-88817820D01*
X161218619Y-88817820D02*
X161075762Y-88770201D01*
X161075762Y-88770201D02*
X160980524Y-88674962D01*
X160980524Y-88674962D02*
X160932905Y-88579724D01*
X160932905Y-88579724D02*
X160885286Y-88389248D01*
X160885286Y-88389248D02*
X160885286Y-88246391D01*
X160885286Y-88246391D02*
X160932905Y-88055915D01*
X160932905Y-88055915D02*
X160980524Y-87960677D01*
X160980524Y-87960677D02*
X161075762Y-87865439D01*
X161075762Y-87865439D02*
X161218619Y-87817820D01*
X161218619Y-87817820D02*
X161313857Y-87817820D01*
X161313857Y-87817820D02*
X161456714Y-87865439D01*
X161456714Y-87865439D02*
X161504333Y-87913058D01*
X161837667Y-87817820D02*
X162456714Y-87817820D01*
X162456714Y-87817820D02*
X162123381Y-88198772D01*
X162123381Y-88198772D02*
X162266238Y-88198772D01*
X162266238Y-88198772D02*
X162361476Y-88246391D01*
X162361476Y-88246391D02*
X162409095Y-88294010D01*
X162409095Y-88294010D02*
X162456714Y-88389248D01*
X162456714Y-88389248D02*
X162456714Y-88627343D01*
X162456714Y-88627343D02*
X162409095Y-88722581D01*
X162409095Y-88722581D02*
X162361476Y-88770201D01*
X162361476Y-88770201D02*
X162266238Y-88817820D01*
X162266238Y-88817820D02*
X161980524Y-88817820D01*
X161980524Y-88817820D02*
X161885286Y-88770201D01*
X161885286Y-88770201D02*
X161837667Y-88722581D01*
X103632095Y-82893819D02*
X103632095Y-83703342D01*
X103632095Y-83703342D02*
X103679714Y-83798580D01*
X103679714Y-83798580D02*
X103727333Y-83846200D01*
X103727333Y-83846200D02*
X103822571Y-83893819D01*
X103822571Y-83893819D02*
X104013047Y-83893819D01*
X104013047Y-83893819D02*
X104108285Y-83846200D01*
X104108285Y-83846200D02*
X104155904Y-83798580D01*
X104155904Y-83798580D02*
X104203523Y-83703342D01*
X104203523Y-83703342D02*
X104203523Y-82893819D01*
X104632095Y-82989057D02*
X104679714Y-82941438D01*
X104679714Y-82941438D02*
X104774952Y-82893819D01*
X104774952Y-82893819D02*
X105013047Y-82893819D01*
X105013047Y-82893819D02*
X105108285Y-82941438D01*
X105108285Y-82941438D02*
X105155904Y-82989057D01*
X105155904Y-82989057D02*
X105203523Y-83084295D01*
X105203523Y-83084295D02*
X105203523Y-83179533D01*
X105203523Y-83179533D02*
X105155904Y-83322390D01*
X105155904Y-83322390D02*
X104584476Y-83893819D01*
X104584476Y-83893819D02*
X105203523Y-83893819D01*
X90689580Y-72397857D02*
X90737200Y-72445476D01*
X90737200Y-72445476D02*
X90784819Y-72588333D01*
X90784819Y-72588333D02*
X90784819Y-72683571D01*
X90784819Y-72683571D02*
X90737200Y-72826428D01*
X90737200Y-72826428D02*
X90641961Y-72921666D01*
X90641961Y-72921666D02*
X90546723Y-72969285D01*
X90546723Y-72969285D02*
X90356247Y-73016904D01*
X90356247Y-73016904D02*
X90213390Y-73016904D01*
X90213390Y-73016904D02*
X90022914Y-72969285D01*
X90022914Y-72969285D02*
X89927676Y-72921666D01*
X89927676Y-72921666D02*
X89832438Y-72826428D01*
X89832438Y-72826428D02*
X89784819Y-72683571D01*
X89784819Y-72683571D02*
X89784819Y-72588333D01*
X89784819Y-72588333D02*
X89832438Y-72445476D01*
X89832438Y-72445476D02*
X89880057Y-72397857D01*
X90784819Y-71445476D02*
X90784819Y-72016904D01*
X90784819Y-71731190D02*
X89784819Y-71731190D01*
X89784819Y-71731190D02*
X89927676Y-71826428D01*
X89927676Y-71826428D02*
X90022914Y-71921666D01*
X90022914Y-71921666D02*
X90070533Y-72016904D01*
X89784819Y-70540714D02*
X89784819Y-71016904D01*
X89784819Y-71016904D02*
X90261009Y-71064523D01*
X90261009Y-71064523D02*
X90213390Y-71016904D01*
X90213390Y-71016904D02*
X90165771Y-70921666D01*
X90165771Y-70921666D02*
X90165771Y-70683571D01*
X90165771Y-70683571D02*
X90213390Y-70588333D01*
X90213390Y-70588333D02*
X90261009Y-70540714D01*
X90261009Y-70540714D02*
X90356247Y-70493095D01*
X90356247Y-70493095D02*
X90594342Y-70493095D01*
X90594342Y-70493095D02*
X90689580Y-70540714D01*
X90689580Y-70540714D02*
X90737200Y-70588333D01*
X90737200Y-70588333D02*
X90784819Y-70683571D01*
X90784819Y-70683571D02*
X90784819Y-70921666D01*
X90784819Y-70921666D02*
X90737200Y-71016904D01*
X90737200Y-71016904D02*
X90689580Y-71064523D01*
X158623095Y-99712820D02*
X158623095Y-100522343D01*
X158623095Y-100522343D02*
X158670714Y-100617581D01*
X158670714Y-100617581D02*
X158718333Y-100665201D01*
X158718333Y-100665201D02*
X158813571Y-100712820D01*
X158813571Y-100712820D02*
X159004047Y-100712820D01*
X159004047Y-100712820D02*
X159099285Y-100665201D01*
X159099285Y-100665201D02*
X159146904Y-100617581D01*
X159146904Y-100617581D02*
X159194523Y-100522343D01*
X159194523Y-100522343D02*
X159194523Y-99712820D01*
X159575476Y-99712820D02*
X160194523Y-99712820D01*
X160194523Y-99712820D02*
X159861190Y-100093772D01*
X159861190Y-100093772D02*
X160004047Y-100093772D01*
X160004047Y-100093772D02*
X160099285Y-100141391D01*
X160099285Y-100141391D02*
X160146904Y-100189010D01*
X160146904Y-100189010D02*
X160194523Y-100284248D01*
X160194523Y-100284248D02*
X160194523Y-100522343D01*
X160194523Y-100522343D02*
X160146904Y-100617581D01*
X160146904Y-100617581D02*
X160099285Y-100665201D01*
X160099285Y-100665201D02*
X160004047Y-100712820D01*
X160004047Y-100712820D02*
X159718333Y-100712820D01*
X159718333Y-100712820D02*
X159623095Y-100665201D01*
X159623095Y-100665201D02*
X159575476Y-100617581D01*
X156910819Y-66166904D02*
X157720342Y-66166904D01*
X157720342Y-66166904D02*
X157815580Y-66119285D01*
X157815580Y-66119285D02*
X157863200Y-66071666D01*
X157863200Y-66071666D02*
X157910819Y-65976428D01*
X157910819Y-65976428D02*
X157910819Y-65785952D01*
X157910819Y-65785952D02*
X157863200Y-65690714D01*
X157863200Y-65690714D02*
X157815580Y-65643095D01*
X157815580Y-65643095D02*
X157720342Y-65595476D01*
X157720342Y-65595476D02*
X156910819Y-65595476D01*
X157910819Y-65071666D02*
X157910819Y-64881190D01*
X157910819Y-64881190D02*
X157863200Y-64785952D01*
X157863200Y-64785952D02*
X157815580Y-64738333D01*
X157815580Y-64738333D02*
X157672723Y-64643095D01*
X157672723Y-64643095D02*
X157482247Y-64595476D01*
X157482247Y-64595476D02*
X157101295Y-64595476D01*
X157101295Y-64595476D02*
X157006057Y-64643095D01*
X157006057Y-64643095D02*
X156958438Y-64690714D01*
X156958438Y-64690714D02*
X156910819Y-64785952D01*
X156910819Y-64785952D02*
X156910819Y-64976428D01*
X156910819Y-64976428D02*
X156958438Y-65071666D01*
X156958438Y-65071666D02*
X157006057Y-65119285D01*
X157006057Y-65119285D02*
X157101295Y-65166904D01*
X157101295Y-65166904D02*
X157339390Y-65166904D01*
X157339390Y-65166904D02*
X157434628Y-65119285D01*
X157434628Y-65119285D02*
X157482247Y-65071666D01*
X157482247Y-65071666D02*
X157529866Y-64976428D01*
X157529866Y-64976428D02*
X157529866Y-64785952D01*
X157529866Y-64785952D02*
X157482247Y-64690714D01*
X157482247Y-64690714D02*
X157434628Y-64643095D01*
X157434628Y-64643095D02*
X157339390Y-64595476D01*
X95450819Y-100179094D02*
X94450819Y-100179094D01*
X94450819Y-100179094D02*
X94450819Y-99940999D01*
X94450819Y-99940999D02*
X94498438Y-99798142D01*
X94498438Y-99798142D02*
X94593676Y-99702904D01*
X94593676Y-99702904D02*
X94688914Y-99655285D01*
X94688914Y-99655285D02*
X94879390Y-99607666D01*
X94879390Y-99607666D02*
X95022247Y-99607666D01*
X95022247Y-99607666D02*
X95212723Y-99655285D01*
X95212723Y-99655285D02*
X95307961Y-99702904D01*
X95307961Y-99702904D02*
X95403200Y-99798142D01*
X95403200Y-99798142D02*
X95450819Y-99940999D01*
X95450819Y-99940999D02*
X95450819Y-100179094D01*
X94546057Y-99226713D02*
X94498438Y-99179094D01*
X94498438Y-99179094D02*
X94450819Y-99083856D01*
X94450819Y-99083856D02*
X94450819Y-98845761D01*
X94450819Y-98845761D02*
X94498438Y-98750523D01*
X94498438Y-98750523D02*
X94546057Y-98702904D01*
X94546057Y-98702904D02*
X94641295Y-98655285D01*
X94641295Y-98655285D02*
X94736533Y-98655285D01*
X94736533Y-98655285D02*
X94879390Y-98702904D01*
X94879390Y-98702904D02*
X95450819Y-99274332D01*
X95450819Y-99274332D02*
X95450819Y-98655285D01*
X157980142Y-76273819D02*
X157646809Y-75797628D01*
X157408714Y-76273819D02*
X157408714Y-75273819D01*
X157408714Y-75273819D02*
X157789666Y-75273819D01*
X157789666Y-75273819D02*
X157884904Y-75321438D01*
X157884904Y-75321438D02*
X157932523Y-75369057D01*
X157932523Y-75369057D02*
X157980142Y-75464295D01*
X157980142Y-75464295D02*
X157980142Y-75607152D01*
X157980142Y-75607152D02*
X157932523Y-75702390D01*
X157932523Y-75702390D02*
X157884904Y-75750009D01*
X157884904Y-75750009D02*
X157789666Y-75797628D01*
X157789666Y-75797628D02*
X157408714Y-75797628D01*
X158932523Y-76273819D02*
X158361095Y-76273819D01*
X158646809Y-76273819D02*
X158646809Y-75273819D01*
X158646809Y-75273819D02*
X158551571Y-75416676D01*
X158551571Y-75416676D02*
X158456333Y-75511914D01*
X158456333Y-75511914D02*
X158361095Y-75559533D01*
X159551571Y-75273819D02*
X159646809Y-75273819D01*
X159646809Y-75273819D02*
X159742047Y-75321438D01*
X159742047Y-75321438D02*
X159789666Y-75369057D01*
X159789666Y-75369057D02*
X159837285Y-75464295D01*
X159837285Y-75464295D02*
X159884904Y-75654771D01*
X159884904Y-75654771D02*
X159884904Y-75892866D01*
X159884904Y-75892866D02*
X159837285Y-76083342D01*
X159837285Y-76083342D02*
X159789666Y-76178580D01*
X159789666Y-76178580D02*
X159742047Y-76226200D01*
X159742047Y-76226200D02*
X159646809Y-76273819D01*
X159646809Y-76273819D02*
X159551571Y-76273819D01*
X159551571Y-76273819D02*
X159456333Y-76226200D01*
X159456333Y-76226200D02*
X159408714Y-76178580D01*
X159408714Y-76178580D02*
X159361095Y-76083342D01*
X159361095Y-76083342D02*
X159313476Y-75892866D01*
X159313476Y-75892866D02*
X159313476Y-75654771D01*
X159313476Y-75654771D02*
X159361095Y-75464295D01*
X159361095Y-75464295D02*
X159408714Y-75369057D01*
X159408714Y-75369057D02*
X159456333Y-75321438D01*
X159456333Y-75321438D02*
X159551571Y-75273819D01*
X142439580Y-60459857D02*
X142487200Y-60507476D01*
X142487200Y-60507476D02*
X142534819Y-60650333D01*
X142534819Y-60650333D02*
X142534819Y-60745571D01*
X142534819Y-60745571D02*
X142487200Y-60888428D01*
X142487200Y-60888428D02*
X142391961Y-60983666D01*
X142391961Y-60983666D02*
X142296723Y-61031285D01*
X142296723Y-61031285D02*
X142106247Y-61078904D01*
X142106247Y-61078904D02*
X141963390Y-61078904D01*
X141963390Y-61078904D02*
X141772914Y-61031285D01*
X141772914Y-61031285D02*
X141677676Y-60983666D01*
X141677676Y-60983666D02*
X141582438Y-60888428D01*
X141582438Y-60888428D02*
X141534819Y-60745571D01*
X141534819Y-60745571D02*
X141534819Y-60650333D01*
X141534819Y-60650333D02*
X141582438Y-60507476D01*
X141582438Y-60507476D02*
X141630057Y-60459857D01*
X141630057Y-60078904D02*
X141582438Y-60031285D01*
X141582438Y-60031285D02*
X141534819Y-59936047D01*
X141534819Y-59936047D02*
X141534819Y-59697952D01*
X141534819Y-59697952D02*
X141582438Y-59602714D01*
X141582438Y-59602714D02*
X141630057Y-59555095D01*
X141630057Y-59555095D02*
X141725295Y-59507476D01*
X141725295Y-59507476D02*
X141820533Y-59507476D01*
X141820533Y-59507476D02*
X141963390Y-59555095D01*
X141963390Y-59555095D02*
X142534819Y-60126523D01*
X142534819Y-60126523D02*
X142534819Y-59507476D01*
X141868152Y-58650333D02*
X142534819Y-58650333D01*
X141487200Y-58888428D02*
X142201485Y-59126523D01*
X142201485Y-59126523D02*
X142201485Y-58507476D01*
X101451580Y-71635857D02*
X101499200Y-71683476D01*
X101499200Y-71683476D02*
X101546819Y-71826333D01*
X101546819Y-71826333D02*
X101546819Y-71921571D01*
X101546819Y-71921571D02*
X101499200Y-72064428D01*
X101499200Y-72064428D02*
X101403961Y-72159666D01*
X101403961Y-72159666D02*
X101308723Y-72207285D01*
X101308723Y-72207285D02*
X101118247Y-72254904D01*
X101118247Y-72254904D02*
X100975390Y-72254904D01*
X100975390Y-72254904D02*
X100784914Y-72207285D01*
X100784914Y-72207285D02*
X100689676Y-72159666D01*
X100689676Y-72159666D02*
X100594438Y-72064428D01*
X100594438Y-72064428D02*
X100546819Y-71921571D01*
X100546819Y-71921571D02*
X100546819Y-71826333D01*
X100546819Y-71826333D02*
X100594438Y-71683476D01*
X100594438Y-71683476D02*
X100642057Y-71635857D01*
X101546819Y-70683476D02*
X101546819Y-71254904D01*
X101546819Y-70969190D02*
X100546819Y-70969190D01*
X100546819Y-70969190D02*
X100689676Y-71064428D01*
X100689676Y-71064428D02*
X100784914Y-71159666D01*
X100784914Y-71159666D02*
X100832533Y-71254904D01*
X100546819Y-70350142D02*
X100546819Y-69683476D01*
X100546819Y-69683476D02*
X101546819Y-70112047D01*
X98798142Y-80677580D02*
X98750523Y-80725200D01*
X98750523Y-80725200D02*
X98607666Y-80772819D01*
X98607666Y-80772819D02*
X98512428Y-80772819D01*
X98512428Y-80772819D02*
X98369571Y-80725200D01*
X98369571Y-80725200D02*
X98274333Y-80629961D01*
X98274333Y-80629961D02*
X98226714Y-80534723D01*
X98226714Y-80534723D02*
X98179095Y-80344247D01*
X98179095Y-80344247D02*
X98179095Y-80201390D01*
X98179095Y-80201390D02*
X98226714Y-80010914D01*
X98226714Y-80010914D02*
X98274333Y-79915676D01*
X98274333Y-79915676D02*
X98369571Y-79820438D01*
X98369571Y-79820438D02*
X98512428Y-79772819D01*
X98512428Y-79772819D02*
X98607666Y-79772819D01*
X98607666Y-79772819D02*
X98750523Y-79820438D01*
X98750523Y-79820438D02*
X98798142Y-79868057D01*
X99750523Y-80772819D02*
X99179095Y-80772819D01*
X99464809Y-80772819D02*
X99464809Y-79772819D01*
X99464809Y-79772819D02*
X99369571Y-79915676D01*
X99369571Y-79915676D02*
X99274333Y-80010914D01*
X99274333Y-80010914D02*
X99179095Y-80058533D01*
X100131476Y-79868057D02*
X100179095Y-79820438D01*
X100179095Y-79820438D02*
X100274333Y-79772819D01*
X100274333Y-79772819D02*
X100512428Y-79772819D01*
X100512428Y-79772819D02*
X100607666Y-79820438D01*
X100607666Y-79820438D02*
X100655285Y-79868057D01*
X100655285Y-79868057D02*
X100702904Y-79963295D01*
X100702904Y-79963295D02*
X100702904Y-80058533D01*
X100702904Y-80058533D02*
X100655285Y-80201390D01*
X100655285Y-80201390D02*
X100083857Y-80772819D01*
X100083857Y-80772819D02*
X100702904Y-80772819D01*
X115889819Y-66166904D02*
X116699342Y-66166904D01*
X116699342Y-66166904D02*
X116794580Y-66119285D01*
X116794580Y-66119285D02*
X116842200Y-66071666D01*
X116842200Y-66071666D02*
X116889819Y-65976428D01*
X116889819Y-65976428D02*
X116889819Y-65785952D01*
X116889819Y-65785952D02*
X116842200Y-65690714D01*
X116842200Y-65690714D02*
X116794580Y-65643095D01*
X116794580Y-65643095D02*
X116699342Y-65595476D01*
X116699342Y-65595476D02*
X115889819Y-65595476D01*
X115889819Y-64690714D02*
X115889819Y-64881190D01*
X115889819Y-64881190D02*
X115937438Y-64976428D01*
X115937438Y-64976428D02*
X115985057Y-65024047D01*
X115985057Y-65024047D02*
X116127914Y-65119285D01*
X116127914Y-65119285D02*
X116318390Y-65166904D01*
X116318390Y-65166904D02*
X116699342Y-65166904D01*
X116699342Y-65166904D02*
X116794580Y-65119285D01*
X116794580Y-65119285D02*
X116842200Y-65071666D01*
X116842200Y-65071666D02*
X116889819Y-64976428D01*
X116889819Y-64976428D02*
X116889819Y-64785952D01*
X116889819Y-64785952D02*
X116842200Y-64690714D01*
X116842200Y-64690714D02*
X116794580Y-64643095D01*
X116794580Y-64643095D02*
X116699342Y-64595476D01*
X116699342Y-64595476D02*
X116461247Y-64595476D01*
X116461247Y-64595476D02*
X116366009Y-64643095D01*
X116366009Y-64643095D02*
X116318390Y-64690714D01*
X116318390Y-64690714D02*
X116270771Y-64785952D01*
X116270771Y-64785952D02*
X116270771Y-64976428D01*
X116270771Y-64976428D02*
X116318390Y-65071666D01*
X116318390Y-65071666D02*
X116366009Y-65119285D01*
X116366009Y-65119285D02*
X116461247Y-65166904D01*
X137360819Y-66047857D02*
X136884628Y-66381190D01*
X137360819Y-66619285D02*
X136360819Y-66619285D01*
X136360819Y-66619285D02*
X136360819Y-66238333D01*
X136360819Y-66238333D02*
X136408438Y-66143095D01*
X136408438Y-66143095D02*
X136456057Y-66095476D01*
X136456057Y-66095476D02*
X136551295Y-66047857D01*
X136551295Y-66047857D02*
X136694152Y-66047857D01*
X136694152Y-66047857D02*
X136789390Y-66095476D01*
X136789390Y-66095476D02*
X136837009Y-66143095D01*
X136837009Y-66143095D02*
X136884628Y-66238333D01*
X136884628Y-66238333D02*
X136884628Y-66619285D01*
X137360819Y-65095476D02*
X137360819Y-65666904D01*
X137360819Y-65381190D02*
X136360819Y-65381190D01*
X136360819Y-65381190D02*
X136503676Y-65476428D01*
X136503676Y-65476428D02*
X136598914Y-65571666D01*
X136598914Y-65571666D02*
X136646533Y-65666904D01*
X136456057Y-64714523D02*
X136408438Y-64666904D01*
X136408438Y-64666904D02*
X136360819Y-64571666D01*
X136360819Y-64571666D02*
X136360819Y-64333571D01*
X136360819Y-64333571D02*
X136408438Y-64238333D01*
X136408438Y-64238333D02*
X136456057Y-64190714D01*
X136456057Y-64190714D02*
X136551295Y-64143095D01*
X136551295Y-64143095D02*
X136646533Y-64143095D01*
X136646533Y-64143095D02*
X136789390Y-64190714D01*
X136789390Y-64190714D02*
X137360819Y-64762142D01*
X137360819Y-64762142D02*
X137360819Y-64143095D01*
X95450819Y-102592094D02*
X94450819Y-102592094D01*
X94450819Y-102592094D02*
X94450819Y-102353999D01*
X94450819Y-102353999D02*
X94498438Y-102211142D01*
X94498438Y-102211142D02*
X94593676Y-102115904D01*
X94593676Y-102115904D02*
X94688914Y-102068285D01*
X94688914Y-102068285D02*
X94879390Y-102020666D01*
X94879390Y-102020666D02*
X95022247Y-102020666D01*
X95022247Y-102020666D02*
X95212723Y-102068285D01*
X95212723Y-102068285D02*
X95307961Y-102115904D01*
X95307961Y-102115904D02*
X95403200Y-102211142D01*
X95403200Y-102211142D02*
X95450819Y-102353999D01*
X95450819Y-102353999D02*
X95450819Y-102592094D01*
X95450819Y-101068285D02*
X95450819Y-101639713D01*
X95450819Y-101353999D02*
X94450819Y-101353999D01*
X94450819Y-101353999D02*
X94593676Y-101449237D01*
X94593676Y-101449237D02*
X94688914Y-101544475D01*
X94688914Y-101544475D02*
X94736533Y-101639713D01*
X91132819Y-94527666D02*
X90656628Y-94860999D01*
X91132819Y-95099094D02*
X90132819Y-95099094D01*
X90132819Y-95099094D02*
X90132819Y-94718142D01*
X90132819Y-94718142D02*
X90180438Y-94622904D01*
X90180438Y-94622904D02*
X90228057Y-94575285D01*
X90228057Y-94575285D02*
X90323295Y-94527666D01*
X90323295Y-94527666D02*
X90466152Y-94527666D01*
X90466152Y-94527666D02*
X90561390Y-94575285D01*
X90561390Y-94575285D02*
X90609009Y-94622904D01*
X90609009Y-94622904D02*
X90656628Y-94718142D01*
X90656628Y-94718142D02*
X90656628Y-95099094D01*
X90132819Y-93670523D02*
X90132819Y-93860999D01*
X90132819Y-93860999D02*
X90180438Y-93956237D01*
X90180438Y-93956237D02*
X90228057Y-94003856D01*
X90228057Y-94003856D02*
X90370914Y-94099094D01*
X90370914Y-94099094D02*
X90561390Y-94146713D01*
X90561390Y-94146713D02*
X90942342Y-94146713D01*
X90942342Y-94146713D02*
X91037580Y-94099094D01*
X91037580Y-94099094D02*
X91085200Y-94051475D01*
X91085200Y-94051475D02*
X91132819Y-93956237D01*
X91132819Y-93956237D02*
X91132819Y-93765761D01*
X91132819Y-93765761D02*
X91085200Y-93670523D01*
X91085200Y-93670523D02*
X91037580Y-93622904D01*
X91037580Y-93622904D02*
X90942342Y-93575285D01*
X90942342Y-93575285D02*
X90704247Y-93575285D01*
X90704247Y-93575285D02*
X90609009Y-93622904D01*
X90609009Y-93622904D02*
X90561390Y-93670523D01*
X90561390Y-93670523D02*
X90513771Y-93765761D01*
X90513771Y-93765761D02*
X90513771Y-93956237D01*
X90513771Y-93956237D02*
X90561390Y-94051475D01*
X90561390Y-94051475D02*
X90609009Y-94099094D01*
X90609009Y-94099094D02*
X90704247Y-94146713D01*
X133056333Y-102119580D02*
X133008714Y-102167200D01*
X133008714Y-102167200D02*
X132865857Y-102214819D01*
X132865857Y-102214819D02*
X132770619Y-102214819D01*
X132770619Y-102214819D02*
X132627762Y-102167200D01*
X132627762Y-102167200D02*
X132532524Y-102071961D01*
X132532524Y-102071961D02*
X132484905Y-101976723D01*
X132484905Y-101976723D02*
X132437286Y-101786247D01*
X132437286Y-101786247D02*
X132437286Y-101643390D01*
X132437286Y-101643390D02*
X132484905Y-101452914D01*
X132484905Y-101452914D02*
X132532524Y-101357676D01*
X132532524Y-101357676D02*
X132627762Y-101262438D01*
X132627762Y-101262438D02*
X132770619Y-101214819D01*
X132770619Y-101214819D02*
X132865857Y-101214819D01*
X132865857Y-101214819D02*
X133008714Y-101262438D01*
X133008714Y-101262438D02*
X133056333Y-101310057D01*
X133532524Y-102214819D02*
X133723000Y-102214819D01*
X133723000Y-102214819D02*
X133818238Y-102167200D01*
X133818238Y-102167200D02*
X133865857Y-102119580D01*
X133865857Y-102119580D02*
X133961095Y-101976723D01*
X133961095Y-101976723D02*
X134008714Y-101786247D01*
X134008714Y-101786247D02*
X134008714Y-101405295D01*
X134008714Y-101405295D02*
X133961095Y-101310057D01*
X133961095Y-101310057D02*
X133913476Y-101262438D01*
X133913476Y-101262438D02*
X133818238Y-101214819D01*
X133818238Y-101214819D02*
X133627762Y-101214819D01*
X133627762Y-101214819D02*
X133532524Y-101262438D01*
X133532524Y-101262438D02*
X133484905Y-101310057D01*
X133484905Y-101310057D02*
X133437286Y-101405295D01*
X133437286Y-101405295D02*
X133437286Y-101643390D01*
X133437286Y-101643390D02*
X133484905Y-101738628D01*
X133484905Y-101738628D02*
X133532524Y-101786247D01*
X133532524Y-101786247D02*
X133627762Y-101833866D01*
X133627762Y-101833866D02*
X133818238Y-101833866D01*
X133818238Y-101833866D02*
X133913476Y-101786247D01*
X133913476Y-101786247D02*
X133961095Y-101738628D01*
X133961095Y-101738628D02*
X134008714Y-101643390D01*
X91132819Y-76834594D02*
X90132819Y-76834594D01*
X90132819Y-76834594D02*
X90132819Y-76596499D01*
X90132819Y-76596499D02*
X90180438Y-76453642D01*
X90180438Y-76453642D02*
X90275676Y-76358404D01*
X90275676Y-76358404D02*
X90370914Y-76310785D01*
X90370914Y-76310785D02*
X90561390Y-76263166D01*
X90561390Y-76263166D02*
X90704247Y-76263166D01*
X90704247Y-76263166D02*
X90894723Y-76310785D01*
X90894723Y-76310785D02*
X90989961Y-76358404D01*
X90989961Y-76358404D02*
X91085200Y-76453642D01*
X91085200Y-76453642D02*
X91132819Y-76596499D01*
X91132819Y-76596499D02*
X91132819Y-76834594D01*
X90132819Y-75929832D02*
X90132819Y-75310785D01*
X90132819Y-75310785D02*
X90513771Y-75644118D01*
X90513771Y-75644118D02*
X90513771Y-75501261D01*
X90513771Y-75501261D02*
X90561390Y-75406023D01*
X90561390Y-75406023D02*
X90609009Y-75358404D01*
X90609009Y-75358404D02*
X90704247Y-75310785D01*
X90704247Y-75310785D02*
X90942342Y-75310785D01*
X90942342Y-75310785D02*
X91037580Y-75358404D01*
X91037580Y-75358404D02*
X91085200Y-75406023D01*
X91085200Y-75406023D02*
X91132819Y-75501261D01*
X91132819Y-75501261D02*
X91132819Y-75786975D01*
X91132819Y-75786975D02*
X91085200Y-75882213D01*
X91085200Y-75882213D02*
X91037580Y-75929832D01*
X136945857Y-102134200D02*
X137088714Y-102181819D01*
X137088714Y-102181819D02*
X137326809Y-102181819D01*
X137326809Y-102181819D02*
X137422047Y-102134200D01*
X137422047Y-102134200D02*
X137469666Y-102086580D01*
X137469666Y-102086580D02*
X137517285Y-101991342D01*
X137517285Y-101991342D02*
X137517285Y-101896104D01*
X137517285Y-101896104D02*
X137469666Y-101800866D01*
X137469666Y-101800866D02*
X137422047Y-101753247D01*
X137422047Y-101753247D02*
X137326809Y-101705628D01*
X137326809Y-101705628D02*
X137136333Y-101658009D01*
X137136333Y-101658009D02*
X137041095Y-101610390D01*
X137041095Y-101610390D02*
X136993476Y-101562771D01*
X136993476Y-101562771D02*
X136945857Y-101467533D01*
X136945857Y-101467533D02*
X136945857Y-101372295D01*
X136945857Y-101372295D02*
X136993476Y-101277057D01*
X136993476Y-101277057D02*
X137041095Y-101229438D01*
X137041095Y-101229438D02*
X137136333Y-101181819D01*
X137136333Y-101181819D02*
X137374428Y-101181819D01*
X137374428Y-101181819D02*
X137517285Y-101229438D01*
X137850619Y-101181819D02*
X138088714Y-102181819D01*
X138088714Y-102181819D02*
X138279190Y-101467533D01*
X138279190Y-101467533D02*
X138469666Y-102181819D01*
X138469666Y-102181819D02*
X138707762Y-101181819D01*
X139088714Y-102181819D02*
X139088714Y-101181819D01*
X139088714Y-101181819D02*
X139326809Y-101181819D01*
X139326809Y-101181819D02*
X139469666Y-101229438D01*
X139469666Y-101229438D02*
X139564904Y-101324676D01*
X139564904Y-101324676D02*
X139612523Y-101419914D01*
X139612523Y-101419914D02*
X139660142Y-101610390D01*
X139660142Y-101610390D02*
X139660142Y-101753247D01*
X139660142Y-101753247D02*
X139612523Y-101943723D01*
X139612523Y-101943723D02*
X139564904Y-102038961D01*
X139564904Y-102038961D02*
X139469666Y-102134200D01*
X139469666Y-102134200D02*
X139326809Y-102181819D01*
X139326809Y-102181819D02*
X139088714Y-102181819D01*
X128756580Y-71635857D02*
X128804200Y-71683476D01*
X128804200Y-71683476D02*
X128851819Y-71826333D01*
X128851819Y-71826333D02*
X128851819Y-71921571D01*
X128851819Y-71921571D02*
X128804200Y-72064428D01*
X128804200Y-72064428D02*
X128708961Y-72159666D01*
X128708961Y-72159666D02*
X128613723Y-72207285D01*
X128613723Y-72207285D02*
X128423247Y-72254904D01*
X128423247Y-72254904D02*
X128280390Y-72254904D01*
X128280390Y-72254904D02*
X128089914Y-72207285D01*
X128089914Y-72207285D02*
X127994676Y-72159666D01*
X127994676Y-72159666D02*
X127899438Y-72064428D01*
X127899438Y-72064428D02*
X127851819Y-71921571D01*
X127851819Y-71921571D02*
X127851819Y-71826333D01*
X127851819Y-71826333D02*
X127899438Y-71683476D01*
X127899438Y-71683476D02*
X127947057Y-71635857D01*
X127947057Y-71254904D02*
X127899438Y-71207285D01*
X127899438Y-71207285D02*
X127851819Y-71112047D01*
X127851819Y-71112047D02*
X127851819Y-70873952D01*
X127851819Y-70873952D02*
X127899438Y-70778714D01*
X127899438Y-70778714D02*
X127947057Y-70731095D01*
X127947057Y-70731095D02*
X128042295Y-70683476D01*
X128042295Y-70683476D02*
X128137533Y-70683476D01*
X128137533Y-70683476D02*
X128280390Y-70731095D01*
X128280390Y-70731095D02*
X128851819Y-71302523D01*
X128851819Y-71302523D02*
X128851819Y-70683476D01*
X128851819Y-69731095D02*
X128851819Y-70302523D01*
X128851819Y-70016809D02*
X127851819Y-70016809D01*
X127851819Y-70016809D02*
X127994676Y-70112047D01*
X127994676Y-70112047D02*
X128089914Y-70207285D01*
X128089914Y-70207285D02*
X128137533Y-70302523D01*
X135836819Y-66047857D02*
X135360628Y-66381190D01*
X135836819Y-66619285D02*
X134836819Y-66619285D01*
X134836819Y-66619285D02*
X134836819Y-66238333D01*
X134836819Y-66238333D02*
X134884438Y-66143095D01*
X134884438Y-66143095D02*
X134932057Y-66095476D01*
X134932057Y-66095476D02*
X135027295Y-66047857D01*
X135027295Y-66047857D02*
X135170152Y-66047857D01*
X135170152Y-66047857D02*
X135265390Y-66095476D01*
X135265390Y-66095476D02*
X135313009Y-66143095D01*
X135313009Y-66143095D02*
X135360628Y-66238333D01*
X135360628Y-66238333D02*
X135360628Y-66619285D01*
X135836819Y-65095476D02*
X135836819Y-65666904D01*
X135836819Y-65381190D02*
X134836819Y-65381190D01*
X134836819Y-65381190D02*
X134979676Y-65476428D01*
X134979676Y-65476428D02*
X135074914Y-65571666D01*
X135074914Y-65571666D02*
X135122533Y-65666904D01*
X135836819Y-64143095D02*
X135836819Y-64714523D01*
X135836819Y-64428809D02*
X134836819Y-64428809D01*
X134836819Y-64428809D02*
X134979676Y-64524047D01*
X134979676Y-64524047D02*
X135074914Y-64619285D01*
X135074914Y-64619285D02*
X135122533Y-64714523D01*
X158075333Y-80845819D02*
X157742000Y-80369628D01*
X157503905Y-80845819D02*
X157503905Y-79845819D01*
X157503905Y-79845819D02*
X157884857Y-79845819D01*
X157884857Y-79845819D02*
X157980095Y-79893438D01*
X157980095Y-79893438D02*
X158027714Y-79941057D01*
X158027714Y-79941057D02*
X158075333Y-80036295D01*
X158075333Y-80036295D02*
X158075333Y-80179152D01*
X158075333Y-80179152D02*
X158027714Y-80274390D01*
X158027714Y-80274390D02*
X157980095Y-80322009D01*
X157980095Y-80322009D02*
X157884857Y-80369628D01*
X157884857Y-80369628D02*
X157503905Y-80369628D01*
X158456286Y-79941057D02*
X158503905Y-79893438D01*
X158503905Y-79893438D02*
X158599143Y-79845819D01*
X158599143Y-79845819D02*
X158837238Y-79845819D01*
X158837238Y-79845819D02*
X158932476Y-79893438D01*
X158932476Y-79893438D02*
X158980095Y-79941057D01*
X158980095Y-79941057D02*
X159027714Y-80036295D01*
X159027714Y-80036295D02*
X159027714Y-80131533D01*
X159027714Y-80131533D02*
X158980095Y-80274390D01*
X158980095Y-80274390D02*
X158408667Y-80845819D01*
X158408667Y-80845819D02*
X159027714Y-80845819D01*
X122801142Y-92434580D02*
X122753523Y-92482200D01*
X122753523Y-92482200D02*
X122610666Y-92529819D01*
X122610666Y-92529819D02*
X122515428Y-92529819D01*
X122515428Y-92529819D02*
X122372571Y-92482200D01*
X122372571Y-92482200D02*
X122277333Y-92386961D01*
X122277333Y-92386961D02*
X122229714Y-92291723D01*
X122229714Y-92291723D02*
X122182095Y-92101247D01*
X122182095Y-92101247D02*
X122182095Y-91958390D01*
X122182095Y-91958390D02*
X122229714Y-91767914D01*
X122229714Y-91767914D02*
X122277333Y-91672676D01*
X122277333Y-91672676D02*
X122372571Y-91577438D01*
X122372571Y-91577438D02*
X122515428Y-91529819D01*
X122515428Y-91529819D02*
X122610666Y-91529819D01*
X122610666Y-91529819D02*
X122753523Y-91577438D01*
X122753523Y-91577438D02*
X122801142Y-91625057D01*
X123753523Y-92529819D02*
X123182095Y-92529819D01*
X123467809Y-92529819D02*
X123467809Y-91529819D01*
X123467809Y-91529819D02*
X123372571Y-91672676D01*
X123372571Y-91672676D02*
X123277333Y-91767914D01*
X123277333Y-91767914D02*
X123182095Y-91815533D01*
X124372571Y-91529819D02*
X124467809Y-91529819D01*
X124467809Y-91529819D02*
X124563047Y-91577438D01*
X124563047Y-91577438D02*
X124610666Y-91625057D01*
X124610666Y-91625057D02*
X124658285Y-91720295D01*
X124658285Y-91720295D02*
X124705904Y-91910771D01*
X124705904Y-91910771D02*
X124705904Y-92148866D01*
X124705904Y-92148866D02*
X124658285Y-92339342D01*
X124658285Y-92339342D02*
X124610666Y-92434580D01*
X124610666Y-92434580D02*
X124563047Y-92482200D01*
X124563047Y-92482200D02*
X124467809Y-92529819D01*
X124467809Y-92529819D02*
X124372571Y-92529819D01*
X124372571Y-92529819D02*
X124277333Y-92482200D01*
X124277333Y-92482200D02*
X124229714Y-92434580D01*
X124229714Y-92434580D02*
X124182095Y-92339342D01*
X124182095Y-92339342D02*
X124134476Y-92148866D01*
X124134476Y-92148866D02*
X124134476Y-91910771D01*
X124134476Y-91910771D02*
X124182095Y-91720295D01*
X124182095Y-91720295D02*
X124229714Y-91625057D01*
X124229714Y-91625057D02*
X124277333Y-91577438D01*
X124277333Y-91577438D02*
X124372571Y-91529819D01*
X129478819Y-66166904D02*
X130288342Y-66166904D01*
X130288342Y-66166904D02*
X130383580Y-66119285D01*
X130383580Y-66119285D02*
X130431200Y-66071666D01*
X130431200Y-66071666D02*
X130478819Y-65976428D01*
X130478819Y-65976428D02*
X130478819Y-65785952D01*
X130478819Y-65785952D02*
X130431200Y-65690714D01*
X130431200Y-65690714D02*
X130383580Y-65643095D01*
X130383580Y-65643095D02*
X130288342Y-65595476D01*
X130288342Y-65595476D02*
X129478819Y-65595476D01*
X129478819Y-65214523D02*
X129478819Y-64547857D01*
X129478819Y-64547857D02*
X130478819Y-64976428D01*
X93545819Y-76787594D02*
X92545819Y-76787594D01*
X92545819Y-76787594D02*
X92545819Y-76549499D01*
X92545819Y-76549499D02*
X92593438Y-76406642D01*
X92593438Y-76406642D02*
X92688676Y-76311404D01*
X92688676Y-76311404D02*
X92783914Y-76263785D01*
X92783914Y-76263785D02*
X92974390Y-76216166D01*
X92974390Y-76216166D02*
X93117247Y-76216166D01*
X93117247Y-76216166D02*
X93307723Y-76263785D01*
X93307723Y-76263785D02*
X93402961Y-76311404D01*
X93402961Y-76311404D02*
X93498200Y-76406642D01*
X93498200Y-76406642D02*
X93545819Y-76549499D01*
X93545819Y-76549499D02*
X93545819Y-76787594D01*
X92879152Y-75359023D02*
X93545819Y-75359023D01*
X92498200Y-75597118D02*
X93212485Y-75835213D01*
X93212485Y-75835213D02*
X93212485Y-75216166D01*
X115134580Y-60459857D02*
X115182200Y-60507476D01*
X115182200Y-60507476D02*
X115229819Y-60650333D01*
X115229819Y-60650333D02*
X115229819Y-60745571D01*
X115229819Y-60745571D02*
X115182200Y-60888428D01*
X115182200Y-60888428D02*
X115086961Y-60983666D01*
X115086961Y-60983666D02*
X114991723Y-61031285D01*
X114991723Y-61031285D02*
X114801247Y-61078904D01*
X114801247Y-61078904D02*
X114658390Y-61078904D01*
X114658390Y-61078904D02*
X114467914Y-61031285D01*
X114467914Y-61031285D02*
X114372676Y-60983666D01*
X114372676Y-60983666D02*
X114277438Y-60888428D01*
X114277438Y-60888428D02*
X114229819Y-60745571D01*
X114229819Y-60745571D02*
X114229819Y-60650333D01*
X114229819Y-60650333D02*
X114277438Y-60507476D01*
X114277438Y-60507476D02*
X114325057Y-60459857D01*
X114325057Y-60078904D02*
X114277438Y-60031285D01*
X114277438Y-60031285D02*
X114229819Y-59936047D01*
X114229819Y-59936047D02*
X114229819Y-59697952D01*
X114229819Y-59697952D02*
X114277438Y-59602714D01*
X114277438Y-59602714D02*
X114325057Y-59555095D01*
X114325057Y-59555095D02*
X114420295Y-59507476D01*
X114420295Y-59507476D02*
X114515533Y-59507476D01*
X114515533Y-59507476D02*
X114658390Y-59555095D01*
X114658390Y-59555095D02*
X115229819Y-60126523D01*
X115229819Y-60126523D02*
X115229819Y-59507476D01*
X114229819Y-58888428D02*
X114229819Y-58793190D01*
X114229819Y-58793190D02*
X114277438Y-58697952D01*
X114277438Y-58697952D02*
X114325057Y-58650333D01*
X114325057Y-58650333D02*
X114420295Y-58602714D01*
X114420295Y-58602714D02*
X114610771Y-58555095D01*
X114610771Y-58555095D02*
X114848866Y-58555095D01*
X114848866Y-58555095D02*
X115039342Y-58602714D01*
X115039342Y-58602714D02*
X115134580Y-58650333D01*
X115134580Y-58650333D02*
X115182200Y-58697952D01*
X115182200Y-58697952D02*
X115229819Y-58793190D01*
X115229819Y-58793190D02*
X115229819Y-58888428D01*
X115229819Y-58888428D02*
X115182200Y-58983666D01*
X115182200Y-58983666D02*
X115134580Y-59031285D01*
X115134580Y-59031285D02*
X115039342Y-59078904D01*
X115039342Y-59078904D02*
X114848866Y-59126523D01*
X114848866Y-59126523D02*
X114610771Y-59126523D01*
X114610771Y-59126523D02*
X114420295Y-59078904D01*
X114420295Y-59078904D02*
X114325057Y-59031285D01*
X114325057Y-59031285D02*
X114277438Y-58983666D01*
X114277438Y-58983666D02*
X114229819Y-58888428D01*
X151202580Y-87949066D02*
X151250200Y-87996685D01*
X151250200Y-87996685D02*
X151297819Y-88139542D01*
X151297819Y-88139542D02*
X151297819Y-88234780D01*
X151297819Y-88234780D02*
X151250200Y-88377637D01*
X151250200Y-88377637D02*
X151154961Y-88472875D01*
X151154961Y-88472875D02*
X151059723Y-88520494D01*
X151059723Y-88520494D02*
X150869247Y-88568113D01*
X150869247Y-88568113D02*
X150726390Y-88568113D01*
X150726390Y-88568113D02*
X150535914Y-88520494D01*
X150535914Y-88520494D02*
X150440676Y-88472875D01*
X150440676Y-88472875D02*
X150345438Y-88377637D01*
X150345438Y-88377637D02*
X150297819Y-88234780D01*
X150297819Y-88234780D02*
X150297819Y-88139542D01*
X150297819Y-88139542D02*
X150345438Y-87996685D01*
X150345438Y-87996685D02*
X150393057Y-87949066D01*
X150297819Y-87615732D02*
X150297819Y-86949066D01*
X150297819Y-86949066D02*
X151297819Y-87377637D01*
X143194819Y-66166904D02*
X144004342Y-66166904D01*
X144004342Y-66166904D02*
X144099580Y-66119285D01*
X144099580Y-66119285D02*
X144147200Y-66071666D01*
X144147200Y-66071666D02*
X144194819Y-65976428D01*
X144194819Y-65976428D02*
X144194819Y-65785952D01*
X144194819Y-65785952D02*
X144147200Y-65690714D01*
X144147200Y-65690714D02*
X144099580Y-65643095D01*
X144099580Y-65643095D02*
X144004342Y-65595476D01*
X144004342Y-65595476D02*
X143194819Y-65595476D01*
X143623390Y-64976428D02*
X143575771Y-65071666D01*
X143575771Y-65071666D02*
X143528152Y-65119285D01*
X143528152Y-65119285D02*
X143432914Y-65166904D01*
X143432914Y-65166904D02*
X143385295Y-65166904D01*
X143385295Y-65166904D02*
X143290057Y-65119285D01*
X143290057Y-65119285D02*
X143242438Y-65071666D01*
X143242438Y-65071666D02*
X143194819Y-64976428D01*
X143194819Y-64976428D02*
X143194819Y-64785952D01*
X143194819Y-64785952D02*
X143242438Y-64690714D01*
X143242438Y-64690714D02*
X143290057Y-64643095D01*
X143290057Y-64643095D02*
X143385295Y-64595476D01*
X143385295Y-64595476D02*
X143432914Y-64595476D01*
X143432914Y-64595476D02*
X143528152Y-64643095D01*
X143528152Y-64643095D02*
X143575771Y-64690714D01*
X143575771Y-64690714D02*
X143623390Y-64785952D01*
X143623390Y-64785952D02*
X143623390Y-64976428D01*
X143623390Y-64976428D02*
X143671009Y-65071666D01*
X143671009Y-65071666D02*
X143718628Y-65119285D01*
X143718628Y-65119285D02*
X143813866Y-65166904D01*
X143813866Y-65166904D02*
X144004342Y-65166904D01*
X144004342Y-65166904D02*
X144099580Y-65119285D01*
X144099580Y-65119285D02*
X144147200Y-65071666D01*
X144147200Y-65071666D02*
X144194819Y-64976428D01*
X144194819Y-64976428D02*
X144194819Y-64785952D01*
X144194819Y-64785952D02*
X144147200Y-64690714D01*
X144147200Y-64690714D02*
X144099580Y-64643095D01*
X144099580Y-64643095D02*
X144004342Y-64595476D01*
X144004342Y-64595476D02*
X143813866Y-64595476D01*
X143813866Y-64595476D02*
X143718628Y-64643095D01*
X143718628Y-64643095D02*
X143671009Y-64690714D01*
X143671009Y-64690714D02*
X143623390Y-64785952D01*
X128723580Y-61729857D02*
X128771200Y-61777476D01*
X128771200Y-61777476D02*
X128818819Y-61920333D01*
X128818819Y-61920333D02*
X128818819Y-62015571D01*
X128818819Y-62015571D02*
X128771200Y-62158428D01*
X128771200Y-62158428D02*
X128675961Y-62253666D01*
X128675961Y-62253666D02*
X128580723Y-62301285D01*
X128580723Y-62301285D02*
X128390247Y-62348904D01*
X128390247Y-62348904D02*
X128247390Y-62348904D01*
X128247390Y-62348904D02*
X128056914Y-62301285D01*
X128056914Y-62301285D02*
X127961676Y-62253666D01*
X127961676Y-62253666D02*
X127866438Y-62158428D01*
X127866438Y-62158428D02*
X127818819Y-62015571D01*
X127818819Y-62015571D02*
X127818819Y-61920333D01*
X127818819Y-61920333D02*
X127866438Y-61777476D01*
X127866438Y-61777476D02*
X127914057Y-61729857D01*
X127914057Y-61348904D02*
X127866438Y-61301285D01*
X127866438Y-61301285D02*
X127818819Y-61206047D01*
X127818819Y-61206047D02*
X127818819Y-60967952D01*
X127818819Y-60967952D02*
X127866438Y-60872714D01*
X127866438Y-60872714D02*
X127914057Y-60825095D01*
X127914057Y-60825095D02*
X128009295Y-60777476D01*
X128009295Y-60777476D02*
X128104533Y-60777476D01*
X128104533Y-60777476D02*
X128247390Y-60825095D01*
X128247390Y-60825095D02*
X128818819Y-61396523D01*
X128818819Y-61396523D02*
X128818819Y-60777476D01*
X127914057Y-60396523D02*
X127866438Y-60348904D01*
X127866438Y-60348904D02*
X127818819Y-60253666D01*
X127818819Y-60253666D02*
X127818819Y-60015571D01*
X127818819Y-60015571D02*
X127866438Y-59920333D01*
X127866438Y-59920333D02*
X127914057Y-59872714D01*
X127914057Y-59872714D02*
X128009295Y-59825095D01*
X128009295Y-59825095D02*
X128104533Y-59825095D01*
X128104533Y-59825095D02*
X128247390Y-59872714D01*
X128247390Y-59872714D02*
X128818819Y-60444142D01*
X128818819Y-60444142D02*
X128818819Y-59825095D01*
X101418580Y-60459857D02*
X101466200Y-60507476D01*
X101466200Y-60507476D02*
X101513819Y-60650333D01*
X101513819Y-60650333D02*
X101513819Y-60745571D01*
X101513819Y-60745571D02*
X101466200Y-60888428D01*
X101466200Y-60888428D02*
X101370961Y-60983666D01*
X101370961Y-60983666D02*
X101275723Y-61031285D01*
X101275723Y-61031285D02*
X101085247Y-61078904D01*
X101085247Y-61078904D02*
X100942390Y-61078904D01*
X100942390Y-61078904D02*
X100751914Y-61031285D01*
X100751914Y-61031285D02*
X100656676Y-60983666D01*
X100656676Y-60983666D02*
X100561438Y-60888428D01*
X100561438Y-60888428D02*
X100513819Y-60745571D01*
X100513819Y-60745571D02*
X100513819Y-60650333D01*
X100513819Y-60650333D02*
X100561438Y-60507476D01*
X100561438Y-60507476D02*
X100609057Y-60459857D01*
X101513819Y-59507476D02*
X101513819Y-60078904D01*
X101513819Y-59793190D02*
X100513819Y-59793190D01*
X100513819Y-59793190D02*
X100656676Y-59888428D01*
X100656676Y-59888428D02*
X100751914Y-59983666D01*
X100751914Y-59983666D02*
X100799533Y-60078904D01*
X100942390Y-58936047D02*
X100894771Y-59031285D01*
X100894771Y-59031285D02*
X100847152Y-59078904D01*
X100847152Y-59078904D02*
X100751914Y-59126523D01*
X100751914Y-59126523D02*
X100704295Y-59126523D01*
X100704295Y-59126523D02*
X100609057Y-59078904D01*
X100609057Y-59078904D02*
X100561438Y-59031285D01*
X100561438Y-59031285D02*
X100513819Y-58936047D01*
X100513819Y-58936047D02*
X100513819Y-58745571D01*
X100513819Y-58745571D02*
X100561438Y-58650333D01*
X100561438Y-58650333D02*
X100609057Y-58602714D01*
X100609057Y-58602714D02*
X100704295Y-58555095D01*
X100704295Y-58555095D02*
X100751914Y-58555095D01*
X100751914Y-58555095D02*
X100847152Y-58602714D01*
X100847152Y-58602714D02*
X100894771Y-58650333D01*
X100894771Y-58650333D02*
X100942390Y-58745571D01*
X100942390Y-58745571D02*
X100942390Y-58936047D01*
X100942390Y-58936047D02*
X100990009Y-59031285D01*
X100990009Y-59031285D02*
X101037628Y-59078904D01*
X101037628Y-59078904D02*
X101132866Y-59126523D01*
X101132866Y-59126523D02*
X101323342Y-59126523D01*
X101323342Y-59126523D02*
X101418580Y-59078904D01*
X101418580Y-59078904D02*
X101466200Y-59031285D01*
X101466200Y-59031285D02*
X101513819Y-58936047D01*
X101513819Y-58936047D02*
X101513819Y-58745571D01*
X101513819Y-58745571D02*
X101466200Y-58650333D01*
X101466200Y-58650333D02*
X101418580Y-58602714D01*
X101418580Y-58602714D02*
X101323342Y-58555095D01*
X101323342Y-58555095D02*
X101132866Y-58555095D01*
X101132866Y-58555095D02*
X101037628Y-58602714D01*
X101037628Y-58602714D02*
X100990009Y-58650333D01*
X100990009Y-58650333D02*
X100942390Y-58745571D01*
X104259142Y-100181580D02*
X104211523Y-100229200D01*
X104211523Y-100229200D02*
X104068666Y-100276819D01*
X104068666Y-100276819D02*
X103973428Y-100276819D01*
X103973428Y-100276819D02*
X103830571Y-100229200D01*
X103830571Y-100229200D02*
X103735333Y-100133961D01*
X103735333Y-100133961D02*
X103687714Y-100038723D01*
X103687714Y-100038723D02*
X103640095Y-99848247D01*
X103640095Y-99848247D02*
X103640095Y-99705390D01*
X103640095Y-99705390D02*
X103687714Y-99514914D01*
X103687714Y-99514914D02*
X103735333Y-99419676D01*
X103735333Y-99419676D02*
X103830571Y-99324438D01*
X103830571Y-99324438D02*
X103973428Y-99276819D01*
X103973428Y-99276819D02*
X104068666Y-99276819D01*
X104068666Y-99276819D02*
X104211523Y-99324438D01*
X104211523Y-99324438D02*
X104259142Y-99372057D01*
X105211523Y-100276819D02*
X104640095Y-100276819D01*
X104925809Y-100276819D02*
X104925809Y-99276819D01*
X104925809Y-99276819D02*
X104830571Y-99419676D01*
X104830571Y-99419676D02*
X104735333Y-99514914D01*
X104735333Y-99514914D02*
X104640095Y-99562533D01*
X105544857Y-99276819D02*
X106163904Y-99276819D01*
X106163904Y-99276819D02*
X105830571Y-99657771D01*
X105830571Y-99657771D02*
X105973428Y-99657771D01*
X105973428Y-99657771D02*
X106068666Y-99705390D01*
X106068666Y-99705390D02*
X106116285Y-99753009D01*
X106116285Y-99753009D02*
X106163904Y-99848247D01*
X106163904Y-99848247D02*
X106163904Y-100086342D01*
X106163904Y-100086342D02*
X106116285Y-100181580D01*
X106116285Y-100181580D02*
X106068666Y-100229200D01*
X106068666Y-100229200D02*
X105973428Y-100276819D01*
X105973428Y-100276819D02*
X105687714Y-100276819D01*
X105687714Y-100276819D02*
X105592476Y-100229200D01*
X105592476Y-100229200D02*
X105544857Y-100181580D01*
X93545819Y-85891666D02*
X93069628Y-86224999D01*
X93545819Y-86463094D02*
X92545819Y-86463094D01*
X92545819Y-86463094D02*
X92545819Y-86082142D01*
X92545819Y-86082142D02*
X92593438Y-85986904D01*
X92593438Y-85986904D02*
X92641057Y-85939285D01*
X92641057Y-85939285D02*
X92736295Y-85891666D01*
X92736295Y-85891666D02*
X92879152Y-85891666D01*
X92879152Y-85891666D02*
X92974390Y-85939285D01*
X92974390Y-85939285D02*
X93022009Y-85986904D01*
X93022009Y-85986904D02*
X93069628Y-86082142D01*
X93069628Y-86082142D02*
X93069628Y-86463094D01*
X92974390Y-85320237D02*
X92926771Y-85415475D01*
X92926771Y-85415475D02*
X92879152Y-85463094D01*
X92879152Y-85463094D02*
X92783914Y-85510713D01*
X92783914Y-85510713D02*
X92736295Y-85510713D01*
X92736295Y-85510713D02*
X92641057Y-85463094D01*
X92641057Y-85463094D02*
X92593438Y-85415475D01*
X92593438Y-85415475D02*
X92545819Y-85320237D01*
X92545819Y-85320237D02*
X92545819Y-85129761D01*
X92545819Y-85129761D02*
X92593438Y-85034523D01*
X92593438Y-85034523D02*
X92641057Y-84986904D01*
X92641057Y-84986904D02*
X92736295Y-84939285D01*
X92736295Y-84939285D02*
X92783914Y-84939285D01*
X92783914Y-84939285D02*
X92879152Y-84986904D01*
X92879152Y-84986904D02*
X92926771Y-85034523D01*
X92926771Y-85034523D02*
X92974390Y-85129761D01*
X92974390Y-85129761D02*
X92974390Y-85320237D01*
X92974390Y-85320237D02*
X93022009Y-85415475D01*
X93022009Y-85415475D02*
X93069628Y-85463094D01*
X93069628Y-85463094D02*
X93164866Y-85510713D01*
X93164866Y-85510713D02*
X93355342Y-85510713D01*
X93355342Y-85510713D02*
X93450580Y-85463094D01*
X93450580Y-85463094D02*
X93498200Y-85415475D01*
X93498200Y-85415475D02*
X93545819Y-85320237D01*
X93545819Y-85320237D02*
X93545819Y-85129761D01*
X93545819Y-85129761D02*
X93498200Y-85034523D01*
X93498200Y-85034523D02*
X93450580Y-84986904D01*
X93450580Y-84986904D02*
X93355342Y-84939285D01*
X93355342Y-84939285D02*
X93164866Y-84939285D01*
X93164866Y-84939285D02*
X93069628Y-84986904D01*
X93069628Y-84986904D02*
X93022009Y-85034523D01*
X93022009Y-85034523D02*
X92974390Y-85129761D01*
X156188580Y-71635857D02*
X156236200Y-71683476D01*
X156236200Y-71683476D02*
X156283819Y-71826333D01*
X156283819Y-71826333D02*
X156283819Y-71921571D01*
X156283819Y-71921571D02*
X156236200Y-72064428D01*
X156236200Y-72064428D02*
X156140961Y-72159666D01*
X156140961Y-72159666D02*
X156045723Y-72207285D01*
X156045723Y-72207285D02*
X155855247Y-72254904D01*
X155855247Y-72254904D02*
X155712390Y-72254904D01*
X155712390Y-72254904D02*
X155521914Y-72207285D01*
X155521914Y-72207285D02*
X155426676Y-72159666D01*
X155426676Y-72159666D02*
X155331438Y-72064428D01*
X155331438Y-72064428D02*
X155283819Y-71921571D01*
X155283819Y-71921571D02*
X155283819Y-71826333D01*
X155283819Y-71826333D02*
X155331438Y-71683476D01*
X155331438Y-71683476D02*
X155379057Y-71635857D01*
X155379057Y-71254904D02*
X155331438Y-71207285D01*
X155331438Y-71207285D02*
X155283819Y-71112047D01*
X155283819Y-71112047D02*
X155283819Y-70873952D01*
X155283819Y-70873952D02*
X155331438Y-70778714D01*
X155331438Y-70778714D02*
X155379057Y-70731095D01*
X155379057Y-70731095D02*
X155474295Y-70683476D01*
X155474295Y-70683476D02*
X155569533Y-70683476D01*
X155569533Y-70683476D02*
X155712390Y-70731095D01*
X155712390Y-70731095D02*
X156283819Y-71302523D01*
X156283819Y-71302523D02*
X156283819Y-70683476D01*
X155283819Y-69778714D02*
X155283819Y-70254904D01*
X155283819Y-70254904D02*
X155760009Y-70302523D01*
X155760009Y-70302523D02*
X155712390Y-70254904D01*
X155712390Y-70254904D02*
X155664771Y-70159666D01*
X155664771Y-70159666D02*
X155664771Y-69921571D01*
X155664771Y-69921571D02*
X155712390Y-69826333D01*
X155712390Y-69826333D02*
X155760009Y-69778714D01*
X155760009Y-69778714D02*
X155855247Y-69731095D01*
X155855247Y-69731095D02*
X156093342Y-69731095D01*
X156093342Y-69731095D02*
X156188580Y-69778714D01*
X156188580Y-69778714D02*
X156236200Y-69826333D01*
X156236200Y-69826333D02*
X156283819Y-69921571D01*
X156283819Y-69921571D02*
X156283819Y-70159666D01*
X156283819Y-70159666D02*
X156236200Y-70254904D01*
X156236200Y-70254904D02*
X156188580Y-70302523D01*
X121435905Y-99824819D02*
X121435905Y-98824819D01*
X121435905Y-98824819D02*
X121674000Y-98824819D01*
X121674000Y-98824819D02*
X121816857Y-98872438D01*
X121816857Y-98872438D02*
X121912095Y-98967676D01*
X121912095Y-98967676D02*
X121959714Y-99062914D01*
X121959714Y-99062914D02*
X122007333Y-99253390D01*
X122007333Y-99253390D02*
X122007333Y-99396247D01*
X122007333Y-99396247D02*
X121959714Y-99586723D01*
X121959714Y-99586723D02*
X121912095Y-99681961D01*
X121912095Y-99681961D02*
X121816857Y-99777200D01*
X121816857Y-99777200D02*
X121674000Y-99824819D01*
X121674000Y-99824819D02*
X121435905Y-99824819D01*
X122912095Y-98824819D02*
X122435905Y-98824819D01*
X122435905Y-98824819D02*
X122388286Y-99301009D01*
X122388286Y-99301009D02*
X122435905Y-99253390D01*
X122435905Y-99253390D02*
X122531143Y-99205771D01*
X122531143Y-99205771D02*
X122769238Y-99205771D01*
X122769238Y-99205771D02*
X122864476Y-99253390D01*
X122864476Y-99253390D02*
X122912095Y-99301009D01*
X122912095Y-99301009D02*
X122959714Y-99396247D01*
X122959714Y-99396247D02*
X122959714Y-99634342D01*
X122959714Y-99634342D02*
X122912095Y-99729580D01*
X122912095Y-99729580D02*
X122864476Y-99777200D01*
X122864476Y-99777200D02*
X122769238Y-99824819D01*
X122769238Y-99824819D02*
X122531143Y-99824819D01*
X122531143Y-99824819D02*
X122435905Y-99777200D01*
X122435905Y-99777200D02*
X122388286Y-99729580D01*
X118309714Y-101724819D02*
X117738286Y-101724819D01*
X118024000Y-101724819D02*
X118024000Y-100724819D01*
X118024000Y-100724819D02*
X117928762Y-100867676D01*
X117928762Y-100867676D02*
X117833524Y-100962914D01*
X117833524Y-100962914D02*
X117738286Y-101010533D01*
X115167580Y-71635857D02*
X115215200Y-71683476D01*
X115215200Y-71683476D02*
X115262819Y-71826333D01*
X115262819Y-71826333D02*
X115262819Y-71921571D01*
X115262819Y-71921571D02*
X115215200Y-72064428D01*
X115215200Y-72064428D02*
X115119961Y-72159666D01*
X115119961Y-72159666D02*
X115024723Y-72207285D01*
X115024723Y-72207285D02*
X114834247Y-72254904D01*
X114834247Y-72254904D02*
X114691390Y-72254904D01*
X114691390Y-72254904D02*
X114500914Y-72207285D01*
X114500914Y-72207285D02*
X114405676Y-72159666D01*
X114405676Y-72159666D02*
X114310438Y-72064428D01*
X114310438Y-72064428D02*
X114262819Y-71921571D01*
X114262819Y-71921571D02*
X114262819Y-71826333D01*
X114262819Y-71826333D02*
X114310438Y-71683476D01*
X114310438Y-71683476D02*
X114358057Y-71635857D01*
X115262819Y-70683476D02*
X115262819Y-71254904D01*
X115262819Y-70969190D02*
X114262819Y-70969190D01*
X114262819Y-70969190D02*
X114405676Y-71064428D01*
X114405676Y-71064428D02*
X114500914Y-71159666D01*
X114500914Y-71159666D02*
X114548533Y-71254904D01*
X115262819Y-70207285D02*
X115262819Y-70016809D01*
X115262819Y-70016809D02*
X115215200Y-69921571D01*
X115215200Y-69921571D02*
X115167580Y-69873952D01*
X115167580Y-69873952D02*
X115024723Y-69778714D01*
X115024723Y-69778714D02*
X114834247Y-69731095D01*
X114834247Y-69731095D02*
X114453295Y-69731095D01*
X114453295Y-69731095D02*
X114358057Y-69778714D01*
X114358057Y-69778714D02*
X114310438Y-69826333D01*
X114310438Y-69826333D02*
X114262819Y-69921571D01*
X114262819Y-69921571D02*
X114262819Y-70112047D01*
X114262819Y-70112047D02*
X114310438Y-70207285D01*
X114310438Y-70207285D02*
X114358057Y-70254904D01*
X114358057Y-70254904D02*
X114453295Y-70302523D01*
X114453295Y-70302523D02*
X114691390Y-70302523D01*
X114691390Y-70302523D02*
X114786628Y-70254904D01*
X114786628Y-70254904D02*
X114834247Y-70207285D01*
X114834247Y-70207285D02*
X114881866Y-70112047D01*
X114881866Y-70112047D02*
X114881866Y-69921571D01*
X114881866Y-69921571D02*
X114834247Y-69826333D01*
X114834247Y-69826333D02*
X114786628Y-69778714D01*
X114786628Y-69778714D02*
X114691390Y-69731095D01*
X108815333Y-101181819D02*
X108815333Y-101896104D01*
X108815333Y-101896104D02*
X108767714Y-102038961D01*
X108767714Y-102038961D02*
X108672476Y-102134200D01*
X108672476Y-102134200D02*
X108529619Y-102181819D01*
X108529619Y-102181819D02*
X108434381Y-102181819D01*
X109148667Y-101181819D02*
X109720095Y-101181819D01*
X109434381Y-102181819D02*
X109434381Y-101181819D01*
X110005810Y-101896104D02*
X110482000Y-101896104D01*
X109910572Y-102181819D02*
X110243905Y-101181819D01*
X110243905Y-101181819D02*
X110577238Y-102181819D01*
X111434381Y-101229438D02*
X111339143Y-101181819D01*
X111339143Y-101181819D02*
X111196286Y-101181819D01*
X111196286Y-101181819D02*
X111053429Y-101229438D01*
X111053429Y-101229438D02*
X110958191Y-101324676D01*
X110958191Y-101324676D02*
X110910572Y-101419914D01*
X110910572Y-101419914D02*
X110862953Y-101610390D01*
X110862953Y-101610390D02*
X110862953Y-101753247D01*
X110862953Y-101753247D02*
X110910572Y-101943723D01*
X110910572Y-101943723D02*
X110958191Y-102038961D01*
X110958191Y-102038961D02*
X111053429Y-102134200D01*
X111053429Y-102134200D02*
X111196286Y-102181819D01*
X111196286Y-102181819D02*
X111291524Y-102181819D01*
X111291524Y-102181819D02*
X111434381Y-102134200D01*
X111434381Y-102134200D02*
X111482000Y-102086580D01*
X111482000Y-102086580D02*
X111482000Y-101753247D01*
X111482000Y-101753247D02*
X111291524Y-101753247D01*
X116974579Y-84875666D02*
X117022199Y-84923285D01*
X117022199Y-84923285D02*
X117069818Y-85066142D01*
X117069818Y-85066142D02*
X117069818Y-85161380D01*
X117069818Y-85161380D02*
X117022199Y-85304237D01*
X117022199Y-85304237D02*
X116926960Y-85399475D01*
X116926960Y-85399475D02*
X116831722Y-85447094D01*
X116831722Y-85447094D02*
X116641246Y-85494713D01*
X116641246Y-85494713D02*
X116498389Y-85494713D01*
X116498389Y-85494713D02*
X116307913Y-85447094D01*
X116307913Y-85447094D02*
X116212675Y-85399475D01*
X116212675Y-85399475D02*
X116117437Y-85304237D01*
X116117437Y-85304237D02*
X116069818Y-85161380D01*
X116069818Y-85161380D02*
X116069818Y-85066142D01*
X116069818Y-85066142D02*
X116117437Y-84923285D01*
X116117437Y-84923285D02*
X116165056Y-84875666D01*
X117069818Y-83923285D02*
X117069818Y-84494713D01*
X117069818Y-84208999D02*
X116069818Y-84208999D01*
X116069818Y-84208999D02*
X116212675Y-84304237D01*
X116212675Y-84304237D02*
X116307913Y-84399475D01*
X116307913Y-84399475D02*
X116355532Y-84494713D01*
X129286095Y-73531819D02*
X129286095Y-74341342D01*
X129286095Y-74341342D02*
X129333714Y-74436580D01*
X129333714Y-74436580D02*
X129381333Y-74484200D01*
X129381333Y-74484200D02*
X129476571Y-74531819D01*
X129476571Y-74531819D02*
X129667047Y-74531819D01*
X129667047Y-74531819D02*
X129762285Y-74484200D01*
X129762285Y-74484200D02*
X129809904Y-74436580D01*
X129809904Y-74436580D02*
X129857523Y-74341342D01*
X129857523Y-74341342D02*
X129857523Y-73531819D01*
X130857523Y-74531819D02*
X130286095Y-74531819D01*
X130571809Y-74531819D02*
X130571809Y-73531819D01*
X130571809Y-73531819D02*
X130476571Y-73674676D01*
X130476571Y-73674676D02*
X130381333Y-73769914D01*
X130381333Y-73769914D02*
X130286095Y-73817533D01*
X121062809Y-89677629D02*
X121062809Y-90153820D01*
X120729476Y-89153820D02*
X121062809Y-89677629D01*
X121062809Y-89677629D02*
X121396142Y-89153820D01*
X122253285Y-90153820D02*
X121681857Y-90153820D01*
X121967571Y-90153820D02*
X121967571Y-89153820D01*
X121967571Y-89153820D02*
X121872333Y-89296677D01*
X121872333Y-89296677D02*
X121777095Y-89391915D01*
X121777095Y-89391915D02*
X121681857Y-89439534D01*
X161631333Y-103610580D02*
X161583714Y-103658200D01*
X161583714Y-103658200D02*
X161440857Y-103705819D01*
X161440857Y-103705819D02*
X161345619Y-103705819D01*
X161345619Y-103705819D02*
X161202762Y-103658200D01*
X161202762Y-103658200D02*
X161107524Y-103562961D01*
X161107524Y-103562961D02*
X161059905Y-103467723D01*
X161059905Y-103467723D02*
X161012286Y-103277247D01*
X161012286Y-103277247D02*
X161012286Y-103134390D01*
X161012286Y-103134390D02*
X161059905Y-102943914D01*
X161059905Y-102943914D02*
X161107524Y-102848676D01*
X161107524Y-102848676D02*
X161202762Y-102753438D01*
X161202762Y-102753438D02*
X161345619Y-102705819D01*
X161345619Y-102705819D02*
X161440857Y-102705819D01*
X161440857Y-102705819D02*
X161583714Y-102753438D01*
X161583714Y-102753438D02*
X161631333Y-102801057D01*
X162488476Y-103039152D02*
X162488476Y-103705819D01*
X162250381Y-102658200D02*
X162012286Y-103372485D01*
X162012286Y-103372485D02*
X162631333Y-103372485D01*
X128216819Y-99861666D02*
X127740628Y-100194999D01*
X128216819Y-100433094D02*
X127216819Y-100433094D01*
X127216819Y-100433094D02*
X127216819Y-100052142D01*
X127216819Y-100052142D02*
X127264438Y-99956904D01*
X127264438Y-99956904D02*
X127312057Y-99909285D01*
X127312057Y-99909285D02*
X127407295Y-99861666D01*
X127407295Y-99861666D02*
X127550152Y-99861666D01*
X127550152Y-99861666D02*
X127645390Y-99909285D01*
X127645390Y-99909285D02*
X127693009Y-99956904D01*
X127693009Y-99956904D02*
X127740628Y-100052142D01*
X127740628Y-100052142D02*
X127740628Y-100433094D01*
X128216819Y-98909285D02*
X128216819Y-99480713D01*
X128216819Y-99194999D02*
X127216819Y-99194999D01*
X127216819Y-99194999D02*
X127359676Y-99290237D01*
X127359676Y-99290237D02*
X127454914Y-99385475D01*
X127454914Y-99385475D02*
X127502533Y-99480713D01*
X151202580Y-77128666D02*
X151250200Y-77176285D01*
X151250200Y-77176285D02*
X151297819Y-77319142D01*
X151297819Y-77319142D02*
X151297819Y-77414380D01*
X151297819Y-77414380D02*
X151250200Y-77557237D01*
X151250200Y-77557237D02*
X151154961Y-77652475D01*
X151154961Y-77652475D02*
X151059723Y-77700094D01*
X151059723Y-77700094D02*
X150869247Y-77747713D01*
X150869247Y-77747713D02*
X150726390Y-77747713D01*
X150726390Y-77747713D02*
X150535914Y-77700094D01*
X150535914Y-77700094D02*
X150440676Y-77652475D01*
X150440676Y-77652475D02*
X150345438Y-77557237D01*
X150345438Y-77557237D02*
X150297819Y-77414380D01*
X150297819Y-77414380D02*
X150297819Y-77319142D01*
X150297819Y-77319142D02*
X150345438Y-77176285D01*
X150345438Y-77176285D02*
X150393057Y-77128666D01*
X150297819Y-76271523D02*
X150297819Y-76461999D01*
X150297819Y-76461999D02*
X150345438Y-76557237D01*
X150345438Y-76557237D02*
X150393057Y-76604856D01*
X150393057Y-76604856D02*
X150535914Y-76700094D01*
X150535914Y-76700094D02*
X150726390Y-76747713D01*
X150726390Y-76747713D02*
X151107342Y-76747713D01*
X151107342Y-76747713D02*
X151202580Y-76700094D01*
X151202580Y-76700094D02*
X151250200Y-76652475D01*
X151250200Y-76652475D02*
X151297819Y-76557237D01*
X151297819Y-76557237D02*
X151297819Y-76366761D01*
X151297819Y-76366761D02*
X151250200Y-76271523D01*
X151250200Y-76271523D02*
X151202580Y-76223904D01*
X151202580Y-76223904D02*
X151107342Y-76176285D01*
X151107342Y-76176285D02*
X150869247Y-76176285D01*
X150869247Y-76176285D02*
X150774009Y-76223904D01*
X150774009Y-76223904D02*
X150726390Y-76271523D01*
X150726390Y-76271523D02*
X150678771Y-76366761D01*
X150678771Y-76366761D02*
X150678771Y-76557237D01*
X150678771Y-76557237D02*
X150726390Y-76652475D01*
X150726390Y-76652475D02*
X150774009Y-76700094D01*
X150774009Y-76700094D02*
X150869247Y-76747713D01*
X102192819Y-66166904D02*
X103002342Y-66166904D01*
X103002342Y-66166904D02*
X103097580Y-66119285D01*
X103097580Y-66119285D02*
X103145200Y-66071666D01*
X103145200Y-66071666D02*
X103192819Y-65976428D01*
X103192819Y-65976428D02*
X103192819Y-65785952D01*
X103192819Y-65785952D02*
X103145200Y-65690714D01*
X103145200Y-65690714D02*
X103097580Y-65643095D01*
X103097580Y-65643095D02*
X103002342Y-65595476D01*
X103002342Y-65595476D02*
X102192819Y-65595476D01*
X102192819Y-64643095D02*
X102192819Y-65119285D01*
X102192819Y-65119285D02*
X102669009Y-65166904D01*
X102669009Y-65166904D02*
X102621390Y-65119285D01*
X102621390Y-65119285D02*
X102573771Y-65024047D01*
X102573771Y-65024047D02*
X102573771Y-64785952D01*
X102573771Y-64785952D02*
X102621390Y-64690714D01*
X102621390Y-64690714D02*
X102669009Y-64643095D01*
X102669009Y-64643095D02*
X102764247Y-64595476D01*
X102764247Y-64595476D02*
X103002342Y-64595476D01*
X103002342Y-64595476D02*
X103097580Y-64643095D01*
X103097580Y-64643095D02*
X103145200Y-64690714D01*
X103145200Y-64690714D02*
X103192819Y-64785952D01*
X103192819Y-64785952D02*
X103192819Y-65024047D01*
X103192819Y-65024047D02*
X103145200Y-65119285D01*
X103145200Y-65119285D02*
X103097580Y-65166904D01*
X138517333Y-71319580D02*
X138469714Y-71367200D01*
X138469714Y-71367200D02*
X138326857Y-71414819D01*
X138326857Y-71414819D02*
X138231619Y-71414819D01*
X138231619Y-71414819D02*
X138088762Y-71367200D01*
X138088762Y-71367200D02*
X137993524Y-71271961D01*
X137993524Y-71271961D02*
X137945905Y-71176723D01*
X137945905Y-71176723D02*
X137898286Y-70986247D01*
X137898286Y-70986247D02*
X137898286Y-70843390D01*
X137898286Y-70843390D02*
X137945905Y-70652914D01*
X137945905Y-70652914D02*
X137993524Y-70557676D01*
X137993524Y-70557676D02*
X138088762Y-70462438D01*
X138088762Y-70462438D02*
X138231619Y-70414819D01*
X138231619Y-70414819D02*
X138326857Y-70414819D01*
X138326857Y-70414819D02*
X138469714Y-70462438D01*
X138469714Y-70462438D02*
X138517333Y-70510057D01*
X139422095Y-70414819D02*
X138945905Y-70414819D01*
X138945905Y-70414819D02*
X138898286Y-70891009D01*
X138898286Y-70891009D02*
X138945905Y-70843390D01*
X138945905Y-70843390D02*
X139041143Y-70795771D01*
X139041143Y-70795771D02*
X139279238Y-70795771D01*
X139279238Y-70795771D02*
X139374476Y-70843390D01*
X139374476Y-70843390D02*
X139422095Y-70891009D01*
X139422095Y-70891009D02*
X139469714Y-70986247D01*
X139469714Y-70986247D02*
X139469714Y-71224342D01*
X139469714Y-71224342D02*
X139422095Y-71319580D01*
X139422095Y-71319580D02*
X139374476Y-71367200D01*
X139374476Y-71367200D02*
X139279238Y-71414819D01*
X139279238Y-71414819D02*
X139041143Y-71414819D01*
X139041143Y-71414819D02*
X138945905Y-71367200D01*
X138945905Y-71367200D02*
X138898286Y-71319580D01*
X158075333Y-83131819D02*
X157742000Y-82655628D01*
X157503905Y-83131819D02*
X157503905Y-82131819D01*
X157503905Y-82131819D02*
X157884857Y-82131819D01*
X157884857Y-82131819D02*
X157980095Y-82179438D01*
X157980095Y-82179438D02*
X158027714Y-82227057D01*
X158027714Y-82227057D02*
X158075333Y-82322295D01*
X158075333Y-82322295D02*
X158075333Y-82465152D01*
X158075333Y-82465152D02*
X158027714Y-82560390D01*
X158027714Y-82560390D02*
X157980095Y-82608009D01*
X157980095Y-82608009D02*
X157884857Y-82655628D01*
X157884857Y-82655628D02*
X157503905Y-82655628D01*
X158408667Y-82131819D02*
X159027714Y-82131819D01*
X159027714Y-82131819D02*
X158694381Y-82512771D01*
X158694381Y-82512771D02*
X158837238Y-82512771D01*
X158837238Y-82512771D02*
X158932476Y-82560390D01*
X158932476Y-82560390D02*
X158980095Y-82608009D01*
X158980095Y-82608009D02*
X159027714Y-82703247D01*
X159027714Y-82703247D02*
X159027714Y-82941342D01*
X159027714Y-82941342D02*
X158980095Y-83036580D01*
X158980095Y-83036580D02*
X158932476Y-83084200D01*
X158932476Y-83084200D02*
X158837238Y-83131819D01*
X158837238Y-83131819D02*
X158551524Y-83131819D01*
X158551524Y-83131819D02*
X158456286Y-83084200D01*
X158456286Y-83084200D02*
X158408667Y-83036580D01*
X158075333Y-78559819D02*
X157742000Y-78083628D01*
X157503905Y-78559819D02*
X157503905Y-77559819D01*
X157503905Y-77559819D02*
X157884857Y-77559819D01*
X157884857Y-77559819D02*
X157980095Y-77607438D01*
X157980095Y-77607438D02*
X158027714Y-77655057D01*
X158027714Y-77655057D02*
X158075333Y-77750295D01*
X158075333Y-77750295D02*
X158075333Y-77893152D01*
X158075333Y-77893152D02*
X158027714Y-77988390D01*
X158027714Y-77988390D02*
X157980095Y-78036009D01*
X157980095Y-78036009D02*
X157884857Y-78083628D01*
X157884857Y-78083628D02*
X157503905Y-78083628D01*
X158932476Y-77893152D02*
X158932476Y-78559819D01*
X158694381Y-77512200D02*
X158456286Y-78226485D01*
X158456286Y-78226485D02*
X159075333Y-78226485D01*
X88565819Y-66166904D02*
X89375342Y-66166904D01*
X89375342Y-66166904D02*
X89470580Y-66119285D01*
X89470580Y-66119285D02*
X89518200Y-66071666D01*
X89518200Y-66071666D02*
X89565819Y-65976428D01*
X89565819Y-65976428D02*
X89565819Y-65785952D01*
X89565819Y-65785952D02*
X89518200Y-65690714D01*
X89518200Y-65690714D02*
X89470580Y-65643095D01*
X89470580Y-65643095D02*
X89375342Y-65595476D01*
X89375342Y-65595476D02*
X88565819Y-65595476D01*
X88899152Y-64690714D02*
X89565819Y-64690714D01*
X88518200Y-64928809D02*
X89232485Y-65166904D01*
X89232485Y-65166904D02*
X89232485Y-64547857D01*
X158075333Y-85417819D02*
X157742000Y-84941628D01*
X157503905Y-85417819D02*
X157503905Y-84417819D01*
X157503905Y-84417819D02*
X157884857Y-84417819D01*
X157884857Y-84417819D02*
X157980095Y-84465438D01*
X157980095Y-84465438D02*
X158027714Y-84513057D01*
X158027714Y-84513057D02*
X158075333Y-84608295D01*
X158075333Y-84608295D02*
X158075333Y-84751152D01*
X158075333Y-84751152D02*
X158027714Y-84846390D01*
X158027714Y-84846390D02*
X157980095Y-84894009D01*
X157980095Y-84894009D02*
X157884857Y-84941628D01*
X157884857Y-84941628D02*
X157503905Y-84941628D01*
X158551524Y-85417819D02*
X158742000Y-85417819D01*
X158742000Y-85417819D02*
X158837238Y-85370200D01*
X158837238Y-85370200D02*
X158884857Y-85322580D01*
X158884857Y-85322580D02*
X158980095Y-85179723D01*
X158980095Y-85179723D02*
X159027714Y-84989247D01*
X159027714Y-84989247D02*
X159027714Y-84608295D01*
X159027714Y-84608295D02*
X158980095Y-84513057D01*
X158980095Y-84513057D02*
X158932476Y-84465438D01*
X158932476Y-84465438D02*
X158837238Y-84417819D01*
X158837238Y-84417819D02*
X158646762Y-84417819D01*
X158646762Y-84417819D02*
X158551524Y-84465438D01*
X158551524Y-84465438D02*
X158503905Y-84513057D01*
X158503905Y-84513057D02*
X158456286Y-84608295D01*
X158456286Y-84608295D02*
X158456286Y-84846390D01*
X158456286Y-84846390D02*
X158503905Y-84941628D01*
X158503905Y-84941628D02*
X158551524Y-84989247D01*
X158551524Y-84989247D02*
X158646762Y-85036866D01*
X158646762Y-85036866D02*
X158837238Y-85036866D01*
X158837238Y-85036866D02*
X158932476Y-84989247D01*
X158932476Y-84989247D02*
X158980095Y-84941628D01*
X158980095Y-84941628D02*
X159027714Y-84846390D01*
X93545819Y-94527666D02*
X93069628Y-94860999D01*
X93545819Y-95099094D02*
X92545819Y-95099094D01*
X92545819Y-95099094D02*
X92545819Y-94718142D01*
X92545819Y-94718142D02*
X92593438Y-94622904D01*
X92593438Y-94622904D02*
X92641057Y-94575285D01*
X92641057Y-94575285D02*
X92736295Y-94527666D01*
X92736295Y-94527666D02*
X92879152Y-94527666D01*
X92879152Y-94527666D02*
X92974390Y-94575285D01*
X92974390Y-94575285D02*
X93022009Y-94622904D01*
X93022009Y-94622904D02*
X93069628Y-94718142D01*
X93069628Y-94718142D02*
X93069628Y-95099094D01*
X92545819Y-93622904D02*
X92545819Y-94099094D01*
X92545819Y-94099094D02*
X93022009Y-94146713D01*
X93022009Y-94146713D02*
X92974390Y-94099094D01*
X92974390Y-94099094D02*
X92926771Y-94003856D01*
X92926771Y-94003856D02*
X92926771Y-93765761D01*
X92926771Y-93765761D02*
X92974390Y-93670523D01*
X92974390Y-93670523D02*
X93022009Y-93622904D01*
X93022009Y-93622904D02*
X93117247Y-93575285D01*
X93117247Y-93575285D02*
X93355342Y-93575285D01*
X93355342Y-93575285D02*
X93450580Y-93622904D01*
X93450580Y-93622904D02*
X93498200Y-93670523D01*
X93498200Y-93670523D02*
X93545819Y-93765761D01*
X93545819Y-93765761D02*
X93545819Y-94003856D01*
X93545819Y-94003856D02*
X93498200Y-94099094D01*
X93498200Y-94099094D02*
X93450580Y-94146713D01*
D14*
X143910267Y-99820000D02*
X143617733Y-99820000D01*
X143910267Y-100840000D02*
X143617733Y-100840000D01*
X89943000Y-83158064D02*
X89943000Y-82703936D01*
X91413000Y-83158064D02*
X91413000Y-82703936D01*
X114200000Y-89288252D02*
X114200000Y-88765748D01*
X115670000Y-89288252D02*
X115670000Y-88765748D01*
X91819000Y-91420733D02*
X91819000Y-91713267D01*
X92839000Y-91420733D02*
X92839000Y-91713267D01*
X143000000Y-70846733D02*
X143000000Y-71139267D01*
X144020000Y-70846733D02*
X144020000Y-71139267D01*
X111105733Y-88390000D02*
X111398267Y-88390000D01*
X111105733Y-89410000D02*
X111398267Y-89410000D01*
X88390000Y-59963267D02*
X88390000Y-59670733D01*
X89410000Y-59963267D02*
X89410000Y-59670733D01*
X156716000Y-59963267D02*
X156716000Y-59670733D01*
X157736000Y-59963267D02*
X157736000Y-59670733D01*
X161409748Y-89308000D02*
X161932252Y-89308000D01*
X161409748Y-90778000D02*
X161932252Y-90778000D01*
X96236000Y-85655000D02*
X96811000Y-85655000D01*
X96236000Y-86230000D02*
X96236000Y-85655000D01*
X96236000Y-95875000D02*
X96236000Y-95300000D01*
X96811000Y-95875000D02*
X96236000Y-95875000D01*
X105881000Y-85655000D02*
X106456000Y-85655000D01*
X106456000Y-85655000D02*
X106456000Y-86230000D01*
X106456000Y-95300000D02*
X106456000Y-95875000D01*
X106456000Y-95875000D02*
X105881000Y-95875000D01*
X106356000Y-85355000D02*
X105886000Y-85015000D01*
X106356000Y-84675000D01*
X106356000Y-85355000D01*
G36*
X106356000Y-85355000D02*
G01*
X105886000Y-85015000D01*
X106356000Y-84675000D01*
X106356000Y-85355000D01*
G37*
X88390000Y-70846733D02*
X88390000Y-71139267D01*
X89410000Y-70846733D02*
X89410000Y-71139267D01*
X157475000Y-92348000D02*
X157475000Y-93608000D01*
X157475000Y-99168000D02*
X157475000Y-97908000D01*
X161235000Y-92348000D02*
X157475000Y-92348000D01*
X161235000Y-99168000D02*
X157475000Y-99168000D01*
X162755000Y-99398000D02*
X162275000Y-99398000D01*
X162515000Y-99068000D01*
X162755000Y-99398000D01*
G36*
X162755000Y-99398000D02*
G01*
X162275000Y-99398000D01*
X162515000Y-99068000D01*
X162755000Y-99398000D01*
G37*
X158271000Y-67715000D02*
X158271000Y-63095000D01*
X166341000Y-63095000D02*
X166341000Y-67715000D01*
X158966000Y-69595000D02*
X158486000Y-69595000D01*
X158726000Y-69265000D01*
X158966000Y-69595000D01*
G36*
X158966000Y-69595000D02*
G01*
X158486000Y-69595000D01*
X158726000Y-69265000D01*
X158966000Y-69595000D01*
G37*
X89718000Y-100092000D02*
X89718000Y-102777000D01*
X89718000Y-102777000D02*
X91638000Y-102777000D01*
X91638000Y-102777000D02*
X91638000Y-100092000D01*
X155802064Y-75084000D02*
X155347936Y-75084000D01*
X155802064Y-76554000D02*
X155347936Y-76554000D01*
X143000000Y-59963267D02*
X143000000Y-59670733D01*
X144020000Y-59963267D02*
X144020000Y-59670733D01*
X101979000Y-70846733D02*
X101979000Y-71139267D01*
X102999000Y-70846733D02*
X102999000Y-71139267D01*
X99294733Y-81238000D02*
X99587267Y-81238000D01*
X99294733Y-82258000D02*
X99587267Y-82258000D01*
X117250000Y-67715000D02*
X117250000Y-63095000D01*
X125320000Y-63095000D02*
X125320000Y-67715000D01*
X117945000Y-69595000D02*
X117465000Y-69595000D01*
X117705000Y-69265000D01*
X117945000Y-69595000D01*
G36*
X117945000Y-69595000D02*
G01*
X117465000Y-69595000D01*
X117705000Y-69265000D01*
X117945000Y-69595000D01*
G37*
X133605000Y-65237379D02*
X133605000Y-65572621D01*
X134365000Y-65237379D02*
X134365000Y-65572621D01*
X92131000Y-100092000D02*
X92131000Y-102777000D01*
X92131000Y-102777000D02*
X94051000Y-102777000D01*
X94051000Y-102777000D02*
X94051000Y-100092000D01*
X89943000Y-96927936D02*
X89943000Y-97382064D01*
X91413000Y-96927936D02*
X91413000Y-97382064D01*
X133369267Y-99820000D02*
X133076733Y-99820000D01*
X133369267Y-100840000D02*
X133076733Y-100840000D01*
X89718000Y-77309000D02*
X89718000Y-79994000D01*
X91638000Y-77309000D02*
X89718000Y-77309000D01*
X91638000Y-79994000D02*
X91638000Y-77309000D01*
X130573000Y-102887000D02*
X130573000Y-105647000D01*
X143383000Y-102887000D02*
X130573000Y-102887000D01*
X143383000Y-102887000D02*
X143383000Y-105647000D01*
X143383000Y-105647000D02*
X130573000Y-105647000D01*
X144653000Y-102887000D02*
X146033000Y-102887000D01*
X146033000Y-102887000D02*
X146033000Y-104267000D01*
X129284000Y-70846733D02*
X129284000Y-71139267D01*
X130304000Y-70846733D02*
X130304000Y-71139267D01*
X132462000Y-65237379D02*
X132462000Y-65572621D01*
X133222000Y-65237379D02*
X133222000Y-65572621D01*
X155802064Y-79656000D02*
X155347936Y-79656000D01*
X155802064Y-81126000D02*
X155347936Y-81126000D01*
X123590267Y-92962000D02*
X123297733Y-92962000D01*
X123590267Y-93982000D02*
X123297733Y-93982000D01*
X130839000Y-67715000D02*
X130839000Y-63095000D01*
X138909000Y-63095000D02*
X138909000Y-67715000D01*
X131534000Y-69595000D02*
X131054000Y-69595000D01*
X131294000Y-69265000D01*
X131534000Y-69595000D01*
G36*
X131534000Y-69595000D02*
G01*
X131054000Y-69595000D01*
X131294000Y-69265000D01*
X131534000Y-69595000D01*
G37*
X92131000Y-77309000D02*
X92131000Y-79994000D01*
X94051000Y-77309000D02*
X92131000Y-77309000D01*
X94051000Y-79994000D02*
X94051000Y-77309000D01*
X115695000Y-59963267D02*
X115695000Y-59670733D01*
X116715000Y-59963267D02*
X116715000Y-59670733D01*
X151763000Y-87928667D02*
X151763000Y-87636133D01*
X152783000Y-87928667D02*
X152783000Y-87636133D01*
X164095000Y-77544000D02*
X165895000Y-77544000D01*
X164095000Y-86484000D02*
X165895000Y-86484000D01*
X169605000Y-77544000D02*
X168145000Y-77544000D01*
X169605000Y-77544000D02*
X169605000Y-86484000D01*
X169605000Y-86484000D02*
X168145000Y-86484000D01*
X144555000Y-67715000D02*
X144555000Y-63095000D01*
X152625000Y-63095000D02*
X152625000Y-67715000D01*
X145250000Y-69595000D02*
X144770000Y-69595000D01*
X145010000Y-69265000D01*
X145250000Y-69595000D01*
G36*
X145250000Y-69595000D02*
G01*
X144770000Y-69595000D01*
X145010000Y-69265000D01*
X145250000Y-69595000D01*
G37*
X129284000Y-59963267D02*
X129284000Y-59670733D01*
X130304000Y-59963267D02*
X130304000Y-59670733D01*
X101979000Y-59963267D02*
X101979000Y-59670733D01*
X102999000Y-59963267D02*
X102999000Y-59670733D01*
X102000267Y-99312000D02*
X101707733Y-99312000D01*
X102000267Y-100332000D02*
X101707733Y-100332000D01*
X92356000Y-83158064D02*
X92356000Y-82703936D01*
X93826000Y-83158064D02*
X93826000Y-82703936D01*
X156716000Y-70846733D02*
X156716000Y-71139267D01*
X157736000Y-70846733D02*
X157736000Y-71139267D01*
X118674000Y-100120000D02*
X118674000Y-105620000D01*
X118674000Y-100120000D02*
X125674000Y-100120000D01*
X118674000Y-105620000D02*
X125224000Y-105620000D01*
X119474000Y-103770000D02*
X119474000Y-101970000D01*
X124874000Y-103770000D02*
X124874000Y-101970000D01*
X125224000Y-105620000D02*
X125674000Y-105170000D01*
X125674000Y-105170000D02*
X125674000Y-100120000D01*
X115695000Y-70846733D02*
X115695000Y-71139267D01*
X116715000Y-70846733D02*
X116715000Y-71139267D01*
X102252000Y-102887000D02*
X102252000Y-105647000D01*
X115062000Y-102887000D02*
X102252000Y-102887000D01*
X115062000Y-102887000D02*
X115062000Y-105647000D01*
X115062000Y-105647000D02*
X102252000Y-105647000D01*
X116332000Y-102887000D02*
X117712000Y-102887000D01*
X117712000Y-102887000D02*
X117712000Y-104267000D01*
X114200000Y-84955748D02*
X114200000Y-85478252D01*
X115670000Y-84955748D02*
X115670000Y-85478252D01*
X128187500Y-76317000D02*
X129137500Y-76317000D01*
X128187500Y-77267000D02*
X128187500Y-76317000D01*
X128187500Y-96537000D02*
X128187500Y-95587000D01*
X129137500Y-96537000D02*
X128187500Y-96537000D01*
X147457500Y-76317000D02*
X148407500Y-76317000D01*
X148407500Y-76317000D02*
X148407500Y-77267000D01*
X148407500Y-95587000D02*
X148407500Y-96537000D01*
X148407500Y-96537000D02*
X147457500Y-96537000D01*
X127547500Y-77267000D02*
X127207500Y-76797000D01*
X127887500Y-76797000D01*
X127547500Y-77267000D01*
G36*
X127547500Y-77267000D02*
G01*
X127207500Y-76797000D01*
X127887500Y-76797000D01*
X127547500Y-77267000D01*
G37*
X95775000Y-102887000D02*
X95775000Y-105647000D01*
X98425000Y-102887000D02*
X95775000Y-102887000D01*
X98425000Y-102887000D02*
X98425000Y-105647000D01*
X98425000Y-105647000D02*
X95775000Y-105647000D01*
X99695000Y-102887000D02*
X101075000Y-102887000D01*
X101075000Y-102887000D02*
X101075000Y-104267000D01*
X123599000Y-85539000D02*
X119479000Y-85539000D01*
X123599000Y-88959000D02*
X123599000Y-85539000D01*
X161536748Y-100738000D02*
X162059252Y-100738000D01*
X161536748Y-102208000D02*
X162059252Y-102208000D01*
X127027000Y-103097064D02*
X127027000Y-102642936D01*
X128497000Y-103097064D02*
X128497000Y-102642936D01*
X151763000Y-77108267D02*
X151763000Y-76815733D01*
X152783000Y-77108267D02*
X152783000Y-76815733D01*
X103553000Y-67715000D02*
X103553000Y-63095000D01*
X111623000Y-63095000D02*
X111623000Y-67715000D01*
X104248000Y-69595000D02*
X103768000Y-69595000D01*
X104008000Y-69265000D01*
X104248000Y-69595000D01*
G36*
X104248000Y-69595000D02*
G01*
X103768000Y-69595000D01*
X104008000Y-69265000D01*
X104248000Y-69595000D01*
G37*
X138537733Y-71880000D02*
X138830267Y-71880000D01*
X138537733Y-72900000D02*
X138830267Y-72900000D01*
X155802064Y-81942000D02*
X155347936Y-81942000D01*
X155802064Y-83412000D02*
X155347936Y-83412000D01*
X155802064Y-77370000D02*
X155347936Y-77370000D01*
X155802064Y-78840000D02*
X155347936Y-78840000D01*
X89926000Y-67715000D02*
X89926000Y-63095000D01*
X97996000Y-63095000D02*
X97996000Y-67715000D01*
X90621000Y-69595000D02*
X90141000Y-69595000D01*
X90381000Y-69265000D01*
X90621000Y-69595000D01*
G36*
X90621000Y-69595000D02*
G01*
X90141000Y-69595000D01*
X90381000Y-69265000D01*
X90621000Y-69595000D01*
G37*
X155802064Y-84228000D02*
X155347936Y-84228000D01*
X155802064Y-85698000D02*
X155347936Y-85698000D01*
X92356000Y-96927936D02*
X92356000Y-97382064D01*
X93826000Y-96927936D02*
X93826000Y-97382064D01*
%LPC*%
D15*
X144626500Y-100330000D03*
X142901500Y-100330000D03*
D16*
X90678000Y-83843500D03*
X90678000Y-82018500D03*
D17*
X114935000Y-89977000D03*
X114935000Y-88077000D03*
D18*
X92329000Y-90704500D03*
X92329000Y-92429500D03*
X143510000Y-70130500D03*
X143510000Y-71855500D03*
D19*
X110389500Y-88900000D03*
X112114500Y-88900000D03*
D20*
X88900000Y-60679500D03*
X88900000Y-58954500D03*
X157226000Y-60679500D03*
X157226000Y-58954500D03*
D21*
X160721000Y-90043000D03*
X162621000Y-90043000D03*
D22*
X105346000Y-85102500D03*
X104546000Y-85102500D03*
X103746000Y-85102500D03*
X102946000Y-85102500D03*
X102146000Y-85102500D03*
X101346000Y-85102500D03*
X100546000Y-85102500D03*
X99746000Y-85102500D03*
X98946000Y-85102500D03*
X98146000Y-85102500D03*
X97346000Y-85102500D03*
D23*
X95683500Y-86765000D03*
X95683500Y-87565000D03*
X95683500Y-88365000D03*
X95683500Y-89165000D03*
X95683500Y-89965000D03*
X95683500Y-90765000D03*
X95683500Y-91565000D03*
X95683500Y-92365000D03*
X95683500Y-93165000D03*
X95683500Y-93965000D03*
X95683500Y-94765000D03*
D22*
X97346000Y-96427500D03*
X98146000Y-96427500D03*
X98946000Y-96427500D03*
X99746000Y-96427500D03*
X100546000Y-96427500D03*
X101346000Y-96427500D03*
X102146000Y-96427500D03*
X102946000Y-96427500D03*
X103746000Y-96427500D03*
X104546000Y-96427500D03*
X105346000Y-96427500D03*
D23*
X107008500Y-94765000D03*
X107008500Y-93965000D03*
X107008500Y-93165000D03*
X107008500Y-92365000D03*
X107008500Y-91565000D03*
X107008500Y-90765000D03*
X107008500Y-89965000D03*
X107008500Y-89165000D03*
X107008500Y-88365000D03*
X107008500Y-87565000D03*
X107008500Y-86765000D03*
D18*
X88900000Y-70130500D03*
X88900000Y-71855500D03*
D24*
X162535000Y-98058000D03*
X162535000Y-95758000D03*
D25*
X156235000Y-95758000D03*
D24*
X162535000Y-93458000D03*
D26*
X158731000Y-68267500D03*
X159381000Y-68267500D03*
X160031000Y-68267500D03*
X160681000Y-68267500D03*
X161331000Y-68267500D03*
X161981000Y-68267500D03*
X162631000Y-68267500D03*
X163281000Y-68267500D03*
X163931000Y-68267500D03*
X164581000Y-68267500D03*
X165231000Y-68267500D03*
X165881000Y-68267500D03*
X165881000Y-62542500D03*
X165231000Y-62542500D03*
X164581000Y-62542500D03*
X163931000Y-62542500D03*
X163281000Y-62542500D03*
X162631000Y-62542500D03*
X161981000Y-62542500D03*
X161331000Y-62542500D03*
X160681000Y-62542500D03*
X160031000Y-62542500D03*
X159381000Y-62542500D03*
X158731000Y-62542500D03*
D27*
X90678000Y-102029500D03*
X90678000Y-100154500D03*
D28*
X156487500Y-75819000D03*
X154662500Y-75819000D03*
D20*
X143510000Y-60679500D03*
X143510000Y-58954500D03*
D18*
X102489000Y-70130500D03*
X102489000Y-71855500D03*
D19*
X98578500Y-81748000D03*
X100303500Y-81748000D03*
D26*
X117710000Y-68267500D03*
X118360000Y-68267500D03*
X119010000Y-68267500D03*
X119660000Y-68267500D03*
X120310000Y-68267500D03*
X120960000Y-68267500D03*
X121610000Y-68267500D03*
X122260000Y-68267500D03*
X122910000Y-68267500D03*
X123560000Y-68267500D03*
X124210000Y-68267500D03*
X124860000Y-68267500D03*
X124860000Y-62542500D03*
X124210000Y-62542500D03*
X123560000Y-62542500D03*
X122910000Y-62542500D03*
X122260000Y-62542500D03*
X121610000Y-62542500D03*
X120960000Y-62542500D03*
X120310000Y-62542500D03*
X119660000Y-62542500D03*
X119010000Y-62542500D03*
X118360000Y-62542500D03*
X117710000Y-62542500D03*
D29*
X133985000Y-64807500D03*
X133985000Y-66002500D03*
D27*
X93091000Y-102029500D03*
X93091000Y-100154500D03*
D30*
X90678000Y-96242500D03*
X90678000Y-98067500D03*
D15*
X134085500Y-100330000D03*
X132360500Y-100330000D03*
D31*
X90678000Y-78056500D03*
X90678000Y-79931500D03*
D32*
X144653000Y-104267000D03*
D33*
X142113000Y-104267000D03*
X139573000Y-104267000D03*
X137033000Y-104267000D03*
X134493000Y-104267000D03*
X131953000Y-104267000D03*
D18*
X129794000Y-70130500D03*
X129794000Y-71855500D03*
D29*
X132842000Y-64807500D03*
X132842000Y-66002500D03*
D28*
X156487500Y-80391000D03*
X154662500Y-80391000D03*
D15*
X124306500Y-93472000D03*
X122581500Y-93472000D03*
D26*
X131299000Y-68267500D03*
X131949000Y-68267500D03*
X132599000Y-68267500D03*
X133249000Y-68267500D03*
X133899000Y-68267500D03*
X134549000Y-68267500D03*
X135199000Y-68267500D03*
X135849000Y-68267500D03*
X136499000Y-68267500D03*
X137149000Y-68267500D03*
X137799000Y-68267500D03*
X138449000Y-68267500D03*
X138449000Y-62542500D03*
X137799000Y-62542500D03*
X137149000Y-62542500D03*
X136499000Y-62542500D03*
X135849000Y-62542500D03*
X135199000Y-62542500D03*
X134549000Y-62542500D03*
X133899000Y-62542500D03*
X133249000Y-62542500D03*
X132599000Y-62542500D03*
X131949000Y-62542500D03*
X131299000Y-62542500D03*
D31*
X93091000Y-78056500D03*
X93091000Y-79931500D03*
D20*
X116205000Y-60679500D03*
X116205000Y-58954500D03*
X152273000Y-88644900D03*
X152273000Y-86919900D03*
D34*
X163315000Y-84904000D03*
X163315000Y-79124000D03*
D35*
X162255000Y-85214000D03*
X162255000Y-84414000D03*
D36*
X162255000Y-83264000D03*
X162255000Y-82264000D03*
X162255000Y-81764000D03*
X162255000Y-80764000D03*
D35*
X162255000Y-79614000D03*
X162255000Y-78814000D03*
X162255000Y-78814000D03*
X162255000Y-79614000D03*
D36*
X162255000Y-80264000D03*
X162255000Y-81264000D03*
X162255000Y-82764000D03*
X162255000Y-83764000D03*
D35*
X162255000Y-84414000D03*
X162255000Y-85214000D03*
D37*
X162835000Y-86334000D03*
D38*
X167005000Y-86334000D03*
D37*
X162835000Y-77694000D03*
D38*
X167005000Y-77694000D03*
D26*
X145015000Y-68267500D03*
X145665000Y-68267500D03*
X146315000Y-68267500D03*
X146965000Y-68267500D03*
X147615000Y-68267500D03*
X148265000Y-68267500D03*
X148915000Y-68267500D03*
X149565000Y-68267500D03*
X150215000Y-68267500D03*
X150865000Y-68267500D03*
X151515000Y-68267500D03*
X152165000Y-68267500D03*
X152165000Y-62542500D03*
X151515000Y-62542500D03*
X150865000Y-62542500D03*
X150215000Y-62542500D03*
X149565000Y-62542500D03*
X148915000Y-62542500D03*
X148265000Y-62542500D03*
X147615000Y-62542500D03*
X146965000Y-62542500D03*
X146315000Y-62542500D03*
X145665000Y-62542500D03*
X145015000Y-62542500D03*
D20*
X129794000Y-60679500D03*
X129794000Y-58954500D03*
X102489000Y-60679500D03*
X102489000Y-58954500D03*
D15*
X102716500Y-99822000D03*
X100991500Y-99822000D03*
D16*
X93091000Y-83843500D03*
X93091000Y-82018500D03*
D18*
X157226000Y-70130500D03*
X157226000Y-71855500D03*
D39*
X119724000Y-101220000D03*
X119724000Y-104520000D03*
X124624000Y-104520000D03*
X124624000Y-101220000D03*
D18*
X116205000Y-70130500D03*
X116205000Y-71855500D03*
D32*
X116332000Y-104267000D03*
D33*
X113792000Y-104267000D03*
X111252000Y-104267000D03*
X108712000Y-104267000D03*
X106172000Y-104267000D03*
X103632000Y-104267000D03*
D40*
X114935000Y-84267000D03*
X114935000Y-86167000D03*
D41*
X91440000Y-49022000D03*
X93980000Y-49022000D03*
X96520000Y-49022000D03*
X99060000Y-49022000D03*
X101600000Y-49022000D03*
X104140000Y-49022000D03*
X106680000Y-49022000D03*
X109220000Y-49022000D03*
X111760000Y-49022000D03*
X114300000Y-49022000D03*
X116840000Y-49022000D03*
X119380000Y-49022000D03*
X121920000Y-49022000D03*
X124460000Y-49022000D03*
X127000000Y-49022000D03*
X129540000Y-49022000D03*
X132080000Y-49022000D03*
X134620000Y-49022000D03*
X137160000Y-49022000D03*
X139700000Y-49022000D03*
X142240000Y-49022000D03*
X144780000Y-49022000D03*
X147320000Y-49022000D03*
X149860000Y-49022000D03*
X152400000Y-49022000D03*
X154940000Y-49022000D03*
X157480000Y-49022000D03*
X160020000Y-49022000D03*
X162560000Y-49022000D03*
X165100000Y-49022000D03*
X91440000Y-54102000D03*
X93980000Y-54102000D03*
X96520000Y-54102000D03*
X99060000Y-54102000D03*
X101600000Y-54102000D03*
X104140000Y-54102000D03*
X106680000Y-54102000D03*
X109220000Y-54102000D03*
X111760000Y-54102000D03*
X114300000Y-54102000D03*
X116840000Y-54102000D03*
X119380000Y-54102000D03*
X121920000Y-54102000D03*
X124460000Y-54102000D03*
X127000000Y-54102000D03*
X129540000Y-54102000D03*
X132080000Y-54102000D03*
X134620000Y-54102000D03*
X137160000Y-54102000D03*
X139700000Y-54102000D03*
X142240000Y-54102000D03*
X144780000Y-54102000D03*
X147320000Y-54102000D03*
X149860000Y-54102000D03*
X152400000Y-54102000D03*
X154940000Y-54102000D03*
X157480000Y-54102000D03*
X160020000Y-54102000D03*
X162560000Y-54102000D03*
X165100000Y-54102000D03*
D42*
X127635000Y-77677000D03*
X127635000Y-78177000D03*
X127635000Y-78677000D03*
X127635000Y-79177000D03*
X127635000Y-79677000D03*
X127635000Y-80177000D03*
X127635000Y-80677000D03*
X127635000Y-81177000D03*
X127635000Y-81677000D03*
X127635000Y-82177000D03*
X127635000Y-82677000D03*
X127635000Y-83177000D03*
X127635000Y-83677000D03*
X127635000Y-84177000D03*
X127635000Y-84677000D03*
X127635000Y-85177000D03*
X127635000Y-85677000D03*
X127635000Y-86177000D03*
X127635000Y-86677000D03*
X127635000Y-87177000D03*
X127635000Y-87677000D03*
X127635000Y-88177000D03*
X127635000Y-88677000D03*
X127635000Y-89177000D03*
X127635000Y-89677000D03*
X127635000Y-90177000D03*
X127635000Y-90677000D03*
X127635000Y-91177000D03*
X127635000Y-91677000D03*
X127635000Y-92177000D03*
X127635000Y-92677000D03*
X127635000Y-93177000D03*
X127635000Y-93677000D03*
X127635000Y-94177000D03*
X127635000Y-94677000D03*
X127635000Y-95177000D03*
D43*
X129547500Y-97089500D03*
X130047500Y-97089500D03*
X130547500Y-97089500D03*
X131047500Y-97089500D03*
X131547500Y-97089500D03*
X132047500Y-97089500D03*
X132547500Y-97089500D03*
X133047500Y-97089500D03*
X133547500Y-97089500D03*
X134047500Y-97089500D03*
X134547500Y-97089500D03*
X135047500Y-97089500D03*
X135547500Y-97089500D03*
X136047500Y-97089500D03*
X136547500Y-97089500D03*
X137047500Y-97089500D03*
X137547500Y-97089500D03*
X138047500Y-97089500D03*
X138547500Y-97089500D03*
X139047500Y-97089500D03*
X139547500Y-97089500D03*
X140047500Y-97089500D03*
X140547500Y-97089500D03*
X141047500Y-97089500D03*
X141547500Y-97089500D03*
X142047500Y-97089500D03*
X142547500Y-97089500D03*
X143047500Y-97089500D03*
X143547500Y-97089500D03*
X144047500Y-97089500D03*
X144547500Y-97089500D03*
X145047500Y-97089500D03*
X145547500Y-97089500D03*
X146047500Y-97089500D03*
X146547500Y-97089500D03*
X147047500Y-97089500D03*
D42*
X148960000Y-95177000D03*
X148960000Y-94677000D03*
X148960000Y-94177000D03*
X148960000Y-93677000D03*
X148960000Y-93177000D03*
X148960000Y-92677000D03*
X148960000Y-92177000D03*
X148960000Y-91677000D03*
X148960000Y-91177000D03*
X148960000Y-90677000D03*
X148960000Y-90177000D03*
X148960000Y-89677000D03*
X148960000Y-89177000D03*
X148960000Y-88677000D03*
X148960000Y-88177000D03*
X148960000Y-87677000D03*
X148960000Y-87177000D03*
X148960000Y-86677000D03*
X148960000Y-86177000D03*
X148960000Y-85677000D03*
X148960000Y-85177000D03*
X148960000Y-84677000D03*
X148960000Y-84177000D03*
X148960000Y-83677000D03*
X148960000Y-83177000D03*
X148960000Y-82677000D03*
X148960000Y-82177000D03*
X148960000Y-81677000D03*
X148960000Y-81177000D03*
X148960000Y-80677000D03*
X148960000Y-80177000D03*
X148960000Y-79677000D03*
X148960000Y-79177000D03*
X148960000Y-78677000D03*
X148960000Y-78177000D03*
X148960000Y-77677000D03*
D43*
X147047500Y-75764500D03*
X146547500Y-75764500D03*
X146047500Y-75764500D03*
X145547500Y-75764500D03*
X145047500Y-75764500D03*
X144547500Y-75764500D03*
X144047500Y-75764500D03*
X143547500Y-75764500D03*
X143047500Y-75764500D03*
X142547500Y-75764500D03*
X142047500Y-75764500D03*
X141547500Y-75764500D03*
X141047500Y-75764500D03*
X140547500Y-75764500D03*
X140047500Y-75764500D03*
X139547500Y-75764500D03*
X139047500Y-75764500D03*
X138547500Y-75764500D03*
X138047500Y-75764500D03*
X137547500Y-75764500D03*
X137047500Y-75764500D03*
X136547500Y-75764500D03*
X136047500Y-75764500D03*
X135547500Y-75764500D03*
X135047500Y-75764500D03*
X134547500Y-75764500D03*
X134047500Y-75764500D03*
X133547500Y-75764500D03*
X133047500Y-75764500D03*
X132547500Y-75764500D03*
X132047500Y-75764500D03*
X131547500Y-75764500D03*
X131047500Y-75764500D03*
X130547500Y-75764500D03*
X130047500Y-75764500D03*
X129547500Y-75764500D03*
D32*
X99695000Y-104267000D03*
D33*
X97155000Y-104267000D03*
D44*
X122639000Y-86399000D03*
X120439000Y-86399000D03*
X120439000Y-88099000D03*
X122639000Y-88099000D03*
D21*
X160848000Y-101473000D03*
X162748000Y-101473000D03*
D16*
X127762000Y-103782500D03*
X127762000Y-101957500D03*
D20*
X152273000Y-77824500D03*
X152273000Y-76099500D03*
D26*
X104013000Y-68267500D03*
X104663000Y-68267500D03*
X105313000Y-68267500D03*
X105963000Y-68267500D03*
X106613000Y-68267500D03*
X107263000Y-68267500D03*
X107913000Y-68267500D03*
X108563000Y-68267500D03*
X109213000Y-68267500D03*
X109863000Y-68267500D03*
X110513000Y-68267500D03*
X111163000Y-68267500D03*
X111163000Y-62542500D03*
X110513000Y-62542500D03*
X109863000Y-62542500D03*
X109213000Y-62542500D03*
X108563000Y-62542500D03*
X107913000Y-62542500D03*
X107263000Y-62542500D03*
X106613000Y-62542500D03*
X105963000Y-62542500D03*
X105313000Y-62542500D03*
X104663000Y-62542500D03*
X104013000Y-62542500D03*
D19*
X137821500Y-72390000D03*
X139546500Y-72390000D03*
D28*
X156487500Y-82677000D03*
X154662500Y-82677000D03*
X156487500Y-78105000D03*
X154662500Y-78105000D03*
D26*
X90386000Y-68267500D03*
X91036000Y-68267500D03*
X91686000Y-68267500D03*
X92336000Y-68267500D03*
X92986000Y-68267500D03*
X93636000Y-68267500D03*
X94286000Y-68267500D03*
X94936000Y-68267500D03*
X95586000Y-68267500D03*
X96236000Y-68267500D03*
X96886000Y-68267500D03*
X97536000Y-68267500D03*
X97536000Y-62542500D03*
X96886000Y-62542500D03*
X96236000Y-62542500D03*
X95586000Y-62542500D03*
X94936000Y-62542500D03*
X94286000Y-62542500D03*
X93636000Y-62542500D03*
X92986000Y-62542500D03*
X92336000Y-62542500D03*
X91686000Y-62542500D03*
X91036000Y-62542500D03*
X90386000Y-62542500D03*
D28*
X156487500Y-84963000D03*
X154662500Y-84963000D03*
D30*
X93091000Y-96242500D03*
X93091000Y-98067500D03*
D45*
X117602000Y-86360000D03*
X117602000Y-91240000D03*
%LPD*%
M02*
