G04 #@! TF.GenerationSoftware,KiCad,Pcbnew,9.0.7*
G04 #@! TF.CreationDate,2026-03-29T12:04:23+05:00*
G04 #@! TF.ProjectId,STM32-Dumper,53544d33-322d-4447-956d-7065722e6b69,rev?*
G04 #@! TF.SameCoordinates,Original*
G04 #@! TF.FileFunction,Legend,Bot*
G04 #@! TF.FilePolarity,Positive*
%FSLAX46Y46*%
G04 Gerber Fmt 4.6, Leading zero omitted, Abs format (unit mm)*
G04 Created by KiCad (PCBNEW 9.0.7) date 2026-03-29 12:04:23*
%MOMM*%
%LPD*%
G01*
G04 APERTURE LIST*
%ADD10C,0.120000*%
%ADD11C,0.240000*%
%ADD12R,1.700000X1.700000*%
%ADD13C,1.700000*%
%ADD14C,0.600000*%
%ADD15O,2.000000X0.900000*%
%ADD16O,1.700000X0.900000*%
%ADD17O,1.700000X1.700000*%
%ADD18C,1.500000*%
G04 APERTURE END LIST*
D10*
X115167000Y-85600000D02*
X115167000Y-92000000D01*
X120037000Y-92000000D02*
X120037000Y-85600000D01*
X115167000Y-85600000D02*
G75*
G02*
X120037000Y-85600000I2435000J0D01*
G01*
X120037000Y-92000000D02*
G75*
G02*
X115167000Y-92000000I-2435000J0D01*
G01*
%LPC*%
D11*
X110511415Y-65868424D02*
X110834034Y-65249377D01*
X111197129Y-65868424D02*
X111034629Y-64568424D01*
X111034629Y-64568424D02*
X110577486Y-64568424D01*
X110577486Y-64568424D02*
X110470939Y-64630329D01*
X110470939Y-64630329D02*
X110421534Y-64692234D01*
X110421534Y-64692234D02*
X110379867Y-64816043D01*
X110379867Y-64816043D02*
X110403082Y-65001758D01*
X110403082Y-65001758D02*
X110475701Y-65125567D01*
X110475701Y-65125567D02*
X110540582Y-65187472D01*
X110540582Y-65187472D02*
X110662606Y-65249377D01*
X110662606Y-65249377D02*
X111119748Y-65249377D01*
X109912010Y-65187472D02*
X109512010Y-65187472D01*
X109425701Y-65868424D02*
X109997129Y-65868424D01*
X109997129Y-65868424D02*
X109834629Y-64568424D01*
X109834629Y-64568424D02*
X109263201Y-64568424D01*
X108911415Y-65868424D02*
X108748915Y-64568424D01*
X108748915Y-64568424D02*
X108463201Y-64568424D01*
X108463201Y-64568424D02*
X108299511Y-64630329D01*
X108299511Y-64630329D02*
X108200701Y-64754139D01*
X108200701Y-64754139D02*
X108159034Y-64877948D01*
X108159034Y-64877948D02*
X108132844Y-65125567D01*
X108132844Y-65125567D02*
X108156058Y-65311281D01*
X108156058Y-65311281D02*
X108244153Y-65558900D01*
X108244153Y-65558900D02*
X108316772Y-65682710D01*
X108316772Y-65682710D02*
X108446534Y-65806520D01*
X108446534Y-65806520D02*
X108625701Y-65868424D01*
X108625701Y-65868424D02*
X108911415Y-65868424D01*
X107626296Y-65187472D02*
X107226296Y-65187472D01*
X107139987Y-65868424D02*
X107711415Y-65868424D01*
X107711415Y-65868424D02*
X107548915Y-64568424D01*
X107548915Y-64568424D02*
X106977487Y-64568424D01*
X106675106Y-65806520D02*
X106511416Y-65868424D01*
X106511416Y-65868424D02*
X106225701Y-65868424D01*
X106225701Y-65868424D02*
X106103678Y-65806520D01*
X106103678Y-65806520D02*
X106038797Y-65744615D01*
X106038797Y-65744615D02*
X105966178Y-65620805D01*
X105966178Y-65620805D02*
X105950701Y-65496996D01*
X105950701Y-65496996D02*
X105992368Y-65373186D01*
X105992368Y-65373186D02*
X106041773Y-65311281D01*
X106041773Y-65311281D02*
X106148320Y-65249377D01*
X106148320Y-65249377D02*
X106369154Y-65187472D01*
X106369154Y-65187472D02*
X106475701Y-65125567D01*
X106475701Y-65125567D02*
X106525106Y-65063662D01*
X106525106Y-65063662D02*
X106566773Y-64939853D01*
X106566773Y-64939853D02*
X106551297Y-64816043D01*
X106551297Y-64816043D02*
X106478678Y-64692234D01*
X106478678Y-64692234D02*
X106413797Y-64630329D01*
X106413797Y-64630329D02*
X106291773Y-64568424D01*
X106291773Y-64568424D02*
X106006058Y-64568424D01*
X106006058Y-64568424D02*
X105842368Y-64630329D01*
X105482844Y-65868424D02*
X105320344Y-64568424D01*
X104128082Y-64630329D02*
X104234630Y-64568424D01*
X104234630Y-64568424D02*
X104406058Y-64568424D01*
X104406058Y-64568424D02*
X104585225Y-64630329D01*
X104585225Y-64630329D02*
X104714987Y-64754139D01*
X104714987Y-64754139D02*
X104787606Y-64877948D01*
X104787606Y-64877948D02*
X104875701Y-65125567D01*
X104875701Y-65125567D02*
X104898915Y-65311281D01*
X104898915Y-65311281D02*
X104872725Y-65558900D01*
X104872725Y-65558900D02*
X104831058Y-65682710D01*
X104831058Y-65682710D02*
X104732249Y-65806520D01*
X104732249Y-65806520D02*
X104568558Y-65868424D01*
X104568558Y-65868424D02*
X104454272Y-65868424D01*
X104454272Y-65868424D02*
X104275106Y-65806520D01*
X104275106Y-65806520D02*
X104210225Y-65744615D01*
X104210225Y-65744615D02*
X104156058Y-65311281D01*
X104156058Y-65311281D02*
X104384630Y-65311281D01*
X103711415Y-65868424D02*
X103548915Y-64568424D01*
X103548915Y-64568424D02*
X103025701Y-65868424D01*
X103025701Y-65868424D02*
X102863201Y-64568424D01*
X101034629Y-64568424D02*
X101150701Y-65496996D01*
X101150701Y-65496996D02*
X101231058Y-65682710D01*
X101231058Y-65682710D02*
X101360820Y-65806520D01*
X101360820Y-65806520D02*
X101539986Y-65868424D01*
X101539986Y-65868424D02*
X101654272Y-65868424D01*
X99939986Y-65868424D02*
X100262605Y-65249377D01*
X100625700Y-65868424D02*
X100463200Y-64568424D01*
X100463200Y-64568424D02*
X100006057Y-64568424D01*
X100006057Y-64568424D02*
X99899510Y-64630329D01*
X99899510Y-64630329D02*
X99850105Y-64692234D01*
X99850105Y-64692234D02*
X99808438Y-64816043D01*
X99808438Y-64816043D02*
X99831653Y-65001758D01*
X99831653Y-65001758D02*
X99904272Y-65125567D01*
X99904272Y-65125567D02*
X99969153Y-65187472D01*
X99969153Y-65187472D02*
X100091177Y-65249377D01*
X100091177Y-65249377D02*
X100548319Y-65249377D01*
X98940581Y-65187472D02*
X98776891Y-65249377D01*
X98776891Y-65249377D02*
X98727486Y-65311281D01*
X98727486Y-65311281D02*
X98685819Y-65435091D01*
X98685819Y-65435091D02*
X98709034Y-65620805D01*
X98709034Y-65620805D02*
X98781653Y-65744615D01*
X98781653Y-65744615D02*
X98846534Y-65806520D01*
X98846534Y-65806520D02*
X98968557Y-65868424D01*
X98968557Y-65868424D02*
X99425700Y-65868424D01*
X99425700Y-65868424D02*
X99263200Y-64568424D01*
X99263200Y-64568424D02*
X98863200Y-64568424D01*
X98863200Y-64568424D02*
X98756653Y-64630329D01*
X98756653Y-64630329D02*
X98707248Y-64692234D01*
X98707248Y-64692234D02*
X98665581Y-64816043D01*
X98665581Y-64816043D02*
X98681057Y-64939853D01*
X98681057Y-64939853D02*
X98753677Y-65063662D01*
X98753677Y-65063662D02*
X98818557Y-65125567D01*
X98818557Y-65125567D02*
X98940581Y-65187472D01*
X98940581Y-65187472D02*
X99340581Y-65187472D01*
X98234629Y-64568424D02*
X97997129Y-65868424D01*
X97997129Y-65868424D02*
X97434629Y-64568424D01*
X97148915Y-64568424D02*
X96348915Y-64568424D01*
X96348915Y-64568424D02*
X97311415Y-65868424D01*
X97311415Y-65868424D02*
X96511415Y-65868424D01*
X95050105Y-64692234D02*
X94985224Y-64630329D01*
X94985224Y-64630329D02*
X94863201Y-64568424D01*
X94863201Y-64568424D02*
X94577486Y-64568424D01*
X94577486Y-64568424D02*
X94470939Y-64630329D01*
X94470939Y-64630329D02*
X94421534Y-64692234D01*
X94421534Y-64692234D02*
X94379867Y-64816043D01*
X94379867Y-64816043D02*
X94395343Y-64939853D01*
X94395343Y-64939853D02*
X94475701Y-65125567D01*
X94475701Y-65125567D02*
X95254272Y-65868424D01*
X95254272Y-65868424D02*
X94511415Y-65868424D01*
X93606058Y-64568424D02*
X93491772Y-64568424D01*
X93491772Y-64568424D02*
X93385225Y-64630329D01*
X93385225Y-64630329D02*
X93335820Y-64692234D01*
X93335820Y-64692234D02*
X93294153Y-64816043D01*
X93294153Y-64816043D02*
X93267963Y-65063662D01*
X93267963Y-65063662D02*
X93306653Y-65373186D01*
X93306653Y-65373186D02*
X93394748Y-65620805D01*
X93394748Y-65620805D02*
X93467367Y-65744615D01*
X93467367Y-65744615D02*
X93532248Y-65806520D01*
X93532248Y-65806520D02*
X93654272Y-65868424D01*
X93654272Y-65868424D02*
X93768558Y-65868424D01*
X93768558Y-65868424D02*
X93875106Y-65806520D01*
X93875106Y-65806520D02*
X93924510Y-65744615D01*
X93924510Y-65744615D02*
X93966177Y-65620805D01*
X93966177Y-65620805D02*
X93992367Y-65373186D01*
X93992367Y-65373186D02*
X93953677Y-65063662D01*
X93953677Y-65063662D02*
X93865582Y-64816043D01*
X93865582Y-64816043D02*
X93792963Y-64692234D01*
X93792963Y-64692234D02*
X93728082Y-64630329D01*
X93728082Y-64630329D02*
X93606058Y-64568424D01*
X92764391Y-64692234D02*
X92699510Y-64630329D01*
X92699510Y-64630329D02*
X92577487Y-64568424D01*
X92577487Y-64568424D02*
X92291772Y-64568424D01*
X92291772Y-64568424D02*
X92185225Y-64630329D01*
X92185225Y-64630329D02*
X92135820Y-64692234D01*
X92135820Y-64692234D02*
X92094153Y-64816043D01*
X92094153Y-64816043D02*
X92109629Y-64939853D01*
X92109629Y-64939853D02*
X92189987Y-65125567D01*
X92189987Y-65125567D02*
X92968558Y-65868424D01*
X92968558Y-65868424D02*
X92225701Y-65868424D01*
X91088796Y-65001758D02*
X91197130Y-65868424D01*
X91312606Y-64506520D02*
X91714392Y-65435091D01*
X91714392Y-65435091D02*
X90971534Y-65435091D01*
D12*
X144653000Y-104267000D03*
D13*
X142113000Y-104267000D03*
X139573000Y-104267000D03*
X137033000Y-104267000D03*
X134493000Y-104267000D03*
X131953000Y-104267000D03*
D14*
X163315000Y-84904000D03*
X163315000Y-79124000D03*
D15*
X162835000Y-86334000D03*
D16*
X167005000Y-86334000D03*
D15*
X162835000Y-77694000D03*
D16*
X167005000Y-77694000D03*
D12*
X116332000Y-104267000D03*
D13*
X113792000Y-104267000D03*
X111252000Y-104267000D03*
X108712000Y-104267000D03*
X106172000Y-104267000D03*
X103632000Y-104267000D03*
D17*
X91440000Y-49022000D03*
X93980000Y-49022000D03*
X96520000Y-49022000D03*
X99060000Y-49022000D03*
X101600000Y-49022000D03*
X104140000Y-49022000D03*
X106680000Y-49022000D03*
X109220000Y-49022000D03*
X111760000Y-49022000D03*
X114300000Y-49022000D03*
X116840000Y-49022000D03*
X119380000Y-49022000D03*
X121920000Y-49022000D03*
X124460000Y-49022000D03*
X127000000Y-49022000D03*
X129540000Y-49022000D03*
X132080000Y-49022000D03*
X134620000Y-49022000D03*
X137160000Y-49022000D03*
X139700000Y-49022000D03*
X142240000Y-49022000D03*
X144780000Y-49022000D03*
X147320000Y-49022000D03*
X149860000Y-49022000D03*
X152400000Y-49022000D03*
X154940000Y-49022000D03*
X157480000Y-49022000D03*
X160020000Y-49022000D03*
X162560000Y-49022000D03*
X165100000Y-49022000D03*
X91440000Y-54102000D03*
X93980000Y-54102000D03*
X96520000Y-54102000D03*
X99060000Y-54102000D03*
X101600000Y-54102000D03*
X104140000Y-54102000D03*
X106680000Y-54102000D03*
X109220000Y-54102000D03*
X111760000Y-54102000D03*
X114300000Y-54102000D03*
X116840000Y-54102000D03*
X119380000Y-54102000D03*
X121920000Y-54102000D03*
X124460000Y-54102000D03*
X127000000Y-54102000D03*
X129540000Y-54102000D03*
X132080000Y-54102000D03*
X134620000Y-54102000D03*
X137160000Y-54102000D03*
X139700000Y-54102000D03*
X142240000Y-54102000D03*
X144780000Y-54102000D03*
X147320000Y-54102000D03*
X149860000Y-54102000D03*
X152400000Y-54102000D03*
X154940000Y-54102000D03*
X157480000Y-54102000D03*
X160020000Y-54102000D03*
X162560000Y-54102000D03*
X165100000Y-54102000D03*
D12*
X99695000Y-104267000D03*
D13*
X97155000Y-104267000D03*
D18*
X117602000Y-86360000D03*
X117602000Y-91240000D03*
%LPD*%
M02*
