%TF.GenerationSoftware,KiCad,Pcbnew,9.0.7*%
%TF.CreationDate,2026-03-29T12:04:56+05:00*%
%TF.ProjectId,STM32-Dumper,53544d33-322d-4447-956d-7065722e6b69,rev?*%
%TF.SameCoordinates,Original*%
%TF.FileFunction,Drillmap*%
%TF.FilePolarity,Positive*%
%FSLAX45Y45*%
G04 Gerber Fmt 4.5, Leading zero omitted, Abs format (unit mm)*
G04 Created by KiCad (PCBNEW 9.0.7) date 2026-03-29 12:04:56*
%MOMM*%
%LPD*%
G01*
G04 APERTURE LIST*
%ADD10C,0.100000*%
%ADD11C,0.200000*%
G04 APERTURE END LIST*
D10*
X9256681Y-4095996D02*
X9345809Y-4182231D01*
X16371919Y-10864604D02*
X16282791Y-10778369D01*
X9256681Y-10864604D02*
X9345809Y-10778369D01*
X16751300Y-4318000D02*
G75*
G02*
X16446500Y-4318000I-152400J0D01*
G01*
X16446500Y-4318000D02*
G75*
G02*
X16751300Y-4318000I152400J0D01*
G01*
X8712200Y-10642600D02*
X8712200Y-4318000D01*
X9458960Y-4229100D02*
X16169640Y-4229100D01*
X16598900Y-10960100D02*
G75*
G02*
X16371919Y-10864604I0J317500D01*
G01*
X9029700Y-10960100D02*
G75*
G02*
X8712200Y-10642600I0J317500D01*
G01*
X9182100Y-10642600D02*
G75*
G02*
X8877300Y-10642600I-152400J0D01*
G01*
X8877300Y-10642600D02*
G75*
G02*
X9182100Y-10642600I152400J0D01*
G01*
X9256681Y-10864604D02*
G75*
G02*
X9029700Y-10960100I-226981J222004D01*
G01*
X16371919Y-4095996D02*
G75*
G02*
X16598900Y-4000500I226981J-222004D01*
G01*
X16916400Y-4318000D02*
X16916400Y-10642600D01*
X8712200Y-4318000D02*
G75*
G02*
X9029700Y-4000500I317500J0D01*
G01*
X16169640Y-10731500D02*
X9458960Y-10731500D01*
X16169640Y-10731500D02*
G75*
G02*
X16282791Y-10778369I0J-160020D01*
G01*
X16751300Y-10642600D02*
G75*
G02*
X16446500Y-10642600I-152400J0D01*
G01*
X16446500Y-10642600D02*
G75*
G02*
X16751300Y-10642600I152400J0D01*
G01*
X9345809Y-10778369D02*
G75*
G02*
X9458960Y-10731500I113151J-113151D01*
G01*
X9029700Y-4000500D02*
G75*
G02*
X9256681Y-4095996I0J-317500D01*
G01*
X16916400Y-10642600D02*
G75*
G02*
X16598900Y-10960100I-317500J0D01*
G01*
X16282791Y-4182231D02*
G75*
G02*
X16169640Y-4229100I-113151J113151D01*
G01*
X16598900Y-4000500D02*
G75*
G02*
X16916400Y-4318000I0J-317500D01*
G01*
X9182100Y-4318000D02*
G75*
G02*
X8877300Y-4318000I-152400J0D01*
G01*
X8877300Y-4318000D02*
G75*
G02*
X9182100Y-4318000I152400J0D01*
G01*
X9458960Y-4229100D02*
G75*
G02*
X9345809Y-4182231I0J160020D01*
G01*
X16371919Y-4095996D02*
X16282791Y-4182231D01*
D11*
D10*
X8900400Y-4938000D02*
X8930400Y-4968000D01*
X8930400Y-4938000D02*
X8900400Y-4968000D01*
X8913100Y-6811750D02*
X8943100Y-6841750D01*
X8943100Y-6811750D02*
X8913100Y-6841750D01*
X8919950Y-6239250D02*
X8949950Y-6269250D01*
X8949950Y-6239250D02*
X8919950Y-6269250D01*
X9027400Y-5141200D02*
X9057400Y-5171200D01*
X9057400Y-5141200D02*
X9027400Y-5171200D01*
X9027400Y-5827000D02*
X9057400Y-5857000D01*
X9057400Y-5827000D02*
X9027400Y-5857000D01*
X9027400Y-6081000D02*
X9057400Y-6111000D01*
X9057400Y-6081000D02*
X9027400Y-6111000D01*
X9027400Y-7173200D02*
X9057400Y-7203200D01*
X9057400Y-7173200D02*
X9027400Y-7203200D01*
X9052800Y-6639800D02*
X9082800Y-6669800D01*
X9082800Y-6639800D02*
X9052800Y-6669800D01*
X9179800Y-7681200D02*
X9209800Y-7711200D01*
X9209800Y-7681200D02*
X9179800Y-7711200D01*
X9179800Y-10297400D02*
X9209800Y-10327400D01*
X9209800Y-10297400D02*
X9179800Y-10327400D01*
X9205200Y-8621000D02*
X9235200Y-8651000D01*
X9235200Y-8621000D02*
X9205200Y-8651000D01*
X9205200Y-8925800D02*
X9235200Y-8955800D01*
X9235200Y-8925800D02*
X9205200Y-8955800D01*
X9205200Y-9459200D02*
X9235200Y-9489200D01*
X9235200Y-9459200D02*
X9205200Y-9489200D01*
X9217900Y-7097000D02*
X9247900Y-7127000D01*
X9247900Y-7097000D02*
X9217900Y-7127000D01*
X9319500Y-9061500D02*
X9349500Y-9091500D01*
X9349500Y-9061500D02*
X9319500Y-9091500D01*
X9348600Y-7093500D02*
X9378600Y-7123500D01*
X9378600Y-7093500D02*
X9348600Y-7123500D01*
X9408400Y-9256000D02*
X9438400Y-9286000D01*
X9438400Y-9256000D02*
X9408400Y-9286000D01*
X9433800Y-9560800D02*
X9463800Y-9590800D01*
X9463800Y-9560800D02*
X9433800Y-9590800D01*
X9478600Y-7093500D02*
X9508600Y-7123500D01*
X9508600Y-7093500D02*
X9478600Y-7123500D01*
X9510000Y-7668500D02*
X9540000Y-7698500D01*
X9540000Y-7668500D02*
X9510000Y-7698500D01*
X9510000Y-7909800D02*
X9540000Y-7939800D01*
X9540000Y-7909800D02*
X9510000Y-7939800D01*
X9510000Y-8189200D02*
X9540000Y-8219200D01*
X9540000Y-8189200D02*
X9510000Y-8219200D01*
X9560800Y-9687800D02*
X9590800Y-9717800D01*
X9590800Y-9687800D02*
X9560800Y-9717800D01*
X9560800Y-9916400D02*
X9590800Y-9946400D01*
X9590800Y-9916400D02*
X9560800Y-9946400D01*
X9586200Y-4531600D02*
X9616200Y-4561600D01*
X9616200Y-4531600D02*
X9586200Y-4561600D01*
X9586200Y-4633200D02*
X9616200Y-4663200D01*
X9616200Y-4633200D02*
X9586200Y-4663200D01*
X9713200Y-6639800D02*
X9743200Y-6669800D01*
X9743200Y-6639800D02*
X9713200Y-6669800D01*
X9713200Y-6970000D02*
X9743200Y-7000000D01*
X9743200Y-6970000D02*
X9713200Y-7000000D01*
X9764000Y-7669400D02*
X9794000Y-7699400D01*
X9794000Y-7669400D02*
X9764000Y-7699400D01*
X9764000Y-8646400D02*
X9794000Y-8676400D01*
X9794000Y-8646400D02*
X9764000Y-8676400D01*
X9764000Y-8900400D02*
X9794000Y-8930400D01*
X9794000Y-8900400D02*
X9764000Y-8930400D01*
X9764000Y-9179800D02*
X9794000Y-9209800D01*
X9794000Y-9179800D02*
X9764000Y-9209800D01*
X9764000Y-9459200D02*
X9794000Y-9489200D01*
X9794000Y-9459200D02*
X9764000Y-9489200D01*
X9789400Y-7325600D02*
X9819400Y-7355600D01*
X9819400Y-7325600D02*
X9789400Y-7355600D01*
X9789400Y-9916400D02*
X9819400Y-9946400D01*
X9819400Y-9916400D02*
X9789400Y-9946400D01*
X9789400Y-10246600D02*
X9819400Y-10276600D01*
X9819400Y-10246600D02*
X9789400Y-10276600D01*
X9842850Y-8288150D02*
X9872850Y-8318150D01*
X9872850Y-8288150D02*
X9842850Y-8318150D01*
X9852900Y-7669400D02*
X9882900Y-7699400D01*
X9882900Y-7669400D02*
X9852900Y-7699400D01*
X9865600Y-6131800D02*
X9895600Y-6161800D01*
X9895600Y-6131800D02*
X9865600Y-6161800D01*
X9865600Y-6335000D02*
X9895600Y-6365000D01*
X9895600Y-6335000D02*
X9865600Y-6365000D01*
X9941800Y-7669400D02*
X9971800Y-7699400D01*
X9971800Y-7669400D02*
X9941800Y-7699400D01*
X10018000Y-8900400D02*
X10048000Y-8930400D01*
X10048000Y-8900400D02*
X10018000Y-8930400D01*
X10018000Y-9459200D02*
X10048000Y-9489200D01*
X10048000Y-9459200D02*
X10018000Y-9489200D01*
X10030700Y-7669400D02*
X10060700Y-7699400D01*
X10060700Y-7669400D02*
X10030700Y-7699400D01*
X10030700Y-8024100D02*
X10060700Y-8054100D01*
X10060700Y-8024100D02*
X10030700Y-8054100D01*
X10030700Y-8290800D02*
X10060700Y-8320800D01*
X10060700Y-8290800D02*
X10030700Y-8320800D01*
X10043400Y-8659100D02*
X10073400Y-8689100D01*
X10073400Y-8659100D02*
X10043400Y-8689100D01*
X10068800Y-7173200D02*
X10098800Y-7203200D01*
X10098800Y-7173200D02*
X10068800Y-7203200D01*
X10068800Y-10119600D02*
X10098800Y-10149600D01*
X10098800Y-10119600D02*
X10068800Y-10149600D01*
X10119600Y-7669400D02*
X10149600Y-7699400D01*
X10149600Y-7669400D02*
X10119600Y-7699400D01*
X10208500Y-7669400D02*
X10238500Y-7699400D01*
X10238500Y-7669400D02*
X10208500Y-7699400D01*
X10221200Y-9802100D02*
X10251200Y-9832100D01*
X10251200Y-9802100D02*
X10221200Y-9832100D01*
X10233900Y-6239250D02*
X10263900Y-6269250D01*
X10263900Y-6239250D02*
X10233900Y-6269250D01*
X10233900Y-6811750D02*
X10263900Y-6841750D01*
X10263900Y-6811750D02*
X10233900Y-6841750D01*
X10272000Y-7732000D02*
X10302000Y-7762000D01*
X10302000Y-7732000D02*
X10272000Y-7762000D01*
X10272000Y-8290800D02*
X10302000Y-8320800D01*
X10302000Y-8290800D02*
X10272000Y-8320800D01*
X10272000Y-8900400D02*
X10302000Y-8930400D01*
X10302000Y-8900400D02*
X10272000Y-8930400D01*
X10272000Y-9179800D02*
X10302000Y-9209800D01*
X10302000Y-9179800D02*
X10272000Y-9209800D01*
X10272000Y-9459200D02*
X10302000Y-9489200D01*
X10302000Y-9459200D02*
X10272000Y-9489200D01*
X10297400Y-6335000D02*
X10327400Y-6365000D01*
X10327400Y-6335000D02*
X10297400Y-6365000D01*
X10348200Y-10119600D02*
X10378200Y-10149600D01*
X10378200Y-10119600D02*
X10348200Y-10149600D01*
X10360900Y-7669400D02*
X10390900Y-7699400D01*
X10390900Y-7669400D02*
X10360900Y-7699400D01*
X10373600Y-5877800D02*
X10403600Y-5907800D01*
X10403600Y-5877800D02*
X10373600Y-5907800D01*
X10373600Y-6639800D02*
X10403600Y-6669800D01*
X10403600Y-6639800D02*
X10373600Y-6669800D01*
X10437100Y-8910560D02*
X10467100Y-8940560D01*
X10467100Y-8910560D02*
X10437100Y-8940560D01*
X10449800Y-7669400D02*
X10479800Y-7699400D01*
X10479800Y-7669400D02*
X10449800Y-7699400D01*
X10487900Y-8722600D02*
X10517900Y-8752600D01*
X10517900Y-8722600D02*
X10487900Y-8752600D01*
X10526000Y-5192000D02*
X10556000Y-5222000D01*
X10556000Y-5192000D02*
X10526000Y-5222000D01*
X10526000Y-9002000D02*
X10556000Y-9032000D01*
X10556000Y-9002000D02*
X10526000Y-9032000D01*
X10526000Y-9459200D02*
X10556000Y-9489200D01*
X10556000Y-9459200D02*
X10526000Y-9489200D01*
X10551400Y-7732000D02*
X10581400Y-7762000D01*
X10581400Y-7732000D02*
X10551400Y-7762000D01*
X10551400Y-9814800D02*
X10581400Y-9844800D01*
X10581400Y-9814800D02*
X10551400Y-9844800D01*
X10564100Y-8290800D02*
X10594100Y-8320800D01*
X10594100Y-8290800D02*
X10564100Y-8320800D01*
X10653000Y-7669400D02*
X10683000Y-7699400D01*
X10683000Y-7669400D02*
X10653000Y-7699400D01*
X10678400Y-10018000D02*
X10708400Y-10048000D01*
X10708400Y-10018000D02*
X10678400Y-10048000D01*
X10711300Y-5623800D02*
X10741300Y-5653800D01*
X10741300Y-5623800D02*
X10711300Y-5653800D01*
X10780000Y-5687300D02*
X10810000Y-5717300D01*
X10810000Y-5687300D02*
X10780000Y-5717300D01*
X10843500Y-5750800D02*
X10873500Y-5780800D01*
X10873500Y-5750800D02*
X10843500Y-5780800D01*
X10856200Y-8595600D02*
X10886200Y-8625600D01*
X10886200Y-8595600D02*
X10856200Y-8625600D01*
X10907000Y-5814300D02*
X10937000Y-5844300D01*
X10937000Y-5814300D02*
X10907000Y-5844300D01*
X10907000Y-10018000D02*
X10937000Y-10048000D01*
X10937000Y-10018000D02*
X10907000Y-10048000D01*
X10919700Y-9149320D02*
X10949700Y-9179320D01*
X10949700Y-9149320D02*
X10919700Y-9179320D01*
X10945100Y-7973300D02*
X10975100Y-8003300D01*
X10975100Y-7973300D02*
X10945100Y-8003300D01*
X10970500Y-5877800D02*
X11000500Y-5907800D01*
X11000500Y-5877800D02*
X10970500Y-5907800D01*
X10983200Y-9078200D02*
X11013200Y-9108200D01*
X11013200Y-9078200D02*
X10983200Y-9108200D01*
X11008600Y-6639800D02*
X11038600Y-6669800D01*
X11038600Y-6639800D02*
X11008600Y-6669800D01*
X11034000Y-5141200D02*
X11064000Y-5171200D01*
X11064000Y-5141200D02*
X11034000Y-5171200D01*
X11034000Y-5941300D02*
X11064000Y-5971300D01*
X11064000Y-5941300D02*
X11034000Y-5971300D01*
X11034000Y-8024100D02*
X11064000Y-8054100D01*
X11064000Y-8024100D02*
X11034000Y-8054100D01*
X11046700Y-8722600D02*
X11076700Y-8752600D01*
X11076700Y-8722600D02*
X11046700Y-8752600D01*
X11046700Y-9381500D02*
X11076700Y-9411500D01*
X11076700Y-9381500D02*
X11046700Y-9411500D01*
X11046700Y-9637000D02*
X11076700Y-9667000D01*
X11076700Y-9637000D02*
X11046700Y-9667000D01*
X11084800Y-6970000D02*
X11114800Y-7000000D01*
X11114800Y-6970000D02*
X11084800Y-7000000D01*
X11084800Y-9814800D02*
X11114800Y-9844800D01*
X11114800Y-9814800D02*
X11084800Y-9844800D01*
X11110200Y-8659100D02*
X11140200Y-8689100D01*
X11140200Y-8659100D02*
X11110200Y-8689100D01*
X11110200Y-9002000D02*
X11140200Y-9032000D01*
X11140200Y-9002000D02*
X11110200Y-9032000D01*
X11122900Y-8074900D02*
X11152900Y-8104900D01*
X11152900Y-8074900D02*
X11122900Y-8104900D01*
X11161000Y-6030200D02*
X11191000Y-6060200D01*
X11191000Y-6030200D02*
X11161000Y-6060200D01*
X11161000Y-9459200D02*
X11191000Y-9489200D01*
X11191000Y-9459200D02*
X11161000Y-9489200D01*
X11186400Y-8290800D02*
X11216400Y-8320800D01*
X11216400Y-8290800D02*
X11186400Y-8320800D01*
X11211800Y-8125700D02*
X11241800Y-8155700D01*
X11241800Y-8125700D02*
X11211800Y-8155700D01*
X11237200Y-9078200D02*
X11267200Y-9108200D01*
X11267200Y-9078200D02*
X11237200Y-9108200D01*
X11237200Y-9306800D02*
X11267200Y-9336800D01*
X11267200Y-9306800D02*
X11237200Y-9336800D01*
X11300700Y-8176500D02*
X11330700Y-8206500D01*
X11330700Y-8176500D02*
X11300700Y-8206500D01*
X11313400Y-9522700D02*
X11343400Y-9552700D01*
X11343400Y-9522700D02*
X11313400Y-9552700D01*
X11338800Y-6335000D02*
X11368800Y-6365000D01*
X11368800Y-6335000D02*
X11338800Y-6365000D01*
X11440400Y-6970000D02*
X11470400Y-7000000D01*
X11470400Y-6970000D02*
X11440400Y-7000000D01*
X11465800Y-6030200D02*
X11495800Y-6060200D01*
X11495800Y-6030200D02*
X11465800Y-6060200D01*
X11478500Y-9129000D02*
X11508500Y-9159000D01*
X11508500Y-9129000D02*
X11478500Y-9159000D01*
X11478500Y-9383000D02*
X11508500Y-9413000D01*
X11508500Y-9383000D02*
X11478500Y-9413000D01*
X11554700Y-9649700D02*
X11584700Y-9679700D01*
X11584700Y-9649700D02*
X11554700Y-9679700D01*
X11605500Y-6239250D02*
X11635500Y-6269250D01*
X11635500Y-6239250D02*
X11605500Y-6269250D01*
X11605500Y-6811750D02*
X11635500Y-6841750D01*
X11635500Y-6811750D02*
X11605500Y-6841750D01*
X11618200Y-8697200D02*
X11648200Y-8727200D01*
X11648200Y-8697200D02*
X11618200Y-8727200D01*
X11618200Y-9814800D02*
X11648200Y-9844800D01*
X11648200Y-9814800D02*
X11618200Y-9844800D01*
X11618200Y-10018000D02*
X11648200Y-10048000D01*
X11648200Y-10018000D02*
X11618200Y-10048000D01*
X11669000Y-6335000D02*
X11699000Y-6365000D01*
X11699000Y-6335000D02*
X11669000Y-6365000D01*
X11669000Y-6639800D02*
X11699000Y-6669800D01*
X11699000Y-6639800D02*
X11669000Y-6669800D01*
X11669000Y-7554200D02*
X11699000Y-7584200D01*
X11699000Y-7554200D02*
X11669000Y-7584200D01*
X11707100Y-9586200D02*
X11737100Y-9616200D01*
X11737100Y-9586200D02*
X11707100Y-9616200D01*
X11731020Y-8190680D02*
X11761020Y-8220680D01*
X11761020Y-8190680D02*
X11731020Y-8220680D01*
X11745200Y-6030200D02*
X11775200Y-6060200D01*
X11775200Y-6030200D02*
X11745200Y-6060200D01*
X11796000Y-5141200D02*
X11826000Y-5171200D01*
X11826000Y-5141200D02*
X11796000Y-5171200D01*
X11821400Y-7732000D02*
X11851400Y-7762000D01*
X11851400Y-7732000D02*
X11821400Y-7762000D01*
X11846800Y-9662400D02*
X11876800Y-9692400D01*
X11876800Y-9662400D02*
X11846800Y-9692400D01*
X11872200Y-7528800D02*
X11902200Y-7558800D01*
X11902200Y-7528800D02*
X11872200Y-7558800D01*
X11872200Y-8697200D02*
X11902200Y-8727200D01*
X11902200Y-8697200D02*
X11872200Y-8727200D01*
X11872200Y-8938500D02*
X11902200Y-8968500D01*
X11902200Y-8938500D02*
X11872200Y-8968500D01*
X11948400Y-7478000D02*
X11978400Y-7508000D01*
X11978400Y-7478000D02*
X11948400Y-7508000D01*
X11948400Y-10246600D02*
X11978400Y-10276600D01*
X11978400Y-10246600D02*
X11948400Y-10276600D01*
X12024600Y-7427200D02*
X12054600Y-7457200D01*
X12054600Y-7427200D02*
X12024600Y-7457200D01*
X12100800Y-7376400D02*
X12130800Y-7406400D01*
X12130800Y-7376400D02*
X12100800Y-7406400D01*
X12100800Y-9332200D02*
X12130800Y-9362200D01*
X12130800Y-9332200D02*
X12100800Y-9362200D01*
X12100800Y-10132300D02*
X12130800Y-10162300D01*
X12130800Y-10132300D02*
X12100800Y-10162300D01*
X12146000Y-6004800D02*
X12176000Y-6034800D01*
X12176000Y-6004800D02*
X12146000Y-6034800D01*
X12177000Y-7325600D02*
X12207000Y-7355600D01*
X12207000Y-7325600D02*
X12177000Y-7355600D01*
X12202400Y-10018000D02*
X12232400Y-10048000D01*
X12232400Y-10018000D02*
X12202400Y-10048000D01*
X12215100Y-6068300D02*
X12245100Y-6098300D01*
X12245100Y-6068300D02*
X12215100Y-6098300D01*
X12227800Y-6970000D02*
X12257800Y-7000000D01*
X12257800Y-6970000D02*
X12227800Y-7000000D01*
X12253200Y-9586200D02*
X12283200Y-9616200D01*
X12283200Y-9586200D02*
X12253200Y-9616200D01*
X12304000Y-7376400D02*
X12334000Y-7406400D01*
X12334000Y-7376400D02*
X12304000Y-7406400D01*
X12329400Y-6639800D02*
X12359400Y-6669800D01*
X12359400Y-6639800D02*
X12329400Y-6669800D01*
X12329400Y-9522700D02*
X12359400Y-9552700D01*
X12359400Y-9522700D02*
X12329400Y-9552700D01*
X12354800Y-9662400D02*
X12384800Y-9692400D01*
X12384800Y-9662400D02*
X12354800Y-9692400D01*
X12418300Y-8824200D02*
X12448300Y-8854200D01*
X12448300Y-8824200D02*
X12418300Y-8854200D01*
X12431000Y-8621000D02*
X12461000Y-8651000D01*
X12461000Y-8621000D02*
X12431000Y-8651000D01*
X12456400Y-10246600D02*
X12486400Y-10276600D01*
X12486400Y-10246600D02*
X12456400Y-10276600D01*
X12532600Y-6970000D02*
X12562600Y-7000000D01*
X12562600Y-6970000D02*
X12532600Y-7000000D01*
X12532600Y-7376400D02*
X12562600Y-7406400D01*
X12562600Y-7376400D02*
X12532600Y-7406400D01*
X12545300Y-8621000D02*
X12575300Y-8651000D01*
X12575300Y-8621000D02*
X12545300Y-8651000D01*
X12545300Y-9332200D02*
X12575300Y-9362200D01*
X12575300Y-9332200D02*
X12545300Y-9362200D01*
X12558000Y-5141200D02*
X12588000Y-5171200D01*
X12588000Y-5141200D02*
X12558000Y-5171200D01*
X12570700Y-6144500D02*
X12600700Y-6174500D01*
X12600700Y-6144500D02*
X12570700Y-6174500D01*
X12570700Y-6335000D02*
X12600700Y-6365000D01*
X12600700Y-6335000D02*
X12570700Y-6365000D01*
X12583400Y-7732000D02*
X12613400Y-7762000D01*
X12613400Y-7732000D02*
X12583400Y-7762000D01*
X12634200Y-9662400D02*
X12664200Y-9692400D01*
X12664200Y-9662400D02*
X12634200Y-9692400D01*
X12634200Y-10018000D02*
X12664200Y-10048000D01*
X12664200Y-10018000D02*
X12634200Y-10048000D01*
X12685000Y-7325600D02*
X12715000Y-7355600D01*
X12715000Y-7325600D02*
X12685000Y-7355600D01*
X12761200Y-10068800D02*
X12791200Y-10098800D01*
X12791200Y-10068800D02*
X12761200Y-10098800D01*
X12799300Y-7414500D02*
X12829300Y-7444500D01*
X12829300Y-7414500D02*
X12799300Y-7444500D01*
X12812000Y-6144500D02*
X12842000Y-6174500D01*
X12842000Y-6144500D02*
X12812000Y-6174500D01*
X12812000Y-6335000D02*
X12842000Y-6365000D01*
X12842000Y-6335000D02*
X12812000Y-6365000D01*
X12812000Y-6639800D02*
X12842000Y-6669800D01*
X12842000Y-6639800D02*
X12812000Y-6669800D01*
X12951700Y-8290800D02*
X12981700Y-8320800D01*
X12981700Y-8290800D02*
X12951700Y-8320800D01*
X12964400Y-6239250D02*
X12994400Y-6269250D01*
X12994400Y-6239250D02*
X12964400Y-6269250D01*
X12964400Y-6811750D02*
X12994400Y-6841750D01*
X12994400Y-6811750D02*
X12964400Y-6841750D01*
X12989800Y-8900400D02*
X13019800Y-8930400D01*
X13019800Y-8900400D02*
X12989800Y-8930400D01*
X12989800Y-9179800D02*
X13019800Y-9209800D01*
X13019800Y-9179800D02*
X12989800Y-9209800D01*
X12989800Y-9510000D02*
X13019800Y-9540000D01*
X13019800Y-9510000D02*
X12989800Y-9540000D01*
X12989800Y-10018000D02*
X13019800Y-10048000D01*
X13019800Y-10018000D02*
X12989800Y-10048000D01*
X12989800Y-10246600D02*
X13019800Y-10276600D01*
X13019800Y-10246600D02*
X12989800Y-10276600D01*
X12989800Y-10449800D02*
X13019800Y-10479800D01*
X13019800Y-10449800D02*
X12989800Y-10479800D01*
X13015200Y-8367000D02*
X13045200Y-8397000D01*
X13045200Y-8367000D02*
X13015200Y-8397000D01*
X13078700Y-6004800D02*
X13108700Y-6034800D01*
X13108700Y-6004800D02*
X13078700Y-6034800D01*
X13078700Y-8443200D02*
X13108700Y-8473200D01*
X13108700Y-8443200D02*
X13078700Y-8473200D01*
X13116800Y-6995400D02*
X13146800Y-7025400D01*
X13146800Y-6995400D02*
X13116800Y-7025400D01*
X13116800Y-7414500D02*
X13146800Y-7444500D01*
X13146800Y-7414500D02*
X13116800Y-7444500D01*
X13129500Y-9840200D02*
X13159500Y-9870200D01*
X13159500Y-9840200D02*
X13129500Y-9870200D01*
X13142200Y-6068300D02*
X13172200Y-6098300D01*
X13172200Y-6068300D02*
X13142200Y-6098300D01*
X13142200Y-6398500D02*
X13172200Y-6428500D01*
X13172200Y-6398500D02*
X13142200Y-6428500D01*
X13142200Y-6639800D02*
X13172200Y-6669800D01*
X13172200Y-6639800D02*
X13142200Y-6669800D01*
X13142200Y-8519400D02*
X13172200Y-8549400D01*
X13172200Y-8519400D02*
X13142200Y-8549400D01*
X13193000Y-7732000D02*
X13223000Y-7762000D01*
X13223000Y-7732000D02*
X13193000Y-7762000D01*
X13205700Y-8595600D02*
X13235700Y-8625600D01*
X13235700Y-8595600D02*
X13205700Y-8625600D01*
X13218400Y-6004800D02*
X13248400Y-6034800D01*
X13248400Y-6004800D02*
X13218400Y-6034800D01*
X13269200Y-7325600D02*
X13299200Y-7355600D01*
X13299200Y-7325600D02*
X13269200Y-7355600D01*
X13269200Y-8671800D02*
X13299200Y-8701800D01*
X13299200Y-8671800D02*
X13269200Y-8701800D01*
X13332700Y-8748000D02*
X13362700Y-8778000D01*
X13362700Y-8748000D02*
X13332700Y-8778000D01*
X13345400Y-9510000D02*
X13375400Y-9540000D01*
X13375400Y-9510000D02*
X13345400Y-9540000D01*
X13396200Y-7960600D02*
X13426200Y-7990600D01*
X13426200Y-7960600D02*
X13396200Y-7990600D01*
X13396200Y-10129760D02*
X13426200Y-10159760D01*
X13426200Y-10129760D02*
X13396200Y-10159760D01*
X13447000Y-8900400D02*
X13477000Y-8930400D01*
X13477000Y-8900400D02*
X13447000Y-8930400D01*
X13447000Y-9179800D02*
X13477000Y-9209800D01*
X13477000Y-9179800D02*
X13447000Y-9209800D01*
X13472400Y-6081000D02*
X13502400Y-6111000D01*
X13502400Y-6081000D02*
X13472400Y-6111000D01*
X13497800Y-7732000D02*
X13527800Y-7762000D01*
X13527800Y-7732000D02*
X13497800Y-7762000D01*
X13523200Y-9471900D02*
X13553200Y-9501900D01*
X13553200Y-9471900D02*
X13523200Y-9501900D01*
X13548600Y-6398500D02*
X13578600Y-6428500D01*
X13578600Y-6398500D02*
X13548600Y-6428500D01*
X13548600Y-6639800D02*
X13578600Y-6669800D01*
X13578600Y-6639800D02*
X13548600Y-6669800D01*
X13574000Y-5192000D02*
X13604000Y-5222000D01*
X13604000Y-5192000D02*
X13574000Y-5222000D01*
X13599400Y-9840200D02*
X13629400Y-9870200D01*
X13629400Y-9840200D02*
X13599400Y-9870200D01*
X13624800Y-7732000D02*
X13654800Y-7762000D01*
X13654800Y-7732000D02*
X13624800Y-7762000D01*
X13650200Y-9421100D02*
X13680200Y-9451100D01*
X13680200Y-9421100D02*
X13650200Y-9451100D01*
X13662900Y-9992600D02*
X13692900Y-10022600D01*
X13692900Y-9992600D02*
X13662900Y-10022600D01*
X13675600Y-8087600D02*
X13705600Y-8117600D01*
X13705600Y-8087600D02*
X13675600Y-8117600D01*
X13688300Y-7414500D02*
X13718300Y-7444500D01*
X13718300Y-7414500D02*
X13688300Y-7444500D01*
X13713700Y-9357600D02*
X13743700Y-9387600D01*
X13743700Y-9357600D02*
X13713700Y-9387600D01*
X13751800Y-5687300D02*
X13781800Y-5717300D01*
X13781800Y-5687300D02*
X13751800Y-5717300D01*
X13764500Y-6995400D02*
X13794500Y-7025400D01*
X13794500Y-6995400D02*
X13764500Y-7025400D01*
X13764500Y-9992600D02*
X13794500Y-10022600D01*
X13794500Y-9992600D02*
X13764500Y-10022600D01*
X13777200Y-9294100D02*
X13807200Y-9324100D01*
X13807200Y-9294100D02*
X13777200Y-9324100D01*
X13777200Y-9840200D02*
X13807200Y-9870200D01*
X13807200Y-9840200D02*
X13777200Y-9870200D01*
X13828000Y-5141200D02*
X13858000Y-5171200D01*
X13858000Y-5141200D02*
X13828000Y-5171200D01*
X13828000Y-5750800D02*
X13858000Y-5780800D01*
X13858000Y-5750800D02*
X13828000Y-5780800D01*
X13840700Y-9230600D02*
X13870700Y-9260600D01*
X13870700Y-9230600D02*
X13840700Y-9260600D01*
X13853400Y-7732000D02*
X13883400Y-7762000D01*
X13883400Y-7732000D02*
X13853400Y-7762000D01*
X13866100Y-9992600D02*
X13896100Y-10022600D01*
X13896100Y-9992600D02*
X13866100Y-10022600D01*
X13878800Y-6081000D02*
X13908800Y-6111000D01*
X13908800Y-6081000D02*
X13878800Y-6111000D01*
X13878800Y-6398500D02*
X13908800Y-6428500D01*
X13908800Y-6398500D02*
X13878800Y-6428500D01*
X13878800Y-6639800D02*
X13908800Y-6669800D01*
X13908800Y-6639800D02*
X13878800Y-6669800D01*
X13904200Y-5814300D02*
X13934200Y-5844300D01*
X13934200Y-5814300D02*
X13904200Y-5844300D01*
X13904200Y-9167100D02*
X13934200Y-9197100D01*
X13934200Y-9167100D02*
X13904200Y-9197100D01*
X13955000Y-10221200D02*
X13985000Y-10251200D01*
X13985000Y-10221200D02*
X13955000Y-10251200D01*
X13980400Y-5877800D02*
X14010400Y-5907800D01*
X14010400Y-5877800D02*
X13980400Y-5907800D01*
X13980400Y-9840200D02*
X14010400Y-9870200D01*
X14010400Y-9840200D02*
X13980400Y-9870200D01*
X13993100Y-7414500D02*
X14023100Y-7444500D01*
X14023100Y-7414500D02*
X13993100Y-7444500D01*
X14018500Y-8722600D02*
X14048500Y-8752600D01*
X14048500Y-8722600D02*
X14018500Y-8752600D01*
X14018500Y-8811500D02*
X14048500Y-8841500D01*
X14048500Y-8811500D02*
X14018500Y-8841500D01*
X14018500Y-8900400D02*
X14048500Y-8930400D01*
X14048500Y-8900400D02*
X14018500Y-8930400D01*
X14031200Y-6995400D02*
X14061200Y-7025400D01*
X14061200Y-6995400D02*
X14031200Y-7025400D01*
X14031200Y-9306800D02*
X14061200Y-9336800D01*
X14061200Y-9306800D02*
X14031200Y-9336800D01*
X14056600Y-5941300D02*
X14086600Y-5971300D01*
X14086600Y-5941300D02*
X14056600Y-5971300D01*
X14082000Y-7097000D02*
X14112000Y-7127000D01*
X14112000Y-7097000D02*
X14082000Y-7127000D01*
X14094700Y-8189200D02*
X14124700Y-8219200D01*
X14124700Y-8189200D02*
X14094700Y-8219200D01*
X14094700Y-8468600D02*
X14124700Y-8498600D01*
X14124700Y-8468600D02*
X14094700Y-8498600D01*
X14120100Y-7732000D02*
X14150100Y-7762000D01*
X14150100Y-7732000D02*
X14120100Y-7762000D01*
X14132800Y-10018000D02*
X14162800Y-10048000D01*
X14162800Y-10018000D02*
X14132800Y-10048000D01*
X14183600Y-7414500D02*
X14213600Y-7444500D01*
X14213600Y-7414500D02*
X14183600Y-7444500D01*
X14183600Y-8925800D02*
X14213600Y-8955800D01*
X14213600Y-8925800D02*
X14183600Y-8955800D01*
X14196300Y-9510000D02*
X14226300Y-9540000D01*
X14226300Y-9510000D02*
X14196300Y-9540000D01*
X14209000Y-5141200D02*
X14239000Y-5171200D01*
X14239000Y-5141200D02*
X14209000Y-5171200D01*
X14272500Y-9192500D02*
X14302500Y-9222500D01*
X14302500Y-9192500D02*
X14272500Y-9222500D01*
X14272500Y-9840200D02*
X14302500Y-9870200D01*
X14302500Y-9840200D02*
X14272500Y-9870200D01*
X14336000Y-6239250D02*
X14366000Y-6269250D01*
X14366000Y-6239250D02*
X14336000Y-6269250D01*
X14336000Y-6811750D02*
X14366000Y-6841750D01*
X14366000Y-6811750D02*
X14336000Y-6841750D01*
X14336000Y-9256000D02*
X14366000Y-9286000D01*
X14366000Y-9256000D02*
X14336000Y-9286000D01*
X14336000Y-10221200D02*
X14366000Y-10251200D01*
X14366000Y-10221200D02*
X14336000Y-10251200D01*
X14361400Y-6639800D02*
X14391400Y-6669800D01*
X14391400Y-6639800D02*
X14361400Y-6669800D01*
X14386800Y-6347700D02*
X14416800Y-6377700D01*
X14416800Y-6347700D02*
X14386800Y-6377700D01*
X14399500Y-9319500D02*
X14429500Y-9349500D01*
X14429500Y-9319500D02*
X14399500Y-9349500D01*
X14437600Y-10129760D02*
X14467600Y-10159760D01*
X14467600Y-10129760D02*
X14437600Y-10159760D01*
X14463000Y-5141200D02*
X14493000Y-5171200D01*
X14493000Y-5141200D02*
X14463000Y-5171200D01*
X14463000Y-5877800D02*
X14493000Y-5907800D01*
X14493000Y-5877800D02*
X14463000Y-5907800D01*
X14463000Y-9383000D02*
X14493000Y-9413000D01*
X14493000Y-9383000D02*
X14463000Y-9413000D01*
X14475700Y-7732000D02*
X14505700Y-7762000D01*
X14505700Y-7732000D02*
X14475700Y-7762000D01*
X14526500Y-7122400D02*
X14556500Y-7152400D01*
X14556500Y-7122400D02*
X14526500Y-7152400D01*
X14526500Y-7414500D02*
X14556500Y-7444500D01*
X14556500Y-7414500D02*
X14526500Y-7444500D01*
X14526500Y-8240000D02*
X14556500Y-8270000D01*
X14556500Y-8240000D02*
X14526500Y-8270000D01*
X14577300Y-7224000D02*
X14607300Y-7254000D01*
X14607300Y-7224000D02*
X14577300Y-7254000D01*
X14590000Y-6639800D02*
X14620000Y-6669800D01*
X14620000Y-6639800D02*
X14590000Y-6669800D01*
X14590000Y-8163800D02*
X14620000Y-8193800D01*
X14620000Y-8163800D02*
X14590000Y-8193800D01*
X14602700Y-9840200D02*
X14632700Y-9870200D01*
X14632700Y-9840200D02*
X14602700Y-9870200D01*
X14653500Y-8875000D02*
X14683500Y-8905000D01*
X14683500Y-8875000D02*
X14653500Y-8905000D01*
X14653500Y-8976600D02*
X14683500Y-9006600D01*
X14683500Y-8976600D02*
X14653500Y-9006600D01*
X14653500Y-9510000D02*
X14683500Y-9540000D01*
X14683500Y-9510000D02*
X14653500Y-9540000D01*
X14678900Y-5954000D02*
X14708900Y-5984000D01*
X14708900Y-5954000D02*
X14678900Y-5984000D01*
X14691600Y-6401040D02*
X14721600Y-6431040D01*
X14721600Y-6401040D02*
X14691600Y-6431040D01*
X14717000Y-5141200D02*
X14747000Y-5171200D01*
X14747000Y-5141200D02*
X14717000Y-5171200D01*
X14717000Y-9103600D02*
X14747000Y-9133600D01*
X14747000Y-9103600D02*
X14717000Y-9133600D01*
X14742400Y-5877800D02*
X14772400Y-5907800D01*
X14772400Y-5877800D02*
X14742400Y-5907800D01*
X14746500Y-6622400D02*
X14776500Y-6652400D01*
X14776500Y-6622400D02*
X14746500Y-6652400D01*
X14793200Y-9941800D02*
X14823200Y-9971800D01*
X14823200Y-9941800D02*
X14793200Y-9971800D01*
X14805900Y-6995400D02*
X14835900Y-7025400D01*
X14835900Y-6995400D02*
X14805900Y-7025400D01*
X14805900Y-7414500D02*
X14835900Y-7444500D01*
X14835900Y-7414500D02*
X14805900Y-7444500D01*
X14811500Y-6543800D02*
X14841500Y-6573800D01*
X14841500Y-6543800D02*
X14811500Y-6573800D01*
X14812250Y-5947650D02*
X14842250Y-5977650D01*
X14842250Y-5947650D02*
X14812250Y-5977650D01*
X14876500Y-7122400D02*
X14906500Y-7152400D01*
X14906500Y-7122400D02*
X14876500Y-7152400D01*
X14882100Y-5877800D02*
X14912100Y-5907800D01*
X14912100Y-5877800D02*
X14882100Y-5907800D01*
X14932900Y-6401040D02*
X14962900Y-6431040D01*
X14962900Y-6401040D02*
X14932900Y-6431040D01*
X14941500Y-5945400D02*
X14971500Y-5975400D01*
X14971500Y-5945400D02*
X14941500Y-5975400D01*
X14941500Y-6995400D02*
X14971500Y-7025400D01*
X14971500Y-6995400D02*
X14941500Y-7025400D01*
X14971000Y-5141200D02*
X15001000Y-5171200D01*
X15001000Y-5141200D02*
X14971000Y-5171200D01*
X14971000Y-10119600D02*
X15001000Y-10149600D01*
X15001000Y-10119600D02*
X14971000Y-10149600D01*
X15009100Y-5877800D02*
X15039100Y-5907800D01*
X15039100Y-5877800D02*
X15009100Y-5907800D01*
X15009100Y-7122400D02*
X15039100Y-7152400D01*
X15039100Y-7122400D02*
X15009100Y-7152400D01*
X15021800Y-8494000D02*
X15051800Y-8524000D01*
X15051800Y-8494000D02*
X15021800Y-8524000D01*
X15021800Y-8864840D02*
X15051800Y-8894840D01*
X15051800Y-8864840D02*
X15021800Y-8894840D01*
X15071500Y-6995400D02*
X15101500Y-7025400D01*
X15101500Y-6995400D02*
X15071500Y-7025400D01*
X15072600Y-5941300D02*
X15102600Y-5971300D01*
X15102600Y-5941300D02*
X15072600Y-5971300D01*
X15136100Y-5877800D02*
X15166100Y-5907800D01*
X15166100Y-5877800D02*
X15136100Y-5907800D01*
X15136100Y-7122400D02*
X15166100Y-7152400D01*
X15166100Y-7122400D02*
X15136100Y-7152400D01*
X15199600Y-6995400D02*
X15229600Y-7025400D01*
X15229600Y-6995400D02*
X15199600Y-7025400D01*
X15199600Y-7198600D02*
X15229600Y-7228600D01*
X15229600Y-7198600D02*
X15199600Y-7228600D01*
X15199600Y-9535400D02*
X15229600Y-9565400D01*
X15229600Y-9535400D02*
X15199600Y-9565400D01*
X15225000Y-5141200D02*
X15255000Y-5171200D01*
X15255000Y-5141200D02*
X15225000Y-5171200D01*
X15225000Y-8290800D02*
X15255000Y-8320800D01*
X15255000Y-8290800D02*
X15225000Y-8320800D01*
X15225000Y-8519400D02*
X15255000Y-8549400D01*
X15255000Y-8519400D02*
X15225000Y-8549400D01*
X15225000Y-9078200D02*
X15255000Y-9108200D01*
X15255000Y-9078200D02*
X15225000Y-9108200D01*
X15250400Y-6081000D02*
X15280400Y-6111000D01*
X15280400Y-6081000D02*
X15250400Y-6111000D01*
X15313900Y-6322300D02*
X15343900Y-6352300D01*
X15343900Y-6322300D02*
X15313900Y-6352300D01*
X15326600Y-6716000D02*
X15356600Y-6746000D01*
X15356600Y-6716000D02*
X15326600Y-6746000D01*
X15339300Y-7795500D02*
X15369300Y-7825500D01*
X15369300Y-7795500D02*
X15339300Y-7825500D01*
X15339300Y-8849600D02*
X15369300Y-8879600D01*
X15369300Y-8849600D02*
X15339300Y-8879600D01*
X15377400Y-9713200D02*
X15407400Y-9743200D01*
X15407400Y-9713200D02*
X15377400Y-9743200D01*
X15453600Y-7401800D02*
X15483600Y-7431800D01*
X15483600Y-7401800D02*
X15453600Y-7431800D01*
X15453600Y-8621000D02*
X15483600Y-8651000D01*
X15483600Y-8621000D02*
X15453600Y-8651000D01*
X15453600Y-9078200D02*
X15483600Y-9108200D01*
X15483600Y-9078200D02*
X15453600Y-9108200D01*
X15479000Y-5141200D02*
X15509000Y-5171200D01*
X15509000Y-5141200D02*
X15479000Y-5171200D01*
X15580600Y-5877800D02*
X15610600Y-5907800D01*
X15610600Y-5877800D02*
X15580600Y-5907800D01*
X15631400Y-6322300D02*
X15661400Y-6352300D01*
X15661400Y-6322300D02*
X15631400Y-6352300D01*
X15707600Y-6239250D02*
X15737600Y-6269250D01*
X15737600Y-6239250D02*
X15707600Y-6269250D01*
X15707600Y-6811750D02*
X15737600Y-6841750D01*
X15737600Y-6811750D02*
X15707600Y-6841750D01*
X15733000Y-5141200D02*
X15763000Y-5171200D01*
X15763000Y-5141200D02*
X15733000Y-5171200D01*
X15809200Y-9560800D02*
X15839200Y-9590800D01*
X15839200Y-9560800D02*
X15809200Y-9590800D01*
X15834600Y-7173200D02*
X15864600Y-7203200D01*
X15864600Y-7173200D02*
X15834600Y-7203200D01*
X15834600Y-7528800D02*
X15864600Y-7558800D01*
X15864600Y-7528800D02*
X15834600Y-7558800D01*
X15834600Y-8621000D02*
X15864600Y-8651000D01*
X15864600Y-8621000D02*
X15834600Y-8651000D01*
X15834600Y-8938500D02*
X15864600Y-8968500D01*
X15864600Y-8938500D02*
X15834600Y-8968500D01*
X15834600Y-9306800D02*
X15864600Y-9336800D01*
X15864600Y-9306800D02*
X15834600Y-9336800D01*
X15885400Y-9560800D02*
X15915400Y-9590800D01*
X15915400Y-9560800D02*
X15885400Y-9590800D01*
X15961600Y-7668500D02*
X15991600Y-7698500D01*
X15991600Y-7668500D02*
X15961600Y-7698500D01*
X15961600Y-7744700D02*
X15991600Y-7774700D01*
X15991600Y-7744700D02*
X15961600Y-7774700D01*
X15961600Y-7820900D02*
X15991600Y-7850900D01*
X15991600Y-7820900D02*
X15961600Y-7850900D01*
X15961600Y-8544800D02*
X15991600Y-8574800D01*
X15991600Y-8544800D02*
X15961600Y-8574800D01*
X15961600Y-8621000D02*
X15991600Y-8651000D01*
X15991600Y-8621000D02*
X15961600Y-8651000D01*
X15961600Y-8697200D02*
X15991600Y-8727200D01*
X15991600Y-8697200D02*
X15961600Y-8727200D01*
X15961600Y-9560800D02*
X15991600Y-9590800D01*
X15991600Y-9560800D02*
X15961600Y-9590800D01*
X16037800Y-9560800D02*
X16067800Y-9590800D01*
X16067800Y-9560800D02*
X16037800Y-9590800D01*
X16088600Y-7249400D02*
X16118600Y-7279400D01*
X16118600Y-7249400D02*
X16088600Y-7279400D01*
X16088600Y-7668500D02*
X16118600Y-7698500D01*
X16118600Y-7668500D02*
X16088600Y-7698500D01*
X16088600Y-8697200D02*
X16118600Y-8727200D01*
X16118600Y-8697200D02*
X16088600Y-8727200D01*
X16177500Y-6652500D02*
X16207500Y-6682500D01*
X16207500Y-6652500D02*
X16177500Y-6682500D01*
X16241000Y-9967200D02*
X16271000Y-9997200D01*
X16271000Y-9967200D02*
X16241000Y-9997200D01*
X16291800Y-7427200D02*
X16321800Y-7457200D01*
X16321800Y-7427200D02*
X16291800Y-7457200D01*
X16309600Y-6652500D02*
X16339600Y-6682500D01*
X16339600Y-6652500D02*
X16309600Y-6682500D01*
X16342600Y-6995400D02*
X16372600Y-7025400D01*
X16372600Y-6995400D02*
X16342600Y-7025400D01*
X16393400Y-9002000D02*
X16423400Y-9032000D01*
X16423400Y-9002000D02*
X16393400Y-9032000D01*
X16495000Y-5141200D02*
X16525000Y-5171200D01*
X16525000Y-5141200D02*
X16495000Y-5171200D01*
X16520400Y-7198600D02*
X16550400Y-7228600D01*
X16550400Y-7198600D02*
X16520400Y-7228600D01*
X16622000Y-5623800D02*
X16652000Y-5653800D01*
X16652000Y-5623800D02*
X16622000Y-5653800D01*
X16698200Y-6258800D02*
X16728200Y-6288800D01*
X16728200Y-6258800D02*
X16698200Y-6288800D01*
X16698200Y-6817600D02*
X16728200Y-6847600D01*
X16728200Y-6817600D02*
X16698200Y-6847600D01*
X16313500Y-7769400D02*
G75*
G02*
X16253500Y-7769400I-30000J0D01*
G01*
X16253500Y-7769400D02*
G75*
G02*
X16313500Y-7769400I30000J0D01*
G01*
X16338500Y-7739400D02*
X16228500Y-7739400D01*
X16228500Y-7799400D02*
G75*
G02*
X16228500Y-7739400I0J30000D01*
G01*
X16228500Y-7799400D02*
X16338500Y-7799400D01*
X16338500Y-7799400D02*
G75*
G03*
X16338500Y-7739400I0J30000D01*
G01*
X16313500Y-8633400D02*
G75*
G02*
X16253500Y-8633400I-30000J0D01*
G01*
X16253500Y-8633400D02*
G75*
G02*
X16313500Y-8633400I30000J0D01*
G01*
X16338500Y-8603400D02*
X16228500Y-8603400D01*
X16228500Y-8663400D02*
G75*
G02*
X16228500Y-8603400I0J30000D01*
G01*
X16228500Y-8663400D02*
X16338500Y-8663400D01*
X16338500Y-8663400D02*
G75*
G03*
X16338500Y-8603400I0J30000D01*
G01*
X16730500Y-7769400D02*
G75*
G02*
X16670500Y-7769400I-30000J0D01*
G01*
X16670500Y-7769400D02*
G75*
G02*
X16730500Y-7769400I30000J0D01*
G01*
X16740500Y-7739400D02*
X16660500Y-7739400D01*
X16660500Y-7799400D02*
G75*
G02*
X16660500Y-7739400I0J30000D01*
G01*
X16660500Y-7799400D02*
X16740500Y-7799400D01*
X16740500Y-7799400D02*
G75*
G03*
X16740500Y-7739400I0J30000D01*
G01*
X16730500Y-8633400D02*
G75*
G02*
X16670500Y-8633400I-30000J0D01*
G01*
X16670500Y-8633400D02*
G75*
G02*
X16730500Y-8633400I30000J0D01*
G01*
X16740500Y-8603400D02*
X16660500Y-8603400D01*
X16660500Y-8663400D02*
G75*
G02*
X16660500Y-8603400I0J30000D01*
G01*
X16660500Y-8663400D02*
X16740500Y-8663400D01*
X16740500Y-8663400D02*
G75*
G03*
X16740500Y-8603400I0J30000D01*
G01*
X11760200Y-8596000D02*
X11760200Y-8676000D01*
X11720200Y-8636000D02*
X11800200Y-8636000D01*
X11760200Y-9084000D02*
X11760200Y-9164000D01*
X11720200Y-9124000D02*
X11800200Y-9124000D01*
X9179356Y-4937556D02*
X9179356Y-4866844D01*
X9108644Y-4866844D01*
X9108644Y-4937556D01*
X9179356Y-4937556D01*
X9179356Y-5445556D02*
X9179356Y-5374844D01*
X9108644Y-5374844D01*
X9108644Y-5445556D01*
X9179356Y-5445556D01*
X9433356Y-4937556D02*
X9433356Y-4866844D01*
X9362644Y-4866844D01*
X9362644Y-4937556D01*
X9433356Y-4937556D01*
X9433356Y-5445556D02*
X9433356Y-5374844D01*
X9362644Y-5374844D01*
X9362644Y-5445556D01*
X9433356Y-5445556D01*
X9687356Y-4937556D02*
X9687356Y-4866844D01*
X9616644Y-4866844D01*
X9616644Y-4937556D01*
X9687356Y-4937556D01*
X9687356Y-5445556D02*
X9687356Y-5374844D01*
X9616644Y-5374844D01*
X9616644Y-5445556D01*
X9687356Y-5445556D01*
X9750856Y-10462056D02*
X9750856Y-10391344D01*
X9680144Y-10391344D01*
X9680144Y-10462056D01*
X9750856Y-10462056D01*
X9941356Y-4937556D02*
X9941356Y-4866844D01*
X9870644Y-4866844D01*
X9870644Y-4937556D01*
X9941356Y-4937556D01*
X9941356Y-5445556D02*
X9941356Y-5374844D01*
X9870644Y-5374844D01*
X9870644Y-5445556D01*
X9941356Y-5445556D01*
X10004856Y-10462056D02*
X10004856Y-10391344D01*
X9934144Y-10391344D01*
X9934144Y-10462056D01*
X10004856Y-10462056D01*
X10195356Y-4937556D02*
X10195356Y-4866844D01*
X10124644Y-4866844D01*
X10124644Y-4937556D01*
X10195356Y-4937556D01*
X10195356Y-5445556D02*
X10195356Y-5374844D01*
X10124644Y-5374844D01*
X10124644Y-5445556D01*
X10195356Y-5445556D01*
X10398556Y-10462056D02*
X10398556Y-10391344D01*
X10327844Y-10391344D01*
X10327844Y-10462056D01*
X10398556Y-10462056D01*
X10449356Y-4937556D02*
X10449356Y-4866844D01*
X10378644Y-4866844D01*
X10378644Y-4937556D01*
X10449356Y-4937556D01*
X10449356Y-5445556D02*
X10449356Y-5374844D01*
X10378644Y-5374844D01*
X10378644Y-5445556D01*
X10449356Y-5445556D01*
X10652556Y-10462056D02*
X10652556Y-10391344D01*
X10581844Y-10391344D01*
X10581844Y-10462056D01*
X10652556Y-10462056D01*
X10703356Y-4937556D02*
X10703356Y-4866844D01*
X10632644Y-4866844D01*
X10632644Y-4937556D01*
X10703356Y-4937556D01*
X10703356Y-5445556D02*
X10703356Y-5374844D01*
X10632644Y-5374844D01*
X10632644Y-5445556D01*
X10703356Y-5445556D01*
X10906556Y-10462056D02*
X10906556Y-10391344D01*
X10835844Y-10391344D01*
X10835844Y-10462056D01*
X10906556Y-10462056D01*
X10957356Y-4937556D02*
X10957356Y-4866844D01*
X10886644Y-4866844D01*
X10886644Y-4937556D01*
X10957356Y-4937556D01*
X10957356Y-5445556D02*
X10957356Y-5374844D01*
X10886644Y-5374844D01*
X10886644Y-5445556D01*
X10957356Y-5445556D01*
X11160556Y-10462056D02*
X11160556Y-10391344D01*
X11089844Y-10391344D01*
X11089844Y-10462056D01*
X11160556Y-10462056D01*
X11211356Y-4937556D02*
X11211356Y-4866844D01*
X11140644Y-4866844D01*
X11140644Y-4937556D01*
X11211356Y-4937556D01*
X11211356Y-5445556D02*
X11211356Y-5374844D01*
X11140644Y-5374844D01*
X11140644Y-5445556D01*
X11211356Y-5445556D01*
X11414556Y-10462056D02*
X11414556Y-10391344D01*
X11343844Y-10391344D01*
X11343844Y-10462056D01*
X11414556Y-10462056D01*
X11465356Y-4937556D02*
X11465356Y-4866844D01*
X11394644Y-4866844D01*
X11394644Y-4937556D01*
X11465356Y-4937556D01*
X11465356Y-5445556D02*
X11465356Y-5374844D01*
X11394644Y-5374844D01*
X11394644Y-5445556D01*
X11465356Y-5445556D01*
X11668556Y-10462056D02*
X11668556Y-10391344D01*
X11597844Y-10391344D01*
X11597844Y-10462056D01*
X11668556Y-10462056D01*
X11719356Y-4937556D02*
X11719356Y-4866844D01*
X11648644Y-4866844D01*
X11648644Y-4937556D01*
X11719356Y-4937556D01*
X11719356Y-5445556D02*
X11719356Y-5374844D01*
X11648644Y-5374844D01*
X11648644Y-5445556D01*
X11719356Y-5445556D01*
X11973356Y-4937556D02*
X11973356Y-4866844D01*
X11902644Y-4866844D01*
X11902644Y-4937556D01*
X11973356Y-4937556D01*
X11973356Y-5445556D02*
X11973356Y-5374844D01*
X11902644Y-5374844D01*
X11902644Y-5445556D01*
X11973356Y-5445556D01*
X12227356Y-4937556D02*
X12227356Y-4866844D01*
X12156644Y-4866844D01*
X12156644Y-4937556D01*
X12227356Y-4937556D01*
X12227356Y-5445556D02*
X12227356Y-5374844D01*
X12156644Y-5374844D01*
X12156644Y-5445556D01*
X12227356Y-5445556D01*
X12481356Y-4937556D02*
X12481356Y-4866844D01*
X12410644Y-4866844D01*
X12410644Y-4937556D01*
X12481356Y-4937556D01*
X12481356Y-5445556D02*
X12481356Y-5374844D01*
X12410644Y-5374844D01*
X12410644Y-5445556D01*
X12481356Y-5445556D01*
X12735356Y-4937556D02*
X12735356Y-4866844D01*
X12664644Y-4866844D01*
X12664644Y-4937556D01*
X12735356Y-4937556D01*
X12735356Y-5445556D02*
X12735356Y-5374844D01*
X12664644Y-5374844D01*
X12664644Y-5445556D01*
X12735356Y-5445556D01*
X12989356Y-4937556D02*
X12989356Y-4866844D01*
X12918644Y-4866844D01*
X12918644Y-4937556D01*
X12989356Y-4937556D01*
X12989356Y-5445556D02*
X12989356Y-5374844D01*
X12918644Y-5374844D01*
X12918644Y-5445556D01*
X12989356Y-5445556D01*
X13230656Y-10462056D02*
X13230656Y-10391344D01*
X13159944Y-10391344D01*
X13159944Y-10462056D01*
X13230656Y-10462056D01*
X13243356Y-4937556D02*
X13243356Y-4866844D01*
X13172644Y-4866844D01*
X13172644Y-4937556D01*
X13243356Y-4937556D01*
X13243356Y-5445556D02*
X13243356Y-5374844D01*
X13172644Y-5374844D01*
X13172644Y-5445556D01*
X13243356Y-5445556D01*
X13484656Y-10462056D02*
X13484656Y-10391344D01*
X13413944Y-10391344D01*
X13413944Y-10462056D01*
X13484656Y-10462056D01*
X13497356Y-4937556D02*
X13497356Y-4866844D01*
X13426644Y-4866844D01*
X13426644Y-4937556D01*
X13497356Y-4937556D01*
X13497356Y-5445556D02*
X13497356Y-5374844D01*
X13426644Y-5374844D01*
X13426644Y-5445556D01*
X13497356Y-5445556D01*
X13738656Y-10462056D02*
X13738656Y-10391344D01*
X13667944Y-10391344D01*
X13667944Y-10462056D01*
X13738656Y-10462056D01*
X13751356Y-4937556D02*
X13751356Y-4866844D01*
X13680644Y-4866844D01*
X13680644Y-4937556D01*
X13751356Y-4937556D01*
X13751356Y-5445556D02*
X13751356Y-5374844D01*
X13680644Y-5374844D01*
X13680644Y-5445556D01*
X13751356Y-5445556D01*
X13992656Y-10462056D02*
X13992656Y-10391344D01*
X13921944Y-10391344D01*
X13921944Y-10462056D01*
X13992656Y-10462056D01*
X14005356Y-4937556D02*
X14005356Y-4866844D01*
X13934644Y-4866844D01*
X13934644Y-4937556D01*
X14005356Y-4937556D01*
X14005356Y-5445556D02*
X14005356Y-5374844D01*
X13934644Y-5374844D01*
X13934644Y-5445556D01*
X14005356Y-5445556D01*
X14246656Y-10462056D02*
X14246656Y-10391344D01*
X14175944Y-10391344D01*
X14175944Y-10462056D01*
X14246656Y-10462056D01*
X14259356Y-4937556D02*
X14259356Y-4866844D01*
X14188644Y-4866844D01*
X14188644Y-4937556D01*
X14259356Y-4937556D01*
X14259356Y-5445556D02*
X14259356Y-5374844D01*
X14188644Y-5374844D01*
X14188644Y-5445556D01*
X14259356Y-5445556D01*
X14500656Y-10462056D02*
X14500656Y-10391344D01*
X14429944Y-10391344D01*
X14429944Y-10462056D01*
X14500656Y-10462056D01*
X14513356Y-4937556D02*
X14513356Y-4866844D01*
X14442644Y-4866844D01*
X14442644Y-4937556D01*
X14513356Y-4937556D01*
X14513356Y-5445556D02*
X14513356Y-5374844D01*
X14442644Y-5374844D01*
X14442644Y-5445556D01*
X14513356Y-5445556D01*
X14767356Y-4937556D02*
X14767356Y-4866844D01*
X14696644Y-4866844D01*
X14696644Y-4937556D01*
X14767356Y-4937556D01*
X14767356Y-5445556D02*
X14767356Y-5374844D01*
X14696644Y-5374844D01*
X14696644Y-5445556D01*
X14767356Y-5445556D01*
X15021356Y-4937556D02*
X15021356Y-4866844D01*
X14950644Y-4866844D01*
X14950644Y-4937556D01*
X15021356Y-4937556D01*
X15021356Y-5445556D02*
X15021356Y-5374844D01*
X14950644Y-5374844D01*
X14950644Y-5445556D01*
X15021356Y-5445556D01*
X15275356Y-4937556D02*
X15275356Y-4866844D01*
X15204644Y-4866844D01*
X15204644Y-4937556D01*
X15275356Y-4937556D01*
X15275356Y-5445556D02*
X15275356Y-5374844D01*
X15204644Y-5374844D01*
X15204644Y-5445556D01*
X15275356Y-5445556D01*
X15529356Y-4937556D02*
X15529356Y-4866844D01*
X15458644Y-4866844D01*
X15458644Y-4937556D01*
X15529356Y-4937556D01*
X15529356Y-5445556D02*
X15529356Y-5374844D01*
X15458644Y-5374844D01*
X15458644Y-5445556D01*
X15529356Y-5445556D01*
X15783356Y-4937556D02*
X15783356Y-4866844D01*
X15712644Y-4866844D01*
X15712644Y-4937556D01*
X15783356Y-4937556D01*
X15783356Y-5445556D02*
X15783356Y-5374844D01*
X15712644Y-5374844D01*
X15712644Y-5445556D01*
X15783356Y-5445556D01*
X16037356Y-4937556D02*
X16037356Y-4866844D01*
X15966644Y-4866844D01*
X15966644Y-4937556D01*
X16037356Y-4937556D01*
X16037356Y-5445556D02*
X16037356Y-5374844D01*
X15966644Y-5374844D01*
X15966644Y-5445556D01*
X16037356Y-5445556D01*
X16291356Y-4937556D02*
X16291356Y-4866844D01*
X16220644Y-4866844D01*
X16220644Y-4937556D01*
X16291356Y-4937556D01*
X16291356Y-5445556D02*
X16291356Y-5374844D01*
X16220644Y-5374844D01*
X16220644Y-5445556D01*
X16291356Y-5445556D01*
X16545356Y-4937556D02*
X16545356Y-4866844D01*
X16474644Y-4866844D01*
X16474644Y-4937556D01*
X16545356Y-4937556D01*
X16545356Y-5445556D02*
X16545356Y-5374844D01*
X16474644Y-5374844D01*
X16474644Y-5445556D01*
X16545356Y-5445556D01*
D11*
X8967977Y-11276584D02*
X8967977Y-11076584D01*
X8967977Y-11076584D02*
X9015596Y-11076584D01*
X9015596Y-11076584D02*
X9044167Y-11086108D01*
X9044167Y-11086108D02*
X9063215Y-11105155D01*
X9063215Y-11105155D02*
X9072739Y-11124203D01*
X9072739Y-11124203D02*
X9082263Y-11162298D01*
X9082263Y-11162298D02*
X9082263Y-11190869D01*
X9082263Y-11190869D02*
X9072739Y-11228965D01*
X9072739Y-11228965D02*
X9063215Y-11248012D01*
X9063215Y-11248012D02*
X9044167Y-11267060D01*
X9044167Y-11267060D02*
X9015596Y-11276584D01*
X9015596Y-11276584D02*
X8967977Y-11276584D01*
X9167977Y-11276584D02*
X9167977Y-11143250D01*
X9167977Y-11181346D02*
X9177501Y-11162298D01*
X9177501Y-11162298D02*
X9187024Y-11152774D01*
X9187024Y-11152774D02*
X9206072Y-11143250D01*
X9206072Y-11143250D02*
X9225120Y-11143250D01*
X9291786Y-11276584D02*
X9291786Y-11143250D01*
X9291786Y-11076584D02*
X9282263Y-11086108D01*
X9282263Y-11086108D02*
X9291786Y-11095631D01*
X9291786Y-11095631D02*
X9301310Y-11086108D01*
X9301310Y-11086108D02*
X9291786Y-11076584D01*
X9291786Y-11076584D02*
X9291786Y-11095631D01*
X9415596Y-11276584D02*
X9396548Y-11267060D01*
X9396548Y-11267060D02*
X9387024Y-11248012D01*
X9387024Y-11248012D02*
X9387024Y-11076584D01*
X9520358Y-11276584D02*
X9501310Y-11267060D01*
X9501310Y-11267060D02*
X9491786Y-11248012D01*
X9491786Y-11248012D02*
X9491786Y-11076584D01*
X9748929Y-11276584D02*
X9748929Y-11076584D01*
X9748929Y-11076584D02*
X9815596Y-11219441D01*
X9815596Y-11219441D02*
X9882263Y-11076584D01*
X9882263Y-11076584D02*
X9882263Y-11276584D01*
X10063215Y-11276584D02*
X10063215Y-11171822D01*
X10063215Y-11171822D02*
X10053691Y-11152774D01*
X10053691Y-11152774D02*
X10034644Y-11143250D01*
X10034644Y-11143250D02*
X9996548Y-11143250D01*
X9996548Y-11143250D02*
X9977501Y-11152774D01*
X10063215Y-11267060D02*
X10044167Y-11276584D01*
X10044167Y-11276584D02*
X9996548Y-11276584D01*
X9996548Y-11276584D02*
X9977501Y-11267060D01*
X9977501Y-11267060D02*
X9967977Y-11248012D01*
X9967977Y-11248012D02*
X9967977Y-11228965D01*
X9967977Y-11228965D02*
X9977501Y-11209917D01*
X9977501Y-11209917D02*
X9996548Y-11200393D01*
X9996548Y-11200393D02*
X10044167Y-11200393D01*
X10044167Y-11200393D02*
X10063215Y-11190869D01*
X10158453Y-11143250D02*
X10158453Y-11343250D01*
X10158453Y-11152774D02*
X10177501Y-11143250D01*
X10177501Y-11143250D02*
X10215596Y-11143250D01*
X10215596Y-11143250D02*
X10234644Y-11152774D01*
X10234644Y-11152774D02*
X10244167Y-11162298D01*
X10244167Y-11162298D02*
X10253691Y-11181346D01*
X10253691Y-11181346D02*
X10253691Y-11238488D01*
X10253691Y-11238488D02*
X10244167Y-11257536D01*
X10244167Y-11257536D02*
X10234644Y-11267060D01*
X10234644Y-11267060D02*
X10215596Y-11276584D01*
X10215596Y-11276584D02*
X10177501Y-11276584D01*
X10177501Y-11276584D02*
X10158453Y-11267060D01*
X10339405Y-11257536D02*
X10348929Y-11267060D01*
X10348929Y-11267060D02*
X10339405Y-11276584D01*
X10339405Y-11276584D02*
X10329882Y-11267060D01*
X10329882Y-11267060D02*
X10339405Y-11257536D01*
X10339405Y-11257536D02*
X10339405Y-11276584D01*
X10339405Y-11152774D02*
X10348929Y-11162298D01*
X10348929Y-11162298D02*
X10339405Y-11171822D01*
X10339405Y-11171822D02*
X10329882Y-11162298D01*
X10329882Y-11162298D02*
X10339405Y-11152774D01*
X10339405Y-11152774D02*
X10339405Y-11171822D01*
D10*
X8677200Y-11590100D02*
X8707200Y-11620100D01*
X8707200Y-11590100D02*
X8677200Y-11620100D01*
D11*
X9006072Y-11496584D02*
X9025120Y-11496584D01*
X9025120Y-11496584D02*
X9044167Y-11506108D01*
X9044167Y-11506108D02*
X9053691Y-11515631D01*
X9053691Y-11515631D02*
X9063215Y-11534679D01*
X9063215Y-11534679D02*
X9072739Y-11572774D01*
X9072739Y-11572774D02*
X9072739Y-11620393D01*
X9072739Y-11620393D02*
X9063215Y-11658488D01*
X9063215Y-11658488D02*
X9053691Y-11677536D01*
X9053691Y-11677536D02*
X9044167Y-11687060D01*
X9044167Y-11687060D02*
X9025120Y-11696584D01*
X9025120Y-11696584D02*
X9006072Y-11696584D01*
X9006072Y-11696584D02*
X8987024Y-11687060D01*
X8987024Y-11687060D02*
X8977501Y-11677536D01*
X8977501Y-11677536D02*
X8967977Y-11658488D01*
X8967977Y-11658488D02*
X8958453Y-11620393D01*
X8958453Y-11620393D02*
X8958453Y-11572774D01*
X8958453Y-11572774D02*
X8967977Y-11534679D01*
X8967977Y-11534679D02*
X8977501Y-11515631D01*
X8977501Y-11515631D02*
X8987024Y-11506108D01*
X8987024Y-11506108D02*
X9006072Y-11496584D01*
X9158453Y-11677536D02*
X9167977Y-11687060D01*
X9167977Y-11687060D02*
X9158453Y-11696584D01*
X9158453Y-11696584D02*
X9148929Y-11687060D01*
X9148929Y-11687060D02*
X9158453Y-11677536D01*
X9158453Y-11677536D02*
X9158453Y-11696584D01*
X9234644Y-11496584D02*
X9358453Y-11496584D01*
X9358453Y-11496584D02*
X9291786Y-11572774D01*
X9291786Y-11572774D02*
X9320358Y-11572774D01*
X9320358Y-11572774D02*
X9339405Y-11582298D01*
X9339405Y-11582298D02*
X9348929Y-11591822D01*
X9348929Y-11591822D02*
X9358453Y-11610869D01*
X9358453Y-11610869D02*
X9358453Y-11658488D01*
X9358453Y-11658488D02*
X9348929Y-11677536D01*
X9348929Y-11677536D02*
X9339405Y-11687060D01*
X9339405Y-11687060D02*
X9320358Y-11696584D01*
X9320358Y-11696584D02*
X9263215Y-11696584D01*
X9263215Y-11696584D02*
X9244167Y-11687060D01*
X9244167Y-11687060D02*
X9234644Y-11677536D01*
X9482263Y-11496584D02*
X9501310Y-11496584D01*
X9501310Y-11496584D02*
X9520358Y-11506108D01*
X9520358Y-11506108D02*
X9529882Y-11515631D01*
X9529882Y-11515631D02*
X9539405Y-11534679D01*
X9539405Y-11534679D02*
X9548929Y-11572774D01*
X9548929Y-11572774D02*
X9548929Y-11620393D01*
X9548929Y-11620393D02*
X9539405Y-11658488D01*
X9539405Y-11658488D02*
X9529882Y-11677536D01*
X9529882Y-11677536D02*
X9520358Y-11687060D01*
X9520358Y-11687060D02*
X9501310Y-11696584D01*
X9501310Y-11696584D02*
X9482263Y-11696584D01*
X9482263Y-11696584D02*
X9463215Y-11687060D01*
X9463215Y-11687060D02*
X9453691Y-11677536D01*
X9453691Y-11677536D02*
X9444167Y-11658488D01*
X9444167Y-11658488D02*
X9434644Y-11620393D01*
X9434644Y-11620393D02*
X9434644Y-11572774D01*
X9434644Y-11572774D02*
X9444167Y-11534679D01*
X9444167Y-11534679D02*
X9453691Y-11515631D01*
X9453691Y-11515631D02*
X9463215Y-11506108D01*
X9463215Y-11506108D02*
X9482263Y-11496584D01*
X9672739Y-11496584D02*
X9691786Y-11496584D01*
X9691786Y-11496584D02*
X9710834Y-11506108D01*
X9710834Y-11506108D02*
X9720358Y-11515631D01*
X9720358Y-11515631D02*
X9729882Y-11534679D01*
X9729882Y-11534679D02*
X9739405Y-11572774D01*
X9739405Y-11572774D02*
X9739405Y-11620393D01*
X9739405Y-11620393D02*
X9729882Y-11658488D01*
X9729882Y-11658488D02*
X9720358Y-11677536D01*
X9720358Y-11677536D02*
X9710834Y-11687060D01*
X9710834Y-11687060D02*
X9691786Y-11696584D01*
X9691786Y-11696584D02*
X9672739Y-11696584D01*
X9672739Y-11696584D02*
X9653691Y-11687060D01*
X9653691Y-11687060D02*
X9644167Y-11677536D01*
X9644167Y-11677536D02*
X9634644Y-11658488D01*
X9634644Y-11658488D02*
X9625120Y-11620393D01*
X9625120Y-11620393D02*
X9625120Y-11572774D01*
X9625120Y-11572774D02*
X9634644Y-11534679D01*
X9634644Y-11534679D02*
X9644167Y-11515631D01*
X9644167Y-11515631D02*
X9653691Y-11506108D01*
X9653691Y-11506108D02*
X9672739Y-11496584D01*
X9825120Y-11696584D02*
X9825120Y-11563250D01*
X9825120Y-11582298D02*
X9834644Y-11572774D01*
X9834644Y-11572774D02*
X9853691Y-11563250D01*
X9853691Y-11563250D02*
X9882263Y-11563250D01*
X9882263Y-11563250D02*
X9901310Y-11572774D01*
X9901310Y-11572774D02*
X9910834Y-11591822D01*
X9910834Y-11591822D02*
X9910834Y-11696584D01*
X9910834Y-11591822D02*
X9920358Y-11572774D01*
X9920358Y-11572774D02*
X9939405Y-11563250D01*
X9939405Y-11563250D02*
X9967977Y-11563250D01*
X9967977Y-11563250D02*
X9987025Y-11572774D01*
X9987025Y-11572774D02*
X9996548Y-11591822D01*
X9996548Y-11591822D02*
X9996548Y-11696584D01*
X10091786Y-11696584D02*
X10091786Y-11563250D01*
X10091786Y-11582298D02*
X10101310Y-11572774D01*
X10101310Y-11572774D02*
X10120358Y-11563250D01*
X10120358Y-11563250D02*
X10148929Y-11563250D01*
X10148929Y-11563250D02*
X10167977Y-11572774D01*
X10167977Y-11572774D02*
X10177501Y-11591822D01*
X10177501Y-11591822D02*
X10177501Y-11696584D01*
X10177501Y-11591822D02*
X10187025Y-11572774D01*
X10187025Y-11572774D02*
X10206072Y-11563250D01*
X10206072Y-11563250D02*
X10234644Y-11563250D01*
X10234644Y-11563250D02*
X10253691Y-11572774D01*
X10253691Y-11572774D02*
X10263215Y-11591822D01*
X10263215Y-11591822D02*
X10263215Y-11696584D01*
X10653691Y-11487060D02*
X10482263Y-11744203D01*
X10910834Y-11496584D02*
X10929882Y-11496584D01*
X10929882Y-11496584D02*
X10948929Y-11506108D01*
X10948929Y-11506108D02*
X10958453Y-11515631D01*
X10958453Y-11515631D02*
X10967977Y-11534679D01*
X10967977Y-11534679D02*
X10977501Y-11572774D01*
X10977501Y-11572774D02*
X10977501Y-11620393D01*
X10977501Y-11620393D02*
X10967977Y-11658488D01*
X10967977Y-11658488D02*
X10958453Y-11677536D01*
X10958453Y-11677536D02*
X10948929Y-11687060D01*
X10948929Y-11687060D02*
X10929882Y-11696584D01*
X10929882Y-11696584D02*
X10910834Y-11696584D01*
X10910834Y-11696584D02*
X10891787Y-11687060D01*
X10891787Y-11687060D02*
X10882263Y-11677536D01*
X10882263Y-11677536D02*
X10872739Y-11658488D01*
X10872739Y-11658488D02*
X10863215Y-11620393D01*
X10863215Y-11620393D02*
X10863215Y-11572774D01*
X10863215Y-11572774D02*
X10872739Y-11534679D01*
X10872739Y-11534679D02*
X10882263Y-11515631D01*
X10882263Y-11515631D02*
X10891787Y-11506108D01*
X10891787Y-11506108D02*
X10910834Y-11496584D01*
X11063215Y-11677536D02*
X11072739Y-11687060D01*
X11072739Y-11687060D02*
X11063215Y-11696584D01*
X11063215Y-11696584D02*
X11053691Y-11687060D01*
X11053691Y-11687060D02*
X11063215Y-11677536D01*
X11063215Y-11677536D02*
X11063215Y-11696584D01*
X11196548Y-11496584D02*
X11215596Y-11496584D01*
X11215596Y-11496584D02*
X11234644Y-11506108D01*
X11234644Y-11506108D02*
X11244167Y-11515631D01*
X11244167Y-11515631D02*
X11253691Y-11534679D01*
X11253691Y-11534679D02*
X11263215Y-11572774D01*
X11263215Y-11572774D02*
X11263215Y-11620393D01*
X11263215Y-11620393D02*
X11253691Y-11658488D01*
X11253691Y-11658488D02*
X11244167Y-11677536D01*
X11244167Y-11677536D02*
X11234644Y-11687060D01*
X11234644Y-11687060D02*
X11215596Y-11696584D01*
X11215596Y-11696584D02*
X11196548Y-11696584D01*
X11196548Y-11696584D02*
X11177501Y-11687060D01*
X11177501Y-11687060D02*
X11167977Y-11677536D01*
X11167977Y-11677536D02*
X11158453Y-11658488D01*
X11158453Y-11658488D02*
X11148929Y-11620393D01*
X11148929Y-11620393D02*
X11148929Y-11572774D01*
X11148929Y-11572774D02*
X11158453Y-11534679D01*
X11158453Y-11534679D02*
X11167977Y-11515631D01*
X11167977Y-11515631D02*
X11177501Y-11506108D01*
X11177501Y-11506108D02*
X11196548Y-11496584D01*
X11453691Y-11696584D02*
X11339406Y-11696584D01*
X11396548Y-11696584D02*
X11396548Y-11496584D01*
X11396548Y-11496584D02*
X11377501Y-11525155D01*
X11377501Y-11525155D02*
X11358453Y-11544203D01*
X11358453Y-11544203D02*
X11339406Y-11553727D01*
X11644167Y-11696584D02*
X11529882Y-11696584D01*
X11587025Y-11696584D02*
X11587025Y-11496584D01*
X11587025Y-11496584D02*
X11567977Y-11525155D01*
X11567977Y-11525155D02*
X11548929Y-11544203D01*
X11548929Y-11544203D02*
X11529882Y-11553727D01*
X11758453Y-11582298D02*
X11739406Y-11572774D01*
X11739406Y-11572774D02*
X11729882Y-11563250D01*
X11729882Y-11563250D02*
X11720358Y-11544203D01*
X11720358Y-11544203D02*
X11720358Y-11534679D01*
X11720358Y-11534679D02*
X11729882Y-11515631D01*
X11729882Y-11515631D02*
X11739406Y-11506108D01*
X11739406Y-11506108D02*
X11758453Y-11496584D01*
X11758453Y-11496584D02*
X11796548Y-11496584D01*
X11796548Y-11496584D02*
X11815596Y-11506108D01*
X11815596Y-11506108D02*
X11825120Y-11515631D01*
X11825120Y-11515631D02*
X11834644Y-11534679D01*
X11834644Y-11534679D02*
X11834644Y-11544203D01*
X11834644Y-11544203D02*
X11825120Y-11563250D01*
X11825120Y-11563250D02*
X11815596Y-11572774D01*
X11815596Y-11572774D02*
X11796548Y-11582298D01*
X11796548Y-11582298D02*
X11758453Y-11582298D01*
X11758453Y-11582298D02*
X11739406Y-11591822D01*
X11739406Y-11591822D02*
X11729882Y-11601346D01*
X11729882Y-11601346D02*
X11720358Y-11620393D01*
X11720358Y-11620393D02*
X11720358Y-11658488D01*
X11720358Y-11658488D02*
X11729882Y-11677536D01*
X11729882Y-11677536D02*
X11739406Y-11687060D01*
X11739406Y-11687060D02*
X11758453Y-11696584D01*
X11758453Y-11696584D02*
X11796548Y-11696584D01*
X11796548Y-11696584D02*
X11815596Y-11687060D01*
X11815596Y-11687060D02*
X11825120Y-11677536D01*
X11825120Y-11677536D02*
X11834644Y-11658488D01*
X11834644Y-11658488D02*
X11834644Y-11620393D01*
X11834644Y-11620393D02*
X11825120Y-11601346D01*
X11825120Y-11601346D02*
X11815596Y-11591822D01*
X11815596Y-11591822D02*
X11796548Y-11582298D01*
X11910834Y-11496584D02*
X11910834Y-11534679D01*
X11987025Y-11496584D02*
X11987025Y-11534679D01*
X12282263Y-11772774D02*
X12272739Y-11763250D01*
X12272739Y-11763250D02*
X12253691Y-11734679D01*
X12253691Y-11734679D02*
X12244168Y-11715631D01*
X12244168Y-11715631D02*
X12234644Y-11687060D01*
X12234644Y-11687060D02*
X12225120Y-11639441D01*
X12225120Y-11639441D02*
X12225120Y-11601346D01*
X12225120Y-11601346D02*
X12234644Y-11553727D01*
X12234644Y-11553727D02*
X12244168Y-11525155D01*
X12244168Y-11525155D02*
X12253691Y-11506108D01*
X12253691Y-11506108D02*
X12272739Y-11477536D01*
X12272739Y-11477536D02*
X12282263Y-11468012D01*
X12339406Y-11496584D02*
X12463215Y-11496584D01*
X12463215Y-11496584D02*
X12396548Y-11572774D01*
X12396548Y-11572774D02*
X12425120Y-11572774D01*
X12425120Y-11572774D02*
X12444168Y-11582298D01*
X12444168Y-11582298D02*
X12453691Y-11591822D01*
X12453691Y-11591822D02*
X12463215Y-11610869D01*
X12463215Y-11610869D02*
X12463215Y-11658488D01*
X12463215Y-11658488D02*
X12453691Y-11677536D01*
X12453691Y-11677536D02*
X12444168Y-11687060D01*
X12444168Y-11687060D02*
X12425120Y-11696584D01*
X12425120Y-11696584D02*
X12367977Y-11696584D01*
X12367977Y-11696584D02*
X12348929Y-11687060D01*
X12348929Y-11687060D02*
X12339406Y-11677536D01*
X12634644Y-11563250D02*
X12634644Y-11696584D01*
X12587025Y-11487060D02*
X12539406Y-11629917D01*
X12539406Y-11629917D02*
X12663215Y-11629917D01*
X12844168Y-11696584D02*
X12729882Y-11696584D01*
X12787025Y-11696584D02*
X12787025Y-11496584D01*
X12787025Y-11496584D02*
X12767977Y-11525155D01*
X12767977Y-11525155D02*
X12748929Y-11544203D01*
X12748929Y-11544203D02*
X12729882Y-11553727D01*
X13082263Y-11696584D02*
X13082263Y-11496584D01*
X13167977Y-11696584D02*
X13167977Y-11591822D01*
X13167977Y-11591822D02*
X13158453Y-11572774D01*
X13158453Y-11572774D02*
X13139406Y-11563250D01*
X13139406Y-11563250D02*
X13110834Y-11563250D01*
X13110834Y-11563250D02*
X13091787Y-11572774D01*
X13091787Y-11572774D02*
X13082263Y-11582298D01*
X13291787Y-11696584D02*
X13272739Y-11687060D01*
X13272739Y-11687060D02*
X13263215Y-11677536D01*
X13263215Y-11677536D02*
X13253691Y-11658488D01*
X13253691Y-11658488D02*
X13253691Y-11601346D01*
X13253691Y-11601346D02*
X13263215Y-11582298D01*
X13263215Y-11582298D02*
X13272739Y-11572774D01*
X13272739Y-11572774D02*
X13291787Y-11563250D01*
X13291787Y-11563250D02*
X13320358Y-11563250D01*
X13320358Y-11563250D02*
X13339406Y-11572774D01*
X13339406Y-11572774D02*
X13348930Y-11582298D01*
X13348930Y-11582298D02*
X13358453Y-11601346D01*
X13358453Y-11601346D02*
X13358453Y-11658488D01*
X13358453Y-11658488D02*
X13348930Y-11677536D01*
X13348930Y-11677536D02*
X13339406Y-11687060D01*
X13339406Y-11687060D02*
X13320358Y-11696584D01*
X13320358Y-11696584D02*
X13291787Y-11696584D01*
X13472739Y-11696584D02*
X13453691Y-11687060D01*
X13453691Y-11687060D02*
X13444168Y-11668012D01*
X13444168Y-11668012D02*
X13444168Y-11496584D01*
X13625120Y-11687060D02*
X13606072Y-11696584D01*
X13606072Y-11696584D02*
X13567977Y-11696584D01*
X13567977Y-11696584D02*
X13548930Y-11687060D01*
X13548930Y-11687060D02*
X13539406Y-11668012D01*
X13539406Y-11668012D02*
X13539406Y-11591822D01*
X13539406Y-11591822D02*
X13548930Y-11572774D01*
X13548930Y-11572774D02*
X13567977Y-11563250D01*
X13567977Y-11563250D02*
X13606072Y-11563250D01*
X13606072Y-11563250D02*
X13625120Y-11572774D01*
X13625120Y-11572774D02*
X13634644Y-11591822D01*
X13634644Y-11591822D02*
X13634644Y-11610869D01*
X13634644Y-11610869D02*
X13539406Y-11629917D01*
X13710834Y-11687060D02*
X13729882Y-11696584D01*
X13729882Y-11696584D02*
X13767977Y-11696584D01*
X13767977Y-11696584D02*
X13787025Y-11687060D01*
X13787025Y-11687060D02*
X13796549Y-11668012D01*
X13796549Y-11668012D02*
X13796549Y-11658488D01*
X13796549Y-11658488D02*
X13787025Y-11639441D01*
X13787025Y-11639441D02*
X13767977Y-11629917D01*
X13767977Y-11629917D02*
X13739406Y-11629917D01*
X13739406Y-11629917D02*
X13720358Y-11620393D01*
X13720358Y-11620393D02*
X13710834Y-11601346D01*
X13710834Y-11601346D02*
X13710834Y-11591822D01*
X13710834Y-11591822D02*
X13720358Y-11572774D01*
X13720358Y-11572774D02*
X13739406Y-11563250D01*
X13739406Y-11563250D02*
X13767977Y-11563250D01*
X13767977Y-11563250D02*
X13787025Y-11572774D01*
X13863215Y-11772774D02*
X13872739Y-11763250D01*
X13872739Y-11763250D02*
X13891787Y-11734679D01*
X13891787Y-11734679D02*
X13901311Y-11715631D01*
X13901311Y-11715631D02*
X13910834Y-11687060D01*
X13910834Y-11687060D02*
X13920358Y-11639441D01*
X13920358Y-11639441D02*
X13920358Y-11601346D01*
X13920358Y-11601346D02*
X13910834Y-11553727D01*
X13910834Y-11553727D02*
X13901311Y-11525155D01*
X13901311Y-11525155D02*
X13891787Y-11506108D01*
X13891787Y-11506108D02*
X13872739Y-11477536D01*
X13872739Y-11477536D02*
X13863215Y-11468012D01*
D10*
X8707200Y-11869100D02*
G75*
G02*
X8647200Y-11869100I-30000J0D01*
G01*
X8647200Y-11869100D02*
G75*
G02*
X8707200Y-11869100I30000J0D01*
G01*
D11*
X9006072Y-11760584D02*
X9025120Y-11760584D01*
X9025120Y-11760584D02*
X9044167Y-11770108D01*
X9044167Y-11770108D02*
X9053691Y-11779631D01*
X9053691Y-11779631D02*
X9063215Y-11798679D01*
X9063215Y-11798679D02*
X9072739Y-11836774D01*
X9072739Y-11836774D02*
X9072739Y-11884393D01*
X9072739Y-11884393D02*
X9063215Y-11922488D01*
X9063215Y-11922488D02*
X9053691Y-11941536D01*
X9053691Y-11941536D02*
X9044167Y-11951060D01*
X9044167Y-11951060D02*
X9025120Y-11960584D01*
X9025120Y-11960584D02*
X9006072Y-11960584D01*
X9006072Y-11960584D02*
X8987024Y-11951060D01*
X8987024Y-11951060D02*
X8977501Y-11941536D01*
X8977501Y-11941536D02*
X8967977Y-11922488D01*
X8967977Y-11922488D02*
X8958453Y-11884393D01*
X8958453Y-11884393D02*
X8958453Y-11836774D01*
X8958453Y-11836774D02*
X8967977Y-11798679D01*
X8967977Y-11798679D02*
X8977501Y-11779631D01*
X8977501Y-11779631D02*
X8987024Y-11770108D01*
X8987024Y-11770108D02*
X9006072Y-11760584D01*
X9158453Y-11941536D02*
X9167977Y-11951060D01*
X9167977Y-11951060D02*
X9158453Y-11960584D01*
X9158453Y-11960584D02*
X9148929Y-11951060D01*
X9148929Y-11951060D02*
X9158453Y-11941536D01*
X9158453Y-11941536D02*
X9158453Y-11960584D01*
X9339405Y-11760584D02*
X9301310Y-11760584D01*
X9301310Y-11760584D02*
X9282263Y-11770108D01*
X9282263Y-11770108D02*
X9272739Y-11779631D01*
X9272739Y-11779631D02*
X9253691Y-11808203D01*
X9253691Y-11808203D02*
X9244167Y-11846298D01*
X9244167Y-11846298D02*
X9244167Y-11922488D01*
X9244167Y-11922488D02*
X9253691Y-11941536D01*
X9253691Y-11941536D02*
X9263215Y-11951060D01*
X9263215Y-11951060D02*
X9282263Y-11960584D01*
X9282263Y-11960584D02*
X9320358Y-11960584D01*
X9320358Y-11960584D02*
X9339405Y-11951060D01*
X9339405Y-11951060D02*
X9348929Y-11941536D01*
X9348929Y-11941536D02*
X9358453Y-11922488D01*
X9358453Y-11922488D02*
X9358453Y-11874869D01*
X9358453Y-11874869D02*
X9348929Y-11855822D01*
X9348929Y-11855822D02*
X9339405Y-11846298D01*
X9339405Y-11846298D02*
X9320358Y-11836774D01*
X9320358Y-11836774D02*
X9282263Y-11836774D01*
X9282263Y-11836774D02*
X9263215Y-11846298D01*
X9263215Y-11846298D02*
X9253691Y-11855822D01*
X9253691Y-11855822D02*
X9244167Y-11874869D01*
X9482263Y-11760584D02*
X9501310Y-11760584D01*
X9501310Y-11760584D02*
X9520358Y-11770108D01*
X9520358Y-11770108D02*
X9529882Y-11779631D01*
X9529882Y-11779631D02*
X9539405Y-11798679D01*
X9539405Y-11798679D02*
X9548929Y-11836774D01*
X9548929Y-11836774D02*
X9548929Y-11884393D01*
X9548929Y-11884393D02*
X9539405Y-11922488D01*
X9539405Y-11922488D02*
X9529882Y-11941536D01*
X9529882Y-11941536D02*
X9520358Y-11951060D01*
X9520358Y-11951060D02*
X9501310Y-11960584D01*
X9501310Y-11960584D02*
X9482263Y-11960584D01*
X9482263Y-11960584D02*
X9463215Y-11951060D01*
X9463215Y-11951060D02*
X9453691Y-11941536D01*
X9453691Y-11941536D02*
X9444167Y-11922488D01*
X9444167Y-11922488D02*
X9434644Y-11884393D01*
X9434644Y-11884393D02*
X9434644Y-11836774D01*
X9434644Y-11836774D02*
X9444167Y-11798679D01*
X9444167Y-11798679D02*
X9453691Y-11779631D01*
X9453691Y-11779631D02*
X9463215Y-11770108D01*
X9463215Y-11770108D02*
X9482263Y-11760584D01*
X9672739Y-11760584D02*
X9691786Y-11760584D01*
X9691786Y-11760584D02*
X9710834Y-11770108D01*
X9710834Y-11770108D02*
X9720358Y-11779631D01*
X9720358Y-11779631D02*
X9729882Y-11798679D01*
X9729882Y-11798679D02*
X9739405Y-11836774D01*
X9739405Y-11836774D02*
X9739405Y-11884393D01*
X9739405Y-11884393D02*
X9729882Y-11922488D01*
X9729882Y-11922488D02*
X9720358Y-11941536D01*
X9720358Y-11941536D02*
X9710834Y-11951060D01*
X9710834Y-11951060D02*
X9691786Y-11960584D01*
X9691786Y-11960584D02*
X9672739Y-11960584D01*
X9672739Y-11960584D02*
X9653691Y-11951060D01*
X9653691Y-11951060D02*
X9644167Y-11941536D01*
X9644167Y-11941536D02*
X9634644Y-11922488D01*
X9634644Y-11922488D02*
X9625120Y-11884393D01*
X9625120Y-11884393D02*
X9625120Y-11836774D01*
X9625120Y-11836774D02*
X9634644Y-11798679D01*
X9634644Y-11798679D02*
X9644167Y-11779631D01*
X9644167Y-11779631D02*
X9653691Y-11770108D01*
X9653691Y-11770108D02*
X9672739Y-11760584D01*
X9825120Y-11960584D02*
X9825120Y-11827250D01*
X9825120Y-11846298D02*
X9834644Y-11836774D01*
X9834644Y-11836774D02*
X9853691Y-11827250D01*
X9853691Y-11827250D02*
X9882263Y-11827250D01*
X9882263Y-11827250D02*
X9901310Y-11836774D01*
X9901310Y-11836774D02*
X9910834Y-11855822D01*
X9910834Y-11855822D02*
X9910834Y-11960584D01*
X9910834Y-11855822D02*
X9920358Y-11836774D01*
X9920358Y-11836774D02*
X9939405Y-11827250D01*
X9939405Y-11827250D02*
X9967977Y-11827250D01*
X9967977Y-11827250D02*
X9987025Y-11836774D01*
X9987025Y-11836774D02*
X9996548Y-11855822D01*
X9996548Y-11855822D02*
X9996548Y-11960584D01*
X10091786Y-11960584D02*
X10091786Y-11827250D01*
X10091786Y-11846298D02*
X10101310Y-11836774D01*
X10101310Y-11836774D02*
X10120358Y-11827250D01*
X10120358Y-11827250D02*
X10148929Y-11827250D01*
X10148929Y-11827250D02*
X10167977Y-11836774D01*
X10167977Y-11836774D02*
X10177501Y-11855822D01*
X10177501Y-11855822D02*
X10177501Y-11960584D01*
X10177501Y-11855822D02*
X10187025Y-11836774D01*
X10187025Y-11836774D02*
X10206072Y-11827250D01*
X10206072Y-11827250D02*
X10234644Y-11827250D01*
X10234644Y-11827250D02*
X10253691Y-11836774D01*
X10253691Y-11836774D02*
X10263215Y-11855822D01*
X10263215Y-11855822D02*
X10263215Y-11960584D01*
X10653691Y-11751060D02*
X10482263Y-12008203D01*
X10910834Y-11760584D02*
X10929882Y-11760584D01*
X10929882Y-11760584D02*
X10948929Y-11770108D01*
X10948929Y-11770108D02*
X10958453Y-11779631D01*
X10958453Y-11779631D02*
X10967977Y-11798679D01*
X10967977Y-11798679D02*
X10977501Y-11836774D01*
X10977501Y-11836774D02*
X10977501Y-11884393D01*
X10977501Y-11884393D02*
X10967977Y-11922488D01*
X10967977Y-11922488D02*
X10958453Y-11941536D01*
X10958453Y-11941536D02*
X10948929Y-11951060D01*
X10948929Y-11951060D02*
X10929882Y-11960584D01*
X10929882Y-11960584D02*
X10910834Y-11960584D01*
X10910834Y-11960584D02*
X10891787Y-11951060D01*
X10891787Y-11951060D02*
X10882263Y-11941536D01*
X10882263Y-11941536D02*
X10872739Y-11922488D01*
X10872739Y-11922488D02*
X10863215Y-11884393D01*
X10863215Y-11884393D02*
X10863215Y-11836774D01*
X10863215Y-11836774D02*
X10872739Y-11798679D01*
X10872739Y-11798679D02*
X10882263Y-11779631D01*
X10882263Y-11779631D02*
X10891787Y-11770108D01*
X10891787Y-11770108D02*
X10910834Y-11760584D01*
X11063215Y-11941536D02*
X11072739Y-11951060D01*
X11072739Y-11951060D02*
X11063215Y-11960584D01*
X11063215Y-11960584D02*
X11053691Y-11951060D01*
X11053691Y-11951060D02*
X11063215Y-11941536D01*
X11063215Y-11941536D02*
X11063215Y-11960584D01*
X11196548Y-11760584D02*
X11215596Y-11760584D01*
X11215596Y-11760584D02*
X11234644Y-11770108D01*
X11234644Y-11770108D02*
X11244167Y-11779631D01*
X11244167Y-11779631D02*
X11253691Y-11798679D01*
X11253691Y-11798679D02*
X11263215Y-11836774D01*
X11263215Y-11836774D02*
X11263215Y-11884393D01*
X11263215Y-11884393D02*
X11253691Y-11922488D01*
X11253691Y-11922488D02*
X11244167Y-11941536D01*
X11244167Y-11941536D02*
X11234644Y-11951060D01*
X11234644Y-11951060D02*
X11215596Y-11960584D01*
X11215596Y-11960584D02*
X11196548Y-11960584D01*
X11196548Y-11960584D02*
X11177501Y-11951060D01*
X11177501Y-11951060D02*
X11167977Y-11941536D01*
X11167977Y-11941536D02*
X11158453Y-11922488D01*
X11158453Y-11922488D02*
X11148929Y-11884393D01*
X11148929Y-11884393D02*
X11148929Y-11836774D01*
X11148929Y-11836774D02*
X11158453Y-11798679D01*
X11158453Y-11798679D02*
X11167977Y-11779631D01*
X11167977Y-11779631D02*
X11177501Y-11770108D01*
X11177501Y-11770108D02*
X11196548Y-11760584D01*
X11339406Y-11779631D02*
X11348929Y-11770108D01*
X11348929Y-11770108D02*
X11367977Y-11760584D01*
X11367977Y-11760584D02*
X11415596Y-11760584D01*
X11415596Y-11760584D02*
X11434644Y-11770108D01*
X11434644Y-11770108D02*
X11444167Y-11779631D01*
X11444167Y-11779631D02*
X11453691Y-11798679D01*
X11453691Y-11798679D02*
X11453691Y-11817727D01*
X11453691Y-11817727D02*
X11444167Y-11846298D01*
X11444167Y-11846298D02*
X11329882Y-11960584D01*
X11329882Y-11960584D02*
X11453691Y-11960584D01*
X11520358Y-11760584D02*
X11644167Y-11760584D01*
X11644167Y-11760584D02*
X11577501Y-11836774D01*
X11577501Y-11836774D02*
X11606072Y-11836774D01*
X11606072Y-11836774D02*
X11625120Y-11846298D01*
X11625120Y-11846298D02*
X11634644Y-11855822D01*
X11634644Y-11855822D02*
X11644167Y-11874869D01*
X11644167Y-11874869D02*
X11644167Y-11922488D01*
X11644167Y-11922488D02*
X11634644Y-11941536D01*
X11634644Y-11941536D02*
X11625120Y-11951060D01*
X11625120Y-11951060D02*
X11606072Y-11960584D01*
X11606072Y-11960584D02*
X11548929Y-11960584D01*
X11548929Y-11960584D02*
X11529882Y-11951060D01*
X11529882Y-11951060D02*
X11520358Y-11941536D01*
X11815596Y-11760584D02*
X11777501Y-11760584D01*
X11777501Y-11760584D02*
X11758453Y-11770108D01*
X11758453Y-11770108D02*
X11748929Y-11779631D01*
X11748929Y-11779631D02*
X11729882Y-11808203D01*
X11729882Y-11808203D02*
X11720358Y-11846298D01*
X11720358Y-11846298D02*
X11720358Y-11922488D01*
X11720358Y-11922488D02*
X11729882Y-11941536D01*
X11729882Y-11941536D02*
X11739406Y-11951060D01*
X11739406Y-11951060D02*
X11758453Y-11960584D01*
X11758453Y-11960584D02*
X11796548Y-11960584D01*
X11796548Y-11960584D02*
X11815596Y-11951060D01*
X11815596Y-11951060D02*
X11825120Y-11941536D01*
X11825120Y-11941536D02*
X11834644Y-11922488D01*
X11834644Y-11922488D02*
X11834644Y-11874869D01*
X11834644Y-11874869D02*
X11825120Y-11855822D01*
X11825120Y-11855822D02*
X11815596Y-11846298D01*
X11815596Y-11846298D02*
X11796548Y-11836774D01*
X11796548Y-11836774D02*
X11758453Y-11836774D01*
X11758453Y-11836774D02*
X11739406Y-11846298D01*
X11739406Y-11846298D02*
X11729882Y-11855822D01*
X11729882Y-11855822D02*
X11720358Y-11874869D01*
X11910834Y-11760584D02*
X11910834Y-11798679D01*
X11987025Y-11760584D02*
X11987025Y-11798679D01*
X12282263Y-12036774D02*
X12272739Y-12027250D01*
X12272739Y-12027250D02*
X12253691Y-11998679D01*
X12253691Y-11998679D02*
X12244168Y-11979631D01*
X12244168Y-11979631D02*
X12234644Y-11951060D01*
X12234644Y-11951060D02*
X12225120Y-11903441D01*
X12225120Y-11903441D02*
X12225120Y-11865346D01*
X12225120Y-11865346D02*
X12234644Y-11817727D01*
X12234644Y-11817727D02*
X12244168Y-11789155D01*
X12244168Y-11789155D02*
X12253691Y-11770108D01*
X12253691Y-11770108D02*
X12272739Y-11741536D01*
X12272739Y-11741536D02*
X12282263Y-11732012D01*
X12396548Y-11760584D02*
X12415596Y-11760584D01*
X12415596Y-11760584D02*
X12434644Y-11770108D01*
X12434644Y-11770108D02*
X12444168Y-11779631D01*
X12444168Y-11779631D02*
X12453691Y-11798679D01*
X12453691Y-11798679D02*
X12463215Y-11836774D01*
X12463215Y-11836774D02*
X12463215Y-11884393D01*
X12463215Y-11884393D02*
X12453691Y-11922488D01*
X12453691Y-11922488D02*
X12444168Y-11941536D01*
X12444168Y-11941536D02*
X12434644Y-11951060D01*
X12434644Y-11951060D02*
X12415596Y-11960584D01*
X12415596Y-11960584D02*
X12396548Y-11960584D01*
X12396548Y-11960584D02*
X12377501Y-11951060D01*
X12377501Y-11951060D02*
X12367977Y-11941536D01*
X12367977Y-11941536D02*
X12358453Y-11922488D01*
X12358453Y-11922488D02*
X12348929Y-11884393D01*
X12348929Y-11884393D02*
X12348929Y-11836774D01*
X12348929Y-11836774D02*
X12358453Y-11798679D01*
X12358453Y-11798679D02*
X12367977Y-11779631D01*
X12367977Y-11779631D02*
X12377501Y-11770108D01*
X12377501Y-11770108D02*
X12396548Y-11760584D01*
X12701310Y-11960584D02*
X12701310Y-11760584D01*
X12787025Y-11960584D02*
X12787025Y-11855822D01*
X12787025Y-11855822D02*
X12777501Y-11836774D01*
X12777501Y-11836774D02*
X12758453Y-11827250D01*
X12758453Y-11827250D02*
X12729882Y-11827250D01*
X12729882Y-11827250D02*
X12710834Y-11836774D01*
X12710834Y-11836774D02*
X12701310Y-11846298D01*
X12910834Y-11960584D02*
X12891787Y-11951060D01*
X12891787Y-11951060D02*
X12882263Y-11941536D01*
X12882263Y-11941536D02*
X12872739Y-11922488D01*
X12872739Y-11922488D02*
X12872739Y-11865346D01*
X12872739Y-11865346D02*
X12882263Y-11846298D01*
X12882263Y-11846298D02*
X12891787Y-11836774D01*
X12891787Y-11836774D02*
X12910834Y-11827250D01*
X12910834Y-11827250D02*
X12939406Y-11827250D01*
X12939406Y-11827250D02*
X12958453Y-11836774D01*
X12958453Y-11836774D02*
X12967977Y-11846298D01*
X12967977Y-11846298D02*
X12977501Y-11865346D01*
X12977501Y-11865346D02*
X12977501Y-11922488D01*
X12977501Y-11922488D02*
X12967977Y-11941536D01*
X12967977Y-11941536D02*
X12958453Y-11951060D01*
X12958453Y-11951060D02*
X12939406Y-11960584D01*
X12939406Y-11960584D02*
X12910834Y-11960584D01*
X13091787Y-11960584D02*
X13072739Y-11951060D01*
X13072739Y-11951060D02*
X13063215Y-11932012D01*
X13063215Y-11932012D02*
X13063215Y-11760584D01*
X13244168Y-11951060D02*
X13225120Y-11960584D01*
X13225120Y-11960584D02*
X13187025Y-11960584D01*
X13187025Y-11960584D02*
X13167977Y-11951060D01*
X13167977Y-11951060D02*
X13158453Y-11932012D01*
X13158453Y-11932012D02*
X13158453Y-11855822D01*
X13158453Y-11855822D02*
X13167977Y-11836774D01*
X13167977Y-11836774D02*
X13187025Y-11827250D01*
X13187025Y-11827250D02*
X13225120Y-11827250D01*
X13225120Y-11827250D02*
X13244168Y-11836774D01*
X13244168Y-11836774D02*
X13253691Y-11855822D01*
X13253691Y-11855822D02*
X13253691Y-11874869D01*
X13253691Y-11874869D02*
X13158453Y-11893917D01*
X13329882Y-11951060D02*
X13348930Y-11960584D01*
X13348930Y-11960584D02*
X13387025Y-11960584D01*
X13387025Y-11960584D02*
X13406072Y-11951060D01*
X13406072Y-11951060D02*
X13415596Y-11932012D01*
X13415596Y-11932012D02*
X13415596Y-11922488D01*
X13415596Y-11922488D02*
X13406072Y-11903441D01*
X13406072Y-11903441D02*
X13387025Y-11893917D01*
X13387025Y-11893917D02*
X13358453Y-11893917D01*
X13358453Y-11893917D02*
X13339406Y-11884393D01*
X13339406Y-11884393D02*
X13329882Y-11865346D01*
X13329882Y-11865346D02*
X13329882Y-11855822D01*
X13329882Y-11855822D02*
X13339406Y-11836774D01*
X13339406Y-11836774D02*
X13358453Y-11827250D01*
X13358453Y-11827250D02*
X13387025Y-11827250D01*
X13387025Y-11827250D02*
X13406072Y-11836774D01*
X13653692Y-11884393D02*
X13806073Y-11884393D01*
X13729882Y-11960584D02*
X13729882Y-11808203D01*
X14139406Y-11827250D02*
X14139406Y-11960584D01*
X14091787Y-11751060D02*
X14044168Y-11893917D01*
X14044168Y-11893917D02*
X14167977Y-11893917D01*
X14387025Y-11951060D02*
X14406073Y-11960584D01*
X14406073Y-11960584D02*
X14444168Y-11960584D01*
X14444168Y-11960584D02*
X14463215Y-11951060D01*
X14463215Y-11951060D02*
X14472739Y-11932012D01*
X14472739Y-11932012D02*
X14472739Y-11922488D01*
X14472739Y-11922488D02*
X14463215Y-11903441D01*
X14463215Y-11903441D02*
X14444168Y-11893917D01*
X14444168Y-11893917D02*
X14415596Y-11893917D01*
X14415596Y-11893917D02*
X14396549Y-11884393D01*
X14396549Y-11884393D02*
X14387025Y-11865346D01*
X14387025Y-11865346D02*
X14387025Y-11855822D01*
X14387025Y-11855822D02*
X14396549Y-11836774D01*
X14396549Y-11836774D02*
X14415596Y-11827250D01*
X14415596Y-11827250D02*
X14444168Y-11827250D01*
X14444168Y-11827250D02*
X14463215Y-11836774D01*
X14587025Y-11960584D02*
X14567977Y-11951060D01*
X14567977Y-11951060D02*
X14558454Y-11932012D01*
X14558454Y-11932012D02*
X14558454Y-11760584D01*
X14691787Y-11960584D02*
X14672739Y-11951060D01*
X14672739Y-11951060D02*
X14663215Y-11941536D01*
X14663215Y-11941536D02*
X14653692Y-11922488D01*
X14653692Y-11922488D02*
X14653692Y-11865346D01*
X14653692Y-11865346D02*
X14663215Y-11846298D01*
X14663215Y-11846298D02*
X14672739Y-11836774D01*
X14672739Y-11836774D02*
X14691787Y-11827250D01*
X14691787Y-11827250D02*
X14720358Y-11827250D01*
X14720358Y-11827250D02*
X14739406Y-11836774D01*
X14739406Y-11836774D02*
X14748930Y-11846298D01*
X14748930Y-11846298D02*
X14758454Y-11865346D01*
X14758454Y-11865346D02*
X14758454Y-11922488D01*
X14758454Y-11922488D02*
X14748930Y-11941536D01*
X14748930Y-11941536D02*
X14739406Y-11951060D01*
X14739406Y-11951060D02*
X14720358Y-11960584D01*
X14720358Y-11960584D02*
X14691787Y-11960584D01*
X14815596Y-11827250D02*
X14891787Y-11827250D01*
X14844168Y-11760584D02*
X14844168Y-11932012D01*
X14844168Y-11932012D02*
X14853692Y-11951060D01*
X14853692Y-11951060D02*
X14872739Y-11960584D01*
X14872739Y-11960584D02*
X14891787Y-11960584D01*
X14948930Y-11951060D02*
X14967977Y-11960584D01*
X14967977Y-11960584D02*
X15006073Y-11960584D01*
X15006073Y-11960584D02*
X15025120Y-11951060D01*
X15025120Y-11951060D02*
X15034644Y-11932012D01*
X15034644Y-11932012D02*
X15034644Y-11922488D01*
X15034644Y-11922488D02*
X15025120Y-11903441D01*
X15025120Y-11903441D02*
X15006073Y-11893917D01*
X15006073Y-11893917D02*
X14977501Y-11893917D01*
X14977501Y-11893917D02*
X14958454Y-11884393D01*
X14958454Y-11884393D02*
X14948930Y-11865346D01*
X14948930Y-11865346D02*
X14948930Y-11855822D01*
X14948930Y-11855822D02*
X14958454Y-11836774D01*
X14958454Y-11836774D02*
X14977501Y-11827250D01*
X14977501Y-11827250D02*
X15006073Y-11827250D01*
X15006073Y-11827250D02*
X15025120Y-11836774D01*
X15101311Y-12036774D02*
X15110835Y-12027250D01*
X15110835Y-12027250D02*
X15129882Y-11998679D01*
X15129882Y-11998679D02*
X15139406Y-11979631D01*
X15139406Y-11979631D02*
X15148930Y-11951060D01*
X15148930Y-11951060D02*
X15158454Y-11903441D01*
X15158454Y-11903441D02*
X15158454Y-11865346D01*
X15158454Y-11865346D02*
X15148930Y-11817727D01*
X15148930Y-11817727D02*
X15139406Y-11789155D01*
X15139406Y-11789155D02*
X15129882Y-11770108D01*
X15129882Y-11770108D02*
X15110835Y-11741536D01*
X15110835Y-11741536D02*
X15101311Y-11732012D01*
D10*
X8667200Y-12093100D02*
X8667200Y-12173100D01*
X8627200Y-12133100D02*
X8707200Y-12133100D01*
D11*
X9006072Y-12024584D02*
X9025120Y-12024584D01*
X9025120Y-12024584D02*
X9044167Y-12034108D01*
X9044167Y-12034108D02*
X9053691Y-12043631D01*
X9053691Y-12043631D02*
X9063215Y-12062679D01*
X9063215Y-12062679D02*
X9072739Y-12100774D01*
X9072739Y-12100774D02*
X9072739Y-12148393D01*
X9072739Y-12148393D02*
X9063215Y-12186488D01*
X9063215Y-12186488D02*
X9053691Y-12205536D01*
X9053691Y-12205536D02*
X9044167Y-12215060D01*
X9044167Y-12215060D02*
X9025120Y-12224584D01*
X9025120Y-12224584D02*
X9006072Y-12224584D01*
X9006072Y-12224584D02*
X8987024Y-12215060D01*
X8987024Y-12215060D02*
X8977501Y-12205536D01*
X8977501Y-12205536D02*
X8967977Y-12186488D01*
X8967977Y-12186488D02*
X8958453Y-12148393D01*
X8958453Y-12148393D02*
X8958453Y-12100774D01*
X8958453Y-12100774D02*
X8967977Y-12062679D01*
X8967977Y-12062679D02*
X8977501Y-12043631D01*
X8977501Y-12043631D02*
X8987024Y-12034108D01*
X8987024Y-12034108D02*
X9006072Y-12024584D01*
X9158453Y-12205536D02*
X9167977Y-12215060D01*
X9167977Y-12215060D02*
X9158453Y-12224584D01*
X9158453Y-12224584D02*
X9148929Y-12215060D01*
X9148929Y-12215060D02*
X9158453Y-12205536D01*
X9158453Y-12205536D02*
X9158453Y-12224584D01*
X9282263Y-12110298D02*
X9263215Y-12100774D01*
X9263215Y-12100774D02*
X9253691Y-12091250D01*
X9253691Y-12091250D02*
X9244167Y-12072203D01*
X9244167Y-12072203D02*
X9244167Y-12062679D01*
X9244167Y-12062679D02*
X9253691Y-12043631D01*
X9253691Y-12043631D02*
X9263215Y-12034108D01*
X9263215Y-12034108D02*
X9282263Y-12024584D01*
X9282263Y-12024584D02*
X9320358Y-12024584D01*
X9320358Y-12024584D02*
X9339405Y-12034108D01*
X9339405Y-12034108D02*
X9348929Y-12043631D01*
X9348929Y-12043631D02*
X9358453Y-12062679D01*
X9358453Y-12062679D02*
X9358453Y-12072203D01*
X9358453Y-12072203D02*
X9348929Y-12091250D01*
X9348929Y-12091250D02*
X9339405Y-12100774D01*
X9339405Y-12100774D02*
X9320358Y-12110298D01*
X9320358Y-12110298D02*
X9282263Y-12110298D01*
X9282263Y-12110298D02*
X9263215Y-12119822D01*
X9263215Y-12119822D02*
X9253691Y-12129346D01*
X9253691Y-12129346D02*
X9244167Y-12148393D01*
X9244167Y-12148393D02*
X9244167Y-12186488D01*
X9244167Y-12186488D02*
X9253691Y-12205536D01*
X9253691Y-12205536D02*
X9263215Y-12215060D01*
X9263215Y-12215060D02*
X9282263Y-12224584D01*
X9282263Y-12224584D02*
X9320358Y-12224584D01*
X9320358Y-12224584D02*
X9339405Y-12215060D01*
X9339405Y-12215060D02*
X9348929Y-12205536D01*
X9348929Y-12205536D02*
X9358453Y-12186488D01*
X9358453Y-12186488D02*
X9358453Y-12148393D01*
X9358453Y-12148393D02*
X9348929Y-12129346D01*
X9348929Y-12129346D02*
X9339405Y-12119822D01*
X9339405Y-12119822D02*
X9320358Y-12110298D01*
X9482263Y-12024584D02*
X9501310Y-12024584D01*
X9501310Y-12024584D02*
X9520358Y-12034108D01*
X9520358Y-12034108D02*
X9529882Y-12043631D01*
X9529882Y-12043631D02*
X9539405Y-12062679D01*
X9539405Y-12062679D02*
X9548929Y-12100774D01*
X9548929Y-12100774D02*
X9548929Y-12148393D01*
X9548929Y-12148393D02*
X9539405Y-12186488D01*
X9539405Y-12186488D02*
X9529882Y-12205536D01*
X9529882Y-12205536D02*
X9520358Y-12215060D01*
X9520358Y-12215060D02*
X9501310Y-12224584D01*
X9501310Y-12224584D02*
X9482263Y-12224584D01*
X9482263Y-12224584D02*
X9463215Y-12215060D01*
X9463215Y-12215060D02*
X9453691Y-12205536D01*
X9453691Y-12205536D02*
X9444167Y-12186488D01*
X9444167Y-12186488D02*
X9434644Y-12148393D01*
X9434644Y-12148393D02*
X9434644Y-12100774D01*
X9434644Y-12100774D02*
X9444167Y-12062679D01*
X9444167Y-12062679D02*
X9453691Y-12043631D01*
X9453691Y-12043631D02*
X9463215Y-12034108D01*
X9463215Y-12034108D02*
X9482263Y-12024584D01*
X9672739Y-12024584D02*
X9691786Y-12024584D01*
X9691786Y-12024584D02*
X9710834Y-12034108D01*
X9710834Y-12034108D02*
X9720358Y-12043631D01*
X9720358Y-12043631D02*
X9729882Y-12062679D01*
X9729882Y-12062679D02*
X9739405Y-12100774D01*
X9739405Y-12100774D02*
X9739405Y-12148393D01*
X9739405Y-12148393D02*
X9729882Y-12186488D01*
X9729882Y-12186488D02*
X9720358Y-12205536D01*
X9720358Y-12205536D02*
X9710834Y-12215060D01*
X9710834Y-12215060D02*
X9691786Y-12224584D01*
X9691786Y-12224584D02*
X9672739Y-12224584D01*
X9672739Y-12224584D02*
X9653691Y-12215060D01*
X9653691Y-12215060D02*
X9644167Y-12205536D01*
X9644167Y-12205536D02*
X9634644Y-12186488D01*
X9634644Y-12186488D02*
X9625120Y-12148393D01*
X9625120Y-12148393D02*
X9625120Y-12100774D01*
X9625120Y-12100774D02*
X9634644Y-12062679D01*
X9634644Y-12062679D02*
X9644167Y-12043631D01*
X9644167Y-12043631D02*
X9653691Y-12034108D01*
X9653691Y-12034108D02*
X9672739Y-12024584D01*
X9825120Y-12224584D02*
X9825120Y-12091250D01*
X9825120Y-12110298D02*
X9834644Y-12100774D01*
X9834644Y-12100774D02*
X9853691Y-12091250D01*
X9853691Y-12091250D02*
X9882263Y-12091250D01*
X9882263Y-12091250D02*
X9901310Y-12100774D01*
X9901310Y-12100774D02*
X9910834Y-12119822D01*
X9910834Y-12119822D02*
X9910834Y-12224584D01*
X9910834Y-12119822D02*
X9920358Y-12100774D01*
X9920358Y-12100774D02*
X9939405Y-12091250D01*
X9939405Y-12091250D02*
X9967977Y-12091250D01*
X9967977Y-12091250D02*
X9987025Y-12100774D01*
X9987025Y-12100774D02*
X9996548Y-12119822D01*
X9996548Y-12119822D02*
X9996548Y-12224584D01*
X10091786Y-12224584D02*
X10091786Y-12091250D01*
X10091786Y-12110298D02*
X10101310Y-12100774D01*
X10101310Y-12100774D02*
X10120358Y-12091250D01*
X10120358Y-12091250D02*
X10148929Y-12091250D01*
X10148929Y-12091250D02*
X10167977Y-12100774D01*
X10167977Y-12100774D02*
X10177501Y-12119822D01*
X10177501Y-12119822D02*
X10177501Y-12224584D01*
X10177501Y-12119822D02*
X10187025Y-12100774D01*
X10187025Y-12100774D02*
X10206072Y-12091250D01*
X10206072Y-12091250D02*
X10234644Y-12091250D01*
X10234644Y-12091250D02*
X10253691Y-12100774D01*
X10253691Y-12100774D02*
X10263215Y-12119822D01*
X10263215Y-12119822D02*
X10263215Y-12224584D01*
X10653691Y-12015060D02*
X10482263Y-12272203D01*
X10910834Y-12024584D02*
X10929882Y-12024584D01*
X10929882Y-12024584D02*
X10948929Y-12034108D01*
X10948929Y-12034108D02*
X10958453Y-12043631D01*
X10958453Y-12043631D02*
X10967977Y-12062679D01*
X10967977Y-12062679D02*
X10977501Y-12100774D01*
X10977501Y-12100774D02*
X10977501Y-12148393D01*
X10977501Y-12148393D02*
X10967977Y-12186488D01*
X10967977Y-12186488D02*
X10958453Y-12205536D01*
X10958453Y-12205536D02*
X10948929Y-12215060D01*
X10948929Y-12215060D02*
X10929882Y-12224584D01*
X10929882Y-12224584D02*
X10910834Y-12224584D01*
X10910834Y-12224584D02*
X10891787Y-12215060D01*
X10891787Y-12215060D02*
X10882263Y-12205536D01*
X10882263Y-12205536D02*
X10872739Y-12186488D01*
X10872739Y-12186488D02*
X10863215Y-12148393D01*
X10863215Y-12148393D02*
X10863215Y-12100774D01*
X10863215Y-12100774D02*
X10872739Y-12062679D01*
X10872739Y-12062679D02*
X10882263Y-12043631D01*
X10882263Y-12043631D02*
X10891787Y-12034108D01*
X10891787Y-12034108D02*
X10910834Y-12024584D01*
X11063215Y-12205536D02*
X11072739Y-12215060D01*
X11072739Y-12215060D02*
X11063215Y-12224584D01*
X11063215Y-12224584D02*
X11053691Y-12215060D01*
X11053691Y-12215060D02*
X11063215Y-12205536D01*
X11063215Y-12205536D02*
X11063215Y-12224584D01*
X11196548Y-12024584D02*
X11215596Y-12024584D01*
X11215596Y-12024584D02*
X11234644Y-12034108D01*
X11234644Y-12034108D02*
X11244167Y-12043631D01*
X11244167Y-12043631D02*
X11253691Y-12062679D01*
X11253691Y-12062679D02*
X11263215Y-12100774D01*
X11263215Y-12100774D02*
X11263215Y-12148393D01*
X11263215Y-12148393D02*
X11253691Y-12186488D01*
X11253691Y-12186488D02*
X11244167Y-12205536D01*
X11244167Y-12205536D02*
X11234644Y-12215060D01*
X11234644Y-12215060D02*
X11215596Y-12224584D01*
X11215596Y-12224584D02*
X11196548Y-12224584D01*
X11196548Y-12224584D02*
X11177501Y-12215060D01*
X11177501Y-12215060D02*
X11167977Y-12205536D01*
X11167977Y-12205536D02*
X11158453Y-12186488D01*
X11158453Y-12186488D02*
X11148929Y-12148393D01*
X11148929Y-12148393D02*
X11148929Y-12100774D01*
X11148929Y-12100774D02*
X11158453Y-12062679D01*
X11158453Y-12062679D02*
X11167977Y-12043631D01*
X11167977Y-12043631D02*
X11177501Y-12034108D01*
X11177501Y-12034108D02*
X11196548Y-12024584D01*
X11329882Y-12024584D02*
X11453691Y-12024584D01*
X11453691Y-12024584D02*
X11387025Y-12100774D01*
X11387025Y-12100774D02*
X11415596Y-12100774D01*
X11415596Y-12100774D02*
X11434644Y-12110298D01*
X11434644Y-12110298D02*
X11444167Y-12119822D01*
X11444167Y-12119822D02*
X11453691Y-12138869D01*
X11453691Y-12138869D02*
X11453691Y-12186488D01*
X11453691Y-12186488D02*
X11444167Y-12205536D01*
X11444167Y-12205536D02*
X11434644Y-12215060D01*
X11434644Y-12215060D02*
X11415596Y-12224584D01*
X11415596Y-12224584D02*
X11358453Y-12224584D01*
X11358453Y-12224584D02*
X11339406Y-12215060D01*
X11339406Y-12215060D02*
X11329882Y-12205536D01*
X11644167Y-12224584D02*
X11529882Y-12224584D01*
X11587025Y-12224584D02*
X11587025Y-12024584D01*
X11587025Y-12024584D02*
X11567977Y-12053155D01*
X11567977Y-12053155D02*
X11548929Y-12072203D01*
X11548929Y-12072203D02*
X11529882Y-12081727D01*
X11825120Y-12024584D02*
X11729882Y-12024584D01*
X11729882Y-12024584D02*
X11720358Y-12119822D01*
X11720358Y-12119822D02*
X11729882Y-12110298D01*
X11729882Y-12110298D02*
X11748929Y-12100774D01*
X11748929Y-12100774D02*
X11796548Y-12100774D01*
X11796548Y-12100774D02*
X11815596Y-12110298D01*
X11815596Y-12110298D02*
X11825120Y-12119822D01*
X11825120Y-12119822D02*
X11834644Y-12138869D01*
X11834644Y-12138869D02*
X11834644Y-12186488D01*
X11834644Y-12186488D02*
X11825120Y-12205536D01*
X11825120Y-12205536D02*
X11815596Y-12215060D01*
X11815596Y-12215060D02*
X11796548Y-12224584D01*
X11796548Y-12224584D02*
X11748929Y-12224584D01*
X11748929Y-12224584D02*
X11729882Y-12215060D01*
X11729882Y-12215060D02*
X11720358Y-12205536D01*
X11910834Y-12024584D02*
X11910834Y-12062679D01*
X11987025Y-12024584D02*
X11987025Y-12062679D01*
X12282263Y-12300774D02*
X12272739Y-12291250D01*
X12272739Y-12291250D02*
X12253691Y-12262679D01*
X12253691Y-12262679D02*
X12244168Y-12243631D01*
X12244168Y-12243631D02*
X12234644Y-12215060D01*
X12234644Y-12215060D02*
X12225120Y-12167441D01*
X12225120Y-12167441D02*
X12225120Y-12129346D01*
X12225120Y-12129346D02*
X12234644Y-12081727D01*
X12234644Y-12081727D02*
X12244168Y-12053155D01*
X12244168Y-12053155D02*
X12253691Y-12034108D01*
X12253691Y-12034108D02*
X12272739Y-12005536D01*
X12272739Y-12005536D02*
X12282263Y-11996012D01*
X12348929Y-12043631D02*
X12358453Y-12034108D01*
X12358453Y-12034108D02*
X12377501Y-12024584D01*
X12377501Y-12024584D02*
X12425120Y-12024584D01*
X12425120Y-12024584D02*
X12444168Y-12034108D01*
X12444168Y-12034108D02*
X12453691Y-12043631D01*
X12453691Y-12043631D02*
X12463215Y-12062679D01*
X12463215Y-12062679D02*
X12463215Y-12081727D01*
X12463215Y-12081727D02*
X12453691Y-12110298D01*
X12453691Y-12110298D02*
X12339406Y-12224584D01*
X12339406Y-12224584D02*
X12463215Y-12224584D01*
X12701310Y-12224584D02*
X12701310Y-12024584D01*
X12787025Y-12224584D02*
X12787025Y-12119822D01*
X12787025Y-12119822D02*
X12777501Y-12100774D01*
X12777501Y-12100774D02*
X12758453Y-12091250D01*
X12758453Y-12091250D02*
X12729882Y-12091250D01*
X12729882Y-12091250D02*
X12710834Y-12100774D01*
X12710834Y-12100774D02*
X12701310Y-12110298D01*
X12910834Y-12224584D02*
X12891787Y-12215060D01*
X12891787Y-12215060D02*
X12882263Y-12205536D01*
X12882263Y-12205536D02*
X12872739Y-12186488D01*
X12872739Y-12186488D02*
X12872739Y-12129346D01*
X12872739Y-12129346D02*
X12882263Y-12110298D01*
X12882263Y-12110298D02*
X12891787Y-12100774D01*
X12891787Y-12100774D02*
X12910834Y-12091250D01*
X12910834Y-12091250D02*
X12939406Y-12091250D01*
X12939406Y-12091250D02*
X12958453Y-12100774D01*
X12958453Y-12100774D02*
X12967977Y-12110298D01*
X12967977Y-12110298D02*
X12977501Y-12129346D01*
X12977501Y-12129346D02*
X12977501Y-12186488D01*
X12977501Y-12186488D02*
X12967977Y-12205536D01*
X12967977Y-12205536D02*
X12958453Y-12215060D01*
X12958453Y-12215060D02*
X12939406Y-12224584D01*
X12939406Y-12224584D02*
X12910834Y-12224584D01*
X13091787Y-12224584D02*
X13072739Y-12215060D01*
X13072739Y-12215060D02*
X13063215Y-12196012D01*
X13063215Y-12196012D02*
X13063215Y-12024584D01*
X13244168Y-12215060D02*
X13225120Y-12224584D01*
X13225120Y-12224584D02*
X13187025Y-12224584D01*
X13187025Y-12224584D02*
X13167977Y-12215060D01*
X13167977Y-12215060D02*
X13158453Y-12196012D01*
X13158453Y-12196012D02*
X13158453Y-12119822D01*
X13158453Y-12119822D02*
X13167977Y-12100774D01*
X13167977Y-12100774D02*
X13187025Y-12091250D01*
X13187025Y-12091250D02*
X13225120Y-12091250D01*
X13225120Y-12091250D02*
X13244168Y-12100774D01*
X13244168Y-12100774D02*
X13253691Y-12119822D01*
X13253691Y-12119822D02*
X13253691Y-12138869D01*
X13253691Y-12138869D02*
X13158453Y-12157917D01*
X13329882Y-12215060D02*
X13348930Y-12224584D01*
X13348930Y-12224584D02*
X13387025Y-12224584D01*
X13387025Y-12224584D02*
X13406072Y-12215060D01*
X13406072Y-12215060D02*
X13415596Y-12196012D01*
X13415596Y-12196012D02*
X13415596Y-12186488D01*
X13415596Y-12186488D02*
X13406072Y-12167441D01*
X13406072Y-12167441D02*
X13387025Y-12157917D01*
X13387025Y-12157917D02*
X13358453Y-12157917D01*
X13358453Y-12157917D02*
X13339406Y-12148393D01*
X13339406Y-12148393D02*
X13329882Y-12129346D01*
X13329882Y-12129346D02*
X13329882Y-12119822D01*
X13329882Y-12119822D02*
X13339406Y-12100774D01*
X13339406Y-12100774D02*
X13358453Y-12091250D01*
X13358453Y-12091250D02*
X13387025Y-12091250D01*
X13387025Y-12091250D02*
X13406072Y-12100774D01*
X13482263Y-12300774D02*
X13491787Y-12291250D01*
X13491787Y-12291250D02*
X13510834Y-12262679D01*
X13510834Y-12262679D02*
X13520358Y-12243631D01*
X13520358Y-12243631D02*
X13529882Y-12215060D01*
X13529882Y-12215060D02*
X13539406Y-12167441D01*
X13539406Y-12167441D02*
X13539406Y-12129346D01*
X13539406Y-12129346D02*
X13529882Y-12081727D01*
X13529882Y-12081727D02*
X13520358Y-12053155D01*
X13520358Y-12053155D02*
X13510834Y-12034108D01*
X13510834Y-12034108D02*
X13491787Y-12005536D01*
X13491787Y-12005536D02*
X13482263Y-11996012D01*
D10*
X8692556Y-12432456D02*
X8692556Y-12361744D01*
X8621844Y-12361744D01*
X8621844Y-12432456D01*
X8692556Y-12432456D01*
D11*
X9072739Y-12488584D02*
X8958453Y-12488584D01*
X9015596Y-12488584D02*
X9015596Y-12288584D01*
X9015596Y-12288584D02*
X8996548Y-12317155D01*
X8996548Y-12317155D02*
X8977501Y-12336203D01*
X8977501Y-12336203D02*
X8958453Y-12345727D01*
X9158453Y-12469536D02*
X9167977Y-12479060D01*
X9167977Y-12479060D02*
X9158453Y-12488584D01*
X9158453Y-12488584D02*
X9148929Y-12479060D01*
X9148929Y-12479060D02*
X9158453Y-12469536D01*
X9158453Y-12469536D02*
X9158453Y-12488584D01*
X9291786Y-12288584D02*
X9310834Y-12288584D01*
X9310834Y-12288584D02*
X9329882Y-12298108D01*
X9329882Y-12298108D02*
X9339405Y-12307631D01*
X9339405Y-12307631D02*
X9348929Y-12326679D01*
X9348929Y-12326679D02*
X9358453Y-12364774D01*
X9358453Y-12364774D02*
X9358453Y-12412393D01*
X9358453Y-12412393D02*
X9348929Y-12450488D01*
X9348929Y-12450488D02*
X9339405Y-12469536D01*
X9339405Y-12469536D02*
X9329882Y-12479060D01*
X9329882Y-12479060D02*
X9310834Y-12488584D01*
X9310834Y-12488584D02*
X9291786Y-12488584D01*
X9291786Y-12488584D02*
X9272739Y-12479060D01*
X9272739Y-12479060D02*
X9263215Y-12469536D01*
X9263215Y-12469536D02*
X9253691Y-12450488D01*
X9253691Y-12450488D02*
X9244167Y-12412393D01*
X9244167Y-12412393D02*
X9244167Y-12364774D01*
X9244167Y-12364774D02*
X9253691Y-12326679D01*
X9253691Y-12326679D02*
X9263215Y-12307631D01*
X9263215Y-12307631D02*
X9272739Y-12298108D01*
X9272739Y-12298108D02*
X9291786Y-12288584D01*
X9482263Y-12288584D02*
X9501310Y-12288584D01*
X9501310Y-12288584D02*
X9520358Y-12298108D01*
X9520358Y-12298108D02*
X9529882Y-12307631D01*
X9529882Y-12307631D02*
X9539405Y-12326679D01*
X9539405Y-12326679D02*
X9548929Y-12364774D01*
X9548929Y-12364774D02*
X9548929Y-12412393D01*
X9548929Y-12412393D02*
X9539405Y-12450488D01*
X9539405Y-12450488D02*
X9529882Y-12469536D01*
X9529882Y-12469536D02*
X9520358Y-12479060D01*
X9520358Y-12479060D02*
X9501310Y-12488584D01*
X9501310Y-12488584D02*
X9482263Y-12488584D01*
X9482263Y-12488584D02*
X9463215Y-12479060D01*
X9463215Y-12479060D02*
X9453691Y-12469536D01*
X9453691Y-12469536D02*
X9444167Y-12450488D01*
X9444167Y-12450488D02*
X9434644Y-12412393D01*
X9434644Y-12412393D02*
X9434644Y-12364774D01*
X9434644Y-12364774D02*
X9444167Y-12326679D01*
X9444167Y-12326679D02*
X9453691Y-12307631D01*
X9453691Y-12307631D02*
X9463215Y-12298108D01*
X9463215Y-12298108D02*
X9482263Y-12288584D01*
X9672739Y-12288584D02*
X9691786Y-12288584D01*
X9691786Y-12288584D02*
X9710834Y-12298108D01*
X9710834Y-12298108D02*
X9720358Y-12307631D01*
X9720358Y-12307631D02*
X9729882Y-12326679D01*
X9729882Y-12326679D02*
X9739405Y-12364774D01*
X9739405Y-12364774D02*
X9739405Y-12412393D01*
X9739405Y-12412393D02*
X9729882Y-12450488D01*
X9729882Y-12450488D02*
X9720358Y-12469536D01*
X9720358Y-12469536D02*
X9710834Y-12479060D01*
X9710834Y-12479060D02*
X9691786Y-12488584D01*
X9691786Y-12488584D02*
X9672739Y-12488584D01*
X9672739Y-12488584D02*
X9653691Y-12479060D01*
X9653691Y-12479060D02*
X9644167Y-12469536D01*
X9644167Y-12469536D02*
X9634644Y-12450488D01*
X9634644Y-12450488D02*
X9625120Y-12412393D01*
X9625120Y-12412393D02*
X9625120Y-12364774D01*
X9625120Y-12364774D02*
X9634644Y-12326679D01*
X9634644Y-12326679D02*
X9644167Y-12307631D01*
X9644167Y-12307631D02*
X9653691Y-12298108D01*
X9653691Y-12298108D02*
X9672739Y-12288584D01*
X9825120Y-12488584D02*
X9825120Y-12355250D01*
X9825120Y-12374298D02*
X9834644Y-12364774D01*
X9834644Y-12364774D02*
X9853691Y-12355250D01*
X9853691Y-12355250D02*
X9882263Y-12355250D01*
X9882263Y-12355250D02*
X9901310Y-12364774D01*
X9901310Y-12364774D02*
X9910834Y-12383822D01*
X9910834Y-12383822D02*
X9910834Y-12488584D01*
X9910834Y-12383822D02*
X9920358Y-12364774D01*
X9920358Y-12364774D02*
X9939405Y-12355250D01*
X9939405Y-12355250D02*
X9967977Y-12355250D01*
X9967977Y-12355250D02*
X9987025Y-12364774D01*
X9987025Y-12364774D02*
X9996548Y-12383822D01*
X9996548Y-12383822D02*
X9996548Y-12488584D01*
X10091786Y-12488584D02*
X10091786Y-12355250D01*
X10091786Y-12374298D02*
X10101310Y-12364774D01*
X10101310Y-12364774D02*
X10120358Y-12355250D01*
X10120358Y-12355250D02*
X10148929Y-12355250D01*
X10148929Y-12355250D02*
X10167977Y-12364774D01*
X10167977Y-12364774D02*
X10177501Y-12383822D01*
X10177501Y-12383822D02*
X10177501Y-12488584D01*
X10177501Y-12383822D02*
X10187025Y-12364774D01*
X10187025Y-12364774D02*
X10206072Y-12355250D01*
X10206072Y-12355250D02*
X10234644Y-12355250D01*
X10234644Y-12355250D02*
X10253691Y-12364774D01*
X10253691Y-12364774D02*
X10263215Y-12383822D01*
X10263215Y-12383822D02*
X10263215Y-12488584D01*
X10653691Y-12279060D02*
X10482263Y-12536203D01*
X10910834Y-12288584D02*
X10929882Y-12288584D01*
X10929882Y-12288584D02*
X10948929Y-12298108D01*
X10948929Y-12298108D02*
X10958453Y-12307631D01*
X10958453Y-12307631D02*
X10967977Y-12326679D01*
X10967977Y-12326679D02*
X10977501Y-12364774D01*
X10977501Y-12364774D02*
X10977501Y-12412393D01*
X10977501Y-12412393D02*
X10967977Y-12450488D01*
X10967977Y-12450488D02*
X10958453Y-12469536D01*
X10958453Y-12469536D02*
X10948929Y-12479060D01*
X10948929Y-12479060D02*
X10929882Y-12488584D01*
X10929882Y-12488584D02*
X10910834Y-12488584D01*
X10910834Y-12488584D02*
X10891787Y-12479060D01*
X10891787Y-12479060D02*
X10882263Y-12469536D01*
X10882263Y-12469536D02*
X10872739Y-12450488D01*
X10872739Y-12450488D02*
X10863215Y-12412393D01*
X10863215Y-12412393D02*
X10863215Y-12364774D01*
X10863215Y-12364774D02*
X10872739Y-12326679D01*
X10872739Y-12326679D02*
X10882263Y-12307631D01*
X10882263Y-12307631D02*
X10891787Y-12298108D01*
X10891787Y-12298108D02*
X10910834Y-12288584D01*
X11063215Y-12469536D02*
X11072739Y-12479060D01*
X11072739Y-12479060D02*
X11063215Y-12488584D01*
X11063215Y-12488584D02*
X11053691Y-12479060D01*
X11053691Y-12479060D02*
X11063215Y-12469536D01*
X11063215Y-12469536D02*
X11063215Y-12488584D01*
X11196548Y-12288584D02*
X11215596Y-12288584D01*
X11215596Y-12288584D02*
X11234644Y-12298108D01*
X11234644Y-12298108D02*
X11244167Y-12307631D01*
X11244167Y-12307631D02*
X11253691Y-12326679D01*
X11253691Y-12326679D02*
X11263215Y-12364774D01*
X11263215Y-12364774D02*
X11263215Y-12412393D01*
X11263215Y-12412393D02*
X11253691Y-12450488D01*
X11253691Y-12450488D02*
X11244167Y-12469536D01*
X11244167Y-12469536D02*
X11234644Y-12479060D01*
X11234644Y-12479060D02*
X11215596Y-12488584D01*
X11215596Y-12488584D02*
X11196548Y-12488584D01*
X11196548Y-12488584D02*
X11177501Y-12479060D01*
X11177501Y-12479060D02*
X11167977Y-12469536D01*
X11167977Y-12469536D02*
X11158453Y-12450488D01*
X11158453Y-12450488D02*
X11148929Y-12412393D01*
X11148929Y-12412393D02*
X11148929Y-12364774D01*
X11148929Y-12364774D02*
X11158453Y-12326679D01*
X11158453Y-12326679D02*
X11167977Y-12307631D01*
X11167977Y-12307631D02*
X11177501Y-12298108D01*
X11177501Y-12298108D02*
X11196548Y-12288584D01*
X11329882Y-12288584D02*
X11453691Y-12288584D01*
X11453691Y-12288584D02*
X11387025Y-12364774D01*
X11387025Y-12364774D02*
X11415596Y-12364774D01*
X11415596Y-12364774D02*
X11434644Y-12374298D01*
X11434644Y-12374298D02*
X11444167Y-12383822D01*
X11444167Y-12383822D02*
X11453691Y-12402869D01*
X11453691Y-12402869D02*
X11453691Y-12450488D01*
X11453691Y-12450488D02*
X11444167Y-12469536D01*
X11444167Y-12469536D02*
X11434644Y-12479060D01*
X11434644Y-12479060D02*
X11415596Y-12488584D01*
X11415596Y-12488584D02*
X11358453Y-12488584D01*
X11358453Y-12488584D02*
X11339406Y-12479060D01*
X11339406Y-12479060D02*
X11329882Y-12469536D01*
X11548929Y-12488584D02*
X11587025Y-12488584D01*
X11587025Y-12488584D02*
X11606072Y-12479060D01*
X11606072Y-12479060D02*
X11615596Y-12469536D01*
X11615596Y-12469536D02*
X11634644Y-12440965D01*
X11634644Y-12440965D02*
X11644167Y-12402869D01*
X11644167Y-12402869D02*
X11644167Y-12326679D01*
X11644167Y-12326679D02*
X11634644Y-12307631D01*
X11634644Y-12307631D02*
X11625120Y-12298108D01*
X11625120Y-12298108D02*
X11606072Y-12288584D01*
X11606072Y-12288584D02*
X11567977Y-12288584D01*
X11567977Y-12288584D02*
X11548929Y-12298108D01*
X11548929Y-12298108D02*
X11539406Y-12307631D01*
X11539406Y-12307631D02*
X11529882Y-12326679D01*
X11529882Y-12326679D02*
X11529882Y-12374298D01*
X11529882Y-12374298D02*
X11539406Y-12393346D01*
X11539406Y-12393346D02*
X11548929Y-12402869D01*
X11548929Y-12402869D02*
X11567977Y-12412393D01*
X11567977Y-12412393D02*
X11606072Y-12412393D01*
X11606072Y-12412393D02*
X11625120Y-12402869D01*
X11625120Y-12402869D02*
X11634644Y-12393346D01*
X11634644Y-12393346D02*
X11644167Y-12374298D01*
X11815596Y-12355250D02*
X11815596Y-12488584D01*
X11767977Y-12279060D02*
X11720358Y-12421917D01*
X11720358Y-12421917D02*
X11844167Y-12421917D01*
X11910834Y-12288584D02*
X11910834Y-12326679D01*
X11987025Y-12288584D02*
X11987025Y-12326679D01*
X12282263Y-12564774D02*
X12272739Y-12555250D01*
X12272739Y-12555250D02*
X12253691Y-12526679D01*
X12253691Y-12526679D02*
X12244168Y-12507631D01*
X12244168Y-12507631D02*
X12234644Y-12479060D01*
X12234644Y-12479060D02*
X12225120Y-12431441D01*
X12225120Y-12431441D02*
X12225120Y-12393346D01*
X12225120Y-12393346D02*
X12234644Y-12345727D01*
X12234644Y-12345727D02*
X12244168Y-12317155D01*
X12244168Y-12317155D02*
X12253691Y-12298108D01*
X12253691Y-12298108D02*
X12272739Y-12269536D01*
X12272739Y-12269536D02*
X12282263Y-12260012D01*
X12339406Y-12288584D02*
X12472739Y-12288584D01*
X12472739Y-12288584D02*
X12387025Y-12488584D01*
X12634644Y-12355250D02*
X12634644Y-12488584D01*
X12587025Y-12279060D02*
X12539406Y-12421917D01*
X12539406Y-12421917D02*
X12663215Y-12421917D01*
X12891787Y-12488584D02*
X12891787Y-12288584D01*
X12977501Y-12488584D02*
X12977501Y-12383822D01*
X12977501Y-12383822D02*
X12967977Y-12364774D01*
X12967977Y-12364774D02*
X12948930Y-12355250D01*
X12948930Y-12355250D02*
X12920358Y-12355250D01*
X12920358Y-12355250D02*
X12901310Y-12364774D01*
X12901310Y-12364774D02*
X12891787Y-12374298D01*
X13101310Y-12488584D02*
X13082263Y-12479060D01*
X13082263Y-12479060D02*
X13072739Y-12469536D01*
X13072739Y-12469536D02*
X13063215Y-12450488D01*
X13063215Y-12450488D02*
X13063215Y-12393346D01*
X13063215Y-12393346D02*
X13072739Y-12374298D01*
X13072739Y-12374298D02*
X13082263Y-12364774D01*
X13082263Y-12364774D02*
X13101310Y-12355250D01*
X13101310Y-12355250D02*
X13129882Y-12355250D01*
X13129882Y-12355250D02*
X13148930Y-12364774D01*
X13148930Y-12364774D02*
X13158453Y-12374298D01*
X13158453Y-12374298D02*
X13167977Y-12393346D01*
X13167977Y-12393346D02*
X13167977Y-12450488D01*
X13167977Y-12450488D02*
X13158453Y-12469536D01*
X13158453Y-12469536D02*
X13148930Y-12479060D01*
X13148930Y-12479060D02*
X13129882Y-12488584D01*
X13129882Y-12488584D02*
X13101310Y-12488584D01*
X13282263Y-12488584D02*
X13263215Y-12479060D01*
X13263215Y-12479060D02*
X13253691Y-12460012D01*
X13253691Y-12460012D02*
X13253691Y-12288584D01*
X13434644Y-12479060D02*
X13415596Y-12488584D01*
X13415596Y-12488584D02*
X13377501Y-12488584D01*
X13377501Y-12488584D02*
X13358453Y-12479060D01*
X13358453Y-12479060D02*
X13348930Y-12460012D01*
X13348930Y-12460012D02*
X13348930Y-12383822D01*
X13348930Y-12383822D02*
X13358453Y-12364774D01*
X13358453Y-12364774D02*
X13377501Y-12355250D01*
X13377501Y-12355250D02*
X13415596Y-12355250D01*
X13415596Y-12355250D02*
X13434644Y-12364774D01*
X13434644Y-12364774D02*
X13444168Y-12383822D01*
X13444168Y-12383822D02*
X13444168Y-12402869D01*
X13444168Y-12402869D02*
X13348930Y-12421917D01*
X13520358Y-12479060D02*
X13539406Y-12488584D01*
X13539406Y-12488584D02*
X13577501Y-12488584D01*
X13577501Y-12488584D02*
X13596549Y-12479060D01*
X13596549Y-12479060D02*
X13606072Y-12460012D01*
X13606072Y-12460012D02*
X13606072Y-12450488D01*
X13606072Y-12450488D02*
X13596549Y-12431441D01*
X13596549Y-12431441D02*
X13577501Y-12421917D01*
X13577501Y-12421917D02*
X13548930Y-12421917D01*
X13548930Y-12421917D02*
X13529882Y-12412393D01*
X13529882Y-12412393D02*
X13520358Y-12393346D01*
X13520358Y-12393346D02*
X13520358Y-12383822D01*
X13520358Y-12383822D02*
X13529882Y-12364774D01*
X13529882Y-12364774D02*
X13548930Y-12355250D01*
X13548930Y-12355250D02*
X13577501Y-12355250D01*
X13577501Y-12355250D02*
X13596549Y-12364774D01*
X13672739Y-12564774D02*
X13682263Y-12555250D01*
X13682263Y-12555250D02*
X13701311Y-12526679D01*
X13701311Y-12526679D02*
X13710834Y-12507631D01*
X13710834Y-12507631D02*
X13720358Y-12479060D01*
X13720358Y-12479060D02*
X13729882Y-12431441D01*
X13729882Y-12431441D02*
X13729882Y-12393346D01*
X13729882Y-12393346D02*
X13720358Y-12345727D01*
X13720358Y-12345727D02*
X13710834Y-12317155D01*
X13710834Y-12317155D02*
X13701311Y-12298108D01*
X13701311Y-12298108D02*
X13682263Y-12269536D01*
X13682263Y-12269536D02*
X13672739Y-12260012D01*
M02*
