G04 #@! TF.GenerationSoftware,KiCad,Pcbnew,9.0.7*
G04 #@! TF.CreationDate,2026-03-29T12:04:23+05:00*
G04 #@! TF.ProjectId,STM32-Dumper,53544d33-322d-4447-956d-7065722e6b69,rev?*
G04 #@! TF.SameCoordinates,Original*
G04 #@! TF.FileFunction,Profile,NP*
%FSLAX46Y46*%
G04 Gerber Fmt 4.6, Leading zero omitted, Abs format (unit mm)*
G04 Created by KiCad (PCBNEW 9.0.7) date 2026-03-29 12:04:23*
%MOMM*%
%LPD*%
G01*
G04 APERTURE LIST*
G04 #@! TA.AperFunction,Profile*
%ADD10C,0.100000*%
G04 #@! TD*
G04 APERTURE END LIST*
D10*
X92566809Y-40959957D02*
X93458088Y-41822312D01*
X163719191Y-108646043D02*
X162827912Y-107783688D01*
X92566809Y-108646043D02*
X93458088Y-107783688D01*
X167513000Y-43180000D02*
G75*
G02*
X164465000Y-43180000I-1524000J0D01*
G01*
X164465000Y-43180000D02*
G75*
G02*
X167513000Y-43180000I1524000J0D01*
G01*
X87122000Y-106426000D02*
X87122000Y-43180000D01*
X94589600Y-42291000D02*
X161696400Y-42291000D01*
X165989000Y-109601000D02*
G75*
G02*
X163719191Y-108646043I0J3175000D01*
G01*
X90297000Y-109601000D02*
G75*
G02*
X87122000Y-106426000I0J3175000D01*
G01*
X91821000Y-106426000D02*
G75*
G02*
X88773000Y-106426000I-1524000J0D01*
G01*
X88773000Y-106426000D02*
G75*
G02*
X91821000Y-106426000I1524000J0D01*
G01*
X92566809Y-108646043D02*
G75*
G02*
X90297000Y-109601000I-2269809J2220043D01*
G01*
X163719191Y-40959957D02*
G75*
G02*
X165989000Y-40005000I2269809J-2220043D01*
G01*
X169164000Y-43180000D02*
X169164000Y-106426000D01*
X87122000Y-43180000D02*
G75*
G02*
X90297000Y-40005000I3175000J0D01*
G01*
X161696400Y-107315000D02*
X94589600Y-107315000D01*
X161696400Y-107315000D02*
G75*
G02*
X162827912Y-107783688I0J-1600200D01*
G01*
X167513000Y-106426000D02*
G75*
G02*
X164465000Y-106426000I-1524000J0D01*
G01*
X164465000Y-106426000D02*
G75*
G02*
X167513000Y-106426000I1524000J0D01*
G01*
X93458088Y-107783688D02*
G75*
G02*
X94589600Y-107315000I1131512J-1131512D01*
G01*
X90297000Y-40005000D02*
G75*
G02*
X92566809Y-40959957I0J-3175000D01*
G01*
X169164000Y-106426000D02*
G75*
G02*
X165989000Y-109601000I-3175000J0D01*
G01*
X162827912Y-41822312D02*
G75*
G02*
X161696400Y-42291000I-1131512J1131512D01*
G01*
X165989000Y-40005000D02*
G75*
G02*
X169164000Y-43180000I0J-3175000D01*
G01*
X91821000Y-43180000D02*
G75*
G02*
X88773000Y-43180000I-1524000J0D01*
G01*
X88773000Y-43180000D02*
G75*
G02*
X91821000Y-43180000I1524000J0D01*
G01*
X94589600Y-42291000D02*
G75*
G02*
X93458088Y-41822312I0J1600200D01*
G01*
X163719191Y-40959957D02*
X162827912Y-41822312D01*
M02*
