G04 #@! TF.GenerationSoftware,KiCad,Pcbnew,9.0.7*
G04 #@! TF.CreationDate,2026-03-29T12:04:23+05:00*
G04 #@! TF.ProjectId,STM32-Dumper,53544d33-322d-4447-956d-7065722e6b69,rev?*
G04 #@! TF.SameCoordinates,Original*
G04 #@! TF.FileFunction,Paste,Top*
G04 #@! TF.FilePolarity,Positive*
%FSLAX46Y46*%
G04 Gerber Fmt 4.6, Leading zero omitted, Abs format (unit mm)*
G04 Created by KiCad (PCBNEW 9.0.7) date 2026-03-29 12:04:23*
%MOMM*%
%LPD*%
G01*
G04 APERTURE LIST*
G04 Aperture macros list*
%AMRoundRect*
0 Rectangle with rounded corners*
0 $1 Rounding radius*
0 $2 $3 $4 $5 $6 $7 $8 $9 X,Y pos of 4 corners*
0 Add a 4 corners polygon primitive as box body*
4,1,4,$2,$3,$4,$5,$6,$7,$8,$9,$2,$3,0*
0 Add four circle primitives for the rounded corners*
1,1,$1+$1,$2,$3*
1,1,$1+$1,$4,$5*
1,1,$1+$1,$6,$7*
1,1,$1+$1,$8,$9*
0 Add four rect primitives between the rounded corners*
20,1,$1+$1,$2,$3,$4,$5,0*
20,1,$1+$1,$4,$5,$6,$7,0*
20,1,$1+$1,$6,$7,$8,$9,0*
20,1,$1+$1,$8,$9,$2,$3,0*%
G04 Aperture macros list end*
%ADD10RoundRect,0.237500X0.300000X0.237500X-0.300000X0.237500X-0.300000X-0.237500X0.300000X-0.237500X0*%
%ADD11RoundRect,0.250000X0.450000X-0.262500X0.450000X0.262500X-0.450000X0.262500X-0.450000X-0.262500X0*%
%ADD12RoundRect,0.250000X0.475000X-0.250000X0.475000X0.250000X-0.475000X0.250000X-0.475000X-0.250000X0*%
%ADD13RoundRect,0.237500X-0.237500X0.300000X-0.237500X-0.300000X0.237500X-0.300000X0.237500X0.300000X0*%
%ADD14RoundRect,0.237500X-0.300000X-0.237500X0.300000X-0.237500X0.300000X0.237500X-0.300000X0.237500X0*%
%ADD15RoundRect,0.237500X0.237500X-0.300000X0.237500X0.300000X-0.237500X0.300000X-0.237500X-0.300000X0*%
%ADD16RoundRect,0.250000X-0.250000X-0.475000X0.250000X-0.475000X0.250000X0.475000X-0.250000X0.475000X0*%
%ADD17RoundRect,0.137500X-0.137500X0.600000X-0.137500X-0.600000X0.137500X-0.600000X0.137500X0.600000X0*%
%ADD18RoundRect,0.137500X-0.600000X0.137500X-0.600000X-0.137500X0.600000X-0.137500X0.600000X0.137500X0*%
%ADD19RoundRect,0.375000X0.625000X0.375000X-0.625000X0.375000X-0.625000X-0.375000X0.625000X-0.375000X0*%
%ADD20RoundRect,0.500000X0.500000X1.400000X-0.500000X1.400000X-0.500000X-1.400000X0.500000X-1.400000X0*%
%ADD21RoundRect,0.100000X0.100000X-0.637500X0.100000X0.637500X-0.100000X0.637500X-0.100000X-0.637500X0*%
%ADD22RoundRect,0.243750X0.456250X-0.243750X0.456250X0.243750X-0.456250X0.243750X-0.456250X-0.243750X0*%
%ADD23RoundRect,0.250000X0.262500X0.450000X-0.262500X0.450000X-0.262500X-0.450000X0.262500X-0.450000X0*%
%ADD24RoundRect,0.160000X-0.160000X0.197500X-0.160000X-0.197500X0.160000X-0.197500X0.160000X0.197500X0*%
%ADD25RoundRect,0.250000X-0.450000X0.262500X-0.450000X-0.262500X0.450000X-0.262500X0.450000X0.262500X0*%
%ADD26RoundRect,0.243750X-0.456250X0.243750X-0.456250X-0.243750X0.456250X-0.243750X0.456250X0.243750X0*%
%ADD27R,1.160000X0.600000*%
%ADD28R,1.160000X0.300000*%
%ADD29RoundRect,0.090000X-0.660000X-0.360000X0.660000X-0.360000X0.660000X0.360000X-0.660000X0.360000X0*%
%ADD30RoundRect,0.250000X-0.475000X0.250000X-0.475000X-0.250000X0.475000X-0.250000X0.475000X0.250000X0*%
%ADD31RoundRect,0.075000X-0.662500X-0.075000X0.662500X-0.075000X0.662500X0.075000X-0.662500X0.075000X0*%
%ADD32RoundRect,0.075000X-0.075000X-0.662500X0.075000X-0.662500X0.075000X0.662500X-0.075000X0.662500X0*%
%ADD33RoundRect,0.250000X0.450000X0.350000X-0.450000X0.350000X-0.450000X-0.350000X0.450000X-0.350000X0*%
G04 APERTURE END LIST*
D10*
X144626500Y-100330000D03*
X142901500Y-100330000D03*
D11*
X90678000Y-83843500D03*
X90678000Y-82018500D03*
D12*
X114935000Y-89977000D03*
X114935000Y-88077000D03*
D13*
X92329000Y-90704500D03*
X92329000Y-92429500D03*
X143510000Y-70130500D03*
X143510000Y-71855500D03*
D14*
X110389500Y-88900000D03*
X112114500Y-88900000D03*
D15*
X88900000Y-60679500D03*
X88900000Y-58954500D03*
X157226000Y-60679500D03*
X157226000Y-58954500D03*
D16*
X160721000Y-90043000D03*
X162621000Y-90043000D03*
D17*
X105346000Y-85102500D03*
X104546000Y-85102500D03*
X103746000Y-85102500D03*
X102946000Y-85102500D03*
X102146000Y-85102500D03*
X101346000Y-85102500D03*
X100546000Y-85102500D03*
X99746000Y-85102500D03*
X98946000Y-85102500D03*
X98146000Y-85102500D03*
X97346000Y-85102500D03*
D18*
X95683500Y-86765000D03*
X95683500Y-87565000D03*
X95683500Y-88365000D03*
X95683500Y-89165000D03*
X95683500Y-89965000D03*
X95683500Y-90765000D03*
X95683500Y-91565000D03*
X95683500Y-92365000D03*
X95683500Y-93165000D03*
X95683500Y-93965000D03*
X95683500Y-94765000D03*
D17*
X97346000Y-96427500D03*
X98146000Y-96427500D03*
X98946000Y-96427500D03*
X99746000Y-96427500D03*
X100546000Y-96427500D03*
X101346000Y-96427500D03*
X102146000Y-96427500D03*
X102946000Y-96427500D03*
X103746000Y-96427500D03*
X104546000Y-96427500D03*
X105346000Y-96427500D03*
D18*
X107008500Y-94765000D03*
X107008500Y-93965000D03*
X107008500Y-93165000D03*
X107008500Y-92365000D03*
X107008500Y-91565000D03*
X107008500Y-90765000D03*
X107008500Y-89965000D03*
X107008500Y-89165000D03*
X107008500Y-88365000D03*
X107008500Y-87565000D03*
X107008500Y-86765000D03*
D13*
X88900000Y-70130500D03*
X88900000Y-71855500D03*
D19*
X162535000Y-98058000D03*
X162535000Y-95758000D03*
D20*
X156235000Y-95758000D03*
D19*
X162535000Y-93458000D03*
D21*
X158731000Y-68267500D03*
X159381000Y-68267500D03*
X160031000Y-68267500D03*
X160681000Y-68267500D03*
X161331000Y-68267500D03*
X161981000Y-68267500D03*
X162631000Y-68267500D03*
X163281000Y-68267500D03*
X163931000Y-68267500D03*
X164581000Y-68267500D03*
X165231000Y-68267500D03*
X165881000Y-68267500D03*
X165881000Y-62542500D03*
X165231000Y-62542500D03*
X164581000Y-62542500D03*
X163931000Y-62542500D03*
X163281000Y-62542500D03*
X162631000Y-62542500D03*
X161981000Y-62542500D03*
X161331000Y-62542500D03*
X160681000Y-62542500D03*
X160031000Y-62542500D03*
X159381000Y-62542500D03*
X158731000Y-62542500D03*
D22*
X90678000Y-102029500D03*
X90678000Y-100154500D03*
D23*
X156487500Y-75819000D03*
X154662500Y-75819000D03*
D15*
X143510000Y-60679500D03*
X143510000Y-58954500D03*
D13*
X102489000Y-70130500D03*
X102489000Y-71855500D03*
D14*
X98578500Y-81748000D03*
X100303500Y-81748000D03*
D21*
X117710000Y-68267500D03*
X118360000Y-68267500D03*
X119010000Y-68267500D03*
X119660000Y-68267500D03*
X120310000Y-68267500D03*
X120960000Y-68267500D03*
X121610000Y-68267500D03*
X122260000Y-68267500D03*
X122910000Y-68267500D03*
X123560000Y-68267500D03*
X124210000Y-68267500D03*
X124860000Y-68267500D03*
X124860000Y-62542500D03*
X124210000Y-62542500D03*
X123560000Y-62542500D03*
X122910000Y-62542500D03*
X122260000Y-62542500D03*
X121610000Y-62542500D03*
X120960000Y-62542500D03*
X120310000Y-62542500D03*
X119660000Y-62542500D03*
X119010000Y-62542500D03*
X118360000Y-62542500D03*
X117710000Y-62542500D03*
D24*
X133985000Y-64807500D03*
X133985000Y-66002500D03*
D22*
X93091000Y-102029500D03*
X93091000Y-100154500D03*
D25*
X90678000Y-96242500D03*
X90678000Y-98067500D03*
D10*
X134085500Y-100330000D03*
X132360500Y-100330000D03*
D26*
X90678000Y-78056500D03*
X90678000Y-79931500D03*
D13*
X129794000Y-70130500D03*
X129794000Y-71855500D03*
D24*
X132842000Y-64807500D03*
X132842000Y-66002500D03*
D23*
X156487500Y-80391000D03*
X154662500Y-80391000D03*
D10*
X124306500Y-93472000D03*
X122581500Y-93472000D03*
D21*
X131299000Y-68267500D03*
X131949000Y-68267500D03*
X132599000Y-68267500D03*
X133249000Y-68267500D03*
X133899000Y-68267500D03*
X134549000Y-68267500D03*
X135199000Y-68267500D03*
X135849000Y-68267500D03*
X136499000Y-68267500D03*
X137149000Y-68267500D03*
X137799000Y-68267500D03*
X138449000Y-68267500D03*
X138449000Y-62542500D03*
X137799000Y-62542500D03*
X137149000Y-62542500D03*
X136499000Y-62542500D03*
X135849000Y-62542500D03*
X135199000Y-62542500D03*
X134549000Y-62542500D03*
X133899000Y-62542500D03*
X133249000Y-62542500D03*
X132599000Y-62542500D03*
X131949000Y-62542500D03*
X131299000Y-62542500D03*
D26*
X93091000Y-78056500D03*
X93091000Y-79931500D03*
D15*
X116205000Y-60679500D03*
X116205000Y-58954500D03*
X152273000Y-88644900D03*
X152273000Y-86919900D03*
D27*
X162255000Y-85214000D03*
X162255000Y-84414000D03*
D28*
X162255000Y-83264000D03*
X162255000Y-82264000D03*
X162255000Y-81764000D03*
X162255000Y-80764000D03*
D27*
X162255000Y-79614000D03*
X162255000Y-78814000D03*
X162255000Y-78814000D03*
X162255000Y-79614000D03*
D28*
X162255000Y-80264000D03*
X162255000Y-81264000D03*
X162255000Y-82764000D03*
X162255000Y-83764000D03*
D27*
X162255000Y-84414000D03*
X162255000Y-85214000D03*
D21*
X145015000Y-68267500D03*
X145665000Y-68267500D03*
X146315000Y-68267500D03*
X146965000Y-68267500D03*
X147615000Y-68267500D03*
X148265000Y-68267500D03*
X148915000Y-68267500D03*
X149565000Y-68267500D03*
X150215000Y-68267500D03*
X150865000Y-68267500D03*
X151515000Y-68267500D03*
X152165000Y-68267500D03*
X152165000Y-62542500D03*
X151515000Y-62542500D03*
X150865000Y-62542500D03*
X150215000Y-62542500D03*
X149565000Y-62542500D03*
X148915000Y-62542500D03*
X148265000Y-62542500D03*
X147615000Y-62542500D03*
X146965000Y-62542500D03*
X146315000Y-62542500D03*
X145665000Y-62542500D03*
X145015000Y-62542500D03*
D15*
X129794000Y-60679500D03*
X129794000Y-58954500D03*
X102489000Y-60679500D03*
X102489000Y-58954500D03*
D10*
X102716500Y-99822000D03*
X100991500Y-99822000D03*
D11*
X93091000Y-83843500D03*
X93091000Y-82018500D03*
D13*
X157226000Y-70130500D03*
X157226000Y-71855500D03*
D29*
X119724000Y-101220000D03*
X119724000Y-104520000D03*
X124624000Y-104520000D03*
X124624000Y-101220000D03*
D13*
X116205000Y-70130500D03*
X116205000Y-71855500D03*
D30*
X114935000Y-84267000D03*
X114935000Y-86167000D03*
D31*
X127635000Y-77677000D03*
X127635000Y-78177000D03*
X127635000Y-78677000D03*
X127635000Y-79177000D03*
X127635000Y-79677000D03*
X127635000Y-80177000D03*
X127635000Y-80677000D03*
X127635000Y-81177000D03*
X127635000Y-81677000D03*
X127635000Y-82177000D03*
X127635000Y-82677000D03*
X127635000Y-83177000D03*
X127635000Y-83677000D03*
X127635000Y-84177000D03*
X127635000Y-84677000D03*
X127635000Y-85177000D03*
X127635000Y-85677000D03*
X127635000Y-86177000D03*
X127635000Y-86677000D03*
X127635000Y-87177000D03*
X127635000Y-87677000D03*
X127635000Y-88177000D03*
X127635000Y-88677000D03*
X127635000Y-89177000D03*
X127635000Y-89677000D03*
X127635000Y-90177000D03*
X127635000Y-90677000D03*
X127635000Y-91177000D03*
X127635000Y-91677000D03*
X127635000Y-92177000D03*
X127635000Y-92677000D03*
X127635000Y-93177000D03*
X127635000Y-93677000D03*
X127635000Y-94177000D03*
X127635000Y-94677000D03*
X127635000Y-95177000D03*
D32*
X129547500Y-97089500D03*
X130047500Y-97089500D03*
X130547500Y-97089500D03*
X131047500Y-97089500D03*
X131547500Y-97089500D03*
X132047500Y-97089500D03*
X132547500Y-97089500D03*
X133047500Y-97089500D03*
X133547500Y-97089500D03*
X134047500Y-97089500D03*
X134547500Y-97089500D03*
X135047500Y-97089500D03*
X135547500Y-97089500D03*
X136047500Y-97089500D03*
X136547500Y-97089500D03*
X137047500Y-97089500D03*
X137547500Y-97089500D03*
X138047500Y-97089500D03*
X138547500Y-97089500D03*
X139047500Y-97089500D03*
X139547500Y-97089500D03*
X140047500Y-97089500D03*
X140547500Y-97089500D03*
X141047500Y-97089500D03*
X141547500Y-97089500D03*
X142047500Y-97089500D03*
X142547500Y-97089500D03*
X143047500Y-97089500D03*
X143547500Y-97089500D03*
X144047500Y-97089500D03*
X144547500Y-97089500D03*
X145047500Y-97089500D03*
X145547500Y-97089500D03*
X146047500Y-97089500D03*
X146547500Y-97089500D03*
X147047500Y-97089500D03*
D31*
X148960000Y-95177000D03*
X148960000Y-94677000D03*
X148960000Y-94177000D03*
X148960000Y-93677000D03*
X148960000Y-93177000D03*
X148960000Y-92677000D03*
X148960000Y-92177000D03*
X148960000Y-91677000D03*
X148960000Y-91177000D03*
X148960000Y-90677000D03*
X148960000Y-90177000D03*
X148960000Y-89677000D03*
X148960000Y-89177000D03*
X148960000Y-88677000D03*
X148960000Y-88177000D03*
X148960000Y-87677000D03*
X148960000Y-87177000D03*
X148960000Y-86677000D03*
X148960000Y-86177000D03*
X148960000Y-85677000D03*
X148960000Y-85177000D03*
X148960000Y-84677000D03*
X148960000Y-84177000D03*
X148960000Y-83677000D03*
X148960000Y-83177000D03*
X148960000Y-82677000D03*
X148960000Y-82177000D03*
X148960000Y-81677000D03*
X148960000Y-81177000D03*
X148960000Y-80677000D03*
X148960000Y-80177000D03*
X148960000Y-79677000D03*
X148960000Y-79177000D03*
X148960000Y-78677000D03*
X148960000Y-78177000D03*
X148960000Y-77677000D03*
D32*
X147047500Y-75764500D03*
X146547500Y-75764500D03*
X146047500Y-75764500D03*
X145547500Y-75764500D03*
X145047500Y-75764500D03*
X144547500Y-75764500D03*
X144047500Y-75764500D03*
X143547500Y-75764500D03*
X143047500Y-75764500D03*
X142547500Y-75764500D03*
X142047500Y-75764500D03*
X141547500Y-75764500D03*
X141047500Y-75764500D03*
X140547500Y-75764500D03*
X140047500Y-75764500D03*
X139547500Y-75764500D03*
X139047500Y-75764500D03*
X138547500Y-75764500D03*
X138047500Y-75764500D03*
X137547500Y-75764500D03*
X137047500Y-75764500D03*
X136547500Y-75764500D03*
X136047500Y-75764500D03*
X135547500Y-75764500D03*
X135047500Y-75764500D03*
X134547500Y-75764500D03*
X134047500Y-75764500D03*
X133547500Y-75764500D03*
X133047500Y-75764500D03*
X132547500Y-75764500D03*
X132047500Y-75764500D03*
X131547500Y-75764500D03*
X131047500Y-75764500D03*
X130547500Y-75764500D03*
X130047500Y-75764500D03*
X129547500Y-75764500D03*
D33*
X122639000Y-86399000D03*
X120439000Y-86399000D03*
X120439000Y-88099000D03*
X122639000Y-88099000D03*
D16*
X160848000Y-101473000D03*
X162748000Y-101473000D03*
D11*
X127762000Y-103782500D03*
X127762000Y-101957500D03*
D15*
X152273000Y-77824500D03*
X152273000Y-76099500D03*
D21*
X104013000Y-68267500D03*
X104663000Y-68267500D03*
X105313000Y-68267500D03*
X105963000Y-68267500D03*
X106613000Y-68267500D03*
X107263000Y-68267500D03*
X107913000Y-68267500D03*
X108563000Y-68267500D03*
X109213000Y-68267500D03*
X109863000Y-68267500D03*
X110513000Y-68267500D03*
X111163000Y-68267500D03*
X111163000Y-62542500D03*
X110513000Y-62542500D03*
X109863000Y-62542500D03*
X109213000Y-62542500D03*
X108563000Y-62542500D03*
X107913000Y-62542500D03*
X107263000Y-62542500D03*
X106613000Y-62542500D03*
X105963000Y-62542500D03*
X105313000Y-62542500D03*
X104663000Y-62542500D03*
X104013000Y-62542500D03*
D14*
X137821500Y-72390000D03*
X139546500Y-72390000D03*
D23*
X156487500Y-82677000D03*
X154662500Y-82677000D03*
X156487500Y-78105000D03*
X154662500Y-78105000D03*
D21*
X90386000Y-68267500D03*
X91036000Y-68267500D03*
X91686000Y-68267500D03*
X92336000Y-68267500D03*
X92986000Y-68267500D03*
X93636000Y-68267500D03*
X94286000Y-68267500D03*
X94936000Y-68267500D03*
X95586000Y-68267500D03*
X96236000Y-68267500D03*
X96886000Y-68267500D03*
X97536000Y-68267500D03*
X97536000Y-62542500D03*
X96886000Y-62542500D03*
X96236000Y-62542500D03*
X95586000Y-62542500D03*
X94936000Y-62542500D03*
X94286000Y-62542500D03*
X93636000Y-62542500D03*
X92986000Y-62542500D03*
X92336000Y-62542500D03*
X91686000Y-62542500D03*
X91036000Y-62542500D03*
X90386000Y-62542500D03*
D23*
X156487500Y-84963000D03*
X154662500Y-84963000D03*
D25*
X93091000Y-96242500D03*
X93091000Y-98067500D03*
M02*
